<svg width="25" height="25" viewBox="0 0 25 25" fill="none" xmlns="http://www.w3.org/2000/svg">
<mask id="mask0" mask-type="alpha" maskUnits="userSpaceOnUse" x="1" y="1" width="23" height="23">
<rect x="1" y="1" width="23" height="23" fill="white"/>
</mask>
<g mask="url(#mask0)">
<path fill-rule="evenodd" clip-rule="evenodd" d="M12.9166 2.50934C8.62027 2.60637 8.13331 5.74551 9.04972 9.36621C8.90597 9.46324 8.61308 9.80824 8.6616 10.3868C8.80535 11.4488 9.24019 11.7381 9.48097 11.7381C9.578 12.4622 9.91941 13.2241 10.2572 13.7075C10.498 14.0453 10.5878 14.4801 10.5878 14.915C10.5878 15.3013 10.5932 15.0551 10.5447 15.49C10.4962 15.6301 10.4279 15.7577 10.3435 15.8781C10.4423 16.25 11.0119 18.02 12.9597 18.02C14.9543 18.02 15.4897 16.1099 15.5472 15.8781C15.4574 15.7595 15.3855 15.6301 15.3316 15.49C15.2831 14.9599 15.2741 15.2061 15.2741 14.7712C15.2741 14.3849 15.425 14.0543 15.6191 13.765C15.9569 13.2816 16.2839 12.4622 16.381 11.7381C16.6721 11.7381 17.1033 11.4488 17.2003 10.3868C17.2489 9.80824 17.0207 9.46324 16.8266 9.36621C17.31 8.01496 18.2192 3.82106 15.1303 3.38621C14.7925 2.80762 13.9785 2.50934 12.9166 2.50934ZM16.3092 16.525C15.9229 17.5528 14.9004 18.94 12.9598 18.94C11.0174 18.94 9.99857 17.5779 9.59607 16.5393C7.6842 17.7163 3.78857 18.0775 3.78857 22.16H22.1311C22.1311 17.9732 18.2534 17.6857 16.3092 16.525Z" fill="#A2A2A2"/>
</g>
</svg>
