<svg width="25" height="26" viewBox="0 0 25 26" fill="none" xmlns="http://www.w3.org/2000/svg">
<path d="M12.8455 10.3684L15.7273 13.1958C15.7273 13.1511 15.7273 13.0974 15.7273 13.0526C15.7273 12.3407 15.4399 11.658 14.9285 11.1546C14.417 10.6512 13.7233 10.3684 13 10.3684C12.9455 10.3684 12.9 10.3684 12.8455 10.3684ZM8.93636 11.0842L10.3455 12.4711C10.3 12.6589 10.2727 12.8468 10.2727 13.0526C10.2727 13.7645 10.5601 14.4473 11.0715 14.9507C11.583 15.454 12.2767 15.7368 13 15.7368C13.2 15.7368 13.4 15.71 13.5909 15.6653L15 17.0521C14.3909 17.3474 13.7182 17.5263 13 17.5263C11.7945 17.5263 10.6383 17.055 9.78588 16.216C8.93344 15.377 8.45455 14.2391 8.45455 13.0526C8.45455 12.3458 8.63636 11.6837 8.93636 11.0842ZM3.90909 6.13632L5.98182 8.17632L6.39091 8.57895C4.89091 9.74211 3.70909 11.2632 3 13.0526C4.57273 16.9805 8.45455 19.7632 13 19.7632C14.4091 19.7632 15.7545 19.4947 16.9818 19.0116L17.3727 19.3874L20.0273 22L21.1818 20.8637L5.06364 5L3.90909 6.13632ZM13 8.57895C14.2055 8.57895 15.3617 9.05028 16.2141 9.88926C17.0666 10.7282 17.5455 11.8661 17.5455 13.0526C17.5455 13.6253 17.4273 14.18 17.2182 14.6811L19.8818 17.3026C21.2455 16.1842 22.3364 14.7168 23 13.0526C21.4273 9.12474 17.5455 6.34211 13 6.34211C11.7273 6.34211 10.5091 6.56579 9.36364 6.96842L11.3364 8.89211C11.8545 8.69526 12.4091 8.57895 13 8.57895Z" fill="#A2A2A2"/>
</svg>
