<svg width="340" height="173" viewBox="0 0 340 173" fill="none" xmlns="http://www.w3.org/2000/svg">
<path opacity="0.5" d="M336.753 88.2064C245.967 106.058 258.002 60.1168 205.414 50.4036C176.373 45.1533 176.373 74.2929 180.297 80.3308C187.885 92.4067 199.135 102.382 213.263 105.008L213.001 106.32C198.612 103.958 185.007 95.5569 176.634 83.2185C173.233 78.4932 171.402 72.1927 171.663 66.1548C171.663 63.0046 170.617 60.1168 168.262 58.2792C163.291 54.6039 157.535 51.7162 151.256 50.1411C150.995 22.3141 128.494 0 100.761 0C73.0284 0 50.5281 22.5766 50.2665 50.4036C50.5281 50.9287 56.8073 54.8665 58.3771 60.6419C59.9469 66.6798 58.3771 72.7178 57.5922 78.7557C57.8538 72.7178 56.5457 66.6798 53.9293 61.1669C51.5747 56.4416 47.1269 53.5539 41.8943 53.0288C36.6617 52.5038 30.9058 52.7663 25.1499 54.8665C11.8067 59.5918 1.86469 71.6677 0.294897 85.5812C-2.58305 109.208 15.9928 128.897 39.0163 128.109C40.0629 122.334 41.8943 118.134 45.5571 114.721C50.2665 110.258 58.3771 109.208 64.6562 110.258C58.3771 109.733 52.3595 113.408 48.1734 117.871C42.4176 124.171 35.0919 152.261 67.2725 154.099C72.7668 154.361 77.7378 152.524 82.1855 149.636C84.2786 162.762 95.5287 173 109.134 173C118.291 173 126.401 168.275 131.372 161.187C130.849 160.399 120.122 153.574 118.552 138.085C116.459 118.659 132.68 111.046 138.175 108.158C132.942 111.308 128.756 116.558 126.663 122.071C124.57 127.847 124.308 134.147 125.355 140.185C126.663 146.223 128.756 151.998 132.157 156.986C132.68 158.036 133.465 158.824 134.25 159.612C139.221 162.237 144.977 163.549 150.995 163.549C161.198 163.549 170.355 159.612 177.158 153.049C178.204 153.311 178.989 153.311 180.036 153.311C189.193 153.836 197.565 150.161 203.583 144.123C214.833 132.572 228.961 124.434 244.92 121.546C304.572 111.833 353.236 85.0561 336.753 88.2064ZM134.512 61.9545C127.971 58.8042 120.384 58.5417 113.843 60.3794C107.302 62.217 101.808 66.9423 98.4067 72.9803C95.0055 79.0182 94.2206 86.1062 96.5753 92.6692C98.6683 99.2322 103.378 105.008 109.918 108.158V108.42C102.854 106.583 93.174 101.332 90.2961 94.2443C88.7263 90.8316 88.2031 86.8938 88.4647 82.956C88.7263 79.0182 90.0345 75.3429 91.8659 71.9302C95.5287 65.1047 102.07 59.8543 109.657 58.5417C116.983 56.4416 128.756 57.7542 134.512 61.9545Z" fill="url(#paint0_linear)" fill-opacity="0.8"/>
<defs>
<linearGradient id="paint0_linear" x1="170" y1="0" x2="170" y2="173" gradientUnits="userSpaceOnUse">
<stop stop-color="#FFFDF2"/>
<stop offset="1" stop-color="#FFD500"/>
</linearGradient>
</defs>
</svg>
