<svg width="204" height="337" viewBox="0 0 204 337" fill="none" xmlns="http://www.w3.org/2000/svg">
<path d="M32.9997 285.807C98.7814 285.807 152.108 233.308 152.108 168.549C152.108 103.789 98.7814 51.2904 32.9997 51.2904C-32.782 51.2904 -86.1086 103.789 -86.1086 168.549C-86.1086 233.308 -32.782 285.807 32.9997 285.807Z" stroke="url(#paint0_linear)" stroke-opacity="0.8"/>
<path d="M143.782 168.549C143.782 108.185 94.0574 59.3852 33 59.3852C-28.0575 59.3852 -77.7823 108.185 -77.7823 168.549C-77.7823 228.912 -28.0575 277.712 33 277.712C94.0574 277.712 143.782 228.912 143.782 168.549Z" stroke="url(#paint1_linear)" stroke-opacity="0.8"/>
<path d="M107.009 143.339C96.3699 113.042 67.2289 91.3015 32.9997 91.3015C-10.2494 91.3015 -45.4037 125.762 -45.4037 168.548C-45.4037 170.63 -45.4037 172.712 -45.1724 175.024" stroke="url(#paint2_linear)" stroke-opacity="0.8"/>
<path d="M-41.2404 193.064C-30.8328 223.593 -1.46048 245.796 33 245.796C76.249 245.796 111.403 211.335 111.403 168.549C111.403 166.236 111.403 164.154 111.172 162.073" stroke="url(#paint3_linear)" stroke-opacity="0.8"/>
<path d="M114.41 161.841C114.641 163.923 114.641 166.004 114.641 168.317V168.548H131.756C131.756 168.548 132.449 176.412 130.599 184.738L118.11 183.582L118.804 175.949L125.511 176.181H125.742C125.048 186.126 122.736 195.145 119.035 203.934V204.165L127.824 207.403C130.137 202.778 131.293 197.69 131.293 197.69L111.403 192.37C109.553 198.383 107.009 203.471 104.002 208.791L118.804 217.348C118.804 217.348 115.335 224.518 109.553 230.762L99.3766 223.593L104.002 217.348L109.553 220.817L109.784 221.049C104.233 228.912 97.2951 235.85 89.6629 241.864L95.4449 249.033C99.8391 246.258 103.308 242.326 103.308 242.326L88.5065 227.524C83.8809 231.687 79.2554 235.157 73.7047 238.394L82.262 253.196C82.262 253.196 75.5549 257.822 67.4602 260.366L62.372 249.033L69.5417 245.795L72.7796 251.577V251.809C64.2223 255.74 54.7399 258.516 44.7949 259.903V260.135L46.1826 269.155C51.502 268.923 56.3588 267.304 56.3588 267.304L51.0394 247.414V247.183C45.2575 248.571 39.2442 249.265 32.9997 249.265C32.7684 249.265 32.7684 249.265 32.7684 249.265V266.379C32.7684 266.379 24.6737 267.073 16.3477 265.223L17.7353 252.965L25.5988 253.659L25.3675 260.135C15.4226 259.441 5.94015 256.897 -2.84843 253.196V253.428L-6.3176 261.985C-1.69204 264.298 3.39609 265.223 3.39609 265.223L8.94676 245.102H8.71549C2.70225 243.251 -2.61715 240.939 -7.93655 237.932L-16.7251 252.965C-16.7251 252.965 -24.126 249.496 -30.3705 243.945L-22.9696 234L-16.4939 238.626L-19.963 244.176C-28.0578 238.626 -34.9961 232.15 -40.7781 224.518L-41.0093 224.749L-48.4103 230.531C-45.6349 234.925 -41.7032 238.163 -41.7032 238.163L-26.9014 223.593C-31.0644 219.198 -34.7648 214.342 -37.7714 209.022L-53.0358 217.579C-53.0358 217.579 -57.6614 211.104 -60.2054 203.009L-48.6415 197.921L-45.4036 205.09L-51.1856 207.866V207.634C-53.4984 203.009 -55.1173 198.383 -56.505 193.295" stroke="url(#paint4_linear)" stroke-opacity="0.8"/>
<path d="M122.736 143.57C121.348 138.714 119.498 133.857 117.185 129.231L111.172 132.469L114.41 139.639L125.974 134.551C123.43 126.687 118.804 119.98 118.804 119.98L104.002 128.537C100.996 123.218 97.2953 118.361 92.901 113.967L107.472 99.6276C107.472 99.6276 111.403 102.865 114.179 107.26L106.778 113.042C100.764 105.41 93.8261 98.9338 85.7314 93.3831V93.6144L82.2622 99.165L88.738 103.791L96.1389 93.8456C89.8944 88.295 82.4935 84.8258 82.4935 84.8258L73.9361 99.6276C68.6167 96.621 63.0661 94.0769 57.0528 92.2267L62.3722 72.3368C62.3722 72.3368 67.4604 73.2619 72.0859 75.5747L68.6168 84.132C59.8282 80.4315 50.3458 78.1187 40.1695 77.4249V77.6562L39.9382 84.132L47.8017 84.8258L49.1894 72.568C40.8634 70.7178 32.7686 71.4116 32.7686 71.4116V88.5262C26.5241 88.5262 20.2796 89.2201 14.4976 90.6077V90.3765L9.17822 70.4865C9.17822 70.4865 14.0351 68.8676 19.3545 68.405L20.7421 77.4249V77.6562C10.7972 79.0438 1.54604 81.5879 -7.01126 85.7509L-3.77337 91.5329L3.39627 88.295L-1.69186 76.9623C-9.7866 79.5064 -16.4937 84.132 -16.4937 84.132L-7.70509 98.9338C-13.0245 101.94 -17.6501 105.641 -22.2756 109.804L-37.3087 95.002C-37.3087 95.002 -33.8395 91.0703 -29.4453 88.295L-23.6633 95.4646L-23.432 95.6959C-31.0642 101.478 -38.0025 108.416 -43.5532 116.511L-38.0026 119.749L-33.377 113.504L-43.5532 106.335C-49.3352 112.579 -52.8044 119.749 -52.8044 119.749L-37.7713 128.306C-40.7779 133.626 -43.322 139.176 -45.1722 144.958L-65.5247 139.407C-65.5247 139.407 -64.5996 134.319 -62.0555 129.694L-53.2669 133.163L-52.8044 133.394C-56.5048 142.183 -58.8176 151.434 -59.5114 161.148L-53.0356 161.379L-52.3418 153.747L-65.0621 152.359C-66.9123 160.454 -66.2185 168.549 -66.2185 168.549H-48.6414C-48.6414 170.63 -48.6414 172.712 -48.4101 174.562" stroke="url(#paint5_linear)" stroke-opacity="0.8"/>
<path d="M6.63422 137.557H-4.23586C2.93377 126.918 14.2664 125.068 14.2664 125.068V146.115H-25.5135C-17.1874 125.068 2.23994 109.804 25.8303 107.029V107.26V161.842H-40.084C-36.6148 125.068 -5.39225 96.3897 32.7687 96.3897C63.9912 96.3897 90.8195 115.586 101.227 142.877L101.458 143.571H135.456C124.355 98.0087 82.7248 64.2421 32.9999 64.2421C-16.7249 64.2421 -58.355 98.0087 -69.6876 143.339" stroke="url(#paint6_linear)" stroke-opacity="0.8"/>
<path d="M58.9032 137.557H69.7733C62.6037 126.919 51.271 125.068 51.271 125.068V146.115H90.8196C82.4936 125.068 63.0662 109.804 39.4758 107.029V107.26V161.842H138.463C138.463 161.842 139.388 179.419 135.225 193.295" stroke="url(#paint7_linear)" stroke-opacity="0.8"/>
<path d="M6.63377 199.54H-4.2363C2.93333 210.179 14.266 212.029 14.266 212.029V190.52H-25.0513C-16.7253 211.566 2.70204 226.831 26.2924 229.606V229.375V174.793H-72.926C-72.926 174.793 -73.8511 157.91 -69.6881 143.339" stroke="url(#paint8_linear)" stroke-opacity="0.8"/>
<path d="M58.9031 199.54H69.7732C62.6035 210.179 51.2709 212.029 51.2709 212.029V190.52H91.282C82.956 211.566 63.5286 226.831 39.9383 229.606V229.375V174.793H105.853C102.383 211.566 70.9296 240.245 32.7686 240.245C1.54606 240.245 -25.2822 221.049 -35.6898 193.758L-35.921 193.064H-69.9189C-58.5863 238.395 -16.9562 272.161 32.7686 272.161C82.4935 272.161 124.124 238.395 135.456 193.064" stroke="url(#paint9_linear)" stroke-opacity="0.8"/>
<path d="M88.0448 42.7331C75.0932 50.3653 67.461 41.5767 62.8354 35.5635C58.4411 29.7815 51.2715 23.3057 42.0204 26.3124C31.6129 29.5502 32.538 38.3388 33.9256 42.7331C36.701 51.2904 45.2583 51.5217 49.6526 48.7463C54.972 45.7397 55.4345 40.1891 53.1217 36.2573C49.8838 31.1692 43.8706 31.863 41.3265 35.3322C39.0138 38.5701 41.0953 42.0393 42.7142 43.1957C45.7208 45.0459 47.8023 43.1957 47.5711 43.4269C46.6459 45.0459 43.8706 45.5085 41.7891 44.8146C36.9323 42.9644 35.5446 35.5635 41.5578 31.863C45.9521 29.0877 51.7341 29.7815 57.2847 36.9512C75.5557 60.7728 88.0448 42.7331 88.0448 42.7331Z" stroke="url(#paint10_linear)" stroke-opacity="0.8"/>
<path d="M96.3702 68.405C89.2005 64.0107 85.2688 51.9842 88.5067 42.5018V42.2705C87.8129 42.0392 87.119 41.5767 86.4252 41.3454C79.2556 36.9511 76.9428 27.4687 81.3371 20.5303C85.7314 13.592 94.2887 11.2792 102.615 15.6735C108.859 18.9114 111.403 24.9246 110.478 30.0128C109.322 36.4886 103.54 39.9577 97.7578 36.4886C94.0574 34.1758 92.901 29.5502 95.2138 25.8498C96.6014 23.537 98.9142 22.3806 101.458 22.1493L101.227 21.918C97.7578 18.4488 90.5882 18.2176 87.5816 24.9246C83.1873 34.8696 95.9076 39.4952 95.9076 39.4952C93.1323 47.5899 92.901 57.0723 99.8393 61.9292L100.302 62.1604C107.934 66.0922 116.26 61.6979 122.505 55.6847C122.505 55.6847 132.681 64.9358 139.619 56.6098C144.476 50.8278 141.007 44.8146 136.15 43.1956H135.919C136.844 45.5084 136.844 48.0525 135.456 50.3653C133.143 54.0657 128.287 55.2221 124.586 52.9093C119.035 49.4401 119.729 42.7331 124.817 38.8013C128.98 35.5634 135.456 35.1009 141.238 39.2639C148.87 44.5833 150.721 53.1406 146.326 60.0789C141.932 67.2486 132.45 69.3301 125.049 64.9358C124.355 64.4732 123.892 64.0107 123.198 63.5481L122.967 63.7794C116.26 70.7177 103.54 72.7993 96.3702 68.405ZM96.3702 68.405C96.3702 68.405 96.6014 68.405 96.3702 68.405Z" stroke="url(#paint11_linear)" stroke-opacity="0.8"/>
<path d="M45.4889 21.2242C45.4889 21.2242 50.577 9.66033 64.2224 9.89161C77.4053 10.1229 81.1058 20.7617 81.1058 20.7617" stroke="url(#paint12_linear)" stroke-opacity="0.8"/>
<path d="M39.7068 15.4423C39.7068 15.4423 46.4138 0.640531 64.4536 1.10309C82.0307 1.33437 87.1188 14.9798 87.1188 14.9798" stroke="url(#paint13_linear)" stroke-opacity="0.8"/>
<path d="M-21.1191 42.7331C-8.16755 50.3653 -0.535366 41.5767 4.0902 35.5635C8.48449 29.7815 15.6541 23.3057 24.9052 26.3124C35.3128 29.5502 34.3877 38.3388 33 42.7331C30.2247 51.2904 21.6673 51.5217 17.2731 48.7463C11.9537 45.7397 11.4911 40.1891 13.8039 36.2573C17.0418 31.1692 23.055 31.863 25.5991 35.3322C27.9119 38.5701 25.8304 42.0393 24.2114 43.1957C21.2048 45.0459 19.1233 43.1957 19.3546 43.4269C20.2797 45.0459 23.055 45.5085 25.1365 44.8146C29.9934 42.9644 31.381 35.5635 25.3678 31.863C20.9735 29.0877 15.1916 29.7815 9.64088 36.9512C-8.39883 60.7728 -21.1191 42.7331 -21.1191 42.7331Z" stroke="url(#paint14_linear)" stroke-opacity="0.8"/>
<path d="M12.8787 27.4689C30.6871 17.9865 33.4624 1.79697 33.4624 1.79697C33.4624 1.79697 36.469 18.2177 54.0462 27.4689" stroke="url(#paint15_linear)" stroke-opacity="0.8"/>
<path d="M24.9049 26.3123C31.3807 21.6867 33.4622 16.5986 33.4622 16.5986C33.4622 16.5986 35.775 21.918 42.0195 26.3123" stroke="url(#paint16_linear)" stroke-opacity="0.8"/>
<path d="M21.4361 21.2242C21.4361 21.2242 16.348 9.66033 2.70254 9.89161C-10.4803 10.1229 -14.1808 20.7617 -14.1808 20.7617" stroke="url(#paint17_linear)" stroke-opacity="0.8"/>
<path d="M27.2184 15.4423C27.2184 15.4423 20.5114 0.640531 2.47167 1.10309C-15.1055 1.33437 -20.1936 14.9798 -20.1936 14.9798" stroke="url(#paint18_linear)" stroke-opacity="0.8"/>
<path d="M-22.0441 294.364C-9.09248 286.732 -1.4603 295.52 3.16527 301.533C7.55956 307.315 14.7292 313.791 23.9803 310.785C34.3878 307.547 33.4627 298.758 32.0751 294.364C29.2997 285.807 20.7424 285.575 16.3481 288.351C11.0287 291.357 10.5662 296.908 12.879 300.84C16.1169 305.928 22.1301 305.234 24.6742 301.765C26.9869 298.527 24.9054 295.058 23.2865 293.901C20.2799 292.051 18.1984 293.901 18.4296 293.67C19.3547 292.051 22.1301 291.589 24.2116 292.282C29.0684 294.133 30.4561 301.534 24.4429 305.234C20.0486 308.009 14.2666 307.315 8.71595 300.146C-9.55504 276.093 -22.0441 294.364 -22.0441 294.364Z" stroke="url(#paint19_linear)" stroke-opacity="0.8"/>
<path d="M20.5113 315.641C20.5113 315.641 15.4231 327.205 1.77773 326.974C-11.4051 326.743 -15.1056 316.104 -15.1056 316.104" stroke="url(#paint20_linear)" stroke-opacity="0.8"/>
<path d="M26.2933 321.655C26.2933 321.655 19.5862 336.457 1.5465 335.994C-16.0306 335.763 -21.1188 322.117 -21.1188 322.117" stroke="url(#paint21_linear)" stroke-opacity="0.8"/>
<path d="M87.1191 294.364C74.1675 286.732 66.5353 295.52 61.9098 301.533C57.5155 307.315 50.3459 313.791 41.0947 310.785C30.6872 307.547 31.6123 298.758 33 294.364C35.7753 285.807 44.3326 285.575 48.7269 288.351C54.0463 291.357 54.5089 296.908 52.1961 300.84C48.9582 305.928 42.9449 305.234 40.4009 301.765C38.0881 298.527 40.1696 295.058 41.7886 293.901C44.7952 292.051 46.8767 293.901 46.6454 293.67C45.7203 292.051 42.9449 291.589 40.8634 292.282C36.0066 294.133 34.6189 301.534 40.6322 305.234C45.0265 308.009 50.8084 307.315 56.3591 300.146C74.3988 276.093 87.1191 294.364 87.1191 294.364Z" stroke="url(#paint22_linear)" stroke-opacity="0.8"/>
<path d="M95.4451 268.461C95.4451 268.692 95.4451 268.692 95.4451 268.461C88.2755 272.855 84.3438 284.881 87.5816 294.364V294.595C86.8878 294.826 86.194 295.289 85.5001 295.52C78.3305 299.915 76.0177 309.397 80.412 316.335C84.8063 323.505 93.3636 325.586 101.69 321.192C107.934 317.954 110.478 311.941 109.553 306.853C108.397 300.377 102.615 296.908 96.8328 300.377C93.1323 302.69 91.9759 307.315 94.2887 311.016C95.6764 313.329 97.9892 314.485 100.533 314.716L100.302 314.948C96.8328 318.417 89.6632 318.648 86.6565 311.941C82.2622 301.996 94.9826 297.37 94.9826 297.37C92.2072 289.276 91.9759 279.793 98.9143 274.936L99.3768 274.705C107.009 270.773 115.335 275.168 121.58 281.181C121.58 281.181 131.756 271.93 138.694 280.256C143.551 286.038 140.082 292.051 135.225 293.67H134.994C135.919 291.357 135.919 288.813 134.531 286.5C132.218 282.8 127.362 281.644 123.661 283.956C118.11 287.425 118.804 294.133 123.892 298.064C128.055 301.302 134.531 301.765 140.313 297.602C147.945 292.282 149.796 283.725 145.401 276.787C141.007 269.617 131.525 267.536 124.124 271.93C123.43 272.392 122.967 272.855 122.273 273.318L122.042 273.086C115.104 266.148 102.615 264.298 95.4451 268.461Z" stroke="url(#paint23_linear)" stroke-opacity="0.8"/>
<path d="M53.121 309.397C35.3126 318.879 32.5373 335.069 32.5373 335.069C32.5373 335.069 29.5306 318.648 11.9535 309.397" stroke="url(#paint24_linear)" stroke-opacity="0.8"/>
<path d="M41.0947 310.785C34.6189 315.41 32.5374 320.498 32.5374 320.498C32.5374 320.498 30.2246 315.179 23.9801 310.785" stroke="url(#paint25_linear)" stroke-opacity="0.8"/>
<path d="M44.5643 315.641C44.5643 315.641 49.6525 327.205 63.2979 326.974C76.4807 326.743 80.1812 316.104 80.1812 316.104" stroke="url(#paint26_linear)" stroke-opacity="0.8"/>
<path d="M38.7822 321.655C38.7822 321.655 45.4893 336.457 63.529 335.994C81.1061 335.763 86.1943 322.117 86.1943 322.117" stroke="url(#paint27_linear)" stroke-opacity="0.8"/>
<path d="M160.665 222.668C153.033 209.947 161.822 202.315 167.835 197.921C173.848 193.527 180.324 186.588 177.317 177.337C173.848 167.161 165.059 168.086 160.665 169.474C152.108 172.249 151.877 180.575 154.421 184.969C157.659 190.057 162.978 190.751 167.141 188.207C172.46 184.969 171.535 178.956 168.066 176.643C164.828 174.331 161.128 176.412 160.203 178.031C158.352 181.038 160.203 182.888 159.971 182.888C158.352 181.963 157.659 179.187 158.584 177.106C160.434 172.249 168.066 170.861 171.767 176.875C174.542 181.269 173.848 187.051 166.447 192.37C142.163 210.41 160.665 222.668 160.665 222.668Z" stroke="url(#paint28_linear)" stroke-opacity="0.8"/>
<path d="M134.531 230.994C138.925 223.824 151.183 219.892 160.666 223.13H160.897C161.128 222.436 161.591 221.743 161.822 221.049C166.216 213.879 175.699 211.798 183.1 216.192C190.269 220.586 192.582 228.912 188.188 237.007C184.95 243.251 178.937 245.564 173.617 244.639C167.141 243.483 163.441 237.932 166.91 232.15C169.223 228.45 174.08 227.293 177.78 229.606C180.093 230.994 181.249 233.307 181.481 235.619L181.712 235.388C185.181 231.919 185.412 224.98 178.705 221.974C168.76 217.58 163.903 230.3 163.903 230.3C155.577 227.525 146.095 227.293 141.007 234.232L140.776 234.694C136.844 242.326 141.238 250.421 147.483 256.666C147.483 256.666 138.232 266.611 146.558 273.549C152.34 278.174 158.584 274.705 160.203 270.311V270.08C157.89 271.005 155.346 271.005 153.033 269.617C149.333 267.304 148.177 262.679 150.489 258.978C153.958 253.428 160.666 254.122 164.829 259.21C168.066 263.373 168.529 269.848 164.366 275.399C158.815 283.031 150.489 284.65 143.088 280.256C135.919 275.862 133.606 266.379 138 259.441C138.463 258.747 138.925 258.285 139.388 257.591L139.157 257.359C131.987 250.652 130.137 237.932 134.531 230.994ZM134.531 230.994C134.531 230.994 134.531 231.225 134.531 230.994Z" stroke="url(#paint29_linear)" stroke-opacity="0.8"/>
<path d="M182.406 180.806C182.406 180.806 194.201 185.894 193.97 199.309C193.738 212.26 182.868 215.961 182.868 215.961" stroke="url(#paint30_linear)" stroke-opacity="0.8"/>
<path d="M188.419 175.024C188.419 175.024 203.452 181.731 202.989 199.54C202.758 216.886 188.881 221.974 188.881 221.974" stroke="url(#paint31_linear)" stroke-opacity="0.8"/>
<path d="M160.665 115.123C153.033 127.844 161.822 135.476 167.835 139.87C173.848 144.264 180.324 151.203 177.317 160.454C173.848 170.63 165.059 169.705 160.665 168.317C152.108 165.542 151.877 157.216 154.421 152.822C157.659 147.734 162.978 147.04 167.141 149.584C172.46 152.822 171.535 158.835 168.066 161.148C164.828 163.461 161.128 161.379 160.203 159.76C158.352 156.753 160.203 154.903 159.971 154.903C158.352 155.828 157.659 158.604 158.584 160.685C160.434 165.542 168.066 166.93 171.767 160.916C174.542 156.522 173.848 150.74 166.447 145.421C142.163 127.612 160.665 115.123 160.665 115.123Z" stroke="url(#paint32_linear)" stroke-opacity="0.8"/>
<path d="M134.531 107.029C138.925 114.198 151.183 118.13 160.665 114.892H160.897C161.128 115.586 161.591 116.28 161.822 116.973C166.216 124.143 175.698 126.225 183.099 121.83C190.269 117.436 192.582 109.11 188.188 101.015C184.95 94.7708 178.936 92.458 173.617 93.3831C167.141 94.5395 163.441 100.09 166.91 105.872C169.223 109.573 174.08 110.729 177.78 108.416C180.093 107.029 181.249 104.716 181.48 102.403L181.712 102.634C185.181 106.103 185.412 113.042 178.705 116.048C168.76 120.443 163.903 107.722 163.903 107.722C155.577 110.498 146.095 110.729 141.007 103.791L140.775 103.328C136.844 95.6959 141.238 87.3699 147.483 81.3566C147.483 81.3566 138.231 71.4117 146.557 64.4733C152.339 59.8478 158.584 63.3169 160.203 67.7112V67.9425C157.89 67.0174 155.346 67.0174 153.033 68.4051C149.333 70.7178 148.176 75.3434 150.489 79.0439C153.958 84.5945 160.665 83.9007 164.828 78.8126C168.066 74.6496 168.529 68.1738 164.366 62.6231C158.815 54.9909 150.489 53.372 143.088 57.7663C135.919 62.1605 133.606 71.6429 138 78.5813C138.463 79.2751 138.925 79.7377 139.388 80.4315L139.157 80.6628C131.987 87.3699 130.137 99.8589 134.531 107.029ZM134.531 107.029C134.531 107.029 134.531 106.797 134.531 107.029Z" stroke="url(#paint33_linear)" stroke-opacity="0.8"/>
<path d="M175.93 148.659C185.412 166.236 202.064 169.011 202.064 169.011C202.064 169.011 185.412 171.786 175.93 189.364" stroke="url(#paint34_linear)" stroke-opacity="0.8"/>
<path d="M177.317 160.454C181.943 166.698 187.262 169.011 187.262 169.011C187.262 169.011 181.943 171.093 177.317 177.568" stroke="url(#paint35_linear)" stroke-opacity="0.8"/>
<path d="M182.406 156.985C182.406 156.985 194.201 151.897 193.97 138.482C193.738 125.531 182.868 121.83 182.868 121.83" stroke="url(#paint36_linear)" stroke-opacity="0.8"/>
<path d="M188.419 162.767C188.419 162.767 203.452 156.06 202.989 138.251C202.758 120.905 188.881 115.817 188.881 115.817" stroke="url(#paint37_linear)" stroke-opacity="0.8"/>
<defs>
<linearGradient id="paint0_linear" x1="32.9997" y1="51.2904" x2="32.9997" y2="285.807" gradientUnits="userSpaceOnUse">
<stop stop-color="#FFFDF2" stop-opacity="0.2"/>
<stop offset="0.502839" stop-color="#FF6B00"/>
<stop offset="1" stop-color="#FFFDF2" stop-opacity="0.2"/>
</linearGradient>
<linearGradient id="paint1_linear" x1="33" y1="59.3852" x2="33" y2="277.712" gradientUnits="userSpaceOnUse">
<stop stop-color="#FFFDF2" stop-opacity="0.2"/>
<stop offset="0.502839" stop-color="#FF6B00"/>
<stop offset="1" stop-color="#FFFDF2" stop-opacity="0.2"/>
</linearGradient>
<linearGradient id="paint2_linear" x1="30.8025" y1="91.3015" x2="30.8025" y2="175.024" gradientUnits="userSpaceOnUse">
<stop stop-color="#FFFDF2" stop-opacity="0.2"/>
<stop offset="0.502839" stop-color="#FF6B00"/>
<stop offset="1" stop-color="#FFFDF2" stop-opacity="0.2"/>
</linearGradient>
<linearGradient id="paint3_linear" x1="35.0815" y1="162.073" x2="35.0815" y2="245.796" gradientUnits="userSpaceOnUse">
<stop stop-color="#FFFDF2" stop-opacity="0.2"/>
<stop offset="0.502839" stop-color="#FF6B00"/>
<stop offset="1" stop-color="#FFFDF2" stop-opacity="0.2"/>
</linearGradient>
<linearGradient id="paint4_linear" x1="35.8388" y1="161.841" x2="35.8388" y2="269.155" gradientUnits="userSpaceOnUse">
<stop stop-color="#FFFDF2" stop-opacity="0.2"/>
<stop offset="0.502839" stop-color="#FF6B00"/>
<stop offset="1" stop-color="#FFFDF2" stop-opacity="0.2"/>
</linearGradient>
<linearGradient id="paint5_linear" x1="29.8139" y1="68.405" x2="29.8139" y2="174.562" gradientUnits="userSpaceOnUse">
<stop stop-color="#FFFDF2" stop-opacity="0.2"/>
<stop offset="0.502839" stop-color="#FF6B00"/>
<stop offset="1" stop-color="#FFFDF2" stop-opacity="0.2"/>
</linearGradient>
<linearGradient id="paint6_linear" x1="32.8843" y1="64.2421" x2="32.8843" y2="161.841" gradientUnits="userSpaceOnUse">
<stop stop-color="#FFFDF2" stop-opacity="0.2"/>
<stop offset="0.502839" stop-color="#FF6B00"/>
<stop offset="1" stop-color="#FFFDF2" stop-opacity="0.2"/>
</linearGradient>
<linearGradient id="paint7_linear" x1="89.0132" y1="107.029" x2="89.0132" y2="193.295" gradientUnits="userSpaceOnUse">
<stop stop-color="#FFFDF2" stop-opacity="0.2"/>
<stop offset="0.502839" stop-color="#FF6B00"/>
<stop offset="1" stop-color="#FFFDF2" stop-opacity="0.2"/>
</linearGradient>
<linearGradient id="paint8_linear" x1="-23.3606" y1="143.339" x2="-23.3606" y2="229.606" gradientUnits="userSpaceOnUse">
<stop stop-color="#FFFDF2" stop-opacity="0.2"/>
<stop offset="0.502839" stop-color="#FF6B00"/>
<stop offset="1" stop-color="#FFFDF2" stop-opacity="0.2"/>
</linearGradient>
<linearGradient id="paint9_linear" x1="32.7686" y1="174.793" x2="32.7686" y2="272.161" gradientUnits="userSpaceOnUse">
<stop stop-color="#FFFDF2" stop-opacity="0.2"/>
<stop offset="0.502839" stop-color="#FF6B00"/>
<stop offset="1" stop-color="#FFFDF2" stop-opacity="0.2"/>
</linearGradient>
<linearGradient id="paint10_linear" x1="60.5682" y1="25.5505" x2="60.5682" y2="50.3275" gradientUnits="userSpaceOnUse">
<stop stop-color="#FFFDF2" stop-opacity="0.2"/>
<stop offset="0.502839" stop-color="#FF6B00"/>
<stop offset="1" stop-color="#FFFDF2" stop-opacity="0.2"/>
</linearGradient>
<linearGradient id="paint11_linear" x1="113.887" y1="13.4348" x2="113.887" y2="70.709" gradientUnits="userSpaceOnUse">
<stop stop-color="#FFFDF2" stop-opacity="0.2"/>
<stop offset="0.502839" stop-color="#FF6B00"/>
<stop offset="1" stop-color="#FFFDF2" stop-opacity="0.2"/>
</linearGradient>
<linearGradient id="paint12_linear" x1="63.2973" y1="9.88818" x2="63.2973" y2="21.2242" gradientUnits="userSpaceOnUse">
<stop stop-color="#FFFDF2" stop-opacity="0.2"/>
<stop offset="0.502839" stop-color="#FF6B00"/>
<stop offset="1" stop-color="#FFFDF2" stop-opacity="0.2"/>
</linearGradient>
<linearGradient id="paint13_linear" x1="63.4128" y1="1.09247" x2="63.4128" y2="15.4423" gradientUnits="userSpaceOnUse">
<stop stop-color="#FFFDF2" stop-opacity="0.2"/>
<stop offset="0.502839" stop-color="#FF6B00"/>
<stop offset="1" stop-color="#FFFDF2" stop-opacity="0.2"/>
</linearGradient>
<linearGradient id="paint14_linear" x1="6.3574" y1="25.5505" x2="6.3574" y2="50.3275" gradientUnits="userSpaceOnUse">
<stop stop-color="#FFFDF2" stop-opacity="0.2"/>
<stop offset="0.502839" stop-color="#FF6B00"/>
<stop offset="1" stop-color="#FFFDF2" stop-opacity="0.2"/>
</linearGradient>
<linearGradient id="paint15_linear" x1="33.4624" y1="1.79697" x2="33.4624" y2="27.4689" gradientUnits="userSpaceOnUse">
<stop stop-color="#FFFDF2" stop-opacity="0.2"/>
<stop offset="0.502839" stop-color="#FF6B00"/>
<stop offset="1" stop-color="#FFFDF2" stop-opacity="0.2"/>
</linearGradient>
<linearGradient id="paint16_linear" x1="33.4622" y1="16.5986" x2="33.4622" y2="26.3123" gradientUnits="userSpaceOnUse">
<stop stop-color="#FFFDF2" stop-opacity="0.2"/>
<stop offset="0.502839" stop-color="#FF6B00"/>
<stop offset="1" stop-color="#FFFDF2" stop-opacity="0.2"/>
</linearGradient>
<linearGradient id="paint17_linear" x1="3.62765" y1="9.88818" x2="3.62765" y2="21.2242" gradientUnits="userSpaceOnUse">
<stop stop-color="#FFFDF2" stop-opacity="0.2"/>
<stop offset="0.502839" stop-color="#FF6B00"/>
<stop offset="1" stop-color="#FFFDF2" stop-opacity="0.2"/>
</linearGradient>
<linearGradient id="paint18_linear" x1="3.51242" y1="1.09247" x2="3.51242" y2="15.4423" gradientUnits="userSpaceOnUse">
<stop stop-color="#FFFDF2" stop-opacity="0.2"/>
<stop offset="0.502839" stop-color="#FF6B00"/>
<stop offset="1" stop-color="#FFFDF2" stop-opacity="0.2"/>
</linearGradient>
<linearGradient id="paint19_linear" x1="5.43248" y1="286.769" x2="5.43248" y2="311.546" gradientUnits="userSpaceOnUse">
<stop stop-color="#FFFDF2" stop-opacity="0.2"/>
<stop offset="0.502839" stop-color="#FF6B00"/>
<stop offset="1" stop-color="#FFFDF2" stop-opacity="0.2"/>
</linearGradient>
<linearGradient id="paint20_linear" x1="2.70284" y1="315.641" x2="2.70284" y2="326.978" gradientUnits="userSpaceOnUse">
<stop stop-color="#FFFDF2" stop-opacity="0.2"/>
<stop offset="0.502839" stop-color="#FF6B00"/>
<stop offset="1" stop-color="#FFFDF2" stop-opacity="0.2"/>
</linearGradient>
<linearGradient id="paint21_linear" x1="2.58725" y1="321.655" x2="2.58725" y2="336.005" gradientUnits="userSpaceOnUse">
<stop stop-color="#FFFDF2" stop-opacity="0.2"/>
<stop offset="0.502839" stop-color="#FF6B00"/>
<stop offset="1" stop-color="#FFFDF2" stop-opacity="0.2"/>
</linearGradient>
<linearGradient id="paint22_linear" x1="59.6426" y1="286.769" x2="59.6426" y2="311.546" gradientUnits="userSpaceOnUse">
<stop stop-color="#FFFDF2" stop-opacity="0.2"/>
<stop offset="0.502839" stop-color="#FF6B00"/>
<stop offset="1" stop-color="#FFFDF2" stop-opacity="0.2"/>
</linearGradient>
<linearGradient id="paint23_linear" x1="112.962" y1="266.259" x2="112.962" y2="323.486" gradientUnits="userSpaceOnUse">
<stop stop-color="#FFFDF2" stop-opacity="0.2"/>
<stop offset="0.502839" stop-color="#FF6B00"/>
<stop offset="1" stop-color="#FFFDF2" stop-opacity="0.2"/>
</linearGradient>
<linearGradient id="paint24_linear" x1="32.5373" y1="309.397" x2="32.5373" y2="335.069" gradientUnits="userSpaceOnUse">
<stop stop-color="#FFFDF2" stop-opacity="0.2"/>
<stop offset="0.502839" stop-color="#FF6B00"/>
<stop offset="1" stop-color="#FFFDF2" stop-opacity="0.2"/>
</linearGradient>
<linearGradient id="paint25_linear" x1="32.5374" y1="310.785" x2="32.5374" y2="320.498" gradientUnits="userSpaceOnUse">
<stop stop-color="#FFFDF2" stop-opacity="0.2"/>
<stop offset="0.502839" stop-color="#FF6B00"/>
<stop offset="1" stop-color="#FFFDF2" stop-opacity="0.2"/>
</linearGradient>
<linearGradient id="paint26_linear" x1="62.3728" y1="315.641" x2="62.3728" y2="326.978" gradientUnits="userSpaceOnUse">
<stop stop-color="#FFFDF2" stop-opacity="0.2"/>
<stop offset="0.502839" stop-color="#FF6B00"/>
<stop offset="1" stop-color="#FFFDF2" stop-opacity="0.2"/>
</linearGradient>
<linearGradient id="paint27_linear" x1="62.4883" y1="321.655" x2="62.4883" y2="336.005" gradientUnits="userSpaceOnUse">
<stop stop-color="#FFFDF2" stop-opacity="0.2"/>
<stop offset="0.502839" stop-color="#FF6B00"/>
<stop offset="1" stop-color="#FFFDF2" stop-opacity="0.2"/>
</linearGradient>
<linearGradient id="paint28_linear" x1="165.542" y1="168.632" x2="165.542" y2="222.668" gradientUnits="userSpaceOnUse">
<stop stop-color="#FFFDF2" stop-opacity="0.2"/>
<stop offset="0.502839" stop-color="#FF6B00"/>
<stop offset="1" stop-color="#FFFDF2" stop-opacity="0.2"/>
</linearGradient>
<linearGradient id="paint29_linear" x1="161.293" y1="213.898" x2="161.293" y2="282.664" gradientUnits="userSpaceOnUse">
<stop stop-color="#FFFDF2" stop-opacity="0.2"/>
<stop offset="0.502839" stop-color="#FF6B00"/>
<stop offset="1" stop-color="#FFFDF2" stop-opacity="0.2"/>
</linearGradient>
<linearGradient id="paint30_linear" x1="188.189" y1="180.806" x2="188.189" y2="215.961" gradientUnits="userSpaceOnUse">
<stop stop-color="#FFFDF2" stop-opacity="0.2"/>
<stop offset="0.502839" stop-color="#FF6B00"/>
<stop offset="1" stop-color="#FFFDF2" stop-opacity="0.2"/>
</linearGradient>
<linearGradient id="paint31_linear" x1="195.709" y1="175.024" x2="195.709" y2="221.974" gradientUnits="userSpaceOnUse">
<stop stop-color="#FFFDF2" stop-opacity="0.2"/>
<stop offset="0.502839" stop-color="#FF6B00"/>
<stop offset="1" stop-color="#FFFDF2" stop-opacity="0.2"/>
</linearGradient>
<linearGradient id="paint32_linear" x1="165.542" y1="115.123" x2="165.542" y2="169.159" gradientUnits="userSpaceOnUse">
<stop stop-color="#FFFDF2" stop-opacity="0.2"/>
<stop offset="0.502839" stop-color="#FF6B00"/>
<stop offset="1" stop-color="#FFFDF2" stop-opacity="0.2"/>
</linearGradient>
<linearGradient id="paint33_linear" x1="161.293" y1="55.3578" x2="161.293" y2="124.124" gradientUnits="userSpaceOnUse">
<stop stop-color="#FFFDF2" stop-opacity="0.2"/>
<stop offset="0.502839" stop-color="#FF6B00"/>
<stop offset="1" stop-color="#FFFDF2" stop-opacity="0.2"/>
</linearGradient>
<linearGradient id="paint34_linear" x1="188.997" y1="148.659" x2="188.997" y2="189.364" gradientUnits="userSpaceOnUse">
<stop stop-color="#FFFDF2" stop-opacity="0.2"/>
<stop offset="0.502839" stop-color="#FF6B00"/>
<stop offset="1" stop-color="#FFFDF2" stop-opacity="0.2"/>
</linearGradient>
<linearGradient id="paint35_linear" x1="182.29" y1="160.454" x2="182.29" y2="177.568" gradientUnits="userSpaceOnUse">
<stop stop-color="#FFFDF2" stop-opacity="0.2"/>
<stop offset="0.502839" stop-color="#FF6B00"/>
<stop offset="1" stop-color="#FFFDF2" stop-opacity="0.2"/>
</linearGradient>
<linearGradient id="paint36_linear" x1="188.189" y1="121.83" x2="188.189" y2="156.985" gradientUnits="userSpaceOnUse">
<stop stop-color="#FFFDF2" stop-opacity="0.2"/>
<stop offset="0.502839" stop-color="#FF6B00"/>
<stop offset="1" stop-color="#FFFDF2" stop-opacity="0.2"/>
</linearGradient>
<linearGradient id="paint37_linear" x1="195.709" y1="115.817" x2="195.709" y2="162.767" gradientUnits="userSpaceOnUse">
<stop stop-color="#FFFDF2" stop-opacity="0.2"/>
<stop offset="0.502839" stop-color="#FF6B00"/>
<stop offset="1" stop-color="#FFFDF2" stop-opacity="0.2"/>
</linearGradient>
</defs>
</svg>
