<svg width="204" height="337" viewBox="0 0 204 337" fill="none" xmlns="http://www.w3.org/2000/svg">
<path d="M171 285.807C236.781 285.807 290.108 233.308 290.108 168.549C290.108 103.789 236.781 51.2904 171 51.2904C105.218 51.2904 51.8914 103.789 51.8914 168.549C51.8914 233.308 105.218 285.807 171 285.807Z" stroke="url(#paint0_linear)" stroke-opacity="0.8"/>
<path d="M281.782 168.549C281.782 108.185 232.058 59.3852 171 59.3852C109.943 59.3852 60.2178 108.185 60.2178 168.549C60.2178 228.912 109.943 277.712 171 277.712C232.058 277.712 281.782 228.912 281.782 168.549Z" stroke="url(#paint1_linear)" stroke-opacity="0.8"/>
<path d="M245.009 143.339C234.37 113.042 205.229 91.3015 171 91.3015C127.751 91.3015 92.5964 125.762 92.5964 168.548C92.5964 170.63 92.5964 172.712 92.8277 175.024" stroke="url(#paint2_linear)" stroke-opacity="0.8"/>
<path d="M96.7595 193.064C107.167 223.593 136.539 245.796 171 245.796C214.249 245.796 249.403 211.335 249.403 168.549C249.403 166.236 249.403 164.154 249.172 162.073" stroke="url(#paint3_linear)" stroke-opacity="0.8"/>
<path d="M252.41 161.841C252.641 163.923 252.641 166.004 252.641 168.317V168.548H269.756C269.756 168.548 270.45 176.412 268.599 184.738L256.11 183.582L256.804 175.949L263.511 176.181H263.742C263.049 186.126 260.736 195.145 257.035 203.934V204.165L265.824 207.403C268.137 202.778 269.293 197.69 269.293 197.69L249.403 192.37C247.553 198.383 245.009 203.471 242.002 208.791L256.804 217.348C256.804 217.348 253.335 224.518 247.553 230.762L237.377 223.593L242.002 217.348L247.553 220.817L247.784 221.049C242.234 228.912 235.295 235.85 227.663 241.864L233.445 249.033C237.839 246.258 241.308 242.326 241.308 242.326L226.507 227.524C221.881 231.687 217.255 235.157 211.705 238.394L220.262 253.196C220.262 253.196 213.555 257.822 205.46 260.366L200.372 249.033L207.542 245.795L210.78 251.577V251.809C202.222 255.74 192.74 258.516 182.795 259.903V260.135L184.183 269.155C189.502 268.923 194.359 267.304 194.359 267.304L189.04 247.414V247.183C183.258 248.571 177.244 249.265 171 249.265C170.769 249.265 170.769 249.265 170.769 249.265V266.379C170.769 266.379 162.674 267.073 154.348 265.223L155.735 252.965L163.599 253.659L163.368 260.135C153.423 259.441 143.94 256.897 135.152 253.196V253.428L131.683 261.985C136.308 264.298 141.396 265.223 141.396 265.223L146.947 245.102H146.716C140.702 243.251 135.383 240.939 130.064 237.932L121.275 252.965C121.275 252.965 113.874 249.496 107.63 243.945L115.03 234L121.506 238.626L118.037 244.176C109.942 238.626 103.004 232.15 97.222 224.518L96.9908 224.749L89.5899 230.531C92.3652 234.925 96.2969 238.163 96.2969 238.163L111.099 223.593C106.936 219.198 103.235 214.342 100.229 209.022L84.9643 217.579C84.9643 217.579 80.3387 211.104 77.7947 203.009L89.3586 197.921L92.5965 205.09L86.8145 207.866V207.634C84.5017 203.009 82.8828 198.383 81.4951 193.295" stroke="url(#paint4_linear)" stroke-opacity="0.8"/>
<path d="M260.736 143.57C259.348 138.714 257.498 133.857 255.185 129.231L249.172 132.469L252.41 139.639L263.974 134.551C261.43 126.687 256.804 119.98 256.804 119.98L242.002 128.537C238.996 123.218 235.295 118.361 230.901 113.967L245.472 99.6276C245.472 99.6276 249.403 102.865 252.179 107.26L244.778 113.042C238.764 105.41 231.826 98.9338 223.731 93.3831V93.6144L220.262 99.165L226.738 103.791L234.139 93.8456C227.894 88.295 220.493 84.8258 220.493 84.8258L211.936 99.6276C206.617 96.621 201.066 94.0769 195.053 92.2267L200.372 72.3368C200.372 72.3368 205.46 73.2619 210.086 75.5747L206.617 84.132C197.828 80.4315 188.346 78.1187 178.17 77.4249V77.6562L177.938 84.132L185.802 84.8258L187.189 72.568C178.863 70.7178 170.769 71.4116 170.769 71.4116V88.5262C164.524 88.5262 158.28 89.2201 152.498 90.6077V90.3765L147.178 70.4865C147.178 70.4865 152.035 68.8676 157.354 68.405L158.742 77.4249V77.6562C148.797 79.0438 139.546 81.5879 130.989 85.7509L134.227 91.5329L141.396 88.295L136.308 76.9623C128.213 79.5064 121.506 84.132 121.506 84.132L130.295 98.9338C124.976 101.94 120.35 105.641 115.724 109.804L100.691 95.002C100.691 95.002 104.16 91.0703 108.555 88.295L114.337 95.4646L114.568 95.6959C106.936 101.478 99.9975 108.416 94.4468 116.511L99.9974 119.749L104.623 113.504L94.4468 106.335C88.6648 112.579 85.1956 119.749 85.1956 119.749L100.229 128.306C97.2221 133.626 94.678 139.176 92.8278 144.958L72.4753 139.407C72.4753 139.407 73.4004 134.319 75.9445 129.694L84.7331 133.163L85.1956 133.394C81.4952 142.183 79.1824 151.434 78.4886 161.148L84.9644 161.379L85.6582 153.747L72.9379 152.359C71.0877 160.454 71.7815 168.549 71.7815 168.549H89.3586C89.3586 170.63 89.3586 172.712 89.5899 174.562" stroke="url(#paint5_linear)" stroke-opacity="0.8"/>
<path d="M144.634 137.557H133.764C140.934 126.918 152.266 125.068 152.266 125.068V146.115H112.486C120.812 125.068 140.24 109.804 163.83 107.029V107.26V161.842H97.9159C101.385 125.068 132.608 96.3897 170.769 96.3897C201.991 96.3897 228.819 115.586 239.227 142.877L239.458 143.571H273.456C262.355 98.0087 220.725 64.2421 171 64.2421C121.275 64.2421 79.6449 98.0087 68.3123 143.339" stroke="url(#paint6_linear)" stroke-opacity="0.8"/>
<path d="M196.903 137.557H207.773C200.604 126.919 189.271 125.068 189.271 125.068V146.115H228.82C220.494 125.068 201.066 109.804 177.476 107.029V107.26V161.842H276.463C276.463 161.842 277.388 179.419 273.225 193.295" stroke="url(#paint7_linear)" stroke-opacity="0.8"/>
<path d="M144.634 199.54H133.764C140.933 210.179 152.266 212.029 152.266 212.029V190.52H112.949C121.275 211.566 140.702 226.831 164.293 229.606V229.375V174.793H65.0742C65.0742 174.793 64.149 157.91 68.3121 143.339" stroke="url(#paint8_linear)" stroke-opacity="0.8"/>
<path d="M196.903 199.54H207.773C200.604 210.179 189.271 212.029 189.271 212.029V190.52H229.282C220.956 211.566 201.529 226.831 177.938 229.606V229.375V174.793H243.853C240.383 211.566 208.93 240.245 170.769 240.245C139.546 240.245 112.718 221.049 102.31 193.758L102.079 193.064H68.0811C79.4137 238.395 121.044 272.161 170.769 272.161C220.493 272.161 262.124 238.395 273.456 193.064" stroke="url(#paint9_linear)" stroke-opacity="0.8"/>
<path d="M226.045 42.7331C213.093 50.3653 205.461 41.5767 200.836 35.5635C196.441 29.7815 189.272 23.3057 180.021 26.3124C169.613 29.5502 170.538 38.3388 171.926 42.7331C174.701 51.2904 183.258 51.5217 187.653 48.7463C192.972 45.7397 193.435 40.1891 191.122 36.2573C187.884 31.1692 181.871 31.863 179.327 35.3322C177.014 38.5701 179.095 42.0393 180.714 43.1957C183.721 45.0459 185.802 43.1957 185.571 43.4269C184.646 45.0459 181.871 45.5085 179.789 44.8146C174.932 42.9644 173.545 35.5635 179.558 31.863C183.952 29.0877 189.734 29.7815 195.285 36.9512C213.556 60.7728 226.045 42.7331 226.045 42.7331Z" stroke="url(#paint10_linear)" stroke-opacity="0.8"/>
<path d="M183.489 21.2242C183.489 21.2242 188.577 9.66033 202.223 9.89161C215.405 10.1229 219.106 20.7617 219.106 20.7617" stroke="url(#paint11_linear)" stroke-opacity="0.8"/>
<path d="M177.707 15.4423C177.707 15.4423 184.414 0.640531 202.454 1.10309C220.031 1.33437 225.119 14.9798 225.119 14.9798" stroke="url(#paint12_linear)" stroke-opacity="0.8"/>
<path d="M116.881 42.7331C129.832 50.3653 137.465 41.5767 142.09 35.5635C146.484 29.7815 153.654 23.3057 162.905 26.3124C173.313 29.5502 172.388 38.3388 171 42.7331C168.225 51.2904 159.667 51.5217 155.273 48.7463C149.954 45.7397 149.491 40.1891 151.804 36.2573C155.042 31.1692 161.055 31.863 163.599 35.3322C165.912 38.5701 163.83 42.0393 162.211 43.1957C159.205 45.0459 157.123 43.1957 157.355 43.4269C158.28 45.0459 161.055 45.5085 163.137 44.8146C167.993 42.9644 169.381 35.5635 163.368 31.863C158.974 29.0877 153.192 29.7815 147.641 36.9512C129.601 60.7728 116.881 42.7331 116.881 42.7331Z" stroke="url(#paint13_linear)" stroke-opacity="0.8"/>
<path d="M108.555 68.4051C115.725 64.0108 119.656 51.9843 116.418 42.5019V42.2707C117.112 42.0394 117.806 41.5768 118.5 41.3455C125.67 36.9513 127.982 27.4688 123.588 20.5305C119.194 13.3609 110.636 11.2794 102.31 15.6736C96.0659 18.9115 93.5218 24.9248 94.4469 30.0129C95.6033 36.4887 101.385 39.9579 107.167 36.4887C110.868 34.1759 112.024 29.5503 109.711 25.8499C108.324 23.5371 106.011 22.3807 103.467 22.1494L103.698 21.9182C107.167 18.449 114.337 18.2177 117.343 24.9248C121.738 34.8698 109.017 39.4953 109.017 39.4953C111.793 47.5901 112.024 57.0725 105.086 61.9293L104.623 62.1606C96.991 66.0923 88.665 61.698 82.4205 55.6848C82.4205 55.6848 72.2442 64.9359 65.3059 56.6099C60.449 50.828 63.9182 44.8147 68.775 43.1958H69.0063C68.0812 45.5086 68.0812 48.0526 69.4689 50.3654C71.7817 54.0659 76.6385 55.2222 80.339 52.9095C85.8896 49.4403 85.1958 42.7332 80.1077 38.8015C75.9447 35.5636 69.4689 35.101 63.6869 39.264C56.0547 44.5834 54.2045 53.1407 58.5988 60.0791C62.9931 67.2487 72.4755 69.3302 79.8764 64.9359C80.5702 64.4734 81.0328 64.0108 81.7266 63.5483L81.9579 63.7795C88.8963 70.7179 101.385 72.7994 108.555 68.4051Z" stroke="url(#paint14_linear)" stroke-opacity="0.8"/>
<path d="M150.879 27.4689C168.687 17.9865 171.462 1.79697 171.462 1.79697C171.462 1.79697 174.469 18.2177 192.046 27.4689" stroke="url(#paint15_linear)" stroke-opacity="0.8"/>
<path d="M162.905 26.3123C169.381 21.6867 171.462 16.5986 171.462 16.5986C171.462 16.5986 173.775 21.918 180.02 26.3123" stroke="url(#paint16_linear)" stroke-opacity="0.8"/>
<path d="M159.436 21.2242C159.436 21.2242 154.348 9.66033 140.703 9.89161C127.52 10.1229 123.819 20.7617 123.819 20.7617" stroke="url(#paint17_linear)" stroke-opacity="0.8"/>
<path d="M165.218 15.4423C165.218 15.4423 158.511 0.640531 140.472 1.10309C122.895 1.33437 117.806 14.9798 117.806 14.9798" stroke="url(#paint18_linear)" stroke-opacity="0.8"/>
<path d="M43.3338 114.198C50.9659 126.918 42.1774 134.551 36.1641 138.945C30.1509 143.339 23.6751 150.278 26.6817 159.529C30.1509 169.705 38.9395 168.78 43.3338 167.392C51.8911 164.617 52.1223 156.291 49.5783 151.897C46.3404 146.808 41.021 146.115 36.858 148.659C31.5386 151.897 32.4637 157.91 35.9329 160.223C39.1708 162.535 42.8712 160.454 43.7963 158.835C45.6465 155.828 43.7963 153.978 44.0276 153.978C45.6465 154.903 46.3404 157.678 45.4153 159.76C43.565 164.617 35.9329 166.005 32.2324 159.991C29.4571 155.597 30.1509 149.815 37.5518 144.496C61.836 126.687 43.3338 114.198 43.3338 114.198Z" stroke="url(#paint19_linear)" stroke-opacity="0.8"/>
<path d="M69.469 105.872C69.469 105.872 69.469 106.103 69.469 105.872C65.0747 113.042 52.8169 116.973 43.3345 113.736H43.1033C42.872 114.429 42.4094 115.123 42.1781 115.817C37.7839 122.987 28.3014 125.068 20.9005 120.674C13.7309 116.28 11.4181 107.954 15.8124 99.8589C19.0503 93.6144 25.0635 91.3016 30.3829 92.2267C36.8587 93.3831 40.5592 98.9338 37.09 104.716C34.7772 108.416 29.9204 109.573 26.2199 107.26C23.9072 105.872 22.7508 103.559 22.5195 101.247L22.2882 101.478C18.819 104.484 18.3565 111.654 25.2948 114.661C35.2398 119.055 40.0966 106.335 40.0966 106.335C48.4227 109.11 57.9051 109.341 62.9932 102.403L63.2245 101.94C67.1562 94.3082 62.7619 85.9822 56.5174 79.9689C56.5174 79.9689 65.7685 70.024 57.4425 63.0856C51.6606 58.4601 45.416 61.9292 43.7971 66.3235V66.5548C46.1099 65.6297 48.6539 65.6297 50.9667 67.0174C54.6672 69.3301 55.8236 73.9557 53.5108 77.6562C50.0416 83.2068 43.3345 82.513 39.1715 77.4249C35.9336 73.2619 35.4711 66.7861 39.6341 61.2354C45.1848 53.6032 53.5108 51.9843 60.9117 56.3786C68.0813 60.7728 70.3941 70.2553 65.9998 77.1936C65.5373 77.8874 65.0747 78.35 64.6121 79.0438L64.8434 79.2751C72.013 86.4447 73.8633 98.9338 69.469 105.872Z" stroke="url(#paint20_linear)" stroke-opacity="0.8"/>
<path d="M21.5939 156.06C21.5939 156.06 9.79869 150.971 10.03 137.557C10.2612 124.606 21.1313 120.905 21.1313 120.905" stroke="url(#paint21_linear)" stroke-opacity="0.8"/>
<path d="M15.581 161.842C15.581 161.842 0.547903 155.134 1.01046 137.326C1.24174 119.98 15.1184 114.892 15.1184 114.892" stroke="url(#paint22_linear)" stroke-opacity="0.8"/>
<path d="M43.3338 221.742C50.9659 209.022 42.1774 201.39 36.1641 196.996C30.1509 192.601 23.6751 185.663 26.6817 176.412C30.1509 166.236 38.9395 167.161 43.3338 168.548C51.8911 171.324 52.1223 179.65 49.5783 184.044C46.3404 189.132 41.021 189.826 36.858 187.282C31.5386 184.044 32.4637 178.031 35.9329 175.718C39.1708 173.405 42.8712 175.487 43.7963 177.106C45.6465 180.112 43.7963 181.963 44.0276 181.963C45.6465 181.037 46.3404 178.262 45.4153 176.181C43.565 171.324 35.9329 169.936 32.2324 175.949C29.4571 180.344 30.1509 186.126 37.5518 191.445C61.836 209.253 43.3338 221.742 43.3338 221.742Z" stroke="url(#paint23_linear)" stroke-opacity="0.8"/>
<path d="M69.469 230.069C69.469 230.069 69.469 229.837 69.469 230.069C65.0747 222.899 52.8169 218.967 43.3345 222.205H43.1033C42.872 221.511 42.4094 220.817 42.1781 220.124C37.7839 212.954 28.3014 210.872 20.9005 215.267C13.7309 219.661 11.4181 227.987 15.8124 236.082C19.0503 242.326 25.0635 244.639 30.3829 243.714C36.8587 242.558 40.5592 237.007 37.09 231.225C34.7772 227.524 29.9204 226.368 26.2199 228.681C23.9072 230.069 22.7508 232.381 22.5195 234.694L22.2882 234.463C18.819 230.994 18.5878 224.055 25.2948 221.049C35.2398 216.654 40.0966 229.375 40.0966 229.375C48.4227 226.599 57.9051 226.368 62.9932 233.306L63.2245 233.769C67.1562 241.401 62.7619 249.727 56.5174 255.74C56.5174 255.74 65.7685 265.685 57.4425 272.624C51.6606 277.249 45.416 273.78 43.7971 269.386V269.155C46.1099 270.08 48.6539 270.08 50.9667 268.692C54.6672 266.379 55.8236 261.754 53.5108 258.053C50.0416 252.503 43.3345 253.196 39.1715 258.285C35.9336 262.448 35.4711 268.923 39.6341 274.474C45.1848 282.106 53.5108 283.725 60.9117 279.331C68.0813 274.937 70.3941 265.454 65.9998 258.516C65.5373 257.822 65.0747 257.359 64.6121 256.666L64.8434 256.434C72.013 249.496 73.8633 237.007 69.469 230.069Z" stroke="url(#paint24_linear)" stroke-opacity="0.8"/>
<path d="M28.07 188.438C18.3563 170.861 1.93555 167.855 1.93555 167.855C1.93555 167.855 18.5876 165.079 28.07 147.502" stroke="url(#paint25_linear)" stroke-opacity="0.8"/>
<path d="M26.6823 176.412C22.0567 170.168 16.7373 167.855 16.7373 167.855C16.7373 167.855 22.0567 165.773 26.6823 159.297" stroke="url(#paint26_linear)" stroke-opacity="0.8"/>
<path d="M21.5939 179.881C21.5939 179.881 9.79869 184.969 10.03 198.383C10.2612 211.335 21.1313 215.035 21.1313 215.035" stroke="url(#paint27_linear)" stroke-opacity="0.8"/>
<path d="M15.581 174.099C15.581 174.099 0.547903 180.806 1.01046 198.615C1.24174 215.961 15.1184 221.049 15.1184 221.049" stroke="url(#paint28_linear)" stroke-opacity="0.8"/>
<path d="M115.956 294.364C128.908 286.732 136.54 295.52 141.165 301.533C145.56 307.315 152.729 313.791 161.98 310.785C172.388 307.547 171.463 298.758 170.075 294.364C167.3 285.807 158.743 285.575 154.348 288.351C149.029 291.357 148.566 296.908 150.879 300.84C154.117 305.928 160.13 305.234 162.674 301.765C164.987 298.527 162.906 295.058 161.287 293.901C158.28 292.051 156.198 293.901 156.43 293.67C157.355 292.051 160.13 291.589 162.212 292.282C167.069 294.133 168.456 301.534 162.443 305.234C158.049 308.009 152.267 307.315 146.716 300.146C128.445 276.093 115.956 294.364 115.956 294.364Z" stroke="url(#paint29_linear)" stroke-opacity="0.8"/>
<path d="M107.63 268.461C107.63 268.692 107.63 268.692 107.63 268.461C114.799 272.855 118.731 284.881 115.493 294.364V294.595C116.187 294.826 116.881 295.289 117.575 295.52C124.744 299.915 127.057 309.397 122.663 316.335C118.269 323.505 109.711 325.586 101.385 321.192C95.1408 317.954 92.5968 311.941 93.5219 306.853C94.6783 300.377 100.46 296.908 106.242 300.377C109.943 302.69 111.099 307.315 108.786 311.016C107.399 313.329 105.086 314.485 102.542 314.716L102.773 314.948C106.242 318.417 113.412 318.648 116.418 311.941C120.813 301.996 108.092 297.37 108.092 297.37C110.868 289.276 111.099 279.793 104.161 274.937L103.698 274.705C96.0659 270.774 87.7399 275.168 81.4954 281.181C81.4954 281.181 71.3192 271.93 64.3808 280.256C59.524 286.038 62.9931 292.051 67.85 293.67H68.0813C67.1562 291.357 67.1562 288.813 68.5438 286.5C70.8566 282.8 75.7135 281.644 79.4139 283.956C84.9646 287.426 84.2708 294.133 79.1826 298.064C75.0196 301.302 68.5438 301.765 62.7619 297.602C55.1297 292.282 53.2795 283.725 57.6737 276.787C62.068 269.617 71.5504 267.536 78.9514 271.93C79.6452 272.392 80.1077 272.855 80.8016 273.318L81.0329 273.086C87.7399 266.148 100.46 264.298 107.63 268.461ZM107.63 268.461C107.63 268.461 107.399 268.461 107.63 268.461Z" stroke="url(#paint30_linear)" stroke-opacity="0.8"/>
<path d="M158.511 315.641C158.511 315.641 153.423 327.205 139.778 326.974C126.595 326.743 122.894 316.104 122.894 316.104" stroke="url(#paint31_linear)" stroke-opacity="0.8"/>
<path d="M164.293 321.655C164.293 321.655 157.586 336.457 139.547 335.994C121.969 335.763 116.881 322.117 116.881 322.117" stroke="url(#paint32_linear)" stroke-opacity="0.8"/>
<path d="M225.119 294.364C212.168 286.732 204.535 295.52 199.91 301.533C195.515 307.315 188.346 313.791 179.095 310.785C168.687 307.547 169.612 298.758 171 294.364C173.775 285.807 182.333 285.575 186.727 288.351C192.046 291.357 192.509 296.908 190.196 300.84C186.958 305.928 180.945 305.234 178.401 301.765C176.088 298.527 178.17 295.058 179.789 293.901C182.795 292.051 184.877 293.901 184.645 293.67C183.72 292.051 180.945 291.589 178.863 292.282C174.007 294.133 172.619 301.534 178.632 305.234C183.026 308.009 188.808 307.315 194.359 300.146C212.399 276.093 225.119 294.364 225.119 294.364Z" stroke="url(#paint33_linear)" stroke-opacity="0.8"/>
<path d="M191.121 309.397C173.313 318.879 170.537 335.069 170.537 335.069C170.537 335.069 167.531 318.648 149.954 309.397" stroke="url(#paint34_linear)" stroke-opacity="0.8"/>
<path d="M179.095 310.785C172.619 315.41 170.538 320.498 170.538 320.498C170.538 320.498 168.225 315.179 161.98 310.785" stroke="url(#paint35_linear)" stroke-opacity="0.8"/>
<path d="M182.564 315.641C182.564 315.641 187.653 327.205 201.298 326.974C214.481 326.743 218.181 316.104 218.181 316.104" stroke="url(#paint36_linear)" stroke-opacity="0.8"/>
<path d="M176.782 321.655C176.782 321.655 183.489 336.457 201.529 335.994C219.106 335.763 224.194 322.117 224.194 322.117" stroke="url(#paint37_linear)" stroke-opacity="0.8"/>
<defs>
<linearGradient id="paint0_linear" x1="171" y1="51.2904" x2="171" y2="285.807" gradientUnits="userSpaceOnUse">
<stop stop-color="#FFFDF2" stop-opacity="0.2"/>
<stop offset="0.502839" stop-color="#FF6B00"/>
<stop offset="1" stop-color="#FFFDF2" stop-opacity="0.2"/>
</linearGradient>
<linearGradient id="paint1_linear" x1="171" y1="59.3852" x2="171" y2="277.712" gradientUnits="userSpaceOnUse">
<stop stop-color="#FFFDF2" stop-opacity="0.2"/>
<stop offset="0.502839" stop-color="#FF6B00"/>
<stop offset="1" stop-color="#FFFDF2" stop-opacity="0.2"/>
</linearGradient>
<linearGradient id="paint2_linear" x1="168.803" y1="91.3015" x2="168.803" y2="175.024" gradientUnits="userSpaceOnUse">
<stop stop-color="#FFFDF2" stop-opacity="0.2"/>
<stop offset="0.502839" stop-color="#FF6B00"/>
<stop offset="1" stop-color="#FFFDF2" stop-opacity="0.2"/>
</linearGradient>
<linearGradient id="paint3_linear" x1="173.081" y1="162.073" x2="173.081" y2="245.796" gradientUnits="userSpaceOnUse">
<stop stop-color="#FFFDF2" stop-opacity="0.2"/>
<stop offset="0.502839" stop-color="#FF6B00"/>
<stop offset="1" stop-color="#FFFDF2" stop-opacity="0.2"/>
</linearGradient>
<linearGradient id="paint4_linear" x1="173.839" y1="161.841" x2="173.839" y2="269.155" gradientUnits="userSpaceOnUse">
<stop stop-color="#FFFDF2" stop-opacity="0.2"/>
<stop offset="0.502839" stop-color="#FF6B00"/>
<stop offset="1" stop-color="#FFFDF2" stop-opacity="0.2"/>
</linearGradient>
<linearGradient id="paint5_linear" x1="167.814" y1="68.405" x2="167.814" y2="174.562" gradientUnits="userSpaceOnUse">
<stop stop-color="#FFFDF2" stop-opacity="0.2"/>
<stop offset="0.502839" stop-color="#FF6B00"/>
<stop offset="1" stop-color="#FFFDF2" stop-opacity="0.2"/>
</linearGradient>
<linearGradient id="paint6_linear" x1="170.884" y1="64.2421" x2="170.884" y2="161.841" gradientUnits="userSpaceOnUse">
<stop stop-color="#FFFDF2" stop-opacity="0.2"/>
<stop offset="0.502839" stop-color="#FF6B00"/>
<stop offset="1" stop-color="#FFFDF2" stop-opacity="0.2"/>
</linearGradient>
<linearGradient id="paint7_linear" x1="227.013" y1="107.029" x2="227.013" y2="193.295" gradientUnits="userSpaceOnUse">
<stop stop-color="#FFFDF2" stop-opacity="0.2"/>
<stop offset="0.502839" stop-color="#FF6B00"/>
<stop offset="1" stop-color="#FFFDF2" stop-opacity="0.2"/>
</linearGradient>
<linearGradient id="paint8_linear" x1="114.64" y1="143.339" x2="114.64" y2="229.606" gradientUnits="userSpaceOnUse">
<stop stop-color="#FFFDF2" stop-opacity="0.2"/>
<stop offset="0.502839" stop-color="#FF6B00"/>
<stop offset="1" stop-color="#FFFDF2" stop-opacity="0.2"/>
</linearGradient>
<linearGradient id="paint9_linear" x1="170.769" y1="174.793" x2="170.769" y2="272.161" gradientUnits="userSpaceOnUse">
<stop stop-color="#FFFDF2" stop-opacity="0.2"/>
<stop offset="0.502839" stop-color="#FF6B00"/>
<stop offset="1" stop-color="#FFFDF2" stop-opacity="0.2"/>
</linearGradient>
<linearGradient id="paint10_linear" x1="198.568" y1="25.5505" x2="198.568" y2="50.3275" gradientUnits="userSpaceOnUse">
<stop stop-color="#FFFDF2" stop-opacity="0.2"/>
<stop offset="0.502839" stop-color="#FF6B00"/>
<stop offset="1" stop-color="#FFFDF2" stop-opacity="0.2"/>
</linearGradient>
<linearGradient id="paint11_linear" x1="201.297" y1="9.88818" x2="201.297" y2="21.2242" gradientUnits="userSpaceOnUse">
<stop stop-color="#FFFDF2" stop-opacity="0.2"/>
<stop offset="0.502839" stop-color="#FF6B00"/>
<stop offset="1" stop-color="#FFFDF2" stop-opacity="0.2"/>
</linearGradient>
<linearGradient id="paint12_linear" x1="201.413" y1="1.09247" x2="201.413" y2="15.4423" gradientUnits="userSpaceOnUse">
<stop stop-color="#FFFDF2" stop-opacity="0.2"/>
<stop offset="0.502839" stop-color="#FF6B00"/>
<stop offset="1" stop-color="#FFFDF2" stop-opacity="0.2"/>
</linearGradient>
<linearGradient id="paint13_linear" x1="144.357" y1="25.5505" x2="144.357" y2="50.3275" gradientUnits="userSpaceOnUse">
<stop stop-color="#FFFDF2" stop-opacity="0.2"/>
<stop offset="0.502839" stop-color="#FF6B00"/>
<stop offset="1" stop-color="#FFFDF2" stop-opacity="0.2"/>
</linearGradient>
<linearGradient id="paint14_linear" x1="91.0381" y1="13.3799" x2="91.0381" y2="70.7091" gradientUnits="userSpaceOnUse">
<stop stop-color="#FFFDF2" stop-opacity="0.2"/>
<stop offset="0.502839" stop-color="#FF6B00"/>
<stop offset="1" stop-color="#FFFDF2" stop-opacity="0.2"/>
</linearGradient>
<linearGradient id="paint15_linear" x1="171.462" y1="1.79697" x2="171.462" y2="27.4689" gradientUnits="userSpaceOnUse">
<stop stop-color="#FFFDF2" stop-opacity="0.2"/>
<stop offset="0.502839" stop-color="#FF6B00"/>
<stop offset="1" stop-color="#FFFDF2" stop-opacity="0.2"/>
</linearGradient>
<linearGradient id="paint16_linear" x1="171.462" y1="16.5986" x2="171.462" y2="26.3123" gradientUnits="userSpaceOnUse">
<stop stop-color="#FFFDF2" stop-opacity="0.2"/>
<stop offset="0.502839" stop-color="#FF6B00"/>
<stop offset="1" stop-color="#FFFDF2" stop-opacity="0.2"/>
</linearGradient>
<linearGradient id="paint17_linear" x1="141.628" y1="9.88818" x2="141.628" y2="21.2242" gradientUnits="userSpaceOnUse">
<stop stop-color="#FFFDF2" stop-opacity="0.2"/>
<stop offset="0.502839" stop-color="#FF6B00"/>
<stop offset="1" stop-color="#FFFDF2" stop-opacity="0.2"/>
</linearGradient>
<linearGradient id="paint18_linear" x1="141.512" y1="1.09247" x2="141.512" y2="15.4423" gradientUnits="userSpaceOnUse">
<stop stop-color="#FFFDF2" stop-opacity="0.2"/>
<stop offset="0.502839" stop-color="#FF6B00"/>
<stop offset="1" stop-color="#FFFDF2" stop-opacity="0.2"/>
</linearGradient>
<linearGradient id="paint19_linear" x1="38.4569" y1="114.198" x2="38.4569" y2="168.234" gradientUnits="userSpaceOnUse">
<stop stop-color="#FFFDF2" stop-opacity="0.2"/>
<stop offset="0.502839" stop-color="#FF6B00"/>
<stop offset="1" stop-color="#FFFDF2" stop-opacity="0.2"/>
</linearGradient>
<linearGradient id="paint20_linear" x1="42.7067" y1="53.9702" x2="42.7067" y2="122.968" gradientUnits="userSpaceOnUse">
<stop stop-color="#FFFDF2" stop-opacity="0.2"/>
<stop offset="0.502839" stop-color="#FF6B00"/>
<stop offset="1" stop-color="#FFFDF2" stop-opacity="0.2"/>
</linearGradient>
<linearGradient id="paint21_linear" x1="15.8102" y1="120.905" x2="15.8102" y2="156.06" gradientUnits="userSpaceOnUse">
<stop stop-color="#FFFDF2" stop-opacity="0.2"/>
<stop offset="0.502839" stop-color="#FF6B00"/>
<stop offset="1" stop-color="#FFFDF2" stop-opacity="0.2"/>
</linearGradient>
<linearGradient id="paint22_linear" x1="8.2905" y1="114.892" x2="8.2905" y2="161.842" gradientUnits="userSpaceOnUse">
<stop stop-color="#FFFDF2" stop-opacity="0.2"/>
<stop offset="0.502839" stop-color="#FF6B00"/>
<stop offset="1" stop-color="#FFFDF2" stop-opacity="0.2"/>
</linearGradient>
<linearGradient id="paint23_linear" x1="38.4569" y1="167.707" x2="38.4569" y2="221.742" gradientUnits="userSpaceOnUse">
<stop stop-color="#FFFDF2" stop-opacity="0.2"/>
<stop offset="0.502839" stop-color="#FF6B00"/>
<stop offset="1" stop-color="#FFFDF2" stop-opacity="0.2"/>
</linearGradient>
<linearGradient id="paint24_linear" x1="42.7067" y1="212.973" x2="42.7067" y2="281.739" gradientUnits="userSpaceOnUse">
<stop stop-color="#FFFDF2" stop-opacity="0.2"/>
<stop offset="0.502839" stop-color="#FF6B00"/>
<stop offset="1" stop-color="#FFFDF2" stop-opacity="0.2"/>
</linearGradient>
<linearGradient id="paint25_linear" x1="15.0028" y1="147.502" x2="15.0028" y2="188.438" gradientUnits="userSpaceOnUse">
<stop stop-color="#FFFDF2" stop-opacity="0.2"/>
<stop offset="0.502839" stop-color="#FF6B00"/>
<stop offset="1" stop-color="#FFFDF2" stop-opacity="0.2"/>
</linearGradient>
<linearGradient id="paint26_linear" x1="21.7098" y1="159.297" x2="21.7098" y2="176.412" gradientUnits="userSpaceOnUse">
<stop stop-color="#FFFDF2" stop-opacity="0.2"/>
<stop offset="0.502839" stop-color="#FF6B00"/>
<stop offset="1" stop-color="#FFFDF2" stop-opacity="0.2"/>
</linearGradient>
<linearGradient id="paint27_linear" x1="15.8102" y1="179.881" x2="15.8102" y2="215.035" gradientUnits="userSpaceOnUse">
<stop stop-color="#FFFDF2" stop-opacity="0.2"/>
<stop offset="0.502839" stop-color="#FF6B00"/>
<stop offset="1" stop-color="#FFFDF2" stop-opacity="0.2"/>
</linearGradient>
<linearGradient id="paint28_linear" x1="8.2905" y1="174.099" x2="8.2905" y2="221.049" gradientUnits="userSpaceOnUse">
<stop stop-color="#FFFDF2" stop-opacity="0.2"/>
<stop offset="0.502839" stop-color="#FF6B00"/>
<stop offset="1" stop-color="#FFFDF2" stop-opacity="0.2"/>
</linearGradient>
<linearGradient id="paint29_linear" x1="143.433" y1="286.769" x2="143.433" y2="311.546" gradientUnits="userSpaceOnUse">
<stop stop-color="#FFFDF2" stop-opacity="0.2"/>
<stop offset="0.502839" stop-color="#FF6B00"/>
<stop offset="1" stop-color="#FFFDF2" stop-opacity="0.2"/>
</linearGradient>
<linearGradient id="paint30_linear" x1="90.113" y1="266.259" x2="90.113" y2="323.486" gradientUnits="userSpaceOnUse">
<stop stop-color="#FFFDF2" stop-opacity="0.2"/>
<stop offset="0.502839" stop-color="#FF6B00"/>
<stop offset="1" stop-color="#FFFDF2" stop-opacity="0.2"/>
</linearGradient>
<linearGradient id="paint31_linear" x1="140.703" y1="315.641" x2="140.703" y2="326.978" gradientUnits="userSpaceOnUse">
<stop stop-color="#FFFDF2" stop-opacity="0.2"/>
<stop offset="0.502839" stop-color="#FF6B00"/>
<stop offset="1" stop-color="#FFFDF2" stop-opacity="0.2"/>
</linearGradient>
<linearGradient id="paint32_linear" x1="140.587" y1="321.655" x2="140.587" y2="336.005" gradientUnits="userSpaceOnUse">
<stop stop-color="#FFFDF2" stop-opacity="0.2"/>
<stop offset="0.502839" stop-color="#FF6B00"/>
<stop offset="1" stop-color="#FFFDF2" stop-opacity="0.2"/>
</linearGradient>
<linearGradient id="paint33_linear" x1="197.643" y1="286.769" x2="197.643" y2="311.546" gradientUnits="userSpaceOnUse">
<stop stop-color="#FFFDF2" stop-opacity="0.2"/>
<stop offset="0.502839" stop-color="#FF6B00"/>
<stop offset="1" stop-color="#FFFDF2" stop-opacity="0.2"/>
</linearGradient>
<linearGradient id="paint34_linear" x1="170.537" y1="309.397" x2="170.537" y2="335.069" gradientUnits="userSpaceOnUse">
<stop stop-color="#FFFDF2" stop-opacity="0.2"/>
<stop offset="0.502839" stop-color="#FF6B00"/>
<stop offset="1" stop-color="#FFFDF2" stop-opacity="0.2"/>
</linearGradient>
<linearGradient id="paint35_linear" x1="170.538" y1="310.785" x2="170.538" y2="320.498" gradientUnits="userSpaceOnUse">
<stop stop-color="#FFFDF2" stop-opacity="0.2"/>
<stop offset="0.502839" stop-color="#FF6B00"/>
<stop offset="1" stop-color="#FFFDF2" stop-opacity="0.2"/>
</linearGradient>
<linearGradient id="paint36_linear" x1="200.373" y1="315.641" x2="200.373" y2="326.978" gradientUnits="userSpaceOnUse">
<stop stop-color="#FFFDF2" stop-opacity="0.2"/>
<stop offset="0.502839" stop-color="#FF6B00"/>
<stop offset="1" stop-color="#FFFDF2" stop-opacity="0.2"/>
</linearGradient>
<linearGradient id="paint37_linear" x1="200.488" y1="321.655" x2="200.488" y2="336.005" gradientUnits="userSpaceOnUse">
<stop stop-color="#FFFDF2" stop-opacity="0.2"/>
<stop offset="0.502839" stop-color="#FF6B00"/>
<stop offset="1" stop-color="#FFFDF2" stop-opacity="0.2"/>
</linearGradient>
</defs>
</svg>
