<svg width="158" height="136" viewBox="0 0 158 136" fill="none" xmlns="http://www.w3.org/2000/svg">
<g clip-path="url(#clip0)">
<path d="M133.692 136C133.449 136 133.206 136 132.963 135.879L113.517 132.114C111.694 131.75 110.479 130.171 110.6 128.35C110.6 128.229 110.6 128.107 110.6 127.986L79.0001 125.071L47.4001 128.107C47.4001 128.229 47.4001 128.35 47.4001 128.471C47.5216 130.293 46.1847 131.871 44.4831 132.236L25.037 136C24.7939 136 24.5508 136.121 24.3078 136.121C23.5785 136.121 22.9708 135.879 22.3631 135.636L16.2862 131.871C15.3139 131.264 14.7062 130.293 14.5847 129.2C14.5847 129.2 14.0985 124.707 13.2478 118.15C12.7616 117.786 12.5185 117.179 12.2754 116.571L11.7893 114.993L3.88929 115.357C3.76776 115.357 3.76776 115.357 3.64622 115.357C2.30929 115.357 1.09391 114.629 0.486217 113.414C-0.243013 112.2 -0.121475 110.621 0.729294 109.529L8.50776 99.2071V92.2857C8.50776 91.8 8.62929 91.1929 8.87237 90.7071C7.29237 82.9357 5.71237 76.8643 4.13237 72.3714C3.64622 71.1571 3.2816 70.0643 2.79545 69.0929C2.67391 68.7286 2.55237 68.4857 2.30929 68.2429C2.06622 67.7571 1.82314 67.2714 1.58006 66.9071L1.45853 66.7857C1.33699 66.6643 1.33699 66.5429 1.21545 66.4214L4.01083 64.1143L1.21545 66.4214C1.09391 66.3 1.09391 66.1786 0.972371 66.1786C-0.364552 64.8429 -0.364552 62.7786 0.729294 61.3214L12.8831 46.2643C13.6124 45.4143 14.5847 44.9286 15.6785 44.9286C16.1647 44.9286 16.7724 45.05 17.2585 45.2929L22.9708 47.9643C23.2139 47.1143 23.457 46.2643 23.7001 45.4143C21.1478 43.7143 18.5954 40.4357 17.5016 34.3643C16.7724 29.75 17.0154 25.5 17.0154 25.2571C17.137 23.8 18.1093 22.4643 19.5678 21.9786C19.9324 21.8571 20.297 21.8571 20.6616 21.8571C21.7554 21.8571 22.8493 22.3429 23.457 23.1929C23.8216 23.6786 24.3078 24.1643 24.9154 24.7714C25.037 24.2857 25.2801 23.8 25.5231 23.3143C26.2524 22.3429 27.3462 21.8571 28.4401 21.8571H41.3231C43.0247 21.8571 44.6047 23.0714 44.8478 24.7714C45.2124 26.4714 45.3339 28.05 45.577 29.8714L62.4708 28.9L64.1724 26.1071C64.7801 25.0143 65.9955 24.2857 67.3324 24.2857H72.9231V20.0357C69.8847 18.0929 68.0616 14.6929 68.0616 10.9286C68.0616 4.85714 72.9231 0 79.0001 0C83.6185 0 87.7508 2.91429 89.3308 7.28571C89.6954 8.37857 89.9385 9.71429 89.9385 10.9286C89.9385 12.1429 89.6954 13.4786 89.3308 14.5714C88.9662 15.4214 88.3585 16.15 87.5078 16.6357C87.5078 16.7571 87.5078 16.8786 87.5078 17V21.8571C87.5078 22.8286 87.1431 23.6786 86.5354 24.2857H90.5462C91.8831 24.2857 92.977 25.0143 93.7062 26.1071L95.4078 28.9L112.302 29.8714C112.423 28.1714 112.666 26.4714 113.031 24.7714C113.395 23.0714 114.854 21.8571 116.555 21.8571H129.439C130.654 21.8571 131.748 22.4643 132.355 23.3143C132.72 23.8 132.842 24.2857 132.963 24.7714C133.571 24.1643 134.179 23.5571 134.422 23.1929C135.151 22.3429 136.123 21.8571 137.217 21.8571C137.582 21.8571 137.946 21.8571 138.311 21.9786C139.769 22.4643 140.742 23.6786 140.863 25.2571C140.863 25.3786 141.106 29.75 140.255 34.3643C139.04 40.4357 136.609 43.5929 134.057 45.4143C134.3 46.2643 134.543 47.1143 134.786 47.9643L140.499 45.2929C140.985 45.05 141.471 44.9286 142.079 44.9286C143.172 44.9286 144.145 45.4143 144.874 46.2643L157.028 61.3214C158.243 62.7786 158.122 64.8429 156.785 66.1786C156.663 66.3 156.663 66.4214 156.542 66.4214L156.42 66.5429C156.299 66.6643 156.299 66.7857 156.177 66.9071L156.055 67.0286C155.812 67.3929 155.569 67.8786 155.326 68.3643C155.205 68.7286 155.083 68.9714 154.962 69.2143C154.475 70.1857 154.111 71.2786 153.625 72.4929C152.045 76.8643 150.465 83.0571 149.006 90.8286C149.249 91.3143 149.371 91.8 149.371 92.4071V99.3286L157.149 109.65C158 110.743 158.122 112.321 157.392 113.536C156.785 114.75 155.569 115.479 154.232 115.479C154.111 115.479 154.111 115.479 153.989 115.479L145.968 114.993L145.482 116.571C145.36 117.179 144.995 117.664 144.509 118.15C143.659 124.707 143.172 129.2 143.172 129.2C143.051 130.293 142.443 131.264 141.471 131.871L135.394 135.636C135.029 135.757 134.422 136 133.692 136Z" fill="url(#paint0_linear)"/>
<path d="M78.9998 31.5714L37.6768 34V57.0714H78.9998H120.323V34L78.9998 31.5714Z" fill="url(#paint1_linear)"/>
<path d="M85.9275 13.3571C86.1706 12.6285 86.2921 11.7785 86.2921 10.9285C86.2921 10.0785 86.1706 9.22854 85.9275 8.49997C84.9552 5.70711 82.2814 3.64282 78.9998 3.64282C74.9891 3.64282 71.7075 6.92139 71.7075 10.9285C71.7075 14.0857 73.7737 16.7571 76.5691 17.7285V29.1428H81.4306V21.8571H83.8614V17H83.0106H81.4306V13.3571H85.9275Z" fill="url(#paint2_linear)"/>
<path d="M128.831 53.4285H78.9998H29.169L27.9536 126.286L78.9998 121.428L130.046 126.286L128.831 53.4285Z" fill="url(#paint3_linear)"/>
<path d="M128.831 53.4285H78.9998H29.169L27.9536 121.428L78.9998 116.936L130.046 121.428L128.831 53.4285Z" fill="url(#paint4_linear)"/>
<path d="M28.5615 25.5C28.5615 25.5 31.7215 35.2143 29.6553 40.0714C27.5892 44.9286 24.3076 57.0714 24.3076 57.0714H37.1907C37.1907 57.0714 44.7261 42.5 41.4445 25.5H28.5615Z" fill="url(#paint5_linear)"/>
<path d="M58.3384 103.214C57.6091 103.214 57.123 102.729 57.123 102V87.6714H48.6153C47.8861 87.6714 47.3999 87.1857 47.3999 86.4571V60.7143C47.3999 59.9857 47.8861 59.5 48.6153 59.5C49.3445 59.5 49.8307 59.9857 49.8307 60.7143V85.2429H58.3384C59.0676 85.2429 59.5537 85.7286 59.5537 86.4571V102C59.5537 102.729 59.0676 103.214 58.3384 103.214Z" fill="url(#paint6_linear)"/>
<path d="M129.438 25.5C129.438 25.5 126.278 35.2143 128.344 40.0714C130.411 44.9286 133.692 57.0714 133.692 57.0714H120.809C120.809 57.0714 113.274 42.5 116.555 25.5H129.438Z" fill="url(#paint7_linear)"/>
<path d="M99.6612 103.214C98.932 103.214 98.4458 102.729 98.4458 102V86.4571C98.4458 85.7286 98.932 85.2429 99.6612 85.2429H108.169V60.7143C108.169 59.9857 108.655 59.5 109.384 59.5C110.113 59.5 110.6 59.9857 110.6 60.7143V86.4571C110.6 87.1857 110.113 87.6714 109.384 87.6714H100.877V102C100.877 102.729 100.39 103.214 99.6612 103.214Z" fill="url(#paint8_linear)"/>
<path d="M78.9999 55.8572H24.3076V60.7143H78.9999H133.692V55.8572H78.9999Z" fill="url(#paint9_linear)"/>
<path d="M109.384 59.5L90.546 27.9286H78.9999H67.4537L48.6152 59.5L67.4537 71.6429L63.0783 91.0714L78.9999 100.786L94.9214 91.0714L90.546 71.6429L109.384 59.5Z" fill="url(#paint10_linear)"/>
<path d="M61.9843 114.143C66.6829 114.143 70.4919 110.609 70.4919 106.25C70.4919 101.891 66.6829 98.3572 61.9843 98.3572C57.2856 98.3572 53.4766 101.891 53.4766 106.25C53.4766 110.609 57.2856 114.143 61.9843 114.143Z" fill="url(#paint11_linear)"/>
<path d="M30.3843 31.5714C25.5228 31.5714 20.6613 25.5 20.6613 25.5C20.6613 25.5 19.4459 43.7143 30.3843 43.7143C33.7874 43.7143 36.4613 41.0429 36.4613 37.6429C36.4613 34.2429 33.7874 31.5714 30.3843 31.5714Z" fill="url(#paint12_linear)"/>
<path d="M61.9845 108.071C63.327 108.071 64.4152 106.984 64.4152 105.643C64.4152 104.302 63.327 103.214 61.9845 103.214C60.642 103.214 59.5537 104.302 59.5537 105.643C59.5537 106.984 60.642 108.071 61.9845 108.071Z" fill="url(#paint13_linear)"/>
<path d="M78.9997 35.2142L75.3535 40.0714L78.9997 44.9285L82.6458 40.0714L78.9997 35.2142Z" fill="url(#paint14_linear)"/>
<path d="M107.197 55.8572H93.5845L87.5075 44.9286L78.9999 58.2857L70.4922 44.9286L64.4152 55.8572H50.8029L48.6152 59.5L54.206 63.1429H65.6306L70.4922 57.0714L78.9999 66.7857L87.5075 57.0714L92.3691 63.1429H103.794L109.384 59.5L107.197 55.8572Z" fill="url(#paint15_linear)"/>
<path d="M96.015 114.143C100.714 114.143 104.523 110.609 104.523 106.25C104.523 101.891 100.714 98.3572 96.015 98.3572C91.3163 98.3572 87.5073 101.891 87.5073 106.25C87.5073 110.609 91.3163 114.143 96.015 114.143Z" fill="url(#paint16_linear)"/>
<path d="M127.615 31.5714C132.477 31.5714 137.338 25.5 137.338 25.5C137.338 25.5 138.553 43.7143 127.615 43.7143C124.212 43.7143 121.538 41.0429 121.538 37.6429C121.538 34.2429 124.212 31.5714 127.615 31.5714Z" fill="url(#paint17_linear)"/>
<path d="M96.0152 108.071C97.3577 108.071 98.446 106.984 98.446 105.643C98.446 104.302 97.3577 103.214 96.0152 103.214C94.6728 103.214 93.5845 104.302 93.5845 105.643C93.5845 106.984 94.6728 108.071 96.0152 108.071Z" fill="url(#paint18_linear)"/>
<path d="M3.646 63.6286L15.7998 48.5714L29.1691 54.7643C29.1691 54.7643 41.3229 80.9928 43.7537 128.593L24.3075 132.357L18.2306 128.593C18.2306 128.593 12.1537 72.3714 3.646 63.6286Z" fill="url(#paint19_linear)"/>
<path d="M42.6596 113.9L31.5996 118.636L36.5827 130.05L43.7535 128.714C43.5104 123.493 43.1458 118.514 42.6596 113.9Z" fill="url(#paint20_linear)"/>
<path d="M154.354 63.6286L142.2 48.5714L128.831 54.7643C128.831 54.7643 116.677 80.9928 114.246 128.593L133.692 132.357L139.769 128.593C139.769 128.593 145.846 72.3714 154.354 63.6286Z" fill="url(#paint21_linear)"/>
<path d="M147.426 55.1284L143.415 64.8427L150.343 71.2784C151.558 67.757 152.895 65.0856 154.353 63.6284L147.426 55.1284Z" fill="url(#paint22_linear)"/>
<path d="M10.5737 55.1284L14.5845 64.8427L7.65677 71.2784C6.44138 67.757 5.10446 65.0856 3.646 63.6284L10.5737 55.1284Z" fill="url(#paint23_linear)"/>
<path d="M115.34 113.9L126.4 118.636L121.417 130.05L114.246 128.714C114.489 123.493 114.854 118.514 115.34 113.9Z" fill="url(#paint24_linear)"/>
<path d="M12.1538 103.214C12.1538 102 12.1538 92.2856 12.1538 92.2856C12.1538 92.2856 26.7384 93.4999 27.9538 98.3571C29.1692 103.214 27.9538 112.928 25.523 115.357H15.8L12.1538 103.214Z" fill="url(#paint25_linear)"/>
<path d="M35.2458 72.8571V65.5714L23.092 63.1428C23.092 63.1428 15.7997 70.4285 17.0151 75.2857C18.2304 80.1428 25.5228 89.8571 29.1689 88.6428C32.8151 87.4285 40.1074 81.3571 40.1074 81.3571L35.2458 72.8571Z" fill="url(#paint26_linear)"/>
<path d="M145.846 103.214C145.846 102 145.846 92.2856 145.846 92.2856C145.846 92.2856 131.262 93.4999 130.046 98.3571C128.831 103.214 130.046 112.928 132.477 115.357H142.2L145.846 103.214Z" fill="url(#paint27_linear)"/>
<path d="M122.754 72.8571V65.5714L134.907 63.1428C134.907 63.1428 142.2 70.4285 140.984 75.2857C139.769 80.1428 132.477 89.8571 128.831 88.6428C125.184 87.4285 117.892 81.3571 117.892 81.3571L122.754 72.8571Z" fill="url(#paint28_linear)"/>
<path d="M26.7384 68C25.5231 69.2143 23.0923 76.5 23.0923 76.5L29.1692 82.5714L44.9692 72.8571L26.7384 68Z" fill="url(#paint29_linear)"/>
<path d="M3.646 111.714L14.5845 97.1428L23.0921 100.786V110.5L3.646 111.714Z" fill="url(#paint30_linear)"/>
<path d="M131.262 68C132.477 69.2143 134.908 76.5 134.908 76.5L128.831 82.5714L113.031 72.8571L131.262 68Z" fill="url(#paint31_linear)"/>
<path d="M154.354 111.714L143.415 97.1428L134.908 100.786V110.5L154.354 111.714Z" fill="url(#paint32_linear)"/>
<path d="M85.0767 83.7856H72.9229V91.0714H85.0767V83.7856Z" fill="url(#paint33_linear)"/>
<path d="M72.9229 91.0714H85.0767V83.7856H72.9229V91.0714Z" fill="url(#paint34_linear)"/>
</g>
<defs>
<linearGradient id="paint0_linear" x1="24.5919" y1="26.7699" x2="139.115" y2="135.228" gradientUnits="userSpaceOnUse">
<stop stop-color="#D88B56"/>
<stop offset="0.9735" stop-color="#B78037"/>
</linearGradient>
<linearGradient id="paint1_linear" x1="78.9998" y1="31.8386" x2="78.9998" y2="69.2094" gradientUnits="userSpaceOnUse">
<stop stop-color="#FBB75D"/>
<stop offset="1" stop-color="#FCA845"/>
</linearGradient>
<linearGradient id="paint2_linear" x1="78.9998" y1="2.62525" x2="78.9998" y2="31.208" gradientUnits="userSpaceOnUse">
<stop stop-color="#FBB75D"/>
<stop offset="1" stop-color="#FCA845"/>
</linearGradient>
<linearGradient id="paint3_linear" x1="78.9998" y1="98.2717" x2="78.9998" y2="122.237" gradientUnits="userSpaceOnUse">
<stop stop-color="#A34F31"/>
<stop offset="0.9735" stop-color="#8E3D1A"/>
</linearGradient>
<linearGradient id="paint4_linear" x1="78.9998" y1="36.651" x2="78.9998" y2="197.759" gradientUnits="userSpaceOnUse">
<stop stop-color="#FBB75D"/>
<stop offset="1" stop-color="#FCA845"/>
</linearGradient>
<linearGradient id="paint5_linear" x1="33.2695" y1="60.001" x2="33.2695" y2="16.4106" gradientUnits="userSpaceOnUse">
<stop offset="0.037" stop-color="#B3561B"/>
<stop offset="0.8519" stop-color="#D7773B"/>
</linearGradient>
<linearGradient id="paint6_linear" x1="53.4768" y1="53.8708" x2="53.4768" y2="101.645" gradientUnits="userSpaceOnUse">
<stop offset="0.037" stop-color="#B3561B"/>
<stop offset="0.8519" stop-color="#D7773B"/>
</linearGradient>
<linearGradient id="paint7_linear" x1="124.73" y1="60.001" x2="124.73" y2="16.4106" gradientUnits="userSpaceOnUse">
<stop offset="0.037" stop-color="#B3561B"/>
<stop offset="0.8519" stop-color="#D7773B"/>
</linearGradient>
<linearGradient id="paint8_linear" x1="104.523" y1="53.8708" x2="104.523" y2="101.645" gradientUnits="userSpaceOnUse">
<stop offset="0.037" stop-color="#B3561B"/>
<stop offset="0.8519" stop-color="#D7773B"/>
</linearGradient>
<linearGradient id="paint9_linear" x1="78.9999" y1="33.159" x2="78.9999" y2="56.3385" gradientUnits="userSpaceOnUse">
<stop stop-color="#A34F31"/>
<stop offset="0.9735" stop-color="#8E3D1A"/>
</linearGradient>
<linearGradient id="paint10_linear" x1="78.9999" y1="87.9987" x2="78.9999" y2="2.22022" gradientUnits="userSpaceOnUse">
<stop stop-color="#E8D0C6"/>
<stop offset="0.9065" stop-color="#F5EBDE"/>
</linearGradient>
<linearGradient id="paint11_linear" x1="61.9843" y1="117.75" x2="61.9843" y2="76.426" gradientUnits="userSpaceOnUse">
<stop offset="0.037" stop-color="#B3561B"/>
<stop offset="0.8519" stop-color="#D7773B"/>
</linearGradient>
<linearGradient id="paint12_linear" x1="28.5412" y1="45.2326" x2="28.5412" y2="20.4814" gradientUnits="userSpaceOnUse">
<stop stop-color="#E8D0C6"/>
<stop offset="0.9065" stop-color="#F5EBDE"/>
</linearGradient>
<linearGradient id="paint13_linear" x1="61.9845" y1="98.6908" x2="61.9845" y2="109.03" gradientUnits="userSpaceOnUse">
<stop stop-color="#FBB75D"/>
<stop offset="1" stop-color="#FCA845"/>
</linearGradient>
<linearGradient id="paint14_linear" x1="78.9997" y1="34.7809" x2="78.9997" y2="46.5577" gradientUnits="userSpaceOnUse">
<stop stop-color="#D43D43"/>
<stop offset="1" stop-color="#C43B2C"/>
</linearGradient>
<linearGradient id="paint15_linear" x1="78.9999" y1="74.5026" x2="78.9999" y2="36.1944" gradientUnits="userSpaceOnUse">
<stop offset="0.037" stop-color="#B3561B"/>
<stop offset="0.8519" stop-color="#D7773B"/>
</linearGradient>
<linearGradient id="paint16_linear" x1="96.015" y1="117.75" x2="96.015" y2="76.426" gradientUnits="userSpaceOnUse">
<stop offset="0.037" stop-color="#B3561B"/>
<stop offset="0.8519" stop-color="#D7773B"/>
</linearGradient>
<linearGradient id="paint17_linear" x1="129.458" y1="45.2326" x2="129.458" y2="20.4814" gradientUnits="userSpaceOnUse">
<stop stop-color="#E8D0C6"/>
<stop offset="0.9065" stop-color="#F5EBDE"/>
</linearGradient>
<linearGradient id="paint18_linear" x1="96.0152" y1="98.6908" x2="96.0152" y2="109.03" gradientUnits="userSpaceOnUse">
<stop stop-color="#FBB75D"/>
<stop offset="1" stop-color="#FCA845"/>
</linearGradient>
<linearGradient id="paint19_linear" x1="23.6998" y1="132.93" x2="23.6998" y2="27.8874" gradientUnits="userSpaceOnUse">
<stop offset="0.037" stop-color="#B3561B"/>
<stop offset="0.8519" stop-color="#D7773B"/>
</linearGradient>
<linearGradient id="paint20_linear" x1="37.6765" y1="97.4721" x2="37.6765" y2="144.289" gradientUnits="userSpaceOnUse">
<stop stop-color="#A34F31"/>
<stop offset="0.9735" stop-color="#8E3D1A"/>
</linearGradient>
<linearGradient id="paint21_linear" x1="134.3" y1="132.93" x2="134.3" y2="27.8874" gradientUnits="userSpaceOnUse">
<stop offset="0.037" stop-color="#B3561B"/>
<stop offset="0.8519" stop-color="#D7773B"/>
</linearGradient>
<linearGradient id="paint22_linear" x1="148.884" y1="42.255" x2="148.884" y2="86.1071" gradientUnits="userSpaceOnUse">
<stop stop-color="#A34F31"/>
<stop offset="0.9735" stop-color="#8E3D1A"/>
</linearGradient>
<linearGradient id="paint23_linear" x1="9.11535" y1="42.255" x2="9.11535" y2="86.1071" gradientUnits="userSpaceOnUse">
<stop stop-color="#A34F31"/>
<stop offset="0.9735" stop-color="#8E3D1A"/>
</linearGradient>
<linearGradient id="paint24_linear" x1="120.323" y1="97.4721" x2="120.323" y2="144.289" gradientUnits="userSpaceOnUse">
<stop stop-color="#A34F31"/>
<stop offset="0.9735" stop-color="#8E3D1A"/>
</linearGradient>
<linearGradient id="paint25_linear" x1="20.2923" y1="78.5251" x2="20.2923" y2="136.543" gradientUnits="userSpaceOnUse">
<stop stop-color="#A34F31"/>
<stop offset="0.9735" stop-color="#8E3D1A"/>
</linearGradient>
<linearGradient id="paint26_linear" x1="28.4929" y1="50.9167" x2="28.4929" y2="95.1555" gradientUnits="userSpaceOnUse">
<stop stop-color="#A34F31"/>
<stop offset="0.9735" stop-color="#8E3D1A"/>
</linearGradient>
<linearGradient id="paint27_linear" x1="137.708" y1="78.5251" x2="137.708" y2="136.543" gradientUnits="userSpaceOnUse">
<stop stop-color="#A34F31"/>
<stop offset="0.9735" stop-color="#8E3D1A"/>
</linearGradient>
<linearGradient id="paint28_linear" x1="129.507" y1="63.9942" x2="129.507" y2="91.9851" gradientUnits="userSpaceOnUse">
<stop stop-color="#A34F31"/>
<stop offset="0.9735" stop-color="#8E3D1A"/>
</linearGradient>
<linearGradient id="paint29_linear" x1="34.0307" y1="80.5975" x2="34.0307" y2="66.935" gradientUnits="userSpaceOnUse">
<stop stop-color="#E8D0C6"/>
<stop offset="0.9065" stop-color="#F5EBDE"/>
</linearGradient>
<linearGradient id="paint30_linear" x1="13.3691" y1="109.923" x2="13.3691" y2="80.9157" gradientUnits="userSpaceOnUse">
<stop stop-color="#E8D0C6"/>
<stop offset="0.9065" stop-color="#F5EBDE"/>
</linearGradient>
<linearGradient id="paint31_linear" x1="123.969" y1="80.5975" x2="123.969" y2="66.935" gradientUnits="userSpaceOnUse">
<stop stop-color="#E8D0C6"/>
<stop offset="0.9065" stop-color="#F5EBDE"/>
</linearGradient>
<linearGradient id="paint32_linear" x1="144.631" y1="109.923" x2="144.631" y2="80.9157" gradientUnits="userSpaceOnUse">
<stop stop-color="#E8D0C6"/>
<stop offset="0.9065" stop-color="#F5EBDE"/>
</linearGradient>
<linearGradient id="paint33_linear" x1="78.9998" y1="134.67" x2="78.9998" y2="134.481" gradientUnits="userSpaceOnUse">
<stop stop-color="#A34F31"/>
<stop offset="0.9735" stop-color="#8E3D1A"/>
</linearGradient>
<linearGradient id="paint34_linear" x1="78.9998" y1="78.1528" x2="78.9998" y2="96.3176" gradientUnits="userSpaceOnUse">
<stop stop-color="#A34F31"/>
<stop offset="0.9735" stop-color="#8E3D1A"/>
</linearGradient>
<clipPath id="clip0">
<rect width="158" height="136" fill="white"/>
</clipPath>
</defs>
</svg>
