<svg width="31" height="30" viewBox="0 0 31 30" fill="none" xmlns="http://www.w3.org/2000/svg">
<path d="M17.4412 13.4524C17.8469 12.5462 18.1645 11.8143 18.5526 10.9081C19.5052 11.1521 20.3697 11.3787 21.2871 11.6052C21.6399 10.9604 21.8516 9.94966 22.4691 9.54885C23.1042 9.14803 24.145 9.35715 25.2388 9.27002C24.9213 10.6816 24.7801 11.884 24.3744 12.9993C24.0568 13.8881 24.2332 14.5155 24.7448 15.23C25.1859 15.8399 25.4858 16.5195 25.9268 17.3212C24.7801 17.6174 23.8451 17.8614 22.8043 18.1228C22.1162 17.0423 21.6223 15.8573 20.7578 15.0731C19.9286 14.3586 18.7114 14.0624 17.4412 13.4524Z" fill="#555555"/>
<path d="M3.96278 23.7168C5.10949 24.3267 5.99158 25.0587 7.0148 25.2678C7.9851 25.4769 9.06125 25.1632 10.1374 25.0761C9.57286 27.7598 6.8031 28.666 3.46881 27.237C3.60995 26.1565 3.76872 25.0064 3.96278 23.7168Z" fill="#555555"/>
<path d="M28.0791 21.5559C26.95 21.7999 25.8033 22.0264 24.4978 22.3052C24.1097 21.2248 23.7392 20.1617 23.3158 18.9767C24.1979 18.4888 24.9918 18.0531 26.0327 17.478C26.5266 19.0464 27.8674 20.0049 28.0262 21.6082C28.0262 21.5907 28.0791 21.5559 28.0791 21.5559Z" fill="#555555"/>
<path d="M14.2303 8.99121C15.677 9.54887 16.9119 10.0194 18.3762 10.5945C17.7587 11.3961 17.2471 12.0757 16.6296 12.8774C15.3065 12.3894 14.0363 11.9015 12.572 11.3612C13.1895 10.4725 13.6835 9.77541 14.2303 8.99121Z" fill="#555555"/>
<path d="M26.6148 5.1922C26.4737 5.69757 26.3855 6.06353 26.262 6.44692C25.4328 8.93894 25.4328 8.93894 22.4337 8.69497C22.7689 7.5448 23.1041 6.44692 23.4746 5.1922C24.4802 5.1922 25.4681 5.1922 26.6148 5.1922Z" fill="#555555"/>
<path d="M9.41406 24.2919C10.7196 22.7757 11.5311 21.0505 13.5952 20.702C14.9183 20.4754 15.7122 19.6912 16.2414 18.4888C16.806 17.1818 17.5469 15.9619 18.1997 14.7072C18.3055 14.742 18.4114 14.7943 18.5349 14.8292C18.4819 15.108 18.4819 15.4217 18.3584 15.6831C17.7233 16.9204 17.0177 18.1228 16.4002 19.3775C15.9944 20.214 15.4299 20.7891 14.5655 21.1551C13.3658 21.6604 12.3602 22.3924 11.5664 23.4728C10.9665 24.2744 10.9136 24.2222 9.41406 24.2919Z" fill="#555555"/>
<path d="M2.74553 26.5399C0.752016 23.6645 1.01664 21.7824 3.68055 19.3427C3.36299 21.8173 3.08073 24.0479 2.74553 26.5399Z" fill="#555555"/>
<path d="M27.5851 2.76988C27.3734 4.39057 27.144 4.65197 26.0503 4.56483C25.4681 4.51255 24.8859 4.40799 24.3214 4.26858C23.1923 3.97232 23.0335 3.51923 23.5804 2.09024C24.8506 2.29936 26.1561 2.52591 27.5851 2.76988Z" fill="#555555"/>
<path d="M12.5014 12.6508C11.8487 13.9578 11.2136 15.2997 10.5079 16.5893C10.3668 16.8507 9.96103 16.9552 9.66112 17.1295C9.60819 17.1643 9.55527 17.1469 9.4847 17.1469C7.59704 17.3735 5.58588 17.3386 4.50973 19.6389C4.29803 18.0008 4.91549 16.9901 6.04456 16.7287C6.27391 16.6764 6.52089 16.6415 6.75023 16.6764C9.09658 17.0598 10.4726 15.9619 11.3018 13.8881C11.5135 13.3828 11.9016 12.9471 12.2015 12.4766C12.2897 12.5463 12.3956 12.5985 12.5014 12.6508Z" fill="#555555"/>
<path d="M12.3956 7.24854C13.3835 7.47508 13.8069 7.99788 13.5599 8.57296C13.1894 9.46173 12.6249 10.2982 11.9722 11.0127C11.7781 11.2218 11.0195 11.0127 10.5785 10.821C10.455 10.7687 10.455 10.0717 10.6314 9.79283C11.1606 8.9215 11.7957 8.08502 12.3956 7.24854Z" fill="#555555"/>
<path d="M28.0262 21.5907C28.6436 21.5559 29.1905 21.6256 29.4375 22.5666C28.3261 23.438 26.8795 23.8562 25.5387 24.4313C25.3623 24.501 24.9389 24.3093 24.8506 24.135C24.7448 23.9433 24.8154 23.5425 24.9565 23.3682C25.2211 23.072 25.5916 22.8803 25.9268 22.6886C26.6325 22.2878 27.3558 21.9218 28.0614 21.5559C28.0791 21.5559 28.0262 21.5907 28.0262 21.5907Z" fill="#555555"/>
<path d="M22.3279 6.27266C21.6222 7.54481 20.9165 8.81696 20.1932 10.1065C20.2462 8.451 20.9871 7.17885 21.9751 6.01126C22.0985 6.09839 22.2044 6.18553 22.3279 6.27266Z" fill="#555555"/>
</svg>
