<svg width="31" height="30" viewBox="0 0 31 30" fill="none" xmlns="http://www.w3.org/2000/svg">
<path d="M14.4995 12.8343C14.4995 12.8343 12.287 11.2828 12.2288 11.1909C12.1705 11.099 12.0192 10.2715 12.0192 10.2715L12.6363 10.5244L13.0439 10.8117L14.4529 12.524L14.4995 12.8343Z" fill="#555555"/>
<path d="M14.779 11.5586C14.779 11.5586 13.3816 9.27171 13.3583 9.15679C13.3467 9.04187 13.533 8.23743 13.533 8.23743L13.9988 8.7086L14.2549 9.13381L14.8488 11.2598L14.779 11.5586Z" fill="#555555"/>
<path d="M18.7148 12.8343C18.7148 12.8343 20.1937 10.5933 20.2869 10.5244C20.38 10.4669 21.2068 10.2715 21.2068 10.2715L20.9739 10.8921L20.7061 11.3058L19.0292 12.7653L18.7148 12.8343Z" fill="#555555"/>
<path d="M19.9608 16.4772C19.5766 17.3047 19.2971 18.0172 18.9594 18.6263C18.6333 19.2468 18.4121 19.6606 18.0977 20.1662C17.9812 20.3501 17.7134 20.5799 17.4922 20.5914C16.7236 20.6144 15.9434 20.6719 15.1865 20.6833C14.3831 20.6948 13.5796 20.6604 12.7761 20.6374C12.6946 20.6374 12.6131 20.6259 12.5316 20.6144C12.1007 20.5684 11.3438 20.396 10.6219 18.7642C10.1211 17.6379 10.1794 17.8563 9.56219 16.2704C11.3205 16.799 12.9624 17.0289 14.5927 17.0518C15.3961 17.0633 16.1996 17.0174 17.0031 16.9369C17.9696 16.845 18.9478 16.6841 19.9608 16.4772Z" fill="#555555"/>
<path d="M14.7557 15.0752C14.9187 15.0637 15.0934 15.0637 15.2564 15.0637L14.8372 16.2589C13.2186 16.2704 11.5884 16.1095 9.87661 15.6383C9.36424 15.5004 8.96833 15.0637 8.7005 14.2708C10.913 15.1212 12.846 15.1557 14.7557 15.0752Z" fill="#555555"/>
<path d="M20.8225 14.2018C20.7177 14.8454 20.5431 15.2936 20.0074 15.443C19.3437 15.6269 18.6683 15.9371 18.0511 16.0176C17.7833 16.0521 17.5155 16.0865 17.2593 16.1095L17.6203 14.9603C18.6333 14.8799 19.693 14.6845 20.8225 14.2018Z" fill="#555555"/>
<path d="M10.6336 13.7996H15.699L15.5709 14.1444C13.8009 14.1674 12.0658 14.0984 10.3424 14.2938L10.3308 14.2593C10.2609 14.018 10.4007 13.7996 10.6336 13.7996Z" fill="#555555"/>
<path d="M19.1573 13.8801C18.7381 13.949 18.3189 13.995 17.9114 14.041L17.9812 13.7996H19.169C19.2156 13.7996 19.2039 13.8686 19.1573 13.8801Z" fill="#555555"/>
<path d="M20.5547 26.5098C18.2491 27.1879 10.5753 27.2339 9.25946 26.303C9.76018 25.4756 10.1328 24.7975 10.5287 24.2114C10.9246 23.6368 11.1692 23.2691 11.5185 22.8209C11.6466 22.66 11.9261 22.4531 12.159 22.4531C12.9392 22.4302 13.7077 22.3842 14.4762 22.3727C15.2797 22.3612 16.0832 22.3957 16.8983 22.4072C16.9798 22.4072 17.0614 22.4187 17.1429 22.4187C17.5737 22.4646 18.3423 22.614 19.204 24.0735C19.8211 25.1538 19.7396 24.9354 20.5547 26.5098Z" fill="#555555"/>
<path d="M8.97996 26.8202C10.7849 27.6361 12.8343 27.6591 14.8838 27.5786C16.9099 27.4982 18.9943 27.6476 20.7643 26.7627C21.0671 27.3488 21.1952 27.8085 20.7177 27.9809C20.0889 28.1992 19.495 28.5669 18.808 28.6704C15.6174 29.1301 12.3453 29.222 9.34094 28.1992C8.86351 28.0383 8.73542 27.5671 8.97996 26.8202Z" fill="#555555"/>
<path d="M11.0178 19.5227C11.0411 19.5572 11.6466 20.7523 11.6116 21.3614C11.5767 21.9705 11.5418 22.7634 11.0993 23.3955C10.6568 24.0276 18.1326 23.8897 18.1326 23.8897L18.9594 23.7173C18.9594 23.7173 18.1559 22.66 18.0278 21.8786C17.8997 21.0971 18.2025 20.0513 18.4354 19.6261C18.6683 19.2009 11.0178 19.5227 11.0178 19.5227Z" fill="#555555"/>
<path d="M22.15 2.1926L20.3567 6.67451L19.332 9.12232L18.3073 10.1796L18.0278 11.03L17.9812 12.0873L18.0278 13.6847L17.9928 13.7996L17.923 14.0409L17.6319 14.9718L17.2709 16.121C16.4558 16.2014 15.6523 16.2589 14.8372 16.2704L15.2564 15.0752L15.5824 14.1559L15.7105 13.8111L16.0715 12.7768L16.9565 11.6391L17.7017 10.0877L17.888 8.27191L18.2607 5.88156L19.7163 1.70993C19.8909 1.21578 20.4033 0.916981 20.9273 1.02041L21.2766 1.08936L22.0219 1.72143C22.1616 1.82486 22.2082 2.02022 22.15 2.1926Z" fill="#555555"/>
<path d="M17.0031 16.9485L16.2578 19.3503L15.5592 19.9364L14.1152 19.1549L14.5927 17.0634C15.3961 17.0749 16.188 17.0289 17.0031 16.9485Z" fill="#555555"/>
</svg>
