<svg width="31" height="30" viewBox="0 0 31 30" fill="none" xmlns="http://www.w3.org/2000/svg">
<path fill-rule="evenodd" clip-rule="evenodd" d="M29.3409 25.6826C29.33 25.7014 29.3174 25.7193 29.3043 25.7368C29.2926 25.7525 29.2799 25.7682 29.2656 25.7839C29.2495 25.8014 29.2325 25.818 29.2147 25.8337C29.211 25.8369 29.2078 25.8404 29.2045 25.8439C29.2016 25.8469 29.1988 25.85 29.1957 25.8528C29.1943 25.8542 29.1927 25.8555 29.1912 25.8568C29.189 25.8588 29.1865 25.8599 29.184 25.8611C29.182 25.862 29.18 25.8629 29.1781 25.8642C29.1267 25.9035 29.0702 25.935 29.0084 25.9581L28.992 25.9631L28.9757 25.9681C28.9152 25.9869 28.8521 26 28.7851 26H28.7846H28.7842H2.08993H2.08949C2.0229 26 1.95936 25.9869 1.89886 25.9681C1.88798 25.9651 1.87709 25.962 1.86621 25.9581C1.80441 25.9354 1.74783 25.9035 1.69647 25.8642C1.69454 25.8629 1.69243 25.862 1.69035 25.861L1.69034 25.861L1.69033 25.861L1.69031 25.861C1.68771 25.8599 1.68514 25.8587 1.68298 25.8568C1.67864 25.8531 1.67484 25.8491 1.67104 25.8451L1.67103 25.845L1.67101 25.845L1.67098 25.845L1.67097 25.845C1.66718 25.841 1.66338 25.8369 1.65904 25.8332C1.64163 25.8175 1.62465 25.8014 1.60899 25.7843C1.59549 25.7691 1.58244 25.7534 1.57025 25.7372C1.55719 25.7197 1.54544 25.7023 1.53412 25.6835C1.52324 25.6656 1.51367 25.6477 1.50453 25.6289C1.49539 25.6093 1.48712 25.5901 1.47972 25.5696C1.47232 25.5499 1.46623 25.5298 1.461 25.5093C1.45578 25.4888 1.45143 25.4687 1.44795 25.4473C1.44446 25.4255 1.44229 25.4028 1.44098 25.3801C1.44078 25.3747 1.44002 25.3693 1.43926 25.364L1.43926 25.3639C1.43838 25.3577 1.4375 25.3515 1.4375 25.3452C1.4375 25.3404 1.43816 25.3358 1.43883 25.3312L1.43883 25.3312C1.43937 25.3275 1.43992 25.3238 1.44011 25.3199C1.44094 25.2978 1.44374 25.2766 1.44664 25.2546L1.44708 25.2513C1.45012 25.2308 1.45317 25.2107 1.45796 25.1906C1.46274 25.1701 1.46971 25.15 1.47667 25.13C1.48407 25.109 1.49147 25.0885 1.50061 25.0684C1.50888 25.0509 1.51889 25.0339 1.5289 25.0169C1.54065 24.9959 1.55284 24.9759 1.5672 24.9567C1.56938 24.9537 1.5712 24.9505 1.57303 24.9473L1.57303 24.9473C1.57522 24.9435 1.57742 24.9397 1.58026 24.9361L14.6027 8.57395L11.8085 5.06324C11.5834 4.7808 11.6296 4.3687 11.9112 4.143C12.1932 3.91774 12.6036 3.96358 12.8287 4.24603L15.4379 7.52449L18.0472 4.24603C18.2718 3.96402 18.6827 3.91731 18.9643 4.143C19.2459 4.3687 19.2924 4.7808 19.067 5.06324L16.2727 8.57395L29.2947 24.9353C29.2971 24.9385 29.2991 24.9419 29.3011 24.9453C29.303 24.9487 29.305 24.9521 29.3074 24.9553C29.3217 24.975 29.3348 24.9955 29.347 25.0165L29.3504 25.0226L29.3504 25.0226L29.3505 25.0227C29.3589 25.0375 29.3671 25.0522 29.3744 25.0675C29.384 25.0876 29.3909 25.1081 29.3983 25.1291C29.4057 25.1492 29.4123 25.1693 29.4175 25.1898C29.4216 25.2086 29.4246 25.2282 29.4275 25.2474L29.4279 25.25C29.4314 25.2731 29.434 25.2959 29.4349 25.319C29.4351 25.3229 29.4356 25.3266 29.4362 25.3304C29.4368 25.3349 29.4375 25.3395 29.4375 25.3443C29.4375 25.3512 29.4365 25.3579 29.4355 25.3646C29.4348 25.3693 29.4342 25.3741 29.434 25.3788C29.4327 25.4015 29.4305 25.4242 29.4271 25.4469C29.4236 25.4678 29.4197 25.4879 29.4144 25.5084C29.4088 25.529 29.4031 25.549 29.3953 25.5687C29.3879 25.5892 29.3796 25.6089 29.3705 25.6281C29.3618 25.6464 29.3518 25.6647 29.3409 25.6826ZM16.1665 10.5393C16.7619 18.501 20.9233 24.6895 25.956 24.6895H27.4284L16.1665 10.5393ZM3.44702 24.6895L14.7089 10.5393C14.1135 18.501 9.95172 24.6895 4.91945 24.6895H3.44702ZM15.4375 14.4389C14.3699 19.0816 12.0735 22.8176 9.16262 24.6895H21.7124C18.8015 22.8176 16.5047 19.0816 15.4375 14.4389Z" fill="#555555"/>
</svg>
