<svg width="31" height="30" viewBox="0 0 31 30" fill="none" xmlns="http://www.w3.org/2000/svg">
<path fill-rule="evenodd" clip-rule="evenodd" d="M22.4375 19.6667V13.8333C22.4375 10.2517 20.5358 7.25332 17.1875 6.45999V5.66666C17.1875 4.69832 16.4058 3.91666 15.4375 3.91666C14.4692 3.91666 13.6875 4.69832 13.6875 5.66666V6.45999C10.3508 7.25332 8.43749 10.24 8.43749 13.8333V19.6667L6.10416 22V23.1667H24.7708V22L22.4375 19.6667ZM15.4375 26.6667C16.7208 26.6667 17.7708 25.6167 17.7708 24.3333H13.1042C13.1042 25.6167 14.1542 26.6667 15.4375 26.6667ZM10.4375 21H20.4375V13.5714C20.4375 10.501 18.55 8 15.4375 8C12.325 8 10.4375 10.501 10.4375 13.5714V21Z" fill="#555555"/>
</svg>
