<svg width="25" height="25" viewBox="0 0 25 25" fill="none" xmlns="http://www.w3.org/2000/svg">
<mask id="mask0" mask-type="alpha" maskUnits="userSpaceOnUse" x="0" y="0" width="25" height="25">
<rect width="25" height="25" fill="#C4C4C4"/>
</mask>
<g mask="url(#mask0)">
<path d="M21.7249 10.1234C22.0343 10.2441 22.2954 10.3462 22.5566 10.467C22.6339 10.5041 22.7403 10.5691 22.7597 10.6342C22.8854 11.3214 23.0014 12.018 23.1271 12.8074C22.895 12.6309 22.75 12.5102 22.5372 12.3523C22.4985 12.9003 22.4599 13.3925 22.4308 13.8847C22.4018 13.894 22.3728 13.9033 22.3438 13.9126C22.2277 13.699 22.1117 13.4761 21.957 13.1789C21.8409 13.6804 21.7539 14.1076 21.6378 14.6184C21.5314 14.4048 21.4541 14.2655 21.3574 14.0705C21.222 14.377 21.0962 14.6556 20.9608 14.9621C20.8738 14.8971 20.8158 14.8413 20.7481 14.7856C20.487 15.1107 20.2742 15.4636 19.9841 15.7422C18.8429 16.8288 17.4503 17.4975 15.9416 17.9712C15.7579 18.0269 15.5258 17.9062 15.313 17.8597C15.4 17.6833 15.4387 17.4418 15.5838 17.3396C16.8023 16.4295 17.8758 15.3986 18.7752 14.2005C19.1814 13.6618 19.5489 13.1046 20.1388 12.7052C20.8448 12.2223 21.2606 11.5072 21.5121 10.6992C21.5508 10.4763 21.6475 10.2905 21.7249 10.1234Z" fill="#686868"/>
<path d="M17.1795 18.6771C17.0732 18.2963 17.1022 18.0362 17.547 17.8598C18.7753 17.3954 19.8874 16.7546 20.6901 15.6865C20.7965 15.7794 20.8642 15.8351 20.9609 15.9094C21.0963 15.7237 21.2317 15.5472 21.4154 15.2872C21.4735 15.4543 21.5605 15.5751 21.5412 15.668C21.3767 16.476 21.193 17.284 21.0092 18.092C20.9996 18.1477 20.9512 18.1941 20.9125 18.2498C20.2356 17.7297 19.9841 17.7948 19.8294 18.4727C19.3749 18.5192 18.93 18.547 18.5045 18.6121C18.0789 18.6771 17.6438 18.3427 17.1795 18.6771Z" fill="#686868"/>
<path d="M20.8644 8.72107C19.8393 10.495 17.4796 10.9222 16.1643 8.7768C16.4061 8.54461 16.5898 8.58176 16.8026 8.83252C17.3345 9.49193 18.0888 9.77055 18.9012 9.59409C19.3654 9.49193 19.7909 9.13901 20.1874 8.84181C20.4872 8.6282 20.4582 8.59105 20.8644 8.72107Z" fill="#686868"/>
<path d="M17.731 19.0205C18.1565 18.9927 18.3789 19.1134 18.3886 19.5221C18.3983 19.7728 18.4563 20.0236 18.5723 20.2743C18.5917 20.0514 18.64 19.8192 18.6304 19.5964C18.611 19.1877 18.7658 18.9555 19.2686 18.9648C19.259 19.6149 19.3847 20.2743 18.8721 20.8409C18.6787 21.0452 18.4176 21.0638 18.2532 20.8316C18.0017 20.4787 17.76 20.1164 17.7987 19.6521C17.8083 19.4663 17.76 19.262 17.731 19.0205Z" fill="#686868"/>
<path d="M15.7676 11.405C16.9185 12.1666 16.6574 13.0768 15.6516 13.9683C15.2067 13.3832 15.2357 12.5567 15.7676 11.405Z" fill="#686868"/>
<path d="M14.5295 13.0767C14.7907 12.9095 14.9261 12.9374 15.0034 13.1881C15.1582 13.7082 15.3419 14.219 15.5353 14.8041C15.8545 14.4605 16.1253 14.1726 16.4251 13.8382C16.6475 14.2655 16.8409 14.6463 17.0633 15.0642C16.4541 15.0642 15.9125 15.0735 15.3612 15.0549C15.2839 15.0549 15.1678 14.9434 15.1388 14.8599C14.9357 14.284 14.7423 13.6897 14.5295 13.0767Z" fill="#686868"/>
<path d="M15.1971 10.2442C15.4678 10.5785 15.5452 10.8943 15.2938 11.2937C14.9069 11.9159 14.6265 12.6125 13.8528 12.919C13.8625 11.8881 14.3267 11.1265 15.1971 10.2442Z" fill="#686868"/>
<path d="M17.5471 11.1078C18.4949 11.1449 18.8527 11.8694 19.3556 12.4173C18.7657 12.9095 18.0984 12.7517 17.8663 12.0644C17.7599 11.7486 17.6535 11.4236 17.5471 11.1078Z" fill="#686868"/>
<path d="M17.4599 14.7671C17.1214 14.0334 16.6089 13.4483 16.9957 12.7053C17.3342 12.8818 17.6824 13.049 18.0208 13.244C18.0885 13.2811 18.1369 13.439 18.1079 13.504C17.9241 13.9034 17.7114 14.2935 17.4599 14.7671Z" fill="#686868"/>
<path d="M16.2029 9.79846C17.1313 10.495 17.5278 11.368 17.6245 12.4454C17.141 12.0553 16.6284 11.7674 16.5317 11.1173C16.4737 10.6901 16.3286 10.2907 16.2029 9.79846Z" fill="#686868"/>
<path d="M19.607 12.3338C19.3556 12.0459 19.0654 11.7023 18.7656 11.3494C19.636 10.95 19.8198 10.9779 20.5354 11.6001C20.2356 11.8323 19.9455 12.0645 19.607 12.3338Z" fill="#686868"/>
<path d="M21.1157 19.7638C21.0964 20.061 21.0964 20.3674 21.0674 20.6646C21.0577 20.7204 20.9804 20.8132 20.9223 20.8225C20.8643 20.8318 20.7483 20.7761 20.7386 20.7296C20.6612 20.4789 20.6129 20.2281 20.5548 19.9774C20.4968 19.7452 20.4388 19.5223 20.3904 19.2901C20.3324 19.0115 20.2744 18.7329 20.226 18.4542C20.2164 18.4078 20.2841 18.3242 20.3227 18.3056C20.3711 18.2964 20.4678 18.3335 20.4871 18.3707C20.6999 18.7793 20.9127 19.1879 21.1157 19.6059C21.1351 19.6523 21.1448 19.708 21.1544 19.7638C21.1448 19.7638 21.1351 19.7638 21.1157 19.7638Z" fill="#686868"/>
<path d="M16.8121 18.7607C16.7348 18.9558 16.6381 19.1415 16.58 19.3365C16.522 19.5409 16.5027 19.7545 16.464 19.9588C16.4156 20.2188 16.3673 20.4696 16.2996 20.7296C16.2899 20.7761 16.1738 20.8225 16.1061 20.8225C16.0578 20.8225 15.9804 20.7482 15.9804 20.7018C15.9321 20.3767 15.8063 20.0238 15.8837 19.7266C16.0191 19.2437 16.2899 18.7886 16.5123 18.3242C16.522 18.3056 16.7348 18.3428 16.7444 18.3799C16.7831 18.4914 16.7541 18.6214 16.7541 18.7329C16.7831 18.7514 16.8025 18.7607 16.8121 18.7607Z" fill="#686868"/>
<path d="M24.5585 8.5444C23.8428 9.16665 23.0014 9.33382 22.1021 9.39883C22.4115 8.75801 23.427 8.40509 24.5585 8.5444Z" fill="#686868"/>
<path d="M15.1003 9.00904C15.7386 8.76757 15.787 8.78615 15.8934 9.3341C16.0094 9.89134 16.1158 10.4579 16.2222 11.0151C16.1835 11.0337 16.1351 11.0523 16.0965 11.0708C15.7676 10.3836 15.4388 9.70559 15.1003 9.00904Z" fill="#686868"/>
<path d="M21.2704 10.1977C21.0964 10.5877 20.932 10.9407 20.7482 11.34C20.4484 11.1636 20.1873 11.0057 19.9165 10.8478C20.5258 9.99335 20.5354 9.99335 21.2704 10.1977Z" fill="#686868"/>
<path d="M24.0849 9.68675C23.4659 10.114 22.8083 10.114 22.1313 9.8725C22.7406 9.436 23.4176 9.55673 24.0849 9.68675Z" fill="#686868"/>
<path d="M21.7444 8.79523C21.3672 10.1419 21.4349 9.92828 20.7192 9.83541C20.845 9.51035 20.9223 9.16672 21.1061 8.8881C21.1738 8.78594 21.4832 8.82309 21.7444 8.79523Z" fill="#686868"/>
<path d="M14.7329 9.16669C15.0714 9.77965 15.0521 9.84466 14.5298 10.0304C14.2687 10.1233 14.0076 10.2069 13.7465 10.2997C13.7272 10.309 13.6981 10.2905 13.5627 10.2626C13.9689 9.88181 14.3268 9.54747 14.7329 9.16669Z" fill="#686868"/>
<path d="M22.17 8.84167C22.3827 8.18226 22.9437 7.84792 23.6883 7.82935C23.7077 7.85721 23.727 7.89436 23.7464 7.92222C23.2241 8.21941 22.6922 8.53518 22.17 8.84167Z" fill="#686868"/>
<path d="M17.5083 20.5068C17.0441 20.3675 16.8023 20.061 16.8894 19.7081C16.9184 19.6059 17.0441 19.5223 17.1311 19.4387C17.2182 19.5223 17.3632 19.5966 17.3826 19.6988C17.46 19.9495 17.4696 20.2189 17.5083 20.5068Z" fill="#686868"/>
<path d="M19.6843 20.451C19.6843 20.1723 19.665 19.9216 19.694 19.6708C19.7036 19.5779 19.81 19.4851 19.868 19.4015C19.9551 19.4758 20.0711 19.5315 20.1195 19.6244C20.2839 19.9773 20.1195 20.3024 19.6843 20.451Z" fill="#686868"/>
<path d="M15.439 19.643C15.1489 19.5223 15.1586 19.3923 15.5164 18.7793C15.6228 18.8164 15.7389 18.8536 15.8452 18.8907C15.7002 19.1508 15.5744 19.3923 15.439 19.643Z" fill="#686868"/>
<path d="M21.1448 18.7699C21.2415 18.7235 21.3382 18.6863 21.4736 18.6213C21.522 18.9371 21.8411 19.1879 21.609 19.6244C21.4252 19.29 21.2995 19.0486 21.1448 18.7699Z" fill="#686868"/>
<path d="M7.63411 12.371C7.61477 13.049 7.29563 13.4391 6.75405 13.4669C6.21248 13.4948 5.90301 13.1604 5.77728 12.4082C5.04229 12.6589 4.74249 12.4825 4.64578 11.6837C4.1042 11.9531 3.5723 12.2131 3.00171 12.501C3.12743 12.9283 3.25315 13.4576 3.45625 13.9499C3.58197 14.2563 3.78506 14.6836 4.0365 14.7486C4.31696 14.8136 4.35565 14.9715 4.48137 15.1015C4.56841 15.0922 4.66512 15.0551 4.72315 15.0829C5.31308 15.3801 5.89334 15.6866 6.49294 15.9745C6.59932 16.021 6.7734 16.021 6.87978 15.9745C7.47938 15.7052 8.07898 15.4173 8.66891 15.1201C8.81398 15.0458 8.92036 14.9158 9.06542 14.8043C9.1041 14.8322 9.1718 14.8786 9.22983 14.9158C9.24917 14.8879 9.27818 14.8693 9.28785 14.8507C9.52963 14.535 9.74239 14.2099 10.0229 13.922C10.3227 13.6062 10.3226 13.3555 9.9068 13.244C9.49094 13.1326 9.36522 12.919 9.44259 12.5196C9.51029 12.1481 9.50062 11.7673 9.52963 11.3215C9.22983 11.498 9.01707 11.628 8.76562 11.7673C8.6399 12.4453 8.37878 12.6032 7.63411 12.371Z" fill="#686868"/>
<path d="M3.78528 18.77C3.35009 19.5501 3.35009 19.5501 4.07541 19.9123C4.20114 19.9773 4.33653 20.0238 4.44291 20.0981C5.32297 20.7203 6.32875 20.8132 7.37322 20.7296C7.46026 20.7203 7.5473 20.7296 7.62467 20.7017C8.41769 20.386 9.20104 20.0516 10.0424 19.7173C9.93603 19.4294 9.849 19.1786 9.73294 18.8814C8.97861 19.1879 8.26295 19.4944 7.5473 19.773C6.95737 20.0052 6.36744 20.0145 5.78718 19.7358C5.11988 19.4108 4.46225 19.095 3.78528 18.77Z" fill="#686868"/>
<path d="M9.7232 12.7238C10.2745 12.8817 10.5743 12.7238 10.8064 12.3244C11.1835 11.6836 11.5897 11.0613 11.522 10.2812C11.5123 10.2162 11.5414 10.1512 11.5704 10.0955C11.6381 9.93758 11.8121 9.70539 11.7541 9.63109C11.58 9.38962 11.3479 9.13886 11.0868 9.01813C10.758 8.86024 10.3712 8.80452 10.0037 8.7488C9.83926 8.72093 9.64584 8.79523 9.52979 8.81381C9.67485 9.22245 9.81024 9.52893 9.87794 9.8447C9.99399 10.4019 10.1004 10.9685 10.1487 11.535C10.1681 11.7858 10.0423 12.0458 9.96498 12.2966C9.91662 12.4359 9.81991 12.5566 9.7232 12.7238Z" fill="#686868"/>
<path d="M4.94572 16.0767C4.92638 16.9404 4.89737 17.7484 4.8877 18.5564C4.8877 18.64 5.01342 18.77 5.11013 18.7979C5.57434 18.9465 6.05789 19.0765 6.60913 19.2344C6.60913 18.6307 6.60913 18.1013 6.60913 17.5719C6.60913 16.6803 6.60913 16.6803 5.75808 16.3646C5.51631 16.2903 5.27453 16.1974 4.94572 16.0767Z" fill="#686868"/>
<path d="M6.77344 19.2528C7.36337 19.0856 7.87593 18.9649 8.36915 18.7977C8.4852 18.7606 8.63026 18.5748 8.63026 18.4634C8.61092 17.7018 8.54323 16.9495 8.49487 16.1136C7.99198 16.2994 7.5181 16.4759 7.0539 16.6616C6.99587 16.6802 6.94751 16.7916 6.94751 16.8566C6.87982 17.6182 6.83146 18.3891 6.77344 19.2528Z" fill="#686868"/>
<path d="M4.52026 9.11096C4.76204 9.92825 4.9071 10.6527 5.44868 11.182C5.82585 11.5535 6.31907 11.73 6.87031 11.6557C7.75038 11.5443 8.20491 10.9684 8.49504 10.2347C8.63044 9.90039 8.74649 9.56604 8.87221 9.21312C8.55307 9.10167 8.38866 9.12025 8.4757 9.46388C8.53373 9.72393 8.46603 9.90968 8.15656 9.9654C8.09853 9.97469 8.01149 10.0211 8.00182 10.0583C7.93412 10.4112 7.72136 10.5226 7.36354 10.4205C7.32485 10.4112 7.26683 10.4576 7.22814 10.4855C6.72525 10.8663 6.57051 10.8477 6.19335 10.3555C5.85486 10.5134 5.54539 10.5505 5.43901 10.0861C5.42934 10.0583 5.41967 10.0211 5.40999 10.0211C4.95546 9.92825 4.81039 9.68678 5.02316 9.26885C4.89743 9.2317 4.75237 9.18526 4.52026 9.11096Z" fill="#686868"/>
<path d="M10.613 14.154C10.6227 14.1726 10.6324 14.1911 10.642 14.1911C11.1643 14.4048 12.3732 13.7082 12.3925 13.1695C12.4215 12.538 12.4409 11.9157 12.4312 11.2842C12.4312 11.0892 12.2958 10.8941 12.1507 10.6991C12.1797 11.4142 11.7155 11.8879 11.3577 12.408C10.9902 12.9466 10.6421 13.476 10.613 14.154Z" fill="#686868"/>
<path d="M1.28044 12.4916C1.60926 12.213 1.84136 12.0179 2.15083 11.7579C1.74465 11.6836 1.43518 11.6279 1.12571 11.5629C1.12571 12.1944 1.11604 12.7888 1.13538 13.3832C1.13538 13.4946 1.2611 13.634 1.36748 13.6897C1.72531 13.894 2.09281 14.089 2.46998 14.2562C2.57636 14.3026 2.73109 14.2376 2.92451 14.2191C2.77945 13.6525 2.65373 13.1231 2.48932 12.6031C2.46031 12.5195 2.28623 12.4452 2.17985 12.4359C1.9284 12.4266 1.65761 12.4637 1.28044 12.4916Z" fill="#686868"/>
<path d="M10.1295 14.5906C10.0521 14.7764 9.97474 14.9714 9.8877 15.1943C9.81033 15.1757 9.68461 15.12 9.65559 15.1572C9.37513 15.4544 8.93994 15.7516 8.89158 16.0859C8.77553 16.8753 8.8529 17.7019 8.8529 18.5285C9.19138 18.4728 9.37513 18.3334 9.44283 17.9991C9.66526 16.9496 9.92638 15.9187 10.1778 14.8785C10.1972 14.795 10.2068 14.7114 10.2165 14.6278C10.1875 14.6092 10.1585 14.5999 10.1295 14.5906Z" fill="#686868"/>
<path d="M4.62663 18.5007C4.62663 17.7112 4.68466 16.9218 4.59762 16.1417C4.5686 15.8723 4.17209 15.6494 3.93999 15.3987C3.87229 15.3244 3.79492 15.2687 3.74657 15.1851C3.63052 14.9993 3.52414 14.795 3.41775 14.6093C3.38874 14.6185 3.35006 14.6278 3.32104 14.6371C3.33072 14.73 3.32104 14.8229 3.34039 14.9157C3.61117 15.9838 3.87229 17.0426 4.16242 18.1013C4.21078 18.2778 4.39453 18.4264 4.52025 18.5935C4.55893 18.5564 4.59762 18.5285 4.62663 18.5007Z" fill="#686868"/>
<path d="M6.77369 9.78903C7.23789 9.55684 7.67309 9.34324 8.09861 9.12034C8.1373 9.10176 8.16631 8.97174 8.1373 8.9253C8.10828 8.87887 8.0019 8.84172 7.94388 8.86029C7.82783 8.88815 7.71177 8.95317 7.60539 8.9996C6.96711 9.25036 6.33849 9.18535 5.70988 8.9253C5.61317 8.88815 5.47777 8.9253 5.35205 8.9253C5.41975 9.02747 5.45843 9.16678 5.54547 9.21321C5.92264 9.40825 6.31915 9.58471 6.77369 9.78903Z" fill="#686868"/>
<path d="M3.51446 10.2256C2.71177 9.62194 1.86072 9.82626 1 10.0584C1.82203 10.2535 2.6344 10.5414 3.51446 10.2256Z" fill="#686868"/>
<path d="M6.20293 12.6403C6.23194 12.8911 6.40602 13.0675 6.70582 13.0861C6.98628 13.1047 7.25707 12.8446 7.22805 12.5753C7.19904 12.2874 7.03463 12.1109 6.71549 12.0924C6.42536 12.0831 6.19326 12.3153 6.20293 12.6403Z" fill="#686868"/>
<path d="M1.58984 11.3027C2.47958 11.3677 3.23391 11.3491 3.88187 10.8755C3.06951 10.5411 2.38287 10.8662 1.58984 11.3027Z" fill="#686868"/>
<path d="M5.62268 8.25661C5.71939 8.58167 6.4157 8.87887 6.83155 8.83243C7.42148 8.7767 7.88569 8.55381 7.97273 8.23804C7.17004 8.54452 6.39636 8.63739 5.62268 8.25661Z" fill="#686868"/>
<path d="M12.0345 14.2655C11.5606 14.4698 11.0771 14.6649 10.6032 14.8692C10.5742 14.8413 10.5355 14.8135 10.5065 14.7763C10.5161 14.8785 10.4775 15.0271 10.5355 15.0828C10.6129 15.1478 10.7773 15.1942 10.874 15.1664C11.2318 15.0271 11.5896 14.8785 11.9184 14.6927C12.0248 14.637 12.0538 14.4605 12.1215 14.3398C12.0829 14.3027 12.0538 14.2841 12.0345 14.2655Z" fill="#686868"/>
<path d="M1.36743 14.3586C1.49315 14.4979 1.58986 14.6744 1.73493 14.7673C1.98638 14.9251 2.27651 15.0459 2.55696 15.1388C2.66334 15.1759 2.83742 15.148 2.93413 15.0923C2.99216 15.0552 2.97282 14.8973 2.97282 14.8973C2.4119 14.6651 1.93802 14.4701 1.45447 14.275C1.43513 14.3029 1.40612 14.3307 1.36743 14.3586Z" fill="#686868"/>
<path d="M3.93038 11.4329C3.16637 11.4144 2.94393 11.4979 2.354 12.0088C3.089 12.1295 3.59189 11.9437 3.93038 11.4329Z" fill="#686868"/>
<path d="M1.58032 9.3711C2.21861 9.48255 2.7892 9.58471 3.35978 9.68688C2.85689 9.1482 2.38301 9.05533 1.58032 9.3711Z" fill="#686868"/>
<path d="M8.12741 12.3432C8.2628 12.1203 8.41754 11.981 8.3982 11.8788C8.37886 11.7674 8.19511 11.6095 8.08873 11.6188C7.98235 11.6281 7.80827 11.8045 7.80827 11.916C7.7986 12.0182 7.963 12.1389 8.12741 12.3432Z" fill="#686868"/>
<path d="M5.27467 12.3803C5.43908 12.1759 5.61316 12.0645 5.61316 11.953C5.60348 11.8416 5.43908 11.6558 5.3327 11.6466C5.22631 11.6373 5.03289 11.8044 5.01355 11.9159C4.98454 12.018 5.13928 12.1574 5.27467 12.3803Z" fill="#686868"/>
<path d="M1.1355 11.1729C1.38694 11.0429 1.64806 10.9129 1.93819 10.755C1.38694 10.5228 1.38694 10.5228 1.1355 11.1729Z" fill="#686868"/>
<path d="M8.83342 10.8292C8.71737 10.9871 8.60132 11.0893 8.60132 11.1821C8.60132 11.2564 8.7754 11.405 8.83342 11.3865C8.93013 11.3586 9.05585 11.2379 9.0752 11.145C9.08487 11.0707 8.94947 10.9685 8.83342 10.8292Z" fill="#686868"/>
<path d="M4.54924 10.8848C4.44286 11.0241 4.30747 11.1263 4.32681 11.1913C4.35582 11.2935 4.49122 11.3585 4.57826 11.4421C4.65563 11.3492 4.78135 11.2656 4.80069 11.1634C4.82003 11.1077 4.67497 11.0149 4.54924 10.8848Z" fill="#686868"/>
<path d="M4.19159 10.0305C4.10455 10.1883 4.00785 10.2812 4.01752 10.3741C4.01752 10.4391 4.19159 10.5505 4.23995 10.532C4.32699 10.4948 4.4237 10.3834 4.43337 10.2998C4.43337 10.2348 4.30764 10.1512 4.19159 10.0305Z" fill="#686868"/>
<path d="M11.7735 7.16998C11.7735 7.16998 10.2068 4.94101 10.1875 4.82957C10.1681 4.71812 10.3229 3.89154 10.3229 3.89154L10.8257 4.34662L11.1159 4.75527L11.8412 6.8635L11.7735 7.16998Z" fill="#686868"/>
<path d="M12.5086 6.20414C12.5086 6.20414 11.6575 3.98446 11.6672 3.87301C11.6769 3.76156 12.0444 3 12.0444 3L12.4022 3.56653L12.5666 4.04019L12.7697 6.56635L12.5086 6.20414Z" fill="#686868"/>
<path d="M13.5239 6.60345C13.5239 6.60345 13.6883 3.80795 13.7367 3.70579C13.785 3.60363 14.4427 3.04639 14.4427 3.04639L14.5394 3.6965L14.5007 4.18873L13.7077 6.44557L13.5239 6.60345Z" fill="#686868"/>
<path d="M14.23 6.99352C14.23 6.99352 15.2841 4.38377 15.3615 4.30018C15.4485 4.22589 16.2512 3.89154 16.2512 3.89154L16.1352 4.54166L15.9417 4.99674L14.4621 6.90994L14.23 6.99352Z" fill="#686868"/>
</g>
</svg>
