<svg width="31" height="30" viewBox="0 0 31 30" fill="none" xmlns="http://www.w3.org/2000/svg">
<path d="M14.4581 7.26587C15.428 7.35939 16.0936 7.37809 16.7592 7.49032C17.0065 7.52773 17.2917 7.71477 17.4059 7.92051C19.3076 11.0815 21.2094 14.2425 23.0731 17.4222C23.1682 17.5905 23.2063 17.8337 23.2063 18.0394C23.1682 18.5444 23.0351 19.0307 23.0351 19.517C23.0731 21.2939 22.1983 22.3226 20.4487 22.6593C20.2585 22.6967 20.0683 22.7528 19.9162 22.8651C18.4328 23.8938 17.0445 23.2953 15.6752 22.6219C15.428 22.5097 15.2188 22.2104 15.1047 21.9299C13.6023 18.4696 12.1189 14.9906 10.6165 11.5304C10.4073 11.0441 10.4834 10.7448 10.8637 10.3894C11.8146 9.51036 12.6895 8.57515 13.6403 7.69606C13.9066 7.45291 14.325 7.34069 14.4581 7.26587Z" fill="#AA1A29"/>
<path d="M3.599 9.95923C5.19649 10.2772 6.58479 10.5391 7.95407 10.8757C8.2013 10.9318 8.44853 11.2311 8.56263 11.493C10.4074 15.7949 12.2331 20.0968 14.0397 24.3988C14.1729 24.698 14.0968 25.1843 13.9256 25.4836C13.4882 26.1944 12.9557 26.849 12.3662 27.6159C11.5294 26.0634 10.7687 24.6419 10.008 23.2204C8.98102 21.2939 7.91603 19.3861 6.92711 17.4409C6.67988 16.9733 6.69889 16.3747 6.73693 15.7762C4.7781 14.4295 4.51185 12.1476 3.599 9.95923Z" fill="#357ECD"/>
<path d="M10.9208 1.46759C11.4913 2.72076 11.9668 3.69337 12.3662 4.70339C12.4422 4.89043 12.2901 5.24581 12.1379 5.43285C11.13 6.70473 10.1221 7.99531 9.05707 9.22978C8.86689 9.45423 8.41047 9.62256 8.1252 9.58515C6.52771 9.36071 4.94924 9.06144 3.02844 8.72477C5.50075 6.83566 7.19333 4.40413 9.68466 3.26318C10.103 2.64595 10.4454 2.15964 10.9208 1.46759Z" fill="#F09829"/>
<path d="M19.8591 3.22577C20.1634 4.23579 20.5057 4.98395 20.5818 5.75082C20.6579 6.46157 20.9051 6.94788 21.4566 7.39678C21.856 7.71475 22.2173 8.16364 22.4455 8.61254C24.1762 11.9045 25.8877 15.1964 27.5423 18.507C27.8276 19.0868 27.8276 19.835 27.8466 20.527C26.6485 19.8911 25.4694 19.3674 25.4123 17.8149C25.3933 17.4222 25.108 17.0107 24.8798 16.6366C22.8449 13.2324 20.829 9.8283 18.7561 6.44287C18.3377 5.76952 18.2426 5.24581 18.8131 4.64728C19.1555 4.2919 19.4027 3.86171 19.8591 3.22577Z" fill="#F09829"/>
<path d="M23.7007 23.7816C23.9289 24.2866 24.2713 24.7168 24.2522 25.1282C24.2522 25.5958 24.043 26.3253 23.7197 26.4562C21.837 27.2231 19.8972 27.8403 17.7292 28.6072C17.7292 27.6533 17.7101 26.8864 17.7482 26.1196C17.7482 25.9699 17.9003 25.7642 18.0334 25.7081C19.8972 25.0908 21.7609 24.4549 23.7007 23.7816Z" fill="#AA1A29"/>
<path d="M12.0619 1C14.4771 1.37408 16.6262 1.71075 18.9083 2.06613C18.4328 3.02004 18.0525 3.88043 17.577 4.6847C17.4439 4.89045 17.0255 5.07749 16.7593 5.04008C15.9605 4.94656 15.1618 4.74081 14.363 4.55377C14.1538 4.49766 13.9066 4.42284 13.8115 4.25451C13.241 3.26319 12.7275 2.23447 12.0619 1Z" fill="#357ECD"/>
<path d="M15.0287 25.2031C17.1016 25.8951 17.3108 26.4562 16.5881 29C15.5422 28.6446 14.4772 28.3079 13.3171 27.9152C13.9256 26.9425 14.4772 26.0822 15.0287 25.2031Z" fill="#F09829"/>
<path d="M27.8085 21.8737C27.1239 22.8463 26.5343 23.7067 25.9258 24.5484C25.5835 25.0347 25.2792 25.0721 24.9369 24.511C24.043 23.0521 24.1761 22.5658 26.0779 20.9198C26.6294 21.2004 27.1619 21.4997 27.8085 21.8737Z" fill="#357ECD"/>
</svg>
