<svg width="25" height="25" viewBox="0 0 25 25" fill="none" xmlns="http://www.w3.org/2000/svg">
<path d="M11.3463 15.6925C11.355 15.6666 11.3463 15.6493 11.32 15.6406L9.65547 15.2946C9.62919 15.286 9.61167 15.3033 9.60291 15.3292L8.06105 20.0263C8.05229 20.0522 8.06981 20.0695 8.08733 20.0695H10.4614C10.4877 20.0695 10.514 20.0522 10.5228 20.0263L11.4426 17.4572C11.4514 17.4312 11.4514 17.3966 11.4426 17.3707L11.2324 16.1769C11.2324 16.151 11.2324 16.1164 11.2324 16.0904L11.3463 15.6925Z" fill="#686868"/>
<path d="M12.3187 17.1804C12.3099 17.2064 12.3187 17.2323 12.3362 17.2496L13.5627 19.3516C13.5714 19.3776 13.5802 19.4122 13.589 19.4381L13.6153 20.0177C13.6153 20.0436 13.6328 20.0609 13.6591 20.0609H15.7616C15.7879 20.0609 15.8054 20.0436 15.8054 20.0177L15.7441 19.0662C15.7441 19.0402 15.7266 19.0056 15.7178 18.9883L13.6678 15.5282C13.6503 15.5109 13.6153 15.5023 13.5977 15.5023L12.5202 15.632C12.4939 15.632 12.4851 15.658 12.4939 15.6753L12.5727 16.1856C12.5727 16.2116 12.5727 16.2462 12.564 16.2721L12.3187 17.1804Z" fill="#686868"/>
<path d="M16.5676 8.7551C16.5939 8.76375 16.6026 8.7551 16.5851 8.72915L15.2272 7.37971C15.2097 7.37106 15.1659 7.35376 15.1484 7.35376L13.6591 7.59597C13.6328 7.60462 13.6328 7.62192 13.6591 7.63057L16.5676 8.7551Z" fill="#686868"/>
<path d="M13.2736 7.89868L12.8005 8.71181C12.7918 8.73776 12.783 8.77236 12.7918 8.79831L14.1672 11.0993C14.1847 11.1166 14.2198 11.1252 14.246 11.1166L16.5763 9.75849C16.5939 9.74119 16.6114 9.70658 16.6114 9.68063L16.664 9.20487C16.664 9.17892 16.6464 9.15297 16.6289 9.14432L13.3437 7.88138C13.3174 7.87273 13.2911 7.88138 13.2736 7.89868Z" fill="#686868"/>
<path d="M23.9966 12.3449L22.6124 10.4765C22.5949 10.4592 22.5686 10.4332 22.5511 10.4246L21.2108 10.1131C21.1845 10.1218 21.1494 10.1131 21.1319 10.0958L12.3363 3.85902C12.3187 3.84172 12.3012 3.81577 12.2925 3.78982L12.126 3.35731C12.1173 3.34001 12.0822 3.31406 12.0647 3.29676L11.3814 3.1497C11.3551 3.1497 11.32 3.14105 11.3025 3.12375L10.1549 2.31063C10.0673 2.25008 9.95339 2.26738 9.89206 2.35388C9.82198 2.44903 9.8395 2.57879 9.93587 2.64799L10.9696 3.38326C10.9871 3.40056 10.9959 3.42651 10.9784 3.44381L9.35767 7.38832C9.35767 7.41427 9.36643 7.44887 9.37519 7.46617L10.6192 9.30867C10.6367 9.32597 10.6455 9.36057 10.6367 9.37787L9.638 14.6805C9.638 14.7064 9.638 14.7324 9.638 14.7497C9.638 14.767 9.638 14.8102 9.638 14.8189C9.638 14.8362 9.65553 14.9313 9.68181 14.9313L11.8106 15.3119C11.8369 15.3119 11.872 15.3206 11.8982 15.3119L13.5277 15.1562C13.554 15.1562 13.5803 15.1303 13.5803 15.1043L15.1659 11.7307C15.1835 11.7134 15.2097 11.7134 15.2273 11.7307L18.5475 15.9694C18.5651 15.9867 18.5826 16.0213 18.6001 16.0386C18.6001 16.0386 18.9418 16.4105 19.2046 16.4105C19.3009 16.4105 19.4586 16.3586 19.4586 16.3586C19.4849 16.35 19.5112 16.3327 19.5287 16.3154L19.8441 15.4763C19.8441 15.4503 19.8353 15.4157 19.8178 15.3984L16.2698 10.7965C16.2523 10.7792 16.2172 10.7792 16.1997 10.7879C16.1997 10.7879 15.2974 11.3847 14.7016 11.3847C14.5177 11.3847 14.2023 11.3242 14.2023 11.3242C14.176 11.3155 14.141 11.3069 14.1234 11.2896L12.5728 8.86751C12.564 8.84156 12.5465 8.81561 12.529 8.80696L10.7506 7.12881C10.7331 7.11151 10.7331 7.07691 10.7331 7.05096L12.0647 4.31748C12.0822 4.30018 12.1085 4.27423 12.1173 4.25693C12.126 4.23963 12.1786 4.21368 12.2049 4.23098L20.9041 10.4073C20.9217 10.4246 20.9392 10.4505 20.9479 10.4765L21.6751 11.6356C21.6926 11.6529 21.7276 11.6702 21.7451 11.6788L23.9791 12.3795C23.9966 12.3795 24.0054 12.3709 23.9966 12.3449Z" fill="#686868"/>
<path d="M7.98225 18.9709C7.98225 18.9709 5.73077 19.7062 5.73077 19.8446C5.73077 19.8878 5.80086 20.0349 5.80086 20.0349C5.80962 20.0522 5.8359 20.0868 5.85342 20.0955L7.94721 20.7183C7.97349 20.7269 7.99101 20.7096 7.99977 20.6837L8.02605 20.5107C8.02605 20.4847 8.00853 20.4674 7.99101 20.4588L6.34402 20.0782C6.31773 20.0695 6.28269 20.0522 6.26517 20.0436C6.26517 20.0436 6.00235 19.8792 6.00235 19.8359C6.00235 19.7408 8.02605 19.2131 8.02605 19.2131C8.05233 19.2045 8.06985 19.1872 8.06109 19.1612L8.03481 18.9882C8.02605 18.9709 8.00853 18.9623 7.98225 18.9709Z" fill="#686868"/>
<path d="M9.3839 20.6058C9.35761 20.6058 9.34009 20.6231 9.34009 20.6491L9.32257 20.8221C9.32257 20.848 9.34009 20.8653 9.36637 20.8653C9.36637 20.8653 11.0922 20.9605 12.0471 20.9605C12.4851 20.9605 13.2911 20.9432 13.2911 20.9432C13.3174 20.9432 13.3349 20.9259 13.3349 20.8999L13.3262 20.7269C13.3262 20.701 13.3086 20.6837 13.2824 20.6837C13.2824 20.6837 12.4764 20.701 12.0471 20.701C11.0922 20.7096 9.3839 20.6058 9.3839 20.6058Z" fill="#686868"/>
<path d="M17.8291 20.0436C17.8116 20.0523 17.7766 20.0696 17.7503 20.0782L14.2723 20.6319C14.246 20.6319 14.2285 20.6578 14.2285 20.6838L14.2373 20.8568C14.2373 20.8827 14.2636 20.9 14.2811 20.9L18.1971 20.0782C18.2233 20.0696 18.2496 20.0523 18.2671 20.035C18.2671 20.035 18.346 19.9225 18.346 19.8447C18.346 19.7149 16.3661 19.0143 16.3661 19.0143C16.3398 19.0056 16.3223 19.0229 16.3223 19.0402L16.296 19.2132C16.296 19.2392 16.3048 19.2651 16.3311 19.2651C16.3311 19.2651 18.0832 19.7582 18.0832 19.8447C18.0919 19.8966 17.8291 20.0436 17.8291 20.0436Z" fill="#686868"/>
<path d="M6.88711 18.6164L6.86083 18.4434C6.86083 18.4174 6.83455 18.4088 6.80827 18.4088L4.9335 18.8672C4.90722 18.8759 4.89846 18.9018 4.90722 18.9191L4.96854 19.0835C4.9773 19.1094 5.00358 19.1181 5.0211 19.1094L6.85207 18.6683C6.87835 18.6683 6.89587 18.6423 6.88711 18.6164Z" fill="#686868"/>
<path d="M6.0637 21.1681L6.09875 20.9951C6.10751 20.9692 6.08999 20.9432 6.0637 20.9432L4.01373 20.0955C3.9962 20.0782 3.96992 20.0522 3.9524 20.0349C3.9524 20.0349 3.9086 19.9484 3.9086 19.8879C3.9086 19.7062 4.26778 19.4554 4.26778 19.4554C4.2853 19.4381 4.29406 19.4121 4.27654 19.3948L4.18894 19.2478C4.18018 19.2305 4.1539 19.2218 4.13637 19.2391C4.13637 19.2391 3.65454 19.6457 3.65454 19.8879C3.65454 19.9484 3.68082 20.0263 3.68082 20.0263C3.68958 20.0522 3.7071 20.0782 3.73339 20.0955L6.02866 21.2027C6.03742 21.2027 6.0637 21.1941 6.0637 21.1681Z" fill="#686868"/>
<path d="M7.73691 21.272L7.71063 21.445C7.71063 21.471 7.72815 21.4883 7.74567 21.4883C7.74567 21.4883 10.5053 21.7391 12.0384 21.7391C13.2999 21.7391 15.6039 21.5661 15.6039 21.5661C15.6302 21.5661 15.6477 21.5402 15.639 21.5229L15.6214 21.3498C15.6214 21.3239 15.5952 21.3066 15.5776 21.3066C15.5776 21.3066 13.2999 21.4709 12.0384 21.4709C10.514 21.4709 7.78072 21.2201 7.78072 21.2201C7.7632 21.2374 7.74567 21.2547 7.73691 21.272Z" fill="#686868"/>
<path d="M18.7139 20.7703C18.6876 20.7789 18.6525 20.7962 18.635 20.7962L17.2508 21.099C17.2246 21.1076 17.207 21.1249 17.2158 21.1509L17.2421 21.3239C17.2421 21.3498 17.2684 21.3671 17.2947 21.3585L18.635 21.073C18.6613 21.0644 18.6963 21.0557 18.7226 21.0471C18.7226 21.0471 20.4485 20.4156 20.4485 19.8966C20.4485 18.9797 16.5763 18.3223 16.5763 18.3223C16.55 18.3223 16.5325 18.3309 16.5237 18.3569L16.4974 18.5299C16.4974 18.5558 16.515 18.5818 16.5325 18.5818C16.5325 18.5818 20.1769 19.516 20.1769 19.8966C20.1769 20.1388 18.7139 20.7703 18.7139 20.7703Z" fill="#686868"/>
<path d="M7.95597 17.4399L3.90858 18.1147C3.8823 18.1233 3.87354 18.1406 3.87354 18.1666L3.91734 18.3309C3.9261 18.3569 3.95238 18.3655 3.9699 18.3655L7.97349 17.6994C7.99977 17.6994 8.01729 17.6735 8.00853 17.6475L7.99101 17.4745C7.99977 17.4486 7.98225 17.4313 7.95597 17.4399Z" fill="#686868"/>
<path d="M3.65446 21.5229L2.34037 21.0385C2.31409 21.0298 2.28781 21.0125 2.26152 20.9952C2.26152 20.9952 1.25406 20.3291 1.25406 19.9831C1.25406 19.4901 3.23395 18.5818 3.23395 18.5818C3.25147 18.5731 3.26899 18.5472 3.26023 18.5212L3.20767 18.3569C3.19891 18.3309 3.17263 18.3223 3.15511 18.3309C3.15511 18.3309 1 19.3603 1 19.9745C1 20.4503 2.27029 21.272 2.27029 21.272C2.28781 21.2893 2.32285 21.3066 2.34913 21.3153L3.59313 21.7564C3.61942 21.7651 3.63694 21.7478 3.6457 21.7305L3.69826 21.5661C3.69826 21.5575 3.68074 21.5315 3.65446 21.5229Z" fill="#686868"/>
<path d="M9.98837 22.4137L4.8021 21.7996C4.77582 21.7996 4.7583 21.8082 4.74954 21.8342L4.7145 22.0072C4.70574 22.0331 4.72326 22.0504 4.74954 22.0591L9.97961 22.6819C10.0059 22.6819 10.0234 22.6646 10.0234 22.6386L10.0322 22.4656C10.0234 22.4397 10.0059 22.4224 9.98837 22.4137Z" fill="#686868"/>
<path d="M17.2948 22.1456C17.2948 22.1456 13.8956 22.4657 12.0472 22.4657C11.7405 22.4657 11.1623 22.457 11.1623 22.457C11.1361 22.457 11.1185 22.4743 11.1185 22.5003V22.6733C11.1185 22.6992 11.1361 22.7165 11.1623 22.7165C11.1623 22.7165 11.7405 22.7252 12.0472 22.7252C13.9132 22.7252 17.3386 22.3965 17.3386 22.3965C17.3648 22.3965 17.3824 22.3705 17.3736 22.3532L17.3473 22.1802C17.3386 22.1543 17.321 22.137 17.2948 22.1456Z" fill="#686868"/>
<path d="M19.2921 17.907C19.2658 17.8983 19.2483 17.9156 19.2395 17.9416L19.2045 18.1146C19.1957 18.1405 19.2132 18.1665 19.2395 18.1665C19.2395 18.1665 22.8401 19.317 22.8401 19.9917C22.8401 20.7183 18.7226 21.9207 18.7226 21.9207C18.6963 21.9293 18.6701 21.938 18.6525 21.938C18.635 21.938 18.6 21.9639 18.6 21.9899L18.635 22.1629C18.635 22.1888 18.6525 22.2061 18.6525 22.2061C18.6613 22.2061 18.6963 22.1975 18.7226 22.1888C18.7226 22.1888 23.1029 21.2114 23.1029 19.9917C23.0942 18.8585 19.2921 17.907 19.2921 17.907Z" fill="#686868"/>
</svg>
