<svg width="52" height="52" viewBox="0 0 52 52" fill="none" xmlns="http://www.w3.org/2000/svg">
<path d="M44.9861 21.7959C45.643 22.0664 46.1971 22.2953 46.7513 22.5657C46.9155 22.649 47.1413 22.7946 47.1824 22.9402C47.4492 24.4799 47.6955 26.0404 47.9623 27.8089C47.4697 27.4136 47.1618 27.1431 46.7103 26.7894C46.6282 28.017 46.5461 29.1197 46.4845 30.2225C46.4229 30.2433 46.3613 30.2641 46.2998 30.2849C46.0535 29.8063 45.8072 29.307 45.4788 28.6412C45.2324 29.7647 45.0477 30.7218 44.8014 31.8662C44.5756 31.3876 44.4114 31.0755 44.2062 30.6386C43.9188 31.3252 43.652 31.9494 43.3646 32.636C43.1799 32.4903 43.0567 32.3655 42.9131 32.2407C42.3589 32.9689 41.9073 33.7595 41.2916 34.3837C38.8695 36.8181 35.9139 38.3161 32.7119 39.3772C32.3219 39.5021 31.8293 39.2316 31.3777 39.1276C31.5625 38.7322 31.6446 38.1913 31.9525 37.9624C34.5387 35.9234 36.817 33.6139 38.7259 30.9299C39.5879 29.7231 40.3679 28.4747 41.62 27.5801C43.1183 26.4981 44.0009 24.896 44.5346 23.0859C44.6167 22.5865 44.8219 22.1704 44.9861 21.7959Z" fill="#B1532B"/>
<path d="M35.3391 40.9583C35.1133 40.1053 35.1749 39.5227 36.1191 39.1274C38.7258 38.087 41.0862 36.6514 42.7898 34.2587C43.0156 34.4667 43.1593 34.5916 43.3645 34.758C43.6519 34.3419 43.9393 33.9466 44.3292 33.364C44.4524 33.7385 44.6371 34.009 44.5961 34.2171C44.2471 36.0272 43.8572 37.8374 43.4672 39.6475C43.4466 39.7724 43.344 39.8764 43.2619 40.0012C41.8251 38.8361 41.2915 38.9817 40.9631 40.5006C39.9984 40.6046 39.0542 40.667 38.1511 40.8127C37.248 40.9583 36.3243 40.2093 35.3391 40.9583Z" fill="#B1532B"/>
<path d="M43.1593 18.6543C40.9836 22.6284 35.9754 23.5854 33.184 18.7792C33.6971 18.259 34.0871 18.3422 34.5386 18.904C35.6675 20.3813 37.2685 21.0055 38.9927 20.6101C39.9779 20.3813 40.881 19.5906 41.7226 18.9248C42.3589 18.4463 42.2973 18.363 43.1593 18.6543Z" fill="#B1532B"/>
<path d="M36.5091 41.7285C37.4122 41.666 37.8843 41.9365 37.9048 42.852C37.9254 43.4138 38.0485 43.9756 38.2948 44.5373C38.3359 44.038 38.4385 43.5178 38.418 43.0185C38.3769 42.103 38.7053 41.5828 39.7726 41.6036C39.7521 43.0601 40.019 44.5373 38.9311 45.8065C38.5206 46.2643 37.9664 46.3059 37.6175 45.7857C37.0838 44.9951 36.5707 44.1836 36.6528 43.1433C36.6733 42.7272 36.5707 42.2694 36.5091 41.7285Z" fill="#B1532B"/>
<path d="M32.3424 24.6672C34.7849 26.3734 34.2307 28.4124 32.0961 30.4098C31.1519 29.099 31.2135 27.2472 32.3424 24.6672Z" fill="#B1532B"/>
<path d="M29.7151 28.4121C30.2693 28.0376 30.5567 28.1 30.7209 28.6618C31.0493 29.8269 31.4393 30.9713 31.8498 32.2821C32.5271 31.5122 33.1019 30.8672 33.7381 30.1182C34.2102 31.0753 34.6207 31.9284 35.0928 32.8646C33.7997 32.8646 32.6503 32.8854 31.4803 32.8438C31.3161 32.8438 31.0698 32.5942 31.0083 32.4069C30.5772 31.1169 30.1667 29.7853 29.7151 28.4121Z" fill="#B1532B"/>
<path d="M31.1314 22.0667C31.7061 22.8157 31.8703 23.5231 31.3366 24.4178C30.5156 25.8118 29.9204 27.3722 28.2783 28.0589C28.2988 25.7494 29.2841 24.0432 31.1314 22.0667Z" fill="#B1532B"/>
<path d="M36.1191 24.0015C38.1306 24.0847 38.8901 25.7076 39.9574 26.9352C38.7054 28.0379 37.2891 27.6842 36.7965 26.1445C36.5707 25.4371 36.3449 24.7089 36.1191 24.0015Z" fill="#B1532B"/>
<path d="M35.9344 32.1991C35.216 30.5554 34.1281 29.2446 34.9491 27.5801C35.6675 27.9754 36.4065 28.3499 37.1248 28.7868C37.2685 28.8701 37.3712 29.2238 37.3096 29.3694C36.9196 30.2641 36.468 31.138 35.9344 32.1991Z" fill="#B1532B"/>
<path d="M33.2661 21.0679C35.2365 22.6283 36.078 24.5841 36.2833 26.9977C35.257 26.1238 34.1692 25.4788 33.9639 24.0224C33.8408 23.0653 33.5329 22.1706 33.2661 21.0679Z" fill="#B1532B"/>
<path d="M40.491 26.7479C39.9573 26.1029 39.3416 25.3331 38.7053 24.5424C40.5526 23.6478 40.9425 23.7102 42.4614 25.1042C41.8251 25.6244 41.2094 26.1445 40.491 26.7479Z" fill="#B1532B"/>
<path d="M43.693 43.3931C43.6519 44.0589 43.6519 44.7455 43.5903 45.4113C43.5698 45.5362 43.4056 45.7442 43.2825 45.765C43.1593 45.7858 42.913 45.661 42.8925 45.557C42.7283 44.9952 42.6257 44.4334 42.5025 43.8717C42.3794 43.3515 42.2562 42.8522 42.1536 42.332C42.0304 41.7078 41.9073 41.0836 41.8047 40.4594C41.7841 40.3554 41.9278 40.1681 42.0099 40.1265C42.1125 40.1057 42.3178 40.1889 42.3588 40.2722C42.8104 41.1876 43.2619 42.1031 43.693 43.0394C43.734 43.1434 43.7545 43.2683 43.7751 43.3931C43.7545 43.3931 43.734 43.3931 43.693 43.3931Z" fill="#B1532B"/>
<path d="M34.5592 41.1457C34.395 41.5826 34.1897 41.9988 34.0666 42.4357C33.9434 42.8934 33.9024 43.372 33.8203 43.8297C33.7176 44.4123 33.615 44.9741 33.4713 45.5566C33.4508 45.6607 33.2045 45.7647 33.0608 45.7647C32.9582 45.7647 32.794 45.5983 32.794 45.4942C32.6913 44.766 32.4245 43.9754 32.5887 43.3096C32.8761 42.2276 33.4508 41.2081 33.9229 40.1678C33.9434 40.1262 34.395 40.2094 34.4155 40.2926C34.4976 40.5423 34.436 40.8336 34.436 41.0833C34.4976 41.1249 34.5387 41.1457 34.5592 41.1457Z" fill="#B1532B"/>
<path d="M51 18.2588C49.4811 19.6528 47.6954 20.0273 45.7866 20.1729C46.4434 18.7373 48.5985 17.9467 51 18.2588Z" fill="#B1532B"/>
<path d="M30.9261 19.2993C32.2808 18.7584 32.3835 18.8 32.6092 20.0276C32.8555 21.2759 33.0813 22.5451 33.3071 23.7935C33.225 23.8351 33.1224 23.8767 33.0403 23.9183C32.3424 22.3787 31.6445 20.8598 30.9261 19.2993Z" fill="#B1532B"/>
<path d="M44.0215 21.9625C43.652 22.8363 43.3031 23.627 42.9131 24.5217C42.2768 24.1263 41.7226 23.7726 41.1479 23.4189C42.441 21.5047 42.4615 21.5047 44.0215 21.9625Z" fill="#B1532B"/>
<path d="M49.9943 20.8178C48.6807 21.7749 47.2849 21.7749 45.8481 21.2339C47.1412 20.256 48.578 20.5265 49.9943 20.8178Z" fill="#B1532B"/>
<path d="M45.0271 18.8206C44.2267 21.8375 44.3703 21.3589 42.8514 21.1509C43.1183 20.4226 43.2825 19.6528 43.6725 19.0286C43.8161 18.7998 44.473 18.883 45.0271 18.8206Z" fill="#B1532B"/>
<path d="M30.1462 19.6528C30.8646 21.026 30.8235 21.1717 29.7152 21.5878C29.161 21.7959 28.6068 21.9831 28.0526 22.1912C28.0115 22.212 27.95 22.1704 27.6626 22.108C28.5247 21.2549 29.2841 20.5059 30.1462 19.6528Z" fill="#B1532B"/>
<path d="M45.9303 18.9246C46.3819 17.4474 47.5723 16.6984 49.1528 16.6567C49.1939 16.7192 49.2349 16.8024 49.276 16.8648C48.1676 17.5306 47.0387 18.238 45.9303 18.9246Z" fill="#B1532B"/>
<path d="M36.037 45.0575C35.0517 44.7454 34.5386 44.0588 34.7233 43.2682C34.7849 43.0393 35.0517 42.8521 35.2365 42.6648C35.4212 42.8521 35.7291 43.0185 35.7701 43.2474C35.9343 43.8091 35.9549 44.4125 36.037 45.0575Z" fill="#B1532B"/>
<path d="M40.6552 44.9324C40.6552 44.3082 40.6141 43.7465 40.6757 43.1847C40.6962 42.9766 40.922 42.7686 41.0452 42.5813C41.2299 42.7477 41.4762 42.8726 41.5788 43.0806C41.9278 43.8713 41.5788 44.5995 40.6552 44.9324Z" fill="#B1532B"/>
<path d="M31.6445 43.1225C31.0287 42.852 31.0492 42.5607 31.8087 41.1875C32.0345 41.2707 32.2808 41.354 32.5066 41.4372C32.1987 42.0198 31.9319 42.5607 31.6445 43.1225Z" fill="#B1532B"/>
<path d="M43.7546 41.1666C43.9598 41.0626 44.1651 40.9794 44.4525 40.8337C44.5551 41.5412 45.2324 42.1029 44.7398 43.0808C44.3498 42.3318 44.083 41.7908 43.7546 41.1666Z" fill="#B1532B"/>
<path d="M15.0805 26.8316C15.0394 28.3505 14.3621 29.2243 13.2127 29.2867C12.0632 29.3492 11.4064 28.6001 11.1396 26.9148C9.57966 27.4766 8.94337 27.0813 8.73811 25.2919C7.58868 25.8953 6.45978 26.4779 5.24878 27.1229C5.51561 28.08 5.78244 29.2659 6.21348 30.3687C6.48031 31.0553 6.91134 32.0124 7.44501 32.158C8.04024 32.3037 8.12235 32.6574 8.38918 32.9487C8.57391 32.9279 8.77916 32.8446 8.90231 32.907C10.1544 33.5728 11.3859 34.2595 12.6585 34.9045C12.8843 35.0085 13.2537 35.0085 13.4795 34.9045C14.7521 34.3011 16.0247 33.6561 17.2767 32.9903C17.5846 32.8238 17.8104 32.5325 18.1183 32.2829C18.2004 32.3453 18.344 32.4493 18.4672 32.5325C18.5082 32.4701 18.5698 32.4285 18.5903 32.3869C19.1035 31.6795 19.555 30.9512 20.1503 30.3062C20.7866 29.5988 20.7866 29.0371 19.904 28.7874C19.0214 28.5377 18.7545 28.0592 18.9188 27.1645C19.0624 26.3322 19.0419 25.4792 19.1035 24.4805C18.4672 24.8758 18.0156 25.1671 17.482 25.4792C17.2151 26.998 16.6609 27.3517 15.0805 26.8316Z" fill="#B1532B"/>
<path d="M6.91136 41.1665C5.98771 42.9142 5.98771 42.9142 7.52712 43.7257C7.79395 43.8713 8.08131 43.9754 8.30709 44.1418C10.1749 45.5358 12.3096 45.7439 14.5263 45.5566C14.711 45.5358 14.8958 45.5566 15.06 45.4942C16.7431 44.7868 18.4056 44.0378 20.1913 43.2887C19.9656 42.6437 19.7808 42.082 19.5345 41.4162C17.9335 42.1028 16.4147 42.7894 14.8958 43.4136C13.6437 43.9337 12.3917 43.9545 11.1601 43.3304C9.74387 42.6021 8.34814 41.8947 6.91136 41.1665Z" fill="#B1532B"/>
<path d="M19.514 27.6221C20.6839 27.9758 21.3202 27.6221 21.8128 26.7274C22.6133 25.2918 23.4754 23.8977 23.3317 22.15C23.3112 22.0044 23.3728 21.8587 23.4343 21.7339C23.578 21.3802 23.9475 20.86 23.8243 20.6936C23.4549 20.1526 22.9622 19.5908 22.4081 19.3204C21.7102 18.9666 20.8892 18.8418 20.1092 18.717C19.7603 18.6546 19.3498 18.821 19.1035 18.8626C19.4113 19.7781 19.6987 20.4647 19.8424 21.1721C20.0887 22.4205 20.3145 23.6897 20.4171 24.9589C20.4581 25.5206 20.1913 26.1032 20.0271 26.665C19.9245 26.9771 19.7192 27.2475 19.514 27.6221Z" fill="#B1532B"/>
<path d="M9.37443 35.1331C9.33338 37.068 9.27181 38.8782 9.25128 40.6883C9.25128 40.8756 9.51811 41.1669 9.72337 41.2293C10.7086 41.5622 11.7349 41.8535 12.9048 42.2072C12.9048 40.8548 12.9048 39.6688 12.9048 38.4829C12.9048 36.4855 12.9048 36.4855 11.0986 35.7781C10.5854 35.6116 10.0723 35.4035 9.37443 35.1331Z" fill="#B1532B"/>
<path d="M13.2537 42.2484C14.5058 41.8738 15.5936 41.6034 16.6404 41.2288C16.8867 41.1456 17.1946 40.7295 17.1946 40.4798C17.1536 38.7737 17.0099 37.0884 16.9073 35.2158C15.8399 35.6319 14.8342 36.0273 13.849 36.4434C13.7258 36.485 13.6232 36.7347 13.6232 36.8803C13.4795 38.5864 13.3769 40.3134 13.2537 42.2484Z" fill="#B1532B"/>
<path d="M8.47125 19.5278C8.98439 21.3588 9.29227 22.9817 10.4417 24.1676C11.2422 24.9999 12.289 25.3952 13.4589 25.2288C15.3268 24.9791 16.2915 23.6891 16.9072 22.0454C17.1946 21.2964 17.4409 20.5473 17.7077 19.7567C17.0304 19.507 16.6814 19.5486 16.8662 20.3185C16.9893 20.901 16.8457 21.3172 16.1888 21.442C16.0657 21.4628 15.881 21.5669 15.8604 21.6501C15.7167 22.4407 15.2652 22.6904 14.5057 22.4615C14.4236 22.4407 14.3005 22.5447 14.2184 22.6072C13.1511 23.4602 12.8227 23.4186 12.0222 22.3159C11.3038 22.6696 10.647 22.7528 10.4212 21.7125C10.4006 21.6501 10.3801 21.5669 10.3596 21.5669C9.3949 21.3588 9.08702 20.8178 9.53858 19.8815C9.27175 19.7983 8.96386 19.6943 8.47125 19.5278Z" fill="#B1532B"/>
<path d="M21.4023 30.8259C21.4229 30.8675 21.4434 30.9091 21.4639 30.9091C22.5723 31.3876 25.138 29.8272 25.179 28.6204C25.2406 27.2056 25.2817 25.8116 25.2611 24.3967C25.2611 23.9598 24.9738 23.5229 24.6659 23.0859C24.7275 24.688 23.7422 25.7491 22.9828 26.9143C22.2028 28.1211 21.4639 29.307 21.4023 30.8259Z" fill="#B1532B"/>
<path d="M1.59526 27.1014C2.29312 26.4772 2.78574 26.0403 3.44255 25.4577C2.58048 25.2912 1.92367 25.1664 1.26685 25.0208C1.26685 26.4356 1.24632 27.7672 1.28738 29.0988C1.28738 29.3485 1.55421 29.6606 1.77999 29.7854C2.53943 30.2431 3.3194 30.6801 4.11989 31.0546C4.34567 31.1586 4.67408 31.013 5.08459 30.9714C4.77671 29.7022 4.50988 28.5162 4.16094 27.3511C4.09937 27.1638 3.72991 26.9974 3.50413 26.9765C2.97047 26.9557 2.39575 27.039 1.59526 27.1014Z" fill="#B1532B"/>
<path d="M20.376 31.8037C20.2118 32.2198 20.0476 32.6568 19.8629 33.1561C19.6987 33.1145 19.4318 32.9897 19.3703 33.0729C18.775 33.7387 17.8514 34.4045 17.7488 35.1535C17.5025 36.9221 17.6667 38.7738 17.6667 40.6256C18.385 40.5007 18.775 40.1887 18.9187 39.4396C19.3908 37.0885 19.945 34.779 20.4786 32.4487C20.5197 32.2614 20.5402 32.0742 20.5608 31.8869C20.4992 31.8453 20.4376 31.8245 20.376 31.8037Z" fill="#B1532B"/>
<path d="M8.69709 40.5633C8.69709 38.7948 8.82024 37.0262 8.63551 35.2785C8.57394 34.6751 7.73239 34.1758 7.23978 33.614C7.0961 33.4475 6.9319 33.3227 6.82927 33.1355C6.58296 32.7193 6.35718 32.2616 6.1314 31.8455C6.06983 31.8663 5.98772 31.8871 5.92615 31.9079C5.94667 32.1159 5.92615 32.324 5.9672 32.5321C6.54191 34.9248 7.0961 37.2967 7.71186 39.6687C7.81449 40.064 8.20448 40.3969 8.47131 40.7714C8.55341 40.6882 8.63551 40.6257 8.69709 40.5633Z" fill="#B1532B"/>
<path d="M13.2537 21.0471C14.2389 20.527 15.1626 20.0484 16.0657 19.5491C16.1478 19.5075 16.2094 19.2162 16.1478 19.1122C16.0862 19.0081 15.8604 18.9249 15.7373 18.9665C15.491 19.0289 15.2447 19.1746 15.0189 19.2786C13.6642 19.8404 12.33 19.6947 10.9959 19.1122C10.7906 19.0289 10.5033 19.1122 10.2365 19.1122C10.3801 19.341 10.4622 19.6531 10.647 19.7571C11.4475 20.1941 12.289 20.5894 13.2537 21.0471Z" fill="#B1532B"/>
<path d="M6.33663 22.0251C4.63301 20.6727 2.82677 21.1304 1 21.6506C2.74467 22.0875 4.46881 22.7325 6.33663 22.0251Z" fill="#B1532B"/>
<path d="M12.0427 27.4347C12.1043 27.9965 12.4738 28.3918 13.1101 28.4334C13.7053 28.475 14.28 27.8925 14.2184 27.2891C14.1569 26.6441 13.8079 26.2488 13.1306 26.2071C12.5148 26.1863 12.0222 26.7065 12.0427 27.4347Z" fill="#B1532B"/>
<path d="M2.25208 24.4384C4.14042 24.584 5.74141 24.5424 7.11662 23.4813C5.39247 22.7322 3.93517 23.4605 2.25208 24.4384Z" fill="#B1532B"/>
<path d="M10.8112 17.6141C11.0164 18.3423 12.4942 19.0081 13.3768 18.9041C14.6289 18.7793 15.6141 18.2799 15.7988 17.5725C14.0952 18.2591 12.4532 18.4672 10.8112 17.6141Z" fill="#B1532B"/>
<path d="M24.4196 31.0754C23.4138 31.5332 22.3876 31.9701 21.3818 32.4278C21.3202 32.3654 21.2381 32.303 21.1766 32.2198C21.1971 32.4487 21.115 32.7816 21.2381 32.9064C21.4023 33.052 21.7513 33.1561 21.9565 33.0936C22.716 32.7816 23.4754 32.4487 24.1733 32.0325C24.3991 31.9077 24.4606 31.5124 24.6043 31.2419C24.5222 31.1587 24.4606 31.1171 24.4196 31.0754Z" fill="#B1532B"/>
<path d="M1.77997 31.2837C2.0468 31.5958 2.25205 31.9911 2.55994 32.1992C3.0936 32.5529 3.70936 32.8234 4.3046 33.0314C4.53038 33.1147 4.89984 33.0522 5.1051 32.9274C5.22825 32.8442 5.1872 32.4905 5.1872 32.4905C3.99672 31.9703 2.99097 31.5334 1.9647 31.0964C1.92365 31.1589 1.86207 31.2213 1.77997 31.2837Z" fill="#B1532B"/>
<path d="M7.21925 24.7298C5.59774 24.6882 5.12565 24.8755 3.8736 26.0198C5.43353 26.2903 6.50086 25.8742 7.21925 24.7298Z" fill="#B1532B"/>
<path d="M2.23151 20.1106C3.58619 20.3603 4.79719 20.5892 6.0082 20.818C4.94087 19.6113 3.93512 19.4032 2.23151 20.1106Z" fill="#B1532B"/>
<path d="M16.1272 26.769C16.4146 26.2697 16.743 25.9576 16.702 25.7287C16.6609 25.479 16.2709 25.1253 16.0451 25.1461C15.8194 25.1669 15.4499 25.5623 15.4499 25.8119C15.4294 26.0408 15.7783 26.3113 16.1272 26.769Z" fill="#B1532B"/>
<path d="M10.0722 26.8521C10.4211 26.3943 10.7906 26.1446 10.7906 25.895C10.7701 25.6453 10.4211 25.2292 10.1954 25.2084C9.96958 25.1875 9.55907 25.5621 9.51802 25.8117C9.45644 26.0406 9.78485 26.3527 10.0722 26.8521Z" fill="#B1532B"/>
<path d="M1.28735 24.1472C1.82102 23.8559 2.3752 23.5646 2.99097 23.2109C1.82102 22.6907 1.82102 22.6907 1.28735 24.1472Z" fill="#B1532B"/>
<path d="M17.6256 23.3772C17.3793 23.7309 17.133 23.9598 17.133 24.1678C17.133 24.3343 17.5025 24.6672 17.6256 24.6256C17.8309 24.5632 18.0977 24.2927 18.1387 24.0846C18.1593 23.9182 17.8719 23.6893 17.6256 23.3772Z" fill="#B1532B"/>
<path d="M8.53286 23.5022C8.30708 23.8143 8.01972 24.0432 8.06077 24.1888C8.12235 24.4177 8.40971 24.5633 8.59443 24.7506C8.75864 24.5425 9.02547 24.3553 9.06652 24.1264C9.10757 24.0015 8.79969 23.7935 8.53286 23.5022Z" fill="#B1532B"/>
<path d="M7.77341 21.5879C7.58868 21.9416 7.38342 22.1497 7.40395 22.3577C7.40395 22.5034 7.77341 22.753 7.87603 22.7114C8.06076 22.6282 8.26602 22.3785 8.28654 22.1913C8.28654 22.0456 8.01971 21.8584 7.77341 21.5879Z" fill="#B1532B"/>
<path d="M23.8654 15.1796C23.8654 15.1796 20.5403 10.1861 20.4992 9.9364C20.4582 9.68672 20.7866 7.83496 20.7866 7.83496L21.8539 8.85447L22.4697 9.76995L24.0091 14.493L23.8654 15.1796Z" fill="#B1532B"/>
<path d="M25.4253 13.0156C25.4253 13.0156 23.6191 8.04287 23.6396 7.7932C23.6601 7.54352 24.4401 5.8374 24.4401 5.8374L25.1995 7.10659L25.5484 8.16771L25.9795 13.827L25.4253 13.0156Z" fill="#B1532B"/>
<path d="M27.5805 13.9102C27.5805 13.9102 27.9294 7.64752 28.0321 7.41865C28.1347 7.18979 29.5304 5.94141 29.5304 5.94141L29.7357 7.39785L29.6536 8.50058L27.9705 13.5565L27.5805 13.9102Z" fill="#B1532B"/>
<path d="M29.0789 14.7843C29.0789 14.7843 31.3161 8.9377 31.4803 8.75044C31.6651 8.58399 33.3687 7.83496 33.3687 7.83496L33.1224 9.2914L32.7119 10.3109L29.5715 14.597L29.0789 14.7843Z" fill="#B1532B"/>
</svg>
