<svg width="52" height="52" viewBox="0 0 52 52" fill="none" xmlns="http://www.w3.org/2000/svg">
<path d="M11.4069 37.0768C11.4069 32.5791 11.4771 28.6701 11.5473 24.3844C11.5473 24.1018 12.1553 23.5838 12.4827 23.5602C13.6988 23.466 15.6399 23.2305 16.856 22.9715C17.3705 22.7596 13.8859 22.5947 12.8335 22.6418C11.4771 22.6889 11.1263 22.1238 11.4537 20.758C11.7577 20.7109 12.1319 20.6402 12.5061 20.6402C15.4528 20.5931 21.3695 20.4754 21.3695 20.4754L24.3396 21.8647C24.3396 21.8647 25.6258 22.5476 25.9766 22.8538C26.1403 22.7831 27.3097 21.9825 27.3097 21.9825L32.2676 20.3577C32.2676 20.3577 37.9037 20.3812 40.9907 20.3812C40.9907 21.6293 40.9907 22.9244 40.9907 24.2196C41.014 27.4221 40.9907 30.083 41.0608 33.2856C41.0842 34.2981 40.827 34.6985 39.7512 34.6749C37.6932 34.9104 35.7521 35.193 33.7643 35.193C33.7643 35.3343 33.7409 35.452 33.7409 35.5933C36.1263 35.5933 38.5351 35.5933 40.8503 35.5933C41.3181 37.0533 40.5463 37.0297 39.7512 37.0297C33.7175 37.0533 27.6604 37.0768 21.6268 37.0768C18.3293 37.0768 15.0318 37.0768 11.4069 37.0768ZM29.7184 26.7392C28.7362 27.0218 27.9177 27.1866 27.1693 27.4927C26.7484 27.6576 26.1637 28.0343 26.117 28.3876C26.0702 28.835 26.3508 29.5885 26.725 29.7769C27.9645 30.4598 29.2975 31.0014 30.6305 31.4959C31.4023 31.7785 32.0337 31.3546 31.8934 30.554C31.7063 29.4943 31.3087 28.4818 30.841 27.5163C30.6539 27.0924 30.0459 26.9276 29.7184 26.7392ZM18.8672 33.0736C19.5922 33.4033 20.0365 33.733 20.5042 33.7565C21.3929 33.8036 22.305 33.733 23.1937 33.5681C23.6848 33.474 24.3162 33.2385 24.5267 32.8617C24.8775 32.2259 24.4799 31.7314 23.7783 31.4959C23.5445 31.4253 23.3574 31.1898 23.1937 31.0014C22.6558 30.4362 21.9776 29.8946 21.276 30.4598C20.4575 31.1191 19.826 32.014 18.8672 33.0736ZM33.8344 25.5853C33.3199 25.1144 33.0393 24.8554 32.7587 24.5963C32.2909 25.1615 31.7764 25.7031 31.4023 26.3389C31.3087 26.5037 31.7531 26.9747 31.9635 27.2808C32.5248 26.7863 33.0861 26.2682 33.8344 25.5853ZM29.8588 25.9857C30.9579 25.4441 31.6595 24.2431 31.2619 23.6544C31.145 23.4896 30.7241 23.3718 30.537 23.4189C29.5781 23.7486 29.3209 24.7376 29.8588 25.9857ZM26.9589 25.5147C27.333 25.9621 27.5669 26.2211 27.7774 26.5037C28.1516 25.9857 28.6427 25.5147 28.8765 24.9495C28.9467 24.7612 28.4556 24.3137 28.2217 23.9841C27.8242 24.455 27.4266 24.9495 26.9589 25.5147ZM32.9224 29.8005C33.4836 28.9292 33.9046 28.364 34.232 27.7518C34.2788 27.6576 33.928 27.3279 33.7643 27.116C33.2732 27.6105 32.7587 28.0814 32.3377 28.623C32.2676 28.7408 32.595 29.1647 32.9224 29.8005ZM19.3817 28.6701C19.8026 29.2588 20.1067 29.6592 20.4107 30.083C20.6445 29.7298 21.0889 29.3295 21.0421 29.0234C20.972 28.5524 20.5744 28.105 20.2938 27.6576C20.0131 27.9637 19.7559 28.2463 19.3817 28.6701ZM22.0711 27.1866C21.4397 28.105 21.5098 28.8821 22.305 29.6356C23.2872 28.5524 23.2404 28.0814 22.0711 27.1866ZM23.8251 30.6482C24.0356 30.6482 24.2227 30.6482 24.4331 30.6482C24.4331 29.9888 24.4331 29.353 24.4331 28.6937C24.1759 28.7172 23.7783 28.623 23.6614 28.7408C23.1001 29.4472 23.217 30.1066 23.8251 30.6482ZM18.189 29.6827C18.4462 30.2479 18.7035 30.813 18.9841 31.3782C19.1946 31.2369 19.5688 31.0956 19.5922 30.9072C19.6623 30.2008 19.522 29.565 18.189 29.6827Z" fill="#B1532B"/>
<path d="M41.3648 14.3528C36.9916 14.3528 32.7353 14.3528 28.2685 14.3528C28.2685 11.9509 28.2685 9.57251 28.2685 7.00577C30.116 7.00577 32.0571 7.00577 33.9981 7.00577C34.6997 7.00577 35.4013 7.05287 36.0795 7.00577C37.6698 6.84094 39.2367 6.98222 40.0318 8.55995C40.71 9.97283 41.0842 11.527 41.5052 13.0576C41.5987 13.3873 41.435 13.8112 41.3648 14.3528Z" fill="#B1532B"/>
<path d="M23.9187 7.02957C23.9187 9.40793 23.942 11.6214 23.8953 13.835C23.8953 14.0469 23.4743 14.4001 23.2405 14.4001C19.3116 14.4472 15.3593 14.4237 11.3368 14.4237C11.0562 11.8334 11.5005 9.57276 13.1142 7.64182C13.348 7.35924 13.7456 7.07666 14.073 7.05312C17.3705 7.00602 20.6446 7.02957 23.9187 7.02957Z" fill="#B1532B"/>
<path d="M9.25537 38.3013C20.3171 38.3013 31.2619 38.3013 42.2769 38.3013C41.9027 39.5258 41.1777 39.8554 39.9616 39.8554C30.3966 39.8083 20.8316 39.8083 11.2666 39.8554C10.2142 39.8554 9.51262 39.5964 9.25537 38.3013Z" fill="#B1532B"/>
<path d="M43.8906 36.6057C43.1656 36.6057 42.6979 36.6057 42.16 36.6057C42.16 31.1425 42.16 25.75 42.16 20.2869C42.7914 20.2869 43.3293 20.2869 43.8906 20.2869C43.8906 25.7029 43.8906 31.0954 43.8906 36.6057Z" fill="#B1532B"/>
<path d="M10.3545 36.7706C9.8868 36.7706 9.41907 36.7706 8.69409 36.7706C8.69409 31.4488 8.69409 26.1505 8.69409 20.7815C9.09166 20.7815 9.62955 20.7815 10.3545 20.7815C10.3545 26.0798 10.3545 31.3546 10.3545 36.7706Z" fill="#B1532B"/>
<path d="M20.7381 18.3561C20.7381 17.4848 20.7381 16.7313 20.7381 15.8364C24.2928 15.8364 27.7774 15.8364 31.3555 15.8364C31.3555 16.6371 31.3555 17.4377 31.3555 18.3561C27.8242 18.3561 24.3396 18.3561 20.7381 18.3561ZM21.7671 17.0374C21.7905 17.1787 21.8139 17.32 21.8606 17.4612C22.0711 17.5083 22.2816 17.5554 22.4921 17.579C24.7605 17.7438 29.2975 17.8851 29.2975 17.8851L30.1394 17.6496L30.0926 16.7313L29.087 16.4016L27.333 16.7313C27.333 16.7313 24.3162 16.7783 22.7961 16.8254C22.4453 16.8254 22.1179 16.9667 21.7671 17.0374Z" fill="#B1532B"/>
<path d="M7.57158 17.6024C10.1207 17.6024 12.623 17.6024 15.1254 17.6024C16.3882 17.6024 17.6511 17.6495 18.914 17.6024C20.0131 17.5553 20.2002 18.0498 19.826 19.1331C18.5398 19.1331 17.2068 19.1331 15.8503 19.1331C13.5117 19.1331 11.1497 19.086 8.81106 19.1566C7.82883 19.1566 7.33772 18.874 7.57158 17.6024Z" fill="#B1532B"/>
<path d="M44.9196 17.6966C45.1768 18.8504 44.7793 19.133 43.9374 19.133C40.2891 19.1094 36.6408 19.133 32.9692 19.0859C32.6417 19.0859 32.3377 18.6385 32.0103 18.403C32.291 18.1675 32.5716 17.7201 32.8756 17.7201C36.8747 17.673 40.8737 17.6966 44.9196 17.6966Z" fill="#B1532B"/>
<path d="M19.8962 15.4595C19.8962 15.9775 19.8962 16.3543 19.8962 16.8724C15.7802 16.8724 11.7109 16.8724 7.5014 16.8724C7.54818 16.4014 7.57156 15.954 7.61834 15.4595C11.7343 15.4595 15.7802 15.4595 19.8962 15.4595Z" fill="#B1532B"/>
<path d="M32.2208 16.7077C32.2208 16.3073 32.2208 15.9306 32.2208 15.4125C34.3256 15.4125 36.3368 15.4125 38.3714 15.4125C40.2891 15.4125 42.1834 15.4361 44.1011 15.389C45.0132 15.3654 45.247 15.7422 45.0365 16.7077C40.8036 16.7077 36.5941 16.7077 32.2208 16.7077Z" fill="#B1532B"/>
<path d="M27.0524 14.3527C26.5145 14.3527 25.9064 14.3527 25.0645 14.3527C25.0645 13.5285 25.0645 12.7279 25.0645 11.9273C25.0645 10.2789 25.0178 8.60698 25.1347 6.95861C25.1581 6.62894 25.7194 6.13443 26.0702 6.11088C26.3742 6.08734 27.0056 6.60539 27.0056 6.88797C27.0758 9.31342 27.0524 11.7624 27.0524 14.3527Z" fill="#B1532B"/>
<path d="M51 21.2524C50.9065 22.3827 50.6024 23.1127 49.3396 23.254C48.9186 23.3011 48.3106 23.9134 48.1936 24.3608C47.9364 25.3969 47.2582 25.3263 46.5098 25.3027C45.4808 25.2792 45.8316 24.5021 45.7848 23.9605C45.7381 23.0892 45.7615 22.2179 45.7615 21.2524C47.5622 21.2524 49.2226 21.2524 51 21.2524Z" fill="#B1532B"/>
<path d="M1 21.2524C1.09355 22.3827 1.39757 23.1127 2.66043 23.254C3.08138 23.3011 3.68943 23.9134 3.80636 24.3608C4.06361 25.3969 4.74181 25.3263 5.49018 25.3027C6.51918 25.2792 6.16838 24.5021 6.21515 23.9605C6.26193 23.0892 6.23854 22.2179 6.23854 21.2524C4.43779 21.2524 2.77736 21.2524 1 21.2524Z" fill="#B1532B"/>
<path d="M12.7633 6.44043C10.3311 8.58331 9.95694 11.362 9.98033 14.5174C9.16181 14.3997 7.92233 14.3526 7.89894 14.1878C7.78201 13.0103 7.64169 11.6917 8.06265 10.6555C8.55376 9.45459 9.53599 8.39492 10.4948 7.47655C11.0795 6.93494 11.9916 6.7701 12.7633 6.44043Z" fill="#B1532B"/>
<path d="M44.639 14.3056C44.0309 14.3056 43.3995 14.3056 42.8148 14.3056C42.5342 12.8692 42.4406 11.4327 41.9495 10.114C41.4818 8.84245 40.6399 7.71214 40.0552 6.67603C43.0253 7.05279 45.3406 10.585 44.639 14.3056Z" fill="#B1532B"/>
<path d="M11.5941 44.7767C12.8335 44.5413 13.8859 44.3293 14.9383 44.1174C15.102 44.0939 15.2657 44.1174 15.4528 44.1174C15.0552 45.86 13.2311 46.2367 11.5941 44.7767Z" fill="#B1532B"/>
<path d="M26.0935 19.18C27.0524 18.921 27.6838 19.5333 27.4733 20.2868C27.3096 20.899 26.5379 21.6761 25.9532 21.7468C25.5089 21.8174 24.5734 20.9461 24.5033 20.381C24.3629 19.4862 25.0411 18.9446 26.0935 19.18ZM25.9298 19.18C25.579 19.6745 25.1815 20.0278 25.2516 20.2397C25.3452 20.5458 25.7661 20.7578 26.0468 21.0168C26.2572 20.7578 26.6548 20.4987 26.6548 20.2162C26.6548 19.9336 26.2806 19.651 25.9298 19.18Z" fill="#B1532B"/>
<path d="M37.2488 44.0471C38.044 44.1884 38.8391 44.2826 39.6109 44.4945C39.8447 44.5652 40.0084 44.9419 40.1955 45.1539C39.8915 45.4129 39.4472 45.9545 39.2834 45.8839C38.4649 45.5306 37.74 45.0361 36.9682 44.5887C37.0851 44.4003 37.1553 44.2355 37.2488 44.0471Z" fill="#B1532B"/>
<path d="M11.1965 43.9999C11.1965 43.3406 11.1965 42.8461 11.1965 42.1396C12.2956 42.4929 13.2545 42.799 14.1899 43.1051C14.1899 43.1993 14.1899 43.27 14.1899 43.3641C13.2311 43.5525 12.2722 43.7645 11.1965 43.9999Z" fill="#B1532B"/>
<path d="M41.3181 42.5637C41.2713 43.2231 41.2479 43.7176 41.2011 44.424C40.1254 44.0002 39.1899 43.6469 38.2545 43.2702C38.2545 43.176 38.2545 43.1053 38.2778 43.0111C39.2601 42.8698 40.2189 42.7286 41.3181 42.5637Z" fill="#B1532B"/>
<path d="M15.4762 41.2682C15.4762 41.7156 15.4762 42.0688 15.4762 42.6104C14.3068 42.2101 13.2077 41.8569 12.1085 41.4801C12.1319 41.4095 12.1319 41.3388 12.1553 41.2446C13.2311 41.2682 14.3302 41.2682 15.4762 41.2682Z" fill="#B1532B"/>
<path d="M37.1786 42.6341C37.1786 42.0925 37.1786 41.7628 37.1786 41.3154C38.2778 41.3154 39.3536 41.3154 40.4527 41.3154C40.4761 41.3625 40.4995 41.4096 40.5229 41.4567C39.4705 41.857 38.4181 42.2103 37.1786 42.6341Z" fill="#B1532B"/>
</svg>
