<svg width="396" height="27" viewBox="0 0 396 27" fill="none" xmlns="http://www.w3.org/2000/svg">
<path fill-rule="evenodd" clip-rule="evenodd" d="M5.3444 7.14568L1.52588e-05 13.8347L4.77994 20.7179L11.9734 26.6667L18.163 20.3713L25.5556 13.8347L17.329 7.58408L11.9734 1.11111L5.3444 7.14568Z" fill="#EFC46D"/>
<path fill-rule="evenodd" clip-rule="evenodd" d="M12.0373 21.1111L4.44447 13.9244L12.0373 6.66666L18.8889 13.9244L12.0373 21.1111Z" fill="#FCE8CF"/>
<path fill-rule="evenodd" clip-rule="evenodd" d="M12.1636 16.6667L10 13.819L12.1636 11.1111L14.4445 13.819L12.1636 16.6667Z" fill="#604330"/>
<path fill-rule="evenodd" clip-rule="evenodd" d="M36.588 6.82687L30 13.7603L36.9024 20.5863L44.0218 26.6667L49.8004 20.1255L56.6667 13.7603L49.2607 7.57578L44.0218 0L36.588 6.82687Z" fill="#E2273A"/>
<path fill-rule="evenodd" clip-rule="evenodd" d="M43.4931 21.1111L35.5556 13.4096L43.4931 5.55554L51.1111 13.4096L43.4931 21.1111Z" fill="#FCE8CF"/>
<path fill-rule="evenodd" clip-rule="evenodd" d="M43.3432 16.6667L41.1111 13.7943L43.3432 11.1111L45.5556 13.7943L43.3432 16.6667Z" fill="#604330"/>
<path fill-rule="evenodd" clip-rule="evenodd" d="M67.845 6.59002L62.2222 13.4541L68.0843 20.2362L74.9836 26.6667L81.0605 19.9545L86.6667 13.4541L81.157 6.92063L74.9836 0L67.845 6.59002Z" fill="#B1532B"/>
<path fill-rule="evenodd" clip-rule="evenodd" d="M75.7088 21.1111L68.8889 13.2157L75.7088 5.55554L83.3334 13.2157L75.7088 21.1111Z" fill="#FCE8CF"/>
<path fill-rule="evenodd" clip-rule="evenodd" d="M75.6415 16.6667L73.3334 13.8544L75.6415 11.1111L77.7778 13.8544L75.6415 16.6667Z" fill="#604330"/>
<path fill-rule="evenodd" clip-rule="evenodd" d="M99.8821 6.59296L94.4445 13.4742L100.912 20.0087L107.163 26.6667L112.645 19.7483L120 13.4742L113.468 6.92196L107.163 0L99.8821 6.59296Z" fill="#604330"/>
<path fill-rule="evenodd" clip-rule="evenodd" d="M106.514 21.1111L98.8889 13.5L106.514 5.55554L113.333 13.5L106.514 21.1111Z" fill="#FCE8CF"/>
<path fill-rule="evenodd" clip-rule="evenodd" d="M106.762 16.6667L104.444 13.8295L106.762 11.1111L108.889 13.8295L106.762 16.6667Z" fill="#604330"/>
<path fill-rule="evenodd" clip-rule="evenodd" d="M128.678 7.14568L123.333 13.8347L128.113 20.7179L135.307 26.6667L141.496 20.3713L148.889 13.8347L140.662 7.58408L135.307 1.11111L128.678 7.14568Z" fill="#EFC46D"/>
<path fill-rule="evenodd" clip-rule="evenodd" d="M135.371 21.1111L127.778 13.9244L135.371 6.66666L142.222 13.9244L135.371 21.1111Z" fill="#FCE8CF"/>
<path fill-rule="evenodd" clip-rule="evenodd" d="M135.497 16.6667L133.333 13.819L135.497 11.1111L137.778 13.819L135.497 16.6667Z" fill="#604330"/>
<path fill-rule="evenodd" clip-rule="evenodd" d="M159.921 6.82687L153.333 13.7603L160.236 20.5863L167.355 26.6667L173.134 20.1255L180 13.7603L172.594 7.57578L167.355 0L159.921 6.82687Z" fill="#E2273A"/>
<path fill-rule="evenodd" clip-rule="evenodd" d="M166.826 21.1111L158.889 13.4096L166.826 5.55554L174.444 13.4096L166.826 21.1111Z" fill="#FCE8CF"/>
<path fill-rule="evenodd" clip-rule="evenodd" d="M166.677 16.6667L164.444 13.7943L166.677 11.1111L168.889 13.7943L166.677 16.6667Z" fill="#604330"/>
<path fill-rule="evenodd" clip-rule="evenodd" d="M191.178 6.59002L185.556 13.4541L191.418 20.2362L198.317 26.6667L204.394 19.9545L210 13.4541L204.49 6.92063L198.317 0L191.178 6.59002Z" fill="#B1532B"/>
<path fill-rule="evenodd" clip-rule="evenodd" d="M199.042 21.1111L192.222 13.2157L199.042 5.55554L206.667 13.2157L199.042 21.1111Z" fill="#FCE8CF"/>
<path fill-rule="evenodd" clip-rule="evenodd" d="M198.975 16.6667L196.667 13.8544L198.975 11.1111L201.111 13.8544L198.975 16.6667Z" fill="#604330"/>
<path fill-rule="evenodd" clip-rule="evenodd" d="M223.215 6.59296L217.778 13.4742L224.245 20.0087L230.497 26.6667L235.978 19.7483L243.333 13.4742L236.801 6.92196L230.497 0L223.215 6.59296Z" fill="#604330"/>
<path fill-rule="evenodd" clip-rule="evenodd" d="M229.847 21.1111L222.222 13.5L229.847 5.55554L236.667 13.5L229.847 21.1111Z" fill="#FCE8CF"/>
<path fill-rule="evenodd" clip-rule="evenodd" d="M230.095 16.6667L227.778 13.8295L230.095 11.1111L232.222 13.8295L230.095 16.6667Z" fill="#604330"/>
<path fill-rule="evenodd" clip-rule="evenodd" d="M252.011 7.14568L246.667 13.8347L251.447 20.7179L258.64 26.6667L264.83 20.3713L272.222 13.8347L263.996 7.58408L258.64 1.11111L252.011 7.14568Z" fill="#EFC46D"/>
<path fill-rule="evenodd" clip-rule="evenodd" d="M258.704 21.1111L251.111 13.9244L258.704 6.66666L265.556 13.9244L258.704 21.1111Z" fill="#FCE8CF"/>
<path fill-rule="evenodd" clip-rule="evenodd" d="M258.83 16.6667L256.667 13.819L258.83 11.1111L261.111 13.819L258.83 16.6667Z" fill="#604330"/>
<path fill-rule="evenodd" clip-rule="evenodd" d="M283.255 6.82687L276.667 13.7603L283.569 20.5863L290.688 26.6667L296.467 20.1255L303.333 13.7603L295.927 7.57578L290.688 0L283.255 6.82687Z" fill="#E2273A"/>
<path fill-rule="evenodd" clip-rule="evenodd" d="M290.16 21.1111L282.222 13.4096L290.16 5.55554L297.778 13.4096L290.16 21.1111Z" fill="#FCE8CF"/>
<path fill-rule="evenodd" clip-rule="evenodd" d="M290.01 16.6667L287.778 13.7943L290.01 11.1111L292.222 13.7943L290.01 16.6667Z" fill="#604330"/>
<path fill-rule="evenodd" clip-rule="evenodd" d="M314.512 6.59002L308.889 13.4541L314.751 20.2362L321.65 26.6667L327.727 19.9545L333.333 13.4541L327.824 6.92063L321.65 0L314.512 6.59002Z" fill="#B1532B"/>
<path fill-rule="evenodd" clip-rule="evenodd" d="M322.375 21.1111L315.556 13.2157L322.375 5.55554L330 13.2157L322.375 21.1111Z" fill="#FCE8CF"/>
<path fill-rule="evenodd" clip-rule="evenodd" d="M322.308 16.6667L320 13.8544L322.308 11.1111L324.444 13.8544L322.308 16.6667Z" fill="#604330"/>
<path fill-rule="evenodd" clip-rule="evenodd" d="M346.549 6.59296L341.111 13.4742L347.578 20.0087L353.83 26.6667L359.311 19.7483L366.667 13.4742L360.135 6.92196L353.83 0L346.549 6.59296Z" fill="#604330"/>
<path fill-rule="evenodd" clip-rule="evenodd" d="M353.18 21.1111L345.556 13.5L353.18 5.55554L360 13.5L353.18 21.1111Z" fill="#FCE8CF"/>
<path fill-rule="evenodd" clip-rule="evenodd" d="M353.429 16.6667L351.111 13.8295L353.429 11.1111L355.556 13.8295L353.429 16.6667Z" fill="#604330"/>
<path fill-rule="evenodd" clip-rule="evenodd" d="M375.344 7.14568L370 13.8347L374.78 20.7179L381.973 26.6667L388.163 20.3713L395.556 13.8347L387.329 7.58408L381.973 1.11111L375.344 7.14568Z" fill="#EFC46D"/>
<path fill-rule="evenodd" clip-rule="evenodd" d="M382.037 21.1111L374.444 13.9244L382.037 6.66666L388.889 13.9244L382.037 21.1111Z" fill="#FCE8CF"/>
<path fill-rule="evenodd" clip-rule="evenodd" d="M382.164 16.6667L380 13.819L382.164 11.1111L384.444 13.819L382.164 16.6667Z" fill="#604330"/>
</svg>
