<svg width="52" height="52" viewBox="0 0 52 52" fill="none" xmlns="http://www.w3.org/2000/svg">
<path d="M17.0043 13.7714C19.4685 15.3347 21.5353 16.2886 23.0986 17.7459C24.6354 19.1768 25.4833 18.9648 26.5432 17.481C26.9936 16.845 27.4971 16.2091 28.239 15.2287C24.8209 13.9039 21.8797 11.9696 18.2496 12.579C17.6667 12.6585 17.1898 13.5594 17.0043 13.7714Z" fill="#B1532B"/>
<path d="M37.7249 39.4733C38.2018 39.0228 39.1027 38.5989 39.3147 37.963C40.4011 34.6773 39.2882 31.5242 38.6258 28.1326C37.7779 28.5035 37.2214 28.795 36.6385 29.007C34.5452 29.8284 33.9623 30.8088 35.4196 32.9815C36.506 34.5978 36.824 36.7706 37.7249 39.4733Z" fill="#B1532B"/>
<path d="M13.6126 36.347C13.8511 36.665 14.0896 36.983 14.3545 37.3009C21.4027 31.8161 30.5442 24.6619 37.5924 19.177C37.3804 18.8855 37.1419 18.6206 36.93 18.3291C29.8553 23.761 20.6873 30.8887 13.6126 36.347Z" fill="#B1532B"/>
<path d="M6.72339 35.7375C7.09435 35.817 7.4653 35.87 7.83626 35.9495C8.52518 29.8287 9.18761 23.6814 9.87653 17.5606C9.50557 17.5341 9.16111 17.4811 8.79015 17.4546C8.07474 23.5224 7.38581 29.6432 6.72339 35.7375Z" fill="#B1532B"/>
<path d="M32.7435 46.6011C32.7964 46.2831 32.8229 45.9386 32.8759 45.6207C26.3312 44.8258 19.7864 44.0574 13.2417 43.2625C13.2152 43.5804 13.1622 43.8719 13.1357 44.1898C19.6804 44.9848 26.1987 45.7797 32.7435 46.6011Z" fill="#B1532B"/>
<path d="M11.3604 1C11.0425 1.05299 10.751 1.10599 10.433 1.15898C9.63812 4.47111 10.5655 8.41916 13.0562 10.3004C12.4468 6.80284 11.9169 3.88817 11.3604 1Z" fill="#B1532B"/>
<path d="M7.35936 3.38477C7.09439 3.54375 6.82942 3.72923 6.56445 3.88821C7.12089 7.22683 9.50562 10.539 12.5528 11.2544C10.592 8.28671 8.97568 5.84899 7.35936 3.38477Z" fill="#B1532B"/>
<path d="M39.8447 44.9317C42.1764 47.025 46.2304 47.1045 49.3041 45.6736C49.3041 45.3557 49.2776 45.0377 49.2776 44.7197C46.3099 44.7727 43.3688 44.8522 39.8447 44.9317Z" fill="#B1532B"/>
<path d="M38.9968 45.6208C40.3216 48.456 44.0312 50.1253 47.4228 50.0194C47.5288 49.7279 47.6348 49.4364 47.7673 49.1449C45.0116 48.0321 42.2824 46.9457 38.9968 45.6208Z" fill="#B1532B"/>
<path d="M13.3741 38.0429C11.0159 37.8574 5.05409 42.3884 4.57715 44.8526C7.6508 42.4414 10.38 40.3481 13.3741 38.0429Z" fill="#B1532B"/>
<path d="M37.6189 44.6936C36.559 44.9586 35.4196 45.0646 35.4196 45.2765C35.2607 47.1578 35.3137 49.0391 35.3137 50.9204C35.6846 50.9469 36.0291 50.9734 36.4 50.9999C36.7445 49.0921 37.1155 47.2108 37.6189 44.6936Z" fill="#B1532B"/>
<path d="M34.7043 28.0535C37.9634 26.3842 37.9899 26.3312 37.0095 23.019C34.4658 23.814 33.5384 25.3773 34.7043 28.0535Z" fill="#B1532B"/>
<path d="M27.3645 19.0444C30.7561 20.5812 31.2596 20.4487 32.8229 17.6931C29.5108 16.3417 29.5108 16.3417 27.3645 19.0444Z" fill="#B1532B"/>
<path d="M5.2396 12.8179C5.18661 13.2418 5.16011 13.6658 5.10712 14.0632C7.06789 14.3282 9.02867 14.5667 10.9894 14.8316C11.0689 14.1957 11.1484 13.5598 11.2544 12.8709C9.00217 12.8444 7.12089 12.8179 5.2396 12.8179Z" fill="#B1532B"/>
<path d="M9.02864 38.8113C8.97565 38.5728 8.89616 38.3078 8.84316 38.0693C6.8029 38.6788 4.76263 39.2882 2.69586 39.8711C5.37206 41.6199 6.96188 39.3147 9.02864 38.8113Z" fill="#B1532B"/>
<path d="M8.18074 47.025C9.34661 45.2497 10.5125 43.4479 11.6783 41.6726C11.4664 41.5401 11.2544 41.4076 11.0159 41.2751C9.98254 43.1299 7.30634 43.9513 8.18074 47.025Z" fill="#B1532B"/>
<path d="M46.1509 12.1022C44.3226 15.0698 40.454 20.4222 40.454 20.4222L39.4736 17.0041L36.135 15.0963C36.135 15.0963 42.2028 12.6056 45.409 11.2808C45.5414 11.4397 46.0184 11.9432 46.1509 12.1022Z" fill="#B1532B"/>
<path d="M13.3741 38.0429C10.38 40.3746 7.6773 42.4679 4.57715 44.8526C5.05409 42.3884 11.0159 37.8574 13.3741 38.0429Z" fill="#B1532B"/>
<path d="M38.8353 40.6755L36.2209 40.1033L35.9547 41.3199L38.5691 41.892L38.8353 40.6755Z" fill="#B1532B"/>
<path d="M38.4093 42.6088L35.7949 42.0366L35.5287 43.2532L38.143 43.8254L38.4093 42.6088Z" fill="#B1532B"/>
<path d="M15.7934 14.9047L15.7518 12.2288L14.5065 12.2481L14.5481 14.924L15.7934 14.9047Z" fill="#B1532B"/>
<path d="M13.8275 14.9445L13.7859 12.2686L12.5407 12.2879L12.5823 14.9638L13.8275 14.9445Z" fill="#B1532B"/>
</svg>
