<svg width="21" height="21" viewBox="0 0 21 21" fill="none" xmlns="http://www.w3.org/2000/svg">
<path d="M18.2395 11.5209C18.2812 11.1875 18.3125 10.8542 18.3125 10.5C18.3125 10.1459 18.2812 9.81254 18.2395 9.47921L20.4375 7.76046C20.6354 7.60421 20.6875 7.32296 20.5625 7.09379L18.4791 3.48962C18.3541 3.26046 18.0729 3.17712 17.8437 3.26046L15.25 4.30212C14.7083 3.88546 14.125 3.54171 13.4895 3.28129L13.0937 0.520874C13.0625 0.270874 12.8437 0.083374 12.5833 0.083374H8.41662C8.15621 0.083374 7.93746 0.270874 7.90621 0.520874L7.51037 3.28129C6.87496 3.54171 6.29162 3.89587 5.74996 4.30212L3.1562 3.26046C2.91662 3.16671 2.64579 3.26046 2.52079 3.48962L0.437455 7.09379C0.302038 7.32296 0.364538 7.60421 0.562455 7.76046L2.76037 9.47921C2.71871 9.81254 2.68746 10.1563 2.68746 10.5C2.68746 10.8438 2.71871 11.1875 2.76037 11.5209L0.562455 13.2396C0.364538 13.3959 0.312455 13.6771 0.437455 13.9063L2.52079 17.5105C2.64579 17.7396 2.92704 17.823 3.1562 17.7396L5.74996 16.698C6.29162 17.1146 6.87496 17.4584 7.51037 17.7188L7.90621 20.4792C7.93746 20.7292 8.15621 20.9167 8.41662 20.9167H12.5833C12.8437 20.9167 13.0625 20.7292 13.0937 20.4792L13.4895 17.7188C14.125 17.4584 14.7083 17.1042 15.25 16.698L17.8437 17.7396C18.0833 17.8334 18.3541 17.7396 18.4791 17.5105L20.5625 13.9063C20.6875 13.6771 20.6354 13.3959 20.4375 13.2396L18.2395 11.5209ZM10.5 14.1459C8.48954 14.1459 6.85412 12.5105 6.85412 10.5C6.85412 8.48962 8.48954 6.85421 10.5 6.85421C12.5104 6.85421 14.1458 8.48962 14.1458 10.5C14.1458 12.5105 12.5104 14.1459 10.5 14.1459Z" fill="#555555"/>
</svg>
