<svg width="25" height="25" viewBox="0 0 25 25" fill="none" xmlns="http://www.w3.org/2000/svg">
<path d="M5.75028 20.0001C5.53311 20.0001 5.31742 19.9064 5.16947 19.7247C4.90726 19.4039 4.9545 18.9315 5.2753 18.6693L18.7753 7.63068C19.0953 7.3681 19.5688 7.41534 19.8303 7.73651C20.0925 8.05694 20.0453 8.52935 19.7245 8.79156L6.22452 19.8309C6.08536 19.9445 5.91727 20.0001 5.75028 20.0001Z" fill="#555555"/>
<path d="M16.25 20C16.1467 20 16.0431 19.9787 15.9457 19.9355L11.3146 17.8796C10.9359 17.7112 10.7653 17.268 10.9334 16.8901C11.1018 16.5115 11.5464 16.3408 11.9232 16.5085L15.5 18.0964V13.3262C15.5 12.912 15.8358 12.5762 16.25 12.5762C16.6642 12.5762 17 12.912 17 13.3262V19.25C17 19.5041 16.8715 19.7407 16.6587 19.8791C16.5353 19.959 16.3928 20 16.25 20Z" fill="#555555"/>
<path d="M9.44517 16.9788C9.34337 16.9788 9.2401 16.9583 9.14122 16.9143L8.16381 16.48H5.75049C5.3363 16.48 5.00049 16.1446 5.00049 15.73V9.27007C5.00049 8.85589 5.3363 8.52007 5.75049 8.52007H8.16381L15.9461 5.06452C16.1787 4.96125 16.4467 4.98322 16.6591 5.12128C16.8719 5.25971 17.0004 5.49628 17.0004 5.75007V10.6642C17.0004 11.0784 16.6646 11.4142 16.2504 11.4142C15.8363 11.4142 15.5004 11.0784 15.5004 10.6642V6.90363L8.62706 9.95562C8.53111 9.9981 8.42748 10.0201 8.32274 10.0201H6.50048V14.98H8.32274C8.42748 14.98 8.53148 15.002 8.62706 15.0445L9.74986 15.5432C10.1285 15.7117 10.2992 16.1548 10.1311 16.5335C10.0069 16.8125 9.73265 16.9788 9.44517 16.9788Z" fill="#555555"/>
</svg>
