<svg width="1440" height="344" viewBox="0 0 1440 344" fill="none" xmlns="http://www.w3.org/2000/svg">
<mask id="mask0" mask-type="alpha" maskUnits="userSpaceOnUse" x="0" y="0" width="1440" height="344">
<rect width="1440" height="344" fill="white"/>
</mask>
<g mask="url(#mask0)">
<g opacity="0.1">
<path d="M-64.4626 56.3385C72.0725 76.1921 209.549 87.3845 349.51 89.6595C492.558 91.4218 635.247 81.4677 778.359 74.0603C1031.53 60.8079 1295.52 60.1526 1516.95 161.426C1525.52 165.238 1516.19 175.946 1507.63 172.134C1280.16 67.9373 1006.77 74.0786 746.757 89.121C608.487 97.0328 471.095 105.453 333.45 102.794C198.997 100.258 65.4856 89.0619 -66.2074 69.7127C-75.2258 67.9391 -74.1473 55.3297 -64.4626 56.3385Z" fill="#DC131A"/>
<path d="M-60.4141 28.1883C-60.2767 24.2402 -55.5084 19.5231 -49.6828 21.1726C89.559 47.7733 244.248 38.4436 388.66 34.0914C425.781 33.1615 462.024 31.723 499.039 30.1565C499.811 30.0283 499.811 30.0283 500.583 29.9002C504.547 29.896 508.512 29.8919 512.477 29.8878C541.668 28.9661 570.859 28.0444 599.173 26.6142C631.24 23.9065 662.852 23.2371 695.448 23.7127C704.149 23.5764 713.622 23.3119 722.323 23.1755C752.392 22.7623 782.355 21.7125 812.53 21.9359C1064.52 20.6563 1319.33 41.1516 1545.03 129.94C1552.62 132.607 1549.46 142.289 1543.18 142.677C1544.7 147.006 1537.82 153.381 1531.01 150.586C1043.31 -49.7497 459.845 123.676 -60.0548 39.9047C-67.424 38.5114 -66.2715 31.1236 -60.4141 28.1883ZM322.676 52.2442C301.097 51.2477 279.624 50.8879 258.362 51.8014C279.835 52.1612 301.308 52.5211 322.676 52.2442ZM946.675 36.9525C946.675 36.9525 946.781 37.5891 946.675 36.9525C957.904 37.705 969.798 37.6927 981.798 38.317C969.798 37.6927 958.675 37.5768 946.675 36.9525Z" fill="#DC131A"/>
<path d="M-24.3744 135.386C-42.6545 135.15 -69.7737 138.999 -84.0254 129.589C-88.413 127.046 -89.925 122.718 -88.2438 118.513C-87.6834 117.112 -87.123 115.71 -87.2287 115.074C-85.5475 110.869 -79.5845 108.571 -74.8479 108.438C-74.0761 108.31 -72.5326 108.054 -71.6551 108.562C-69.7625 105.631 -66.1149 103.717 -60.5007 104.093C-11.9722 109.774 36.5561 115.455 84.7675 119.226C99.0829 119.466 114.17 119.577 128.591 120.454C193.782 121.405 259.64 121.592 325.285 120.505C459.104 119.22 593.06 113.987 727.365 106.08C852.196 98.4365 975.939 89.0115 1098.16 108.625C1191.89 123.811 1280.57 151.61 1368.03 181.576C1398.8 190.204 1428.91 199.597 1459.13 209.627C1472.54 213.943 1464.48 232.291 1450.3 228.103C1446.12 226.834 1441.95 225.564 1437.77 224.295C1435.56 225.316 1432.48 225.829 1428.3 224.56C1404.68 216.051 1380.29 207.671 1356.78 199.799C1330.95 192.312 1304.35 184.953 1277.85 178.23C1272.99 196.702 1273.42 213.64 1262.38 233.137C1247 259.898 1230.84 286.786 1215.57 314.184L1214.9 314.949C1237.32 321.039 1259.75 327.128 1282.49 335.128C1291.72 338.175 1285.9 350.917 1276.57 347.233C1074.63 277.396 848.44 290.748 629.3 303.583C458.857 313.566 291.006 315.268 123.915 302.451C121.6 302.835 119.178 302.583 117.424 301.566C64.3699 297.291 11.8767 291.614 -40.9337 284.027C-45.0042 283.395 -47.7425 281.232 -47.605 277.284C-47.3301 269.388 -40.9124 265.051 -31.2278 266.06C-26.3855 266.564 -24.9793 270.256 -24.5565 272.803C-5.08166 275.457 14.3931 278.112 33.7622 280.129C33.6565 279.493 33.4452 278.219 34.1113 277.454C44.4412 248.916 58.0699 221.138 73.4535 194.378C63.0186 174.521 50.2683 155.049 34.6422 137.362C15.4845 136.618 -4.44491 136.002 -24.3744 135.386ZM84.7461 138.202C83.2026 138.458 82.325 137.95 80.7814 138.206C75.1673 137.83 69.6589 138.09 64.0448 137.714C72.9997 148.657 78.624 163.425 84.1427 177.555C87.3674 173.095 90.5923 168.634 93.0452 164.301C97.3908 157.037 102.508 149.645 107.731 142.89C108.397 142.125 109.063 141.361 110.501 140.468C101.588 139.331 93.5531 138.702 84.7461 138.202ZM122.226 148.988C116.337 156.508 111.114 163.264 105.997 170.656C100.879 178.048 95.8678 186.076 91.628 193.977C92.9283 197.032 94.1231 199.45 95.4235 202.506C97.8128 207.343 99.4304 212.308 100.276 217.401C107.867 234.459 114.686 251.645 120.733 268.959C130.016 248.445 143.476 229.201 156.163 210.084C158.056 207.153 159.948 204.222 161.841 201.291C150.951 183.472 136.975 166.166 122.226 148.988ZM142.536 142.345C154.229 155.45 164.485 169.449 174.846 184.084C181.961 174.398 189.077 164.711 197.07 155.533C198.963 152.602 200.749 149.034 202.642 146.103C181.941 145.615 162.677 144.234 142.536 142.345ZM227.519 147.86C242.934 164.273 256.139 181.708 267.906 200.035L275.688 189.583C284.696 176.966 292.827 163.84 300.957 150.714C276.291 150.23 252.291 148.981 227.519 147.86ZM508.985 152.154C516.396 163.354 524.579 174.425 531.991 185.625C541.982 174.152 551.868 162.043 561.859 150.571C544.562 151.48 527.16 151.753 508.985 152.154ZM612.418 149.372C613.295 149.881 613.401 150.518 614.278 151.026C628.319 159.162 638.046 169.978 647.423 183.468C648.407 184.613 650.267 186.267 651.25 187.412C664.012 173.517 676.773 159.622 688.657 145.218C662.765 146.901 637.538 147.818 612.418 149.372ZM837.732 135.512C843.494 146.331 848.484 157.279 853.58 168.863C853.686 169.5 854.669 170.645 854.775 171.282C866.098 158.28 877.528 145.914 889.729 133.421C872.326 133.693 855.029 134.603 837.732 135.512ZM1088.25 139.71C1091.6 164.669 1095.06 190.264 1099.18 215.094C1121.03 193.803 1143.64 172.384 1166.36 151.601C1141.06 147.297 1114.99 143.121 1088.25 139.71ZM1199.24 158.572C1201.77 159.46 1203.74 161.751 1203.39 164.426C1202.41 177.672 1201.44 190.918 1199.7 204.292C1214.32 192.051 1228.94 179.809 1243.67 168.205C1228.83 164.781 1214.09 161.995 1199.24 158.572ZM1179.73 303.778C1181.38 304.158 1182.26 304.667 1182.47 305.94C1189.07 307.461 1195.67 308.983 1201.49 310.632C1201.39 309.996 1201.39 309.996 1202.05 309.231C1222.51 265.272 1248.8 222.962 1256.17 176.597C1235.79 192.41 1216.3 208.732 1196.91 225.691C1192.54 251.93 1184.87 277.41 1172.26 301.748C1173.91 302.128 1176.44 303.017 1179.73 303.778ZM1155.45 296.034C1159.4 281.639 1163.25 266.607 1165.56 251.831C1152.48 263.816 1140.17 275.673 1127.09 287.658C1137.09 290.577 1146.22 292.987 1155.45 296.034ZM1112.25 284.235C1112.92 283.47 1112.81 282.833 1114.25 281.94C1131.99 264.601 1150.61 247.771 1169.33 231.578C1171.35 210.307 1171.83 189.293 1170.65 167.898C1147.93 188.681 1125.32 210.1 1102.81 232.156C1106.33 248.581 1108.31 265.263 1108.84 282.837C1108.95 283.474 1108.95 283.474 1108.28 284.239C1109.72 283.346 1111.37 283.726 1112.25 284.235ZM1092.46 279.67C1090.55 268.21 1089.53 257.259 1087.63 245.799C1078.09 255.233 1069.22 263.902 1059.68 273.337C1071.12 275.362 1081.79 277.516 1092.46 279.67ZM1051.5 262.265C1063.14 251.173 1073.9 239.572 1085.54 228.48C1085.12 225.934 1084.7 223.387 1084.28 220.84C1078.93 198.176 1071.26 175.897 1062.16 154.511C1051.85 164.073 1041.54 173.635 1031.23 183.198C1038.76 209.425 1045.52 235.781 1051.5 262.265ZM1027.15 168.174C1036.79 159.376 1046.44 150.579 1056.08 141.781C1055.87 140.508 1054.99 139.999 1054.78 138.726C1054.57 137.453 1054.46 136.816 1054.36 136.179C1042.25 134.918 1029.48 134.422 1017.37 133.161C1020.15 145.13 1023.71 156.97 1027.15 168.174ZM966.241 264.646C990.135 265.258 1013.47 267.271 1037.01 270.558C1030.58 246.112 1024.24 222.303 1017.81 197.858C996.733 219.021 976.645 241.329 958.206 264.017C960.627 264.269 963.714 263.757 966.241 264.646ZM1013.62 182.197C1009.85 169.083 1005.99 155.333 1002.22 142.219C982.514 157.268 964.456 172.696 947.486 189.907C950.658 209.007 952.286 228.364 954.474 246.319C973.019 224.267 992.441 202.723 1013.62 182.197ZM930.539 140.383C936.195 150.566 940.414 161.641 943.966 173.482C959.043 159.202 974.997 145.431 991.829 132.169C970.356 131.809 948.883 131.449 927.515 131.726C928.816 134.781 929.239 137.328 930.539 140.383ZM939.714 262.508L940.38 261.743C938.689 251.556 936.892 240.733 935.2 230.546C933.932 222.906 932.663 215.266 930.623 207.754C915.302 225.345 903.387 244.334 888.838 261.797C906.241 261.524 922.872 261.379 939.714 262.508ZM883.774 245.628C898.217 227.528 910.799 207.775 926.996 190.692C923.687 175.54 920.484 161.025 915.737 146.766C914.648 144.984 913.454 142.566 912.365 140.784C895.501 158.631 880.181 176.222 865.072 195.087C871.68 210.999 878.499 228.185 883.774 245.628ZM869.786 261.689L870.453 260.924C865.177 243.482 859.236 226.804 852.416 209.618C848.526 214.844 843.863 220.198 840.078 226.06C832.962 235.746 826.238 252.564 816.458 265.31C835.087 262.871 852.384 261.962 869.786 261.689ZM796.476 240.496C811.479 220.995 826.588 202.131 842.574 183.775C841.273 180.72 839.973 177.665 838.778 175.246C833.016 164.427 827.254 153.608 821.493 142.788C804.312 158.726 787.342 175.936 772.022 193.527C782.383 208.162 791.306 223.691 796.476 240.496ZM807.103 137.327C781.982 138.881 756.09 140.564 731.075 142.754C742.662 155.223 753.584 168.457 763.733 181.819C777.827 166.394 792.026 151.606 807.103 137.327ZM774.812 267.646C775.372 266.244 776.039 265.479 777.476 264.586C771.99 245.871 765.17 228.685 756.036 211.883C740.155 230.876 726.03 250.885 712.782 271.403C733.166 269.981 754.322 268.431 774.812 267.646ZM699.936 265.685C715.077 242.236 731.201 219.932 749.079 198.645C738.084 180.19 726.317 161.863 712.901 143.155L712.129 143.284C712.234 143.92 711.568 144.685 711.568 144.685C698.426 165.84 682.651 185.469 665.122 204.081C671.338 212.862 676.117 222.536 680.018 231.702C685.991 243.795 692.525 254.486 699.936 265.685ZM625.917 283.21C644.44 280.134 663.069 277.695 681.698 275.256C678.114 268 675.968 259.852 672.384 252.596C665.639 240.632 658.228 229.432 650.045 218.361C624.554 241.566 595.69 258.789 579.08 287.716C594.622 285.789 610.269 284.5 625.917 283.21ZM572.61 267.855C584.842 250.776 603.007 235.984 617.978 221.068C624.078 214.821 630.179 208.575 636.174 201.691C636.068 201.055 635.296 201.183 635.19 200.546C623.603 188.077 596.611 173.586 589.232 157.802C574.366 173.355 559.501 188.908 544.741 205.097C557.491 224.569 568.032 245.063 572.61 267.855ZM505.018 295.434C505.684 294.669 507.228 294.413 508.771 294.156C522.875 293.123 537.645 291.325 551.749 290.291C552.31 288.89 553.642 287.36 555.852 286.339C561.815 284.04 543.715 241.904 541.431 237.704C538.059 231.721 534.686 225.739 531.419 220.394C508.666 245.761 485.914 271.128 463.933 296.368C477.37 296.099 491.58 295.702 505.018 295.434ZM447.884 228.376C453.72 244.417 458.012 260.714 459.883 276.759C478.777 252.032 497.671 227.306 518.214 202.96C505.993 186.671 498.613 170.886 490.916 153.192C472.615 171.932 457.157 193.471 440.716 213.865C443.877 218.574 446.267 223.411 447.884 228.376ZM466.25 152.708C448.848 152.98 431.339 152.616 413.165 153.017C414.539 161.294 417.563 169.951 421.358 178.48C423.43 181.407 424.625 183.826 425.82 186.244C426.909 188.026 427.226 189.936 428.315 191.718C428.421 192.355 429.404 193.5 429.51 194.136C441.499 180.37 453.489 166.603 466.25 152.708ZM446.53 296.64C441.952 273.848 435.937 251.949 428.272 229.67C411.059 250.192 395.39 270.458 383.337 293.395C383.548 294.668 383.654 295.305 383.866 296.578L383.971 297.215C403.795 297.194 425.163 296.917 446.53 296.64ZM378.093 271.367C390.358 249.704 404.378 229.058 419.275 208.92L419.169 208.284C413.862 195.426 401.852 180.411 394.684 165.899C383.011 181.576 372.111 197.125 361.316 213.31C367.574 231.898 373.939 251.122 378.093 271.367ZM380.569 152.542C363.833 152.05 347.202 152.194 330.465 151.702C337.983 163.538 344.061 176.268 350.141 188.997C359.149 176.379 369.034 164.27 380.569 152.542ZM366.569 297.487C366.357 296.214 366.146 294.941 366.601 292.902C363.006 271.256 357.096 249.993 349.749 229.624C335.169 251.672 321.466 274.228 309.307 296.528C309.307 296.528 309.307 296.528 308.641 297.293C327.693 297.4 346.745 297.508 366.569 297.487ZM339.134 203.909C332.632 188.633 324.587 173.613 315.875 159.358C306.095 172.104 297.193 185.358 287.413 198.104C283.522 203.33 279.737 209.192 276.618 214.29C286.735 232.236 296.081 250.311 303.218 269.407C312.85 246.218 325.114 224.555 339.134 203.909ZM291.799 296.164C288.871 273.752 278.119 251.985 265.051 230.603C251.592 249.848 237.255 268.584 222.812 286.683C223.235 289.23 223.552 291.14 223.975 293.687C246.431 295.192 269.554 295.932 291.799 296.164ZM217.537 269.241L256.339 216.348C242.606 195.731 227.434 176.006 214.018 157.299C212.686 158.828 210.582 160.486 209.355 162.653C201.996 175.651 193.866 188.777 185.735 201.903C197.608 220.866 207.377 241.488 213.953 261.986C215.147 264.404 216.342 266.823 217.537 269.241ZM200.853 292.947C200.747 292.31 201.413 291.545 202.079 290.78L205.304 286.32C203.475 280.081 201.54 273.206 198.939 267.095C191.666 251.948 181.41 237.949 173.259 222.293C159.557 244.849 145.748 266.768 131.94 288.688C155.168 290.065 177.625 291.57 200.853 292.947ZM48.1834 281.006C67.5525 283.024 86.9217 285.041 105.413 286.55C97.4734 272.167 96.2684 255.357 91.2043 239.189C90.8872 237.279 89.7981 235.497 89.481 233.587C86.7745 226.84 83.9624 219.456 80.4841 212.837C68.9912 234.372 57.7098 257.18 48.1834 281.006Z" fill="#DC131A"/>
<path d="M-49.6868 307.725C-50.004 305.815 -49.6551 303.14 -46.7793 301.354C-46.1132 300.589 -45.3414 300.461 -43.9036 299.568C-39.5898 296.889 -34.7475 297.393 -31.6921 301.465C-31.5863 302.102 -31.5863 302.102 -30.7089 302.611C-29.6198 304.393 -29.4084 305.666 -29.9688 307.067C-22.2189 301.201 -36.4286 301.598 -12.7776 305.521C5.15364 308.432 23.0849 311.343 41.016 314.253C66.9825 317.792 92.177 321.46 118.704 323.597C172.741 329.018 227.898 331.635 282.739 332.342C390.665 332.74 497.703 318.238 606.009 311.376C817.992 298.421 1031.01 310.809 1237.59 346.509C1247.38 348.155 1241.46 360.26 1231.67 358.614C1013.54 320.251 787.299 309.405 561.075 327.342C456.945 335.473 354.992 347.168 250.714 344.856C151.278 343.049 51.1338 332.2 -44.6649 314.087C-47.0861 313.835 -49.0525 311.545 -49.4754 308.998C-50.2472 309.126 -50.3529 308.489 -49.6868 307.725Z" fill="#DC131A"/>
<path d="M-22.6041 499.495C-17.656 500.636 -11.8304 502.285 -6.88248 503.426C-9.5151 501.901 -10.7099 499.482 -9.69477 496.043C-2.83273 475.276 5.67859 454.891 15.8393 434.885C14.4331 431.193 13.6931 426.737 12.1813 422.408C7.01162 405.602 7.56168 389.81 10.3214 372.996C9.58136 368.539 7.96385 363.574 7.22384 359.117C-8.49778 355.185 -22.887 349.724 -36.7159 342.861C-41.9811 339.81 -39.7395 334.204 -35.3201 332.162C-34.3051 328.722 -30.0972 325.406 -25.1491 326.548C40.4752 344.437 108.447 357.357 177.116 364.927C192.309 365.676 207.502 366.424 223.467 367.044C227.463 362.455 234.832 363.849 237.116 368.049C269.045 369.289 300.869 369.893 333.359 369.732C334.131 369.604 334.903 369.476 335.675 369.348C489.634 369.953 643.89 343.685 798.758 340.213C940.4 338.284 1081.49 352.147 1217.86 380.534C1218.63 380.405 1219.51 380.914 1221.05 380.658C1222.7 381.038 1223.47 380.91 1224.35 381.418C1224.35 381.418 1225.12 381.29 1225.23 381.927C1235.12 384.209 1229.2 396.314 1219.31 394.032C1217.66 393.651 1216.01 393.271 1214.36 392.891C1209.52 392.386 1205.45 391.754 1200.6 391.249C1188.13 411.639 1174.11 432.285 1159.1 451.786C1165.47 471.011 1170.29 490.491 1172.9 510.993C1173.85 516.723 1174.8 522.453 1174.98 528.311C1175.2 529.584 1174.63 530.986 1173.97 531.751C1174.29 533.661 1174.6 535.571 1174.81 536.844C1222.47 542.016 1269.56 548.59 1314.3 560.133C1320.9 561.655 1320.27 572.226 1312.45 572.871C1302.31 573.9 1292.06 574.293 1282.49 573.921C1281.26 576.087 1279.26 578.381 1275.19 577.749C1097.6 554.244 921.842 536.979 741.705 531.561C696.655 532.499 651.604 533.438 607.432 534.884C492.211 538.315 377.095 542.382 261.769 545.176C162.195 547.316 61.8814 545.001 -28.6307 510.963C-36.9831 508.424 -32.5 497.212 -22.6041 499.495ZM27.8933 364.19C26.8783 367.63 26.6351 370.941 26.3918 374.253C28.7494 383.675 31.107 393.097 32.587 402.01C39.3854 390.414 46.2896 379.454 53.8599 367.729C45.0527 367.229 36.1399 366.092 27.8933 364.19ZM68.4708 388.855C59.6002 397.525 52.1675 405.301 45.3691 416.897C42.8105 420.593 41.1293 424.798 38.5706 428.494C43.7825 455.106 48.3283 482.483 50.453 509.607C59.9475 490.367 69.4422 471.126 79.8143 452.394C73.2385 431.897 70.4159 410.122 68.4708 388.855ZM117.867 380.653C114.356 378.619 113.934 376.072 115.16 373.906C106.353 373.406 98.3178 372.777 89.4051 371.64C84.7528 391.385 86.9409 409.34 92.3222 427.419C100.907 412.255 109.493 397.091 118.85 381.798C118.744 381.162 118.744 381.162 117.867 380.653ZM149.722 376.672C149.828 377.309 150.705 377.817 150.917 379.091C152.502 388.641 155.632 397.935 160.199 406.335C165.538 414.608 170.211 423.645 175.339 430.645C176.322 431.79 177.411 433.572 178.394 434.717C187.223 416.241 196.823 397.637 205.757 379.798C187.371 378.926 168.108 377.545 149.722 376.672ZM265.546 381.647C255.195 381.403 245.616 381.03 235.266 380.786C252.678 394.905 268.654 409.916 283.963 425.693C290.232 410.913 297.38 396.642 306.177 382.751C292.633 382.383 279.089 382.015 265.546 381.647ZM332.386 382.978C334.458 385.905 337.302 388.704 339.269 390.995C352.506 403.844 365.742 416.693 378.313 430.307C385.915 413.998 393.517 397.688 401.997 381.887C379.086 382.421 356.175 382.954 332.386 382.978ZM431.96 380.838C444.287 397.763 457.386 414.561 469.608 430.85C480.086 412.754 490.564 394.659 502.691 376.944C479.114 378.242 455.537 379.54 431.96 380.838ZM560.65 372.554C550.511 373.583 540.266 373.976 530.127 375.005C544.347 388.999 559.233 402.229 574.891 415.33C578.401 417.365 581.911 419.399 585.421 421.433C590.75 415.314 595.973 408.559 601.302 402.44C609.644 390.587 617.986 378.735 627.205 367.39C604.506 369.197 582.578 370.875 560.65 372.554ZM670.395 364.799C678.123 377.908 684.308 391.274 690.493 404.64C699.956 389.985 709.524 375.965 717.549 362.203C701.796 362.856 686.148 364.146 670.395 364.799ZM755.442 361.145C765.454 378.455 773.15 396.149 781.619 413.716C794.412 395.236 807.417 378.029 821.965 360.566C799.72 360.335 777.581 360.74 755.442 361.145ZM895.403 363.42C884.946 362.539 874.596 362.295 864.245 362.051C870.641 376.69 876.932 390.693 883.328 405.332C893.774 391.822 903.448 378.439 914.772 365.437C908.174 363.916 901.789 363.668 895.403 363.42ZM950.772 367.31C950.846 372.532 951.691 377.625 953.203 381.954C964.442 397.097 974.136 412.498 983.06 428.026C1001.15 408.012 1017.24 390.293 1025.55 383.025C1026.78 380.859 1028 378.692 1028.46 376.654C1028.35 376.018 1028.14 374.744 1028.81 373.979C1003.05 371.714 976.527 369.576 950.772 367.31ZM1125.57 412.213C1123.18 407.376 1120.79 402.539 1117.63 397.83C1109.36 414.905 1090.64 431.098 1077.88 444.993C1081.47 466.64 1083.52 488.543 1085.36 509.173C1101.17 484.959 1117.85 461.254 1135.41 438.057C1133.27 429.908 1129.36 420.742 1125.57 412.213ZM1158.6 525.144C1157.96 521.324 1158.21 518.013 1157.57 514.193C1154.93 498.276 1151.62 483.124 1146.77 468.228C1129.55 488.75 1111.46 508.764 1092.39 527.632C1091.72 528.397 1091.72 528.397 1090.95 528.525C1107.9 530.291 1125.73 532.565 1142.78 534.967C1148.39 535.343 1154.01 535.719 1158.85 536.224C1158.74 535.587 1157.87 535.079 1157.66 533.805C1154.04 531.135 1155.72 526.93 1158.6 525.144ZM1175.73 389.492C1161.2 387.979 1145.9 386.594 1131.37 385.081C1134.19 392.464 1136.89 399.211 1140.48 406.467C1142.97 411.941 1146.34 417.923 1148.07 423.525C1157.18 411.544 1166.4 400.2 1175.73 389.492ZM1191.21 554.402C1171.63 551.111 1151.39 548.585 1131.91 545.931C1118.26 544.926 1104.61 543.921 1090.96 542.917C1124.09 546.576 1158.09 550.743 1191.21 554.402ZM1075.37 425.128C1086.34 414.801 1097.21 403.837 1104.89 392.749C1106.01 389.946 1107.13 387.143 1107.48 384.469C1107.37 383.832 1108.04 383.067 1108.71 382.302C1091.76 380.537 1074.81 378.771 1057.86 377.006C1065.03 391.517 1070.97 408.195 1075.37 425.128ZM1024.7 521.207C1040 522.592 1056.18 524.486 1071.48 525.871C1067.43 506.262 1062.71 487.419 1057.89 467.938C1045.13 481.833 1033.25 496.237 1020.49 510.132C1022.66 513.695 1024.07 517.387 1024.7 521.207ZM1050.09 449.607C1051.42 448.077 1052.09 447.312 1053.42 445.783C1048.71 426.939 1043.22 408.223 1038.5 389.379C1029.6 402.634 1015.75 414.747 1005.65 425.583C1000.99 430.936 996.328 436.29 991.666 441.644C1000.69 457.809 1008.29 474.867 1015.1 492.053C1025.44 477.905 1037.33 463.502 1050.09 449.607ZM995.65 518.181C997.543 515.25 1000.21 512.19 1002.1 509.259C993.843 492.966 983.376 477.694 972.804 461.786C957.378 478.74 941.952 495.694 926.632 513.285C949.86 514.662 973.088 516.039 995.65 518.181ZM917.677 502.342C926.336 492.399 944.881 470.347 964.969 448.039C952.991 428.439 942.45 407.945 937.418 387.192C934.363 383.119 931.413 379.684 928.357 375.612C920.681 386.7 910.479 396.899 900.382 407.734C897.263 412.832 893.266 417.421 890.147 422.518C899.99 448.361 909.272 475.606 917.677 502.342ZM904.07 511.144C896.965 487.463 888.317 464.038 877.354 440.998C862.668 462.409 849.737 484.837 836.806 507.265C859.157 508.134 881.613 509.639 904.07 511.144ZM859.772 435.413C860.438 434.648 861.104 433.883 861.77 433.118C863.102 431.588 864.328 429.422 865.661 427.893C866.993 426.363 867.553 424.961 868.885 423.432C859.434 404.72 850.088 386.645 839.864 368.062C823.635 389.729 807.405 411.397 791.948 432.936C803.155 452.664 813.484 471.884 818.727 493.912C832.959 474.539 846.312 454.657 859.772 435.413ZM805.755 506.533C795.182 490.625 784.715 475.353 774.915 459.316C764.786 474.737 755.323 489.392 746.072 505.321C766.562 504.536 786.491 505.152 805.755 506.533ZM736.271 489.285C744.645 472.847 753.791 456.281 763.814 440.224C751.412 418.077 739.011 395.93 728.153 373.526C717.464 390.348 707.547 407.042 698.507 424.245C710.136 446.52 720.994 468.924 736.271 489.285ZM729.23 504.193C712.166 487.399 697.417 470.221 684.878 452.023C678.851 463.491 673.702 475.468 667.781 487.573C671.048 492.918 672 498.648 669.758 504.254C689.582 504.234 709.406 504.213 729.23 504.193ZM652.472 471.796C658.182 458.418 664.769 445.548 672.9 432.422C662.676 413.839 653.89 394.362 647.42 374.501C637.884 383.936 629.013 392.605 620.354 402.548C613.344 412.871 607.878 422.938 601.534 432.496C605.922 435.039 609.537 437.709 613.153 440.38C624.878 448.901 636.043 458.823 645.664 469.001C648.085 469.254 650.717 470.779 652.472 471.796ZM642.777 504.155C643.58 499.442 644.49 495.365 646.171 491.161C641.043 484.162 636.021 477.799 629.561 472.329C616.187 463.428 601.164 454.147 591.405 447.917C577.84 466.525 562.065 486.154 555.097 506.283C584.183 504.725 613.48 504.44 642.777 504.155ZM538.805 489.362C539.82 485.922 542.696 484.136 545.012 483.752C552.508 466.806 562.531 450.748 574.204 435.071C567.849 430.238 562.267 425.277 556.579 419.68C540.784 410.526 525.654 400.608 514.067 388.139C501.274 406.619 491.007 425.988 480.075 446.121C480.181 446.758 480.181 446.758 481.058 447.267C481.164 447.903 482.041 448.412 482.147 449.049C487.835 454.646 494.401 460.753 501.632 466.094C509.847 472.581 528.064 481.986 537.79 492.801L538.805 489.362ZM513.24 507.345C504.254 500.987 497.16 491.697 491.154 484.189C485.044 476.045 478.933 467.901 472.822 459.756C467.25 469.186 461.678 478.616 456.983 488.555C453.41 495.691 450.714 503.335 447.14 510.47C469.173 509.429 491.207 508.387 513.24 507.345ZM443.26 482.329C449.181 470.224 455.102 458.119 461.129 446.65C444.942 430.366 431.631 412.295 420.319 391.93C411.385 409.769 402.451 427.608 393.516 445.447C408.053 461.351 422.696 477.893 436.567 494.562C438.354 490.994 440.807 486.661 443.26 482.329ZM425.212 512.149C409.417 502.995 397.787 480.72 388.06 469.905C386.972 468.123 385.216 467.106 384.127 465.324C376.631 482.27 368.363 499.345 361.744 516.799C382.9 515.249 404.056 513.699 425.212 512.149ZM348.93 506.497C355.232 487.132 362.411 468.276 370.362 449.292C355.719 432.75 341.848 416.081 327.311 400.177C324.467 397.378 321.623 394.579 318.885 392.417C311.283 408.726 304.558 425.544 297.834 442.362C310.616 457.249 321.96 473.03 333.304 488.81C339.764 494.28 344.68 500.006 348.93 506.497ZM283.295 521.975C292.768 521.71 303.119 521.954 312.592 521.69C321.187 520.917 329.011 520.272 337.607 519.499C330.407 509.572 323.979 499.518 316.779 489.592C308.247 481.195 298.172 473.054 289.745 465.294C282.566 484.151 276.159 502.879 269.751 521.607C273.716 521.602 278.453 521.47 283.295 521.975ZM255.954 510.159C260.606 490.414 266.802 470.412 273.876 450.92C273.77 450.283 272.998 450.411 272.893 449.775C255.511 431.071 238.902 412.24 222.293 393.408C211.149 412.268 204.181 432.398 193.915 451.767C193.915 451.767 194.02 452.403 193.248 452.531C212.49 472.888 235.38 491.331 255.954 510.159ZM246.84 522.14C224.162 504.97 203.588 486.143 185.118 465.657C179.44 474.451 172.991 483.373 167.419 492.803C163.496 502.613 159.468 511.787 154.773 521.726C185.825 522.458 216 522.681 246.84 522.14ZM152.014 490.781C157.724 477.403 164.099 463.259 170.581 449.753C164.681 442.882 158.676 435.374 153.443 427.738C147.226 418.957 140.936 404.954 132.858 394.52C122.381 412.615 111.903 430.71 101.425 448.806C112.071 469.936 127.243 489.66 141.537 508.876C145.322 503.014 148.229 496.643 152.014 490.781ZM121.3 520.741C105.642 507.64 95.07 491.731 87.4791 474.673C79.4542 488.436 71.4293 502.199 64.1763 515.834C82.7735 517.979 102.037 519.36 121.3 520.741ZM34.1394 511.662C31.8454 493.07 27.4474 476.137 22.1719 458.694C15.7964 472.837 9.42084 486.98 4.58889 500.867C3.46819 503.67 1.25844 504.691 -1.82881 505.204C10.3826 507.102 22.6998 509.636 34.1394 511.662Z" fill="#DC131A"/>
<path d="M-36.4662 544.975C179.068 591.619 406.677 548.592 629.19 541.739C857.211 534.626 1075.91 585.978 1303.23 584.215C1313.47 583.822 1311.73 597.196 1301.38 596.952C1069.32 598.848 846.448 546.226 613.901 554.745C394.793 562.995 170.726 603.472 -42.3871 557.08C-51.4055 555.306 -45.4846 543.201 -36.4662 544.975Z" fill="#DC131A"/>
</g>
</g>
</svg>
