<svg width="21" height="19" viewBox="0 0 21 19" fill="none" xmlns="http://www.w3.org/2000/svg">
<path d="M19.875 9.72917C19.875 4.01042 15.4375 0.125 10.5 0.125C5.61462 0.125 1.12504 3.92708 1.12504 9.79167C0.500041 10.1458 0.083374 10.8125 0.083374 11.5833V13.6667C0.083374 14.8125 1.02087 15.75 2.16671 15.75H3.20837V9.39583C3.20837 5.36458 6.46879 2.10417 10.5 2.10417C14.5313 2.10417 17.7917 5.36458 17.7917 9.39583V16.7917H9.45837V18.875H17.7917C18.9375 18.875 19.875 17.9375 19.875 16.7917V15.5208C20.4896 15.1979 20.9167 14.5625 20.9167 13.8125V11.4167C20.9167 10.6875 20.4896 10.0521 19.875 9.72917Z" fill="#DC131A"/>
</svg>
