<svg width="21" height="17" viewBox="0 0 21 17" fill="none" xmlns="http://www.w3.org/2000/svg">
<path d="M18.8333 4.33317L10.5 9.5415L2.16665 4.33317V2.24984L10.5 7.45817L18.8333 2.24984V4.33317ZM18.8333 0.166504H2.16665C1.0104 0.166504 0.083313 1.09359 0.083313 2.24984V14.7498C0.083313 15.3024 0.302806 15.8323 0.693507 16.223C1.08421 16.6137 1.61411 16.8332 2.16665 16.8332H18.8333C19.3858 16.8332 19.9158 16.6137 20.3065 16.223C20.6972 15.8323 20.9166 15.3024 20.9166 14.7498V2.24984C20.9166 1.6973 20.6972 1.1674 20.3065 0.776698C19.9158 0.385997 19.3858 0.166504 18.8333 0.166504Z" fill="#DC131A"/>
</svg>
