<svg width="18" height="18" viewBox="0 0 18 18" fill="none" xmlns="http://www.w3.org/2000/svg">
<path d="M17.125 9C17.125 7.36844 16.4317 5.90683 15.3257 4.88081C14.7807 4.37523 14 4.83715 14 5.58053V12.4167C14 13.1577 14.7766 13.6201 15.3216 13.118C16.4299 12.0968 17.125 10.6336 17.125 9ZM1.25 5.25C0.697715 5.25 0.25 5.69772 0.25 6.25V11.75C0.25 12.3023 0.697715 12.75 1.25 12.75H4.83579C5.101 12.75 5.35536 12.8554 5.54289 13.0429L9.79289 17.2929C10.4229 17.9229 11.5 17.4767 11.5 16.5858V1.41421C11.5 0.523309 10.4229 0.0771418 9.79289 0.707107L5.54289 4.95711C5.35536 5.14464 5.101 5.25 4.83579 5.25H1.25Z" fill="white"/>
</svg>
