<svg width="25" height="28" viewBox="0 0 25 28" fill="none" xmlns="http://www.w3.org/2000/svg">
<path d="M20.4999 14.4875C20.1499 14.2875 19.7874 14.125 19.4249 13.9875C19.7874 13.85 20.1499 13.6875 20.4999 13.4875C22.8999 12.1 24.2374 9.5875 24.2499 7C22.0124 5.7125 19.1624 5.6125 16.7499 7C16.3999 7.2 16.0749 7.4375 15.7749 7.675C15.8374 7.2875 15.8749 6.8875 15.8749 6.4875C15.8749 3.7125 14.3624 1.3 12.1249 0C9.88744 1.3 8.37494 3.7125 8.37494 6.4875C8.37494 6.8875 8.41244 7.2875 8.47494 7.675C8.17494 7.425 7.84994 7.1875 7.49994 6.9875C5.09994 5.6 2.24994 5.7 -6.10352e-05 6.9875C-6.10352e-05 9.575 1.33744 12.0875 3.74994 13.475C4.09994 13.675 4.46244 13.8375 4.82494 13.975C4.46244 14.1125 4.09994 14.275 3.74994 14.475C1.34994 15.8625 0.012439 18.375 -6.10352e-05 20.9625C2.23744 22.25 5.08744 22.35 7.49994 20.9625C7.84994 20.7625 8.17494 20.525 8.47494 20.2875C8.41244 20.6875 8.37494 21.0875 8.37494 21.4875C8.37494 24.2625 9.88744 26.675 12.1249 27.975C14.3624 26.675 15.8749 24.2625 15.8749 21.4875C15.8749 21.0875 15.8374 20.6875 15.7749 20.3C16.0749 20.55 16.3999 20.775 16.7499 20.975C19.1499 22.3625 21.9999 22.2625 24.2499 20.975C24.2374 18.3875 22.8999 15.875 20.4999 14.4875ZM12.1249 18.9875C9.36244 18.9875 7.12494 16.75 7.12494 13.9875C7.12494 11.225 9.36244 8.9875 12.1249 8.9875C14.8874 8.9875 17.1249 11.225 17.1249 13.9875C17.1249 16.75 14.8874 18.9875 12.1249 18.9875Z" fill="white"/>
</svg>
