<svg width="25" height="25" viewBox="0 0 25 25" fill="none" xmlns="http://www.w3.org/2000/svg">
<path d="M6.59346 10.2689H6.57474C6.48099 10.6829 6.38724 11.1075 6.28416 11.473L5.90921 12.7989H7.30586L6.91219 11.473C6.79972 11.0981 6.68721 10.6829 6.59346 10.2689Z" fill="#333333"/>
<path d="M12.4818 10.2573C12.1631 10.2573 11.948 10.2854 11.856 10.3136V14.4472C11.948 14.4753 12.1537 14.4753 12.3317 14.4753C13.6253 14.4847 14.4688 13.7723 14.4688 12.2632C14.4783 10.951 13.7097 10.2573 12.4818 10.2573Z" fill="#333333"/>
<path d="M24 6.64328C24 5.39387 22.9871 4.381 21.7377 4.381H3.26228C2.01287 4.381 1 5.39387 1 6.64328V18.3567C1 19.6061 2.01287 20.619 3.26228 20.619H21.7377C22.9872 20.619 24 19.6061 24 18.3567V6.64328ZM7.99945 15.513L7.51199 13.857H5.70299L5.25311 15.513H3.7721L5.70299 9.211H7.57763L9.53668 15.513H7.99945ZM14.9166 14.7754C14.251 15.3285 13.2408 15.5909 12.0035 15.5909C11.2631 15.5909 10.706 15.5441 10.384 15.4972V9.29205C10.89 9.20769 11.5911 9.16086 12.3128 9.16086C13.5126 9.16086 14.2896 9.37646 14.8989 9.83573C15.555 10.3231 15.9669 11.1011 15.9669 12.2165C15.9669 13.4257 15.5258 14.2599 14.9166 14.7754ZM18.45 15.6191C17.7282 15.6191 17.0158 15.4316 16.6597 15.2348L16.9503 14.0537C17.3346 14.2505 17.9251 14.4474 18.5344 14.4474C19.1905 14.4474 19.5373 14.1756 19.5373 13.7632C19.5373 13.3695 19.2373 13.1446 18.4781 12.8727C17.4283 12.5071 16.7441 11.926 16.7441 11.0074C16.7441 9.92947 17.6439 9.10465 19.1343 9.10465C19.8466 9.10465 20.3715 9.25461 20.7465 9.42334L20.4278 10.5763C20.1747 10.4544 19.7248 10.2763 19.1062 10.2763C18.4875 10.2763 18.1875 10.5575 18.1875 10.8856C18.1875 11.2886 18.5437 11.4667 19.3592 11.7761C20.4747 12.1884 20.9995 12.7696 20.9995 13.6601C20.9995 14.7192 20.184 15.6191 18.45 15.6191Z" fill="#555555"/>
</svg>
