<svg width="25" height="25" viewBox="0 0 25 25" fill="none" xmlns="http://www.w3.org/2000/svg">
<path d="M21.0714 16.5625V3.4375C21.0714 2.91797 20.662 2.5 20.1531 2.5H7.60204C5.57398 2.5 3.92857 4.17969 3.92857 6.25V18.75C3.92857 20.8203 5.57398 22.5 7.60204 22.5H20.1531C20.662 22.5 21.0714 22.082 21.0714 21.5625V20.9375C21.0714 20.6445 20.9375 20.3789 20.7309 20.207C20.5702 19.6055 20.5702 17.8906 20.7309 17.2891C20.9375 17.1211 21.0714 16.8555 21.0714 16.5625ZM8.82653 7.73438C8.82653 7.60547 8.92985 7.5 9.05612 7.5H17.1684C17.2946 7.5 17.398 7.60547 17.398 7.73438V8.51562C17.398 8.64453 17.2946 8.75 17.1684 8.75H9.05612C8.92985 8.75 8.82653 8.64453 8.82653 8.51562V7.73438ZM8.82653 10.2344C8.82653 10.1055 8.92985 10 9.05612 10H17.1684C17.2946 10 17.398 10.1055 17.398 10.2344V11.0156C17.398 11.1445 17.2946 11.25 17.1684 11.25H9.05612C8.92985 11.25 8.82653 11.1445 8.82653 11.0156V10.2344ZM18.523 20H7.60204C6.92475 20 6.37755 19.4414 6.37755 18.75C6.37755 18.0625 6.92857 17.5 7.60204 17.5H18.523C18.4503 18.168 18.4503 19.332 18.523 20Z" fill="#555555"/>
</svg>
