<svg width="25" height="25" viewBox="0 0 25 25" fill="none" xmlns="http://www.w3.org/2000/svg">
<path d="M18.5714 2C19.2155 2 19.8332 2.25754 20.2887 2.71596C20.7441 3.17439 21 3.79614 21 4.44445V22.4796C21 23.1985 20.264 23.6825 19.6039 23.3978L12.8961 20.5042C12.6433 20.3951 12.3567 20.3951 12.1039 20.5042L5.39609 23.3978C4.73596 23.6825 4 23.1985 4 22.4796V4.44445C4 3.08778 5.09286 2 6.42857 2H18.5714ZM10.5769 14.731C10.9677 15.1244 11.604 15.1246 11.9951 14.7315L18.1761 8.5201C18.5631 8.13117 18.5645 7.50304 18.1792 7.11244L17.8722 6.80131C17.4816 6.40534 16.843 6.40422 16.4509 6.7988L11.9951 11.2837C11.6041 11.6773 10.9674 11.6773 10.5763 11.2837L8.85012 9.54627C8.45908 9.15267 7.82235 9.15267 7.43131 9.54627L7.12879 9.85076C6.74134 10.2407 6.74134 10.8704 7.12879 11.2604L10.5769 14.731Z" stroke="#555555"/>
</svg>
