<svg width="25" height="25" viewBox="0 0 25 25" fill="none" xmlns="http://www.w3.org/2000/svg">
<path d="M20.52 3.37577C20.405 3.19526 20.21 3.08824 20 3.08824C19.7925 3.08824 19.5975 3.19526 19.48 3.37577L17.5 6.43932V9.01806H15V6.43932L13.02 3.37577C12.905 3.19526 12.71 3.08824 12.5 3.08824C12.2925 3.08824 12.0975 3.19526 11.98 3.37577L10 6.43932V9.01806H7.5V6.43932L5.52 3.37577C5.405 3.19526 5.21 3.08824 5 3.08824C4.7925 3.08824 4.5975 3.19526 4.48 3.37577L2.5 6.43932V21.9118H7.5V18.0437H10V21.9118H15V18.0437H17.5V21.9118H22.5V6.43932L20.52 3.37577ZM7.5 10.3074H10V16.7543H7.5V10.3074ZM15 10.3074H17.5V16.7543H15V10.3074Z" fill="#555555"/>
</svg>
