<svg width="25" height="25" viewBox="0 0 25 25" fill="none" xmlns="http://www.w3.org/2000/svg">
<path d="M20.5 7H18.315C18.425 6.685 18.5 6.35 18.5 6C18.5 4.345 17.155 3 15.5 3C14.455 3 13.535 3.535 13 4.345L12.5 5.025L12 4.345C11.465 3.535 10.545 3 9.5 3C7.845 3 6.5 4.345 6.5 6C6.5 6.35 6.57 6.685 6.685 7H4.5C3.395 7 2.51 7.895 2.51 9L2.5 20C2.5 21.105 3.395 22 4.5 22H20.5C21.605 22 22.5 21.105 22.5 20V9C22.5 7.895 21.605 7 20.5 7ZM15.5 5C16.05 5 16.5 5.45 16.5 6C16.5 6.55 16.05 7 15.5 7C14.95 7 14.5 6.55 14.5 6C14.5 5.45 14.95 5 15.5 5ZM9.5 5C10.05 5 10.5 5.45 10.5 6C10.5 6.55 10.05 7 9.5 7C8.95 7 8.5 6.55 8.5 6C8.5 5.45 8.95 5 9.5 5ZM20.5 20H4.5V18H20.5V20ZM20.5 15H4.5V9H9.58L7.5 11.835L9.125 13L11.5 9.765L12.5 8.405L13.5 9.765L15.875 13L17.5 11.835L15.42 9H20.5V15Z" fill="#555555"/>
</svg>
