<svg width="25" height="25" viewBox="0 0 25 25" fill="none" xmlns="http://www.w3.org/2000/svg">
<path d="M21.6808 24H21.6757C21.3667 24 21.0639 23.9392 20.7748 23.8205C20.4778 23.6978 20.2108 23.5195 19.9808 23.2894L16.0273 19.336C15.92 19.2287 15.8609 19.0862 15.8609 18.9345C15.8609 18.7828 15.92 18.6402 16.0273 18.5329L18.4368 16.1229C18.5443 16.0154 18.6868 15.9564 18.8384 15.9564C18.9907 15.9564 19.1332 16.0154 19.2406 16.1229L23.194 20.0762C23.424 20.3063 23.6024 20.5738 23.7251 20.8709C23.8444 21.16 23.9046 21.4633 23.9046 21.7723C23.9046 22.0625 23.8506 22.346 23.7439 22.6141C23.6319 22.8924 23.4683 23.1412 23.2571 23.3525C23.0463 23.5638 22.7981 23.7268 22.5204 23.8381C22.2528 23.9455 21.9704 24 21.6808 24ZM17.2321 18.9345L20.7839 22.4862C21.0276 22.7293 21.3445 22.8634 21.6768 22.8639C21.979 22.8627 22.2471 22.7543 22.4533 22.5498V22.5492C22.6583 22.3436 22.7674 22.0744 22.7686 21.7722C22.768 21.4399 22.634 21.1229 22.3903 20.8792L18.8385 17.3275L17.2321 18.9345Z" fill="#555555"/>
<path d="M14.822 21.1088C14.6704 21.1088 14.5278 21.0497 14.4204 20.9424C14.199 20.7209 14.199 20.3607 14.4204 20.1392L20.4453 14.1149C20.5527 14.0075 20.6953 13.9484 20.8469 13.9484C20.9986 13.9484 21.1412 14.0075 21.2485 14.1149C21.3559 14.2216 21.4149 14.3642 21.4149 14.5164C21.4149 14.6681 21.3559 14.8107 21.2485 14.9175L15.2236 20.9424C15.1168 21.0497 14.9742 21.1088 14.822 21.1088Z" fill="#555555"/>
<path d="M16.8305 21.5104C16.6788 21.5104 16.5362 21.4513 16.4289 21.344C16.2074 21.1224 16.2074 20.7623 16.4289 20.5407L20.4454 16.5243C20.5527 16.417 20.6953 16.3579 20.8469 16.3579C20.9986 16.3579 21.1412 16.417 21.2485 16.5243C21.3559 16.6317 21.415 16.7742 21.415 16.9259C21.415 17.0776 21.3559 17.2201 21.2485 17.3275L17.232 21.3439C17.1247 21.4513 16.9822 21.5104 16.8305 21.5104Z" fill="#555555"/>
<path d="M18.0353 22.7157C17.8836 22.7157 17.741 22.6567 17.6337 22.5493C17.5264 22.4419 17.4673 22.2994 17.4673 22.1477C17.4673 21.9961 17.5263 21.853 17.6337 21.7462L21.6501 17.7291C21.7575 17.6224 21.9 17.5633 22.0517 17.5633C22.2034 17.5633 22.3464 17.6224 22.4532 17.7291C22.5606 17.8365 22.6197 17.9791 22.6197 18.1313C22.6197 18.283 22.5606 18.4255 22.4532 18.5329L18.4368 22.5493C18.3301 22.6567 18.1869 22.7157 18.0353 22.7157Z" fill="#555555"/>
<path d="M8.48356 13.1634C8.33417 13.1634 8.18762 13.1032 8.08197 12.997L5.86217 10.7778C5.64065 10.5563 5.64065 10.1956 5.86217 9.97461C5.96953 9.86726 6.1121 9.80819 6.26376 9.80819C6.41542 9.80819 6.55799 9.86726 6.66535 9.97461L8.48356 11.7923L9.68831 10.5875L4.78125 5.67986C4.67389 5.57251 4.61482 5.42994 4.61482 5.27828C4.61482 5.12662 4.67389 4.98405 4.78125 4.87669C4.8886 4.76934 5.03117 4.71026 5.18283 4.71026C5.33449 4.71026 5.47706 4.76934 5.58442 4.87669L10.4915 9.78433L11.6968 8.579L6.49835 3.38054L2.40525 2.34222L3.17718 6.04169C3.24136 6.34842 3.04369 6.64946 2.73697 6.71365C2.69891 6.7216 2.65972 6.72558 2.62052 6.72558C2.35356 6.72558 2.11953 6.53529 2.06501 6.27344L1.1079 1.68389C1.06814 1.4936 1.13062 1.29196 1.27035 1.15791C1.37714 1.05623 1.51687 1 1.66399 1C1.71113 1 1.75771 1.00568 1.80315 1.01761L6.9289 2.31779C7.02774 2.34278 7.11862 2.39447 7.19076 2.46718L12.9016 8.17742C13.0072 8.28307 13.0681 8.42962 13.0681 8.579C13.0681 8.72839 13.0073 8.87494 12.9016 8.98059L10.8936 10.9891C10.8914 10.9914 10.8891 10.9931 10.8874 10.9953L8.88514 12.997C8.77949 13.1032 8.63294 13.1634 8.48356 13.1634ZM4.25583 8.93572C4.10417 8.93572 3.96103 8.87664 3.85425 8.76929C3.74689 8.66193 3.68782 8.51936 3.68782 8.3677C3.68782 8.21604 3.74689 8.07347 3.85425 7.96612C3.96103 7.85876 4.10417 7.79969 4.25583 7.79969C4.40749 7.79969 4.55006 7.85876 4.65742 7.96612C4.76477 8.07347 4.82385 8.21604 4.82385 8.3677C4.82385 8.51936 4.76477 8.66193 4.65742 8.76929C4.55006 8.87664 4.40749 8.93572 4.25583 8.93572Z" fill="#555555"/>
<path d="M17.6337 18.2971C17.4843 18.2971 17.3377 18.2369 17.2321 18.1313L14.1064 15.0055C13.9995 14.8982 13.9399 14.7556 13.9399 14.604C13.9399 14.4523 13.9995 14.3092 14.1064 14.2024L16.1148 12.1939C16.2222 12.0865 16.3647 12.0275 16.5164 12.0275C16.668 12.0275 16.8106 12.0865 16.918 12.1939L20.0437 15.3197C20.1493 15.4253 20.2102 15.5719 20.2102 15.7213C20.2102 15.8707 20.1494 16.0172 20.0437 16.1229L18.0353 18.1313C17.9296 18.2369 17.7831 18.2971 17.6337 18.2971ZM15.3116 14.6039L17.6337 16.926L18.839 15.7212L16.5164 13.3985L15.3116 14.6039Z" fill="#555555"/>
<path d="M15.6257 20.3056C15.4757 20.3056 15.3298 20.2449 15.2242 20.1392L12.0984 17.0134C11.8769 16.7919 11.8769 16.4318 12.0984 16.2102L14.1064 14.2023C14.2137 14.0949 14.3562 14.0359 14.5079 14.0359C14.6596 14.0359 14.8027 14.0949 14.9095 14.2023L18.0353 17.3275C18.1409 17.4331 18.2017 17.5797 18.2017 17.7291C18.2017 17.8785 18.1409 18.025 18.0353 18.1307L16.0273 20.1392C15.9217 20.2449 15.7751 20.3056 15.6257 20.3056ZM13.3031 16.6118L15.6252 18.9345L16.8306 17.7291L14.5079 15.4071L13.3031 16.6118Z" fill="#555555"/>
<path d="M10.4915 11.1555C10.3398 11.1555 10.1972 11.0964 10.0899 10.9891L4.78123 5.67985C4.67387 5.57249 4.6148 5.42992 4.6148 5.27826C4.6148 5.1266 4.67387 4.98403 4.78123 4.87668C4.88858 4.76932 5.03115 4.71025 5.18281 4.71025C5.33447 4.71025 5.47704 4.76932 5.5844 4.87668L10.8936 10.1859C11.0004 10.2933 11.0595 10.4358 11.0595 10.5875C11.0595 10.7391 11.0004 10.8817 10.8936 10.9891C10.7863 11.0964 10.6437 11.1555 10.4915 11.1555Z" fill="#555555"/>
<path d="M17.6337 18.2971C17.482 18.2971 17.3394 18.2381 17.2321 18.1313L14.1064 15.0055C13.8853 14.784 13.8853 14.4239 14.1064 14.2023C14.2137 14.095 14.3568 14.0359 14.5085 14.0359C14.6602 14.0359 14.8027 14.095 14.91 14.2023L18.0353 17.3276C18.2568 17.5491 18.2568 17.9098 18.0353 18.1313C17.9279 18.2381 17.7853 18.2971 17.6337 18.2971Z" fill="#555555"/>
<path d="M8.8482 19.7797C8.69654 19.7797 8.55397 19.7206 8.44662 19.6132L4.95618 16.1228C4.73465 15.9013 4.73465 15.5411 4.95618 15.3196L17.8092 2.46718C17.8808 2.39447 17.9716 2.34335 18.071 2.31779L23.1967 1.01761C23.2422 1.00568 23.2888 1 23.3359 1C23.483 1 23.6227 1.05623 23.729 1.15791C23.8693 1.29253 23.9323 1.4936 23.8925 1.68389L22.7833 7.00106C22.7606 7.10955 22.7072 7.20839 22.6287 7.28677L13.2662 16.6488C13.1588 16.7561 13.0163 16.8152 12.8646 16.8152C12.713 16.8152 12.5704 16.7561 12.463 16.6488C12.3557 16.5414 12.2966 16.3988 12.2966 16.2472C12.2966 16.0955 12.3557 15.953 12.463 15.8456L21.7058 6.60288L22.5947 2.34222L18.5016 3.38054L6.16093 15.7212L9.24979 18.8101C9.35714 18.9174 9.41622 19.06 9.41622 19.2116C9.41622 19.3633 9.35714 19.5059 9.24979 19.6132C9.14243 19.7206 8.99986 19.7797 8.8482 19.7797ZM10.8567 18.8237C10.7045 18.8237 10.5619 18.7646 10.4545 18.6572C10.3478 18.5499 10.2881 18.4073 10.2881 18.2557C10.2881 18.104 10.3478 17.9614 10.4545 17.8541C10.5619 17.7467 10.7045 17.6877 10.8567 17.6877C11.0084 17.6877 11.1509 17.7467 11.2583 17.8541C11.3656 17.9615 11.4247 18.104 11.4247 18.2557C11.4247 18.4073 11.3656 18.5499 11.2583 18.6572C11.1509 18.7646 11.0084 18.8237 10.8567 18.8237Z" fill="#555555"/>
<path d="M3.32429 24H3.31918C3.02949 24 2.74662 23.9455 2.47965 23.8381C2.20189 23.7267 1.95424 23.5638 1.74351 23.353C1.74351 23.3524 1.74351 23.3524 1.74294 23.3524C1.53164 23.1411 1.36748 22.8923 1.25615 22.614C1.1488 22.3459 1.09483 22.0625 1.0954 21.7723C1.0954 21.4633 1.15561 21.1599 1.27489 20.8708C1.39702 20.5738 1.57594 20.3062 1.80599 20.0762L5.75936 16.1228C5.86672 16.0154 6.00929 15.9563 6.16095 15.9563C6.31317 15.9563 6.45574 16.0154 6.5631 16.1228L8.97261 18.5329C9.07826 18.6385 9.13904 18.785 9.13904 18.9345C9.13904 19.0839 9.07826 19.2304 8.97261 19.336L5.01924 23.2894C4.78919 23.5195 4.52166 23.6978 4.22459 23.8205C3.93604 23.9392 3.63272 24 3.32429 24ZM2.54668 22.5499C2.75287 22.7544 3.02097 22.8628 3.32315 22.864C3.65544 22.8634 3.97239 22.7294 4.21607 22.4863L7.76786 18.9345L6.16151 17.3276L2.60973 20.8793C2.36605 21.123 2.232 21.44 2.23143 21.7723C2.23257 22.0744 2.34162 22.3432 2.54668 22.5494C2.54668 22.5493 2.54668 22.5493 2.54668 22.5499Z" fill="#555555"/>
<path d="M10.1779 21.1088C10.0263 21.1088 9.88314 21.0497 9.77578 20.9424L3.75143 14.918C3.64408 14.8106 3.58501 14.6681 3.58501 14.5159C3.58501 14.3642 3.64408 14.2216 3.75143 14.1148C3.85879 14.0075 4.00136 13.9484 4.15302 13.9484C4.30468 13.9484 4.44725 14.0075 4.55461 14.1148L10.5795 20.1392C10.6869 20.2466 10.746 20.3891 10.746 20.5407C10.746 20.6924 10.6869 20.835 10.5795 20.9423C10.4722 21.0497 10.3296 21.1088 10.1779 21.1088Z" fill="#555555"/>
<path d="M8.16944 21.5104C8.01778 21.5104 7.87521 21.4513 7.76786 21.344L3.75143 17.3275C3.64408 17.2201 3.58501 17.0776 3.58501 16.926C3.58501 16.7743 3.64408 16.6317 3.75143 16.5244C3.85879 16.417 4.00136 16.3579 4.15302 16.3579C4.30468 16.3579 4.44725 16.417 4.55461 16.5244L8.57103 20.5408C8.79255 20.7623 8.79255 21.1224 8.57103 21.344C8.46367 21.4513 8.3211 21.5104 8.16944 21.5104Z" fill="#555555"/>
<path d="M6.96469 22.7157C6.81303 22.7157 6.67046 22.6567 6.56311 22.5493L2.54668 18.5329C2.32516 18.3114 2.32516 17.9507 2.54668 17.7291C2.65347 17.6224 2.79661 17.5633 2.94827 17.5633C3.09993 17.5633 3.2425 17.6224 3.34985 17.7291L7.36628 21.7462C7.47363 21.853 7.53271 21.9961 7.53271 22.1477C7.53271 22.2994 7.47363 22.442 7.36628 22.5493C7.25892 22.6567 7.11635 22.7157 6.96469 22.7157Z" fill="#555555"/>
<path d="M7.36627 18.2971C7.21461 18.2971 7.07204 18.2381 6.96468 18.1307C6.85733 18.0239 6.79826 17.8808 6.79826 17.7291C6.79826 17.5775 6.85733 17.4349 6.96468 17.3276L19.4155 4.87674C19.5229 4.76939 19.6654 4.71031 19.8171 4.71031C19.9688 4.71031 20.1114 4.76939 20.2187 4.87674C20.3261 4.98409 20.3851 5.12667 20.3851 5.27832C20.3851 5.42998 20.3261 5.57256 20.2187 5.67991L7.7678 18.1308C7.6605 18.2381 7.51793 18.2971 7.36627 18.2971Z" fill="#555555"/>
</svg>
