<svg width="25" height="25" viewBox="0 0 25 25" fill="none" xmlns="http://www.w3.org/2000/svg">
<g clip-path="url(#clip0)">
<path d="M21.7314 9.72473C21.0215 8.58887 19.4294 5.96008 19.1947 5.59082C18.8783 5.09398 18.7065 5 18.2753 5H6.09995C5.66874 5 5.4969 5.09398 5.18046 5.59082C4.94577 5.96008 3.35366 8.58887 2.64382 9.72473C2.50464 9.9475 2.46436 10.2173 2.53241 10.47C2.693 11.0675 3.15378 11.5479 3.75011 11.7584V19.375C3.75011 20.0653 4.30979 20.625 5.00011 20.625H19.3751C20.0654 20.625 20.6251 20.0653 20.6251 19.375V11.7584C21.2214 11.5479 21.6823 11.0675 21.8428 10.47C21.9108 10.2173 21.8705 9.9475 21.7314 9.72473ZM16.5629 6.25L17.7604 9.375H14.0626L13.7501 6.25H16.5629ZM10.6251 6.25L10.3126 9.375H6.61479L7.81229 6.25H10.6251ZM7.50011 17.5C7.15495 17.5 6.87511 17.2205 6.87511 16.875C6.87511 16.5295 7.15495 16.25 7.50011 16.25C7.84526 16.25 8.12511 16.5295 8.12511 16.875C8.12511 17.2205 7.84526 17.5 7.50011 17.5ZM19.3751 19.1846C19.3751 19.2871 19.2921 19.375 19.1899 19.375H10.0001V13.4375C10.0001 13.2648 9.86034 13.125 9.68761 13.125H6.56261C6.38987 13.125 6.25011 13.2648 6.25011 13.4375V19.375H5.18534C5.08311 19.375 5.00011 19.2871 5.00011 19.1846V11.7822C5.79448 11.5448 6.37522 10.8411 6.37522 10C6.37522 11.0358 7.24253 11.875 8.31249 11.875C9.38245 11.875 10.2501 11.0358 10.2501 10C10.2501 11.0358 11.1177 11.875 12.1876 11.875C13.2576 11.875 14.1253 11.0358 14.1253 10C14.1253 11.0358 14.9929 11.875 16.0628 11.875C17.1328 11.875 18.0001 11.0358 18.0001 10C18.0001 10.8411 18.5808 11.5448 19.3752 11.7822V19.1846H19.3751ZM17.8126 13.125H11.5626C11.3899 13.125 11.2501 13.2648 11.2501 13.4375V17.8125C11.2501 17.9852 11.3899 18.125 11.5626 18.125H17.8126C17.9853 18.125 18.1251 17.9852 18.1251 17.8125V13.4375C18.1251 13.2648 17.9853 13.125 17.8126 13.125ZM17.5001 15L16.2501 13.75H17.5001V15Z" fill="#555555"/>
</g>
<defs>
<clipPath id="clip0">
<rect width="20" height="20" fill="white" transform="translate(2.5 2.5)"/>
</clipPath>
</defs>
</svg>
