<svg width="25" height="25" viewBox="0 0 25 25" fill="none" xmlns="http://www.w3.org/2000/svg">
<path d="M18.3976 13.3126C18.4309 13.046 18.4559 12.7751 18.4559 12.5001C18.4559 12.2251 18.4309 11.9543 18.3976 11.6876L20.1601 10.3085C20.3184 10.1835 20.3643 9.95846 20.2601 9.77513L18.5934 6.88763C18.4893 6.70846 18.2726 6.63346 18.0851 6.70846L16.0101 7.54596C15.5809 7.21679 15.1101 6.93763 14.6018 6.72513L14.2893 4.51679C14.2518 4.32096 14.0809 4.16679 13.8726 4.16679H10.5393C10.3309 4.16679 10.1601 4.32096 10.1268 4.51679L9.81427 6.72513C9.31057 6.93521 8.83699 7.21124 8.40593 7.54596L6.33093 6.70846C6.23871 6.67327 6.13699 6.67197 6.0439 6.70478C5.9508 6.73759 5.87238 6.80239 5.8226 6.88763L4.15593 9.77513C4.05177 9.95429 4.0976 10.1793 4.25593 10.3085L6.01427 11.6876C5.98093 11.9543 5.95593 12.2251 5.95593 12.5001C5.95593 12.7751 5.98093 13.046 6.01427 13.3126L4.25593 14.6918C4.0976 14.8168 4.05177 15.0418 4.15593 15.2251L5.8226 18.1126C5.92677 18.2918 6.14343 18.3668 6.33093 18.2918L8.40593 17.4543C8.8351 17.7835 9.30593 18.0626 9.81427 18.2751L10.1268 20.4835C10.1601 20.6793 10.3309 20.8335 10.5393 20.8335H13.8726C14.0809 20.8335 14.2518 20.6793 14.2851 20.4835L14.5976 18.2751C15.1013 18.065 15.5749 17.789 16.0059 17.4543L18.0809 18.2918C18.1732 18.327 18.2749 18.3283 18.368 18.2955C18.4611 18.2627 18.5395 18.1979 18.5893 18.1126L20.2559 15.2251C20.3601 15.046 20.3143 14.821 20.1559 14.6918L18.3976 13.3126ZM12.2059 15.4168C10.5934 15.4168 9.28927 14.1126 9.28927 12.5001C9.28927 10.8876 10.5934 9.58346 12.2059 9.58346C13.8184 9.58346 15.1226 10.8876 15.1226 12.5001C15.1226 14.1126 13.8184 15.4168 12.2059 15.4168Z" fill="#555555"/>
</svg>
