<svg width="25" height="25" viewBox="0 0 25 25" fill="none" xmlns="http://www.w3.org/2000/svg">
<g clip-path="url(#clip0)">
<path d="M21.9141 13.164L15.3516 19.7265C14.7656 20.3125 13.75 19.9023 13.75 19.0625V15.3125H8.4375C7.91797 15.3125 7.5 14.8945 7.5 14.375V10.625C7.5 10.1054 7.91797 9.68748 8.4375 9.68748H13.75V5.93748C13.75 5.10154 14.7617 4.68748 15.3516 5.27341L21.9141 11.8359C22.2773 12.2031 22.2773 12.7969 21.9141 13.164ZM10 19.5312V17.9687C10 17.7109 9.78906 17.5 9.53125 17.5H6.25C5.55859 17.5 5 16.9414 5 16.25V8.74998C5 8.05857 5.55859 7.49998 6.25 7.49998H9.53125C9.78906 7.49998 10 7.28904 10 7.03123V5.46873C10 5.21091 9.78906 4.99998 9.53125 4.99998H6.25C4.17969 4.99998 2.5 6.67966 2.5 8.74998V16.25C2.5 18.3203 4.17969 20 6.25 20H9.53125C9.78906 20 10 19.789 10 19.5312Z" fill="#555555"/>
</g>
<defs>
<clipPath id="clip0">
<rect width="20" height="20" fill="white" transform="translate(2.5 2.5)"/>
</clipPath>
</defs>
</svg>
