<svg width="25" height="25" viewBox="0 0 25 25" fill="none" xmlns="http://www.w3.org/2000/svg">
<path d="M21.6098 17.7731H3.3765" stroke="#555555" stroke-linecap="round" stroke-linejoin="round" stroke-dasharray="0.1 1.9"/>
<path d="M21.6098 7.23141H3.3765" stroke="#555555" stroke-linecap="round" stroke-linejoin="round" stroke-dasharray="0.1 1.9"/>
<path d="M15.0147 11.608L13.2346 11.572L12.6502 9.90897C12.6392 9.87763 12.6187 9.85049 12.5916 9.83129C12.5645 9.81209 12.5321 9.80178 12.4989 9.80178C12.4656 9.80178 12.4332 9.81209 12.4061 9.83129C12.379 9.85049 12.3585 9.87763 12.3475 9.90897L11.7633 11.572L9.98294 11.608C9.94959 11.6088 9.91731 11.6199 9.89058 11.6399C9.86384 11.6598 9.84399 11.6876 9.83378 11.7194C9.82356 11.7511 9.82349 11.7853 9.83358 11.8171C9.84367 11.8489 9.86341 11.8767 9.89006 11.8968L11.3076 12.9603L10.7926 14.6443C10.7829 14.6761 10.7833 14.7101 10.7939 14.7417C10.8044 14.7732 10.8244 14.8008 10.8513 14.8204C10.8781 14.8401 10.9103 14.851 10.9436 14.8515C10.9769 14.852 11.0095 14.8422 11.0369 14.8235L12.4989 13.8168L13.961 14.8235C13.9884 14.8423 14.021 14.8521 14.0543 14.8516C14.0875 14.851 14.1198 14.8402 14.1467 14.8205C14.1735 14.8008 14.1935 14.7733 14.204 14.7417C14.2145 14.7101 14.215 14.6761 14.2053 14.6443L13.6899 12.9603L15.1075 11.8968C15.1342 11.8767 15.1539 11.8489 15.164 11.8171C15.1741 11.7853 15.174 11.7511 15.1638 11.7194C15.1536 11.6876 15.1337 11.6598 15.107 11.6399C15.0803 11.6199 15.048 11.6088 15.0147 11.608V11.608Z" stroke="#555555" stroke-linecap="round" stroke-linejoin="round"/>
<path d="M21.6042 12.5002C21.6054 11.8685 21.7854 11.2501 22.1233 10.7165C22.4613 10.1829 22.9435 9.75591 23.514 9.48491V6.27317C23.514 6.01901 23.4131 5.77525 23.2334 5.59553C23.0536 5.41581 22.8099 5.31484 22.5557 5.31484H2.43071C2.17655 5.31484 1.93279 5.41581 1.75307 5.59553C1.57335 5.77525 1.47238 6.01901 1.47238 6.27317V9.47749C2.04655 9.74716 2.53222 10.1745 2.87278 10.7097C3.21333 11.2449 3.39474 11.8658 3.39583 12.5002C3.39474 13.1345 3.21333 13.7555 2.87278 14.2907C2.53222 14.8258 2.04655 15.2532 1.47238 15.5229V18.7315C1.47238 18.9857 1.57335 19.2294 1.75307 19.4091C1.93279 19.5889 2.17655 19.6898 2.43071 19.6898H22.5557C22.8099 19.6898 23.0536 19.5889 23.2334 19.4091C23.4131 19.2294 23.514 18.9857 23.514 18.7315V15.5154C22.9435 15.2444 22.4613 14.8174 22.1233 14.2838C21.7854 13.7502 21.6054 13.1318 21.6042 12.5002V12.5002Z" stroke="#555555" stroke-linecap="round" stroke-linejoin="round"/>
</svg>
