<svg width="46" height="16" viewBox="0 0 46 16" fill="none" xmlns="http://www.w3.org/2000/svg">
<path d="M19.0721 11.5221C19.0722 11.0492 19.173 10.5813 19.3686 10.1463C19.5641 9.71133 19.8503 9.31836 20.2099 8.991C18.4877 5.87095 10.7336 0.949707 7.42411 0.949707C3.68998 0.949707 0.828029 3.54706 1.01555 9.23989C1.14244 13.0925 3.84209 15.1699 7.64055 15.1699C11.0281 15.1699 18.8906 15.6443 20.2434 14.0791C19.8741 13.7516 19.5797 13.3557 19.3782 12.9159C19.1767 12.4761 19.0726 12.0017 19.0721 11.5221Z" fill="#FFEEEE"/>
<path d="M38.1486 0.949707C34.8391 0.949707 27.085 5.87095 25.3627 8.991C25.7252 9.32045 26.0131 9.71659 26.2087 10.1552C26.4043 10.5938 26.5036 11.0656 26.5005 11.5419C26.4974 12.0182 26.3919 12.4888 26.1905 12.9251C25.9891 13.3613 25.6961 13.754 25.3293 14.0791C24.6404 15.4071 34.761 15.0316 38.1486 15.0316C41.947 15.0316 43.9641 13.092 44.3279 11.6119C46.1812 4.07356 41.8827 0.949707 38.1486 0.949707Z" fill="#FFEEEE"/>
<path d="M22.7863 15.0463C24.8376 15.0463 26.5006 13.4685 26.5006 11.5222C26.5006 9.57585 24.8376 7.99805 22.7863 7.99805C20.735 7.99805 19.072 9.57585 19.072 11.5222C19.072 13.4685 20.735 15.0463 22.7863 15.0463Z" fill="#FFEEEE"/>
<path opacity="0.1" d="M24.5052 8.41555C24.7901 8.91686 24.9413 9.47681 24.9453 10.0464C24.9453 10.981 24.554 11.8774 23.8574 12.5383C23.1608 13.1992 22.2161 13.5705 21.231 13.5705C20.6307 13.5667 20.0406 13.4233 19.5122 13.1529C19.7805 13.6428 20.1667 14.0658 20.6394 14.3876C21.1122 14.7094 21.6582 14.9209 22.2332 15.0051C22.8083 15.0893 23.3961 15.0437 23.9491 14.8721C24.5021 14.7004 25.0047 14.4076 25.4161 14.0172C25.8276 13.6268 26.1362 13.15 26.3171 12.6253C26.498 12.1006 26.5461 11.5429 26.4573 10.9973C26.3686 10.4517 26.1456 9.93359 25.8065 9.48503C25.4673 9.03648 25.0215 8.67008 24.5052 8.41553L24.5052 8.41555Z" fill="#75392C"/>
<path opacity="0.75" d="M21.5792 11.7424C22.6049 11.7424 23.4363 10.9535 23.4363 9.98033C23.4363 9.00716 22.6049 8.21826 21.5792 8.21826C20.5535 8.21826 19.722 9.00716 19.722 9.98033C19.722 10.9535 20.5535 11.7424 21.5792 11.7424Z" fill="white"/>
<path opacity="0.75" d="M26.3777 11.155C29.4707 10.4532 35.4783 8.67174 38.3433 8.67174C40.5813 8.74717 42.7039 9.63253 44.2754 11.1461C43.9167 6.6028 41.5788 3.50464 38.1486 3.50464C34.8392 3.50464 27.085 7.37873 25.3628 9.83494C25.836 10.1655 26.1904 10.6265 26.3777 11.155Z" fill="white"/>
<path opacity="0.75" d="M19.3445 11.155C16.2515 10.4532 10.2439 8.67174 7.37889 8.67174C5.14097 8.74717 3.01837 9.63253 1.44678 11.1461C1.80556 6.6028 4.1434 3.50464 7.57358 3.50464C10.883 3.50464 18.6372 7.37873 20.3594 9.83494C19.8862 10.1655 19.5318 10.6265 19.3445 11.155Z" fill="white"/>
<path d="M20.2434 15.9802H7.42414C1.7259 15.9802 0.513497 12.5496 0.256657 11.075C-0.565123 6.35548 0.742008 3.70966 1.98371 2.32121C2.6542 1.57788 3.48964 0.98441 4.43018 0.583305C5.37073 0.182199 6.39312 -0.0166192 7.42414 0.0010869C11.1058 0.0010869 19.1551 5.03513 21.0955 8.55099C21.157 8.6614 21.1949 8.78225 21.2071 8.90659C21.2193 9.03094 21.2054 9.15634 21.1664 9.2756C21.1274 9.39486 21.0639 9.50563 20.9796 9.60157C20.8954 9.6975 20.792 9.77671 20.6754 9.83465C20.5588 9.89258 20.4313 9.92811 20.3002 9.93918C20.1691 9.95026 20.037 9.93666 19.9114 9.89918C19.7859 9.8617 19.6694 9.80107 19.5686 9.72077C19.4678 9.64046 19.3847 9.54207 19.324 9.43123C17.7698 6.61539 10.3187 1.89866 7.42415 1.89866C6.6837 1.88306 5.94878 2.02286 5.2719 2.30806C4.59502 2.59327 3.99291 3.01683 3.50861 3.54848C2.12043 5.10141 1.67804 7.59712 2.23029 10.7655C2.49347 12.2786 3.60871 14.0826 7.42414 14.0826H20.2434C20.5087 14.0826 20.763 14.1826 20.9506 14.3605C21.1381 14.5385 21.2434 14.7798 21.2434 15.0314C21.2434 15.2831 21.1381 15.5244 20.9506 15.7023C20.763 15.8803 20.5087 15.9802 20.2434 15.9802V15.9802Z" fill="#AA1A29"/>
<path d="M38.1488 15.9803H25.5462C25.281 15.9803 25.0266 15.8803 24.8391 15.7024C24.6516 15.5245 24.5462 15.2831 24.5462 15.0315C24.5462 14.7799 24.6516 14.5385 24.8391 14.3606C25.0266 14.1827 25.281 14.0827 25.5462 14.0827H38.1488C41.222 14.0827 43.0008 12.4802 43.3533 10.9912C44.2498 7.20431 43.2464 4.99584 42.2464 3.8103C41.7593 3.21936 41.1378 2.7405 40.4282 2.4095C39.7186 2.0785 38.9394 1.90392 38.1488 1.89879C35.2542 1.89879 27.8026 6.61549 26.2484 9.43136C26.1248 9.65327 25.9135 9.81966 25.6609 9.8941C25.4083 9.96854 25.1348 9.94495 24.9005 9.82851C24.6661 9.71206 24.49 9.51225 24.4106 9.27284C24.3312 9.03342 24.355 8.7739 24.4769 8.55113C26.4173 5.03526 34.4671 0.0012207 38.1488 0.0012207C39.2394 0.00561075 40.3149 0.243823 41.2949 0.698052C42.2748 1.15228 43.1339 1.81078 43.8079 2.62434C45.0819 4.13511 46.3753 6.88469 45.3045 11.4073C44.7659 13.6833 42.3446 15.9803 38.1488 15.9803Z" fill="#AA1A29"/>
<path d="M26.6707 12.4931C26.4473 12.4932 26.2302 12.4224 26.0542 12.2919C25.8781 12.1613 25.7532 11.9786 25.6994 11.7729C25.6455 11.5671 25.6659 11.3502 25.7572 11.1567C25.8484 10.9632 26.0054 10.8042 26.203 10.7052C29.2589 9.56779 32.5026 8.95158 35.7845 8.88501C36.0495 8.8924 36.3007 8.99939 36.4826 9.18245C36.6646 9.3655 36.7624 9.60964 36.7547 9.86115C36.7542 9.98667 36.7269 10.1108 36.6743 10.226C36.6217 10.3411 36.5449 10.445 36.4486 10.5311C36.3524 10.6172 36.2387 10.6838 36.1144 10.7269C35.9902 10.77 35.858 10.7886 35.7259 10.7817C32.7899 10.8678 29.8885 11.4088 27.1365 12.3833C26.993 12.4554 26.8331 12.4931 26.6707 12.4931Z" fill="#AA1A29"/>
<path d="M18.9022 12.4932C18.7304 12.4932 18.5615 12.451 18.4119 12.3709C16.9212 11.5735 12.2835 10.7091 9.8475 10.7818C9.71551 10.7867 9.5838 10.7668 9.45997 10.7232C9.33615 10.6795 9.22266 10.6131 9.12606 10.5276C9.02946 10.4421 8.95167 10.3393 8.89718 10.2252C8.84268 10.111 8.81256 9.98772 8.80856 9.86245C8.80456 9.73718 8.82676 9.6124 8.87388 9.49532C8.92099 9.37823 8.99208 9.27117 9.08305 9.1803C9.17402 9.08943 9.28306 9.01656 9.40387 8.9659C9.52469 8.91524 9.65489 8.88779 9.78695 8.88513C12.3836 8.80267 17.4149 9.65928 19.3944 10.7179C19.587 10.8209 19.7381 10.9816 19.8243 11.1748C19.9104 11.368 19.9266 11.5829 19.8703 11.7858C19.8141 11.9886 19.6886 12.1681 19.5134 12.2961C19.3382 12.4241 19.1233 12.4934 18.9022 12.4932V12.4932Z" fill="#AA1A29"/>
<path d="M22.7865 15.9951C21.8541 15.9951 20.9426 15.7328 20.1673 15.2413C19.3921 14.7498 18.7878 14.0512 18.431 13.2338C18.0742 12.4165 17.9808 11.5171 18.1627 10.6494C18.3446 9.78176 18.7936 8.98475 19.4529 8.35919C20.1123 7.73363 20.9523 7.30761 21.8668 7.13502C22.7813 6.96243 23.7292 7.05101 24.5906 7.38956C25.452 7.72811 26.1883 8.30143 26.7064 9.03701C27.2244 9.7726 27.5009 10.6374 27.5009 11.5221C27.4995 12.708 27.0024 13.845 26.1185 14.6835C25.2347 15.5221 24.0364 15.9938 22.7865 15.9951ZM22.7865 8.94669C22.2497 8.94669 21.7249 9.09774 21.2785 9.38073C20.8321 9.66372 20.4842 10.0659 20.2788 10.5365C20.0733 11.0071 20.0196 11.525 20.1243 12.0245C20.229 12.5241 20.4876 12.983 20.8672 13.3432C21.2468 13.7034 21.7304 13.9486 22.257 14.048C22.7835 14.1474 23.3293 14.0964 23.8252 13.9015C24.3212 13.7065 24.7452 13.3764 25.0434 12.9529C25.3417 12.5294 25.5009 12.0315 25.5009 11.5221C25.5 10.8393 25.2138 10.1847 24.7049 9.7019C24.196 9.2191 23.5061 8.9475 22.7865 8.94669Z" fill="#AA1A29"/>
</svg>
