<svg width="25" height="25" viewBox="0 0 25 25" fill="none" xmlns="http://www.w3.org/2000/svg">
<path d="M4.23133 3.22632C4.16623 3.15646 4.08772 3.10042 4.0005 3.06156C3.91327 3.02269 3.81911 3.0018 3.72363 3.00011C3.62815 2.99843 3.53331 3.01599 3.44477 3.05175C3.35623 3.08752 3.2758 3.14075 3.20827 3.20827C3.14075 3.2758 3.08752 3.35623 3.05175 3.44477C3.01599 3.53331 2.99843 3.62815 3.00011 3.72363C3.0018 3.81911 3.02269 3.91327 3.06156 4.0005C3.10042 4.08772 3.15646 4.16623 3.22632 4.23133L5.86967 6.87467C5.86652 6.93182 5.86494 6.98905 5.86493 7.04628V21.2642C5.8649 21.3951 5.90098 21.5234 5.96921 21.6351C6.03744 21.7468 6.13517 21.8375 6.25163 21.8972C6.3681 21.9569 6.49878 21.9833 6.62928 21.9735C6.75979 21.9637 6.88505 21.9181 6.99129 21.8416L12.4989 17.8776L18.0093 21.8407C18.1155 21.917 18.2405 21.9626 18.3709 21.9725C18.5012 21.9824 18.6318 21.9562 18.7482 21.8967C18.8646 21.8372 18.9623 21.7468 19.0307 21.6354C19.0991 21.524 19.1354 21.3959 19.1357 21.2652V20.1436L20.7646 21.7724C20.8986 21.902 21.0782 21.9738 21.2647 21.9722C21.4511 21.9707 21.6295 21.896 21.7614 21.7642C21.8933 21.6325 21.9682 21.4541 21.9699 21.2677C21.9716 21.0812 21.9 20.9016 21.7705 20.7674L4.23133 3.22632ZM17.7145 18.7204L17.7135 20.2355L12.9142 16.7286C12.7932 16.6416 12.6479 16.5948 12.4989 16.5948C12.3499 16.5948 12.2046 16.6416 12.0836 16.7286L7.03775 20.2355L6.99129 8.29211L17.7135 18.7204H17.7145Z" fill="#555555"/>
<path d="M17.7142 7.0472V14.6985L19.1363 16.1207V7.0472C19.1363 6.22997 18.8117 5.4462 18.2338 4.86833C17.6559 4.29046 16.8722 3.96582 16.055 3.96582H8.94598C8.38185 3.96582 7.8528 4.11752 7.39771 4.3811L8.47192 5.45531C8.62581 5.40975 8.78549 5.38675 8.94598 5.38705H16.055C16.9718 5.38705 17.7142 6.13037 17.7142 7.04625V7.0472Z" fill="#555555"/>
</svg>
