<svg width="25" height="25" viewBox="0 0 25 25" fill="none" xmlns="http://www.w3.org/2000/svg">
<path fill-rule="evenodd" clip-rule="evenodd" d="M8.64062 7.97413C7.69375 8.80672 7.09109 9.91932 7.09109 11.0905C7.09109 11.3667 6.86724 11.5905 6.59109 11.5905C6.31495 11.5905 6.09109 11.3667 6.09109 11.0905C6.09109 9.56749 6.87102 8.19854 7.98028 7.22316C9.08904 6.24821 10.5685 5.62744 12.0505 5.62744C12.3266 5.62744 12.5505 5.8513 12.5505 6.12744C12.5505 6.40358 12.3266 6.62744 12.0505 6.62744C10.8383 6.62744 9.58799 7.14109 8.64062 7.97413Z" fill="#555555"/>
<path fill-rule="evenodd" clip-rule="evenodd" d="M13.5471 4.56733C8.26711 3.89946 3.86798 8.30645 4.53492 13.5086L4.53512 13.5101C5.00181 17.2436 8.14134 20.1809 11.8035 20.4472C11.8105 20.4477 11.8175 20.4484 11.8245 20.4492C13.5372 20.6468 15.115 20.2578 16.4351 19.4762C16.5279 19.4011 16.6627 19.3292 16.8366 19.3292C16.9554 19.3292 17.0559 19.3627 17.1372 19.4078L19.3456 19.7759L19.0698 17.4599C19.0675 17.4403 19.0663 17.4206 19.0663 17.4008C19.0663 17.3981 19.0663 17.3952 19.0663 17.3921C19.066 17.3103 19.0652 17.0854 19.2435 16.8779C20.2233 15.4256 20.6867 13.572 20.4872 11.6399C20.0866 7.9735 17.149 5.03458 13.5471 4.56733ZM3.54294 13.6349C2.79243 7.77707 7.75162 2.82575 13.6734 3.57534L13.6749 3.57553C17.7296 4.10114 21.0307 7.4008 21.4814 11.5327L21.4817 11.5355C21.7043 13.6874 21.1913 15.7777 20.0739 17.435L20.4173 20.3196C20.4359 20.4758 20.3799 20.6317 20.2661 20.7404C20.1522 20.849 19.9939 20.8977 19.8386 20.8719L16.8744 20.3778C15.3918 21.2366 13.6254 21.6613 11.7204 21.4438C7.58821 21.1381 4.06876 17.8384 3.54294 13.6349Z" fill="#555555"/>
<path fill-rule="evenodd" clip-rule="evenodd" d="M7.09109 12.6496C7.09066 12.3738 6.86697 12.1504 6.59109 12.1504C6.31495 12.1504 6.0911 12.3742 6.09109 12.6504H6.59109C6.09109 12.6504 6.09109 12.6503 6.09109 12.6504L6.0911 12.6519L6.0911 12.6541L6.09115 12.6607L6.09146 12.6822C6.0918 12.7001 6.09246 12.7251 6.09373 12.7561C6.09625 12.818 6.10123 12.9046 6.11107 13.008C6.13053 13.2123 6.17002 13.493 6.25214 13.7804C6.328 14.0459 6.60474 14.1996 6.87026 14.1238C7.13578 14.0479 7.28952 13.7712 7.21366 13.5056C7.15397 13.2967 7.12256 13.0811 7.10657 12.9132C7.09869 12.8304 7.0948 12.762 7.09289 12.7153C7.09194 12.692 7.09149 12.6743 7.09128 12.6632L7.09111 12.6515L7.09109 12.6496ZM7.09109 12.6496C7.09109 12.6494 7.09109 12.6495 7.09109 12.6496V12.6496Z" fill="#555555"/>
</svg>
