<svg width="20" height="20" viewBox="0 0 20 20" fill="none" xmlns="http://www.w3.org/2000/svg">
<path d="M6.72015 8.52679C6.20166 8.52679 5.78277 8.96568 5.78277 9.50893C5.78277 10.0522 6.20166 10.4911 6.72015 10.4911C7.23864 10.4911 7.65753 10.0522 7.65753 9.50893C7.65753 8.96568 7.23864 8.52679 6.72015 8.52679ZM10.001 8.52679C9.48249 8.52679 9.06359 8.96568 9.06359 9.50893C9.06359 10.0522 9.48249 10.4911 10.001 10.4911C10.5195 10.4911 10.9384 10.0522 10.9384 9.50893C10.9384 8.96568 10.5195 8.52679 10.001 8.52679ZM13.2818 8.52679C12.7633 8.52679 12.3444 8.96568 12.3444 9.50893C12.3444 10.0522 12.7633 10.4911 13.2818 10.4911C13.8003 10.4911 14.2192 10.0522 14.2192 9.50893C14.2192 8.96568 13.8003 8.52679 13.2818 8.52679ZM10.001 3.125C5.85893 3.125 2.50194 5.98242 2.50194 9.50893C2.50194 10.9699 3.08488 12.308 4.05155 13.3853C3.61508 14.5946 2.707 15.6197 2.69235 15.632C2.49901 15.8468 2.44629 16.1599 2.5576 16.43C2.66891 16.7001 2.92376 16.875 3.20498 16.875C5.0065 16.875 6.42722 16.0862 7.27965 15.454C8.12622 15.7333 9.04016 15.8929 10.001 15.8929C14.143 15.8929 17.5 13.0354 17.5 9.50893C17.5 5.98242 14.143 3.125 10.001 3.125ZM10.001 14.4196C9.21885 14.4196 8.44551 14.2938 7.7044 14.0483L7.03944 13.8273L6.46823 14.2508C6.04934 14.5608 5.47519 14.9076 4.78388 15.1409C4.99771 14.7695 5.2057 14.3521 5.36681 13.9071L5.67731 13.0446L5.07388 12.3756C4.54367 11.7832 3.90801 10.8041 3.90801 9.50893C3.90801 6.8019 6.64106 4.59821 10.001 4.59821C13.3609 4.59821 16.0939 6.8019 16.0939 9.50893C16.0939 12.216 13.3609 14.4196 10.001 14.4196Z" fill="#686868"/>
</svg>
