<svg width="20" height="21" viewBox="0 0 20 21" fill="none" xmlns="http://www.w3.org/2000/svg">
<path d="M4.375 0C4.54076 0 4.69973 0.0681073 4.81694 0.189339C4.93415 0.310571 5 0.474997 5 0.646444V1.29289H15V0.646444C15 0.474997 15.0658 0.310571 15.1831 0.189339C15.3003 0.0681073 15.4592 0 15.625 0C15.7908 0 15.9497 0.0681073 16.0669 0.189339C16.1842 0.310571 16.25 0.474997 16.25 0.646444V1.29289H17.5C18.163 1.29289 18.7989 1.56532 19.2678 2.05025C19.7366 2.53517 20 3.19288 20 3.87867V18.1004C20 18.7862 19.7366 19.4439 19.2678 19.9289C18.7989 20.4138 18.163 20.6862 17.5 20.6862H2.5C1.83696 20.6862 1.20107 20.4138 0.732233 19.9289C0.263392 19.4439 0 18.7862 0 18.1004V3.87867C0 3.19288 0.263392 2.53517 0.732233 2.05025C1.20107 1.56532 1.83696 1.29289 2.5 1.29289H3.75V0.646444C3.75 0.474997 3.81585 0.310571 3.93306 0.189339C4.05027 0.0681073 4.20924 0 4.375 0V0ZM1.25 5.17155V18.1004C1.25 18.4433 1.3817 18.7722 1.61612 19.0147C1.85054 19.2571 2.16848 19.3933 2.5 19.3933H17.5C17.8315 19.3933 18.1495 19.2571 18.3839 19.0147C18.6183 18.7722 18.75 18.4433 18.75 18.1004V5.17155H1.25Z" fill="#959595"/>
</svg>
