<svg width="272" height="30" viewBox="0 0 272 30" fill="none" xmlns="http://www.w3.org/2000/svg">
<path d="M22.1296 10.848V12.024H19.6336V10.848H22.1296ZM22.1296 15.072H19.6336V13.848H22.1296V15.072ZM14.4256 15.072V13.848H16.8496V15.072H14.4256ZM14.4256 10.848H16.8496V12.024H14.4256V10.848ZM16.8496 8.88H11.8096V17.04H16.8496V18.144H10.8976V20.472H16.8496V22.632H19.6336V20.472H26.1856V18.144H19.6336V17.04H24.8656V8.88H19.6336V7.704H25.9216V5.4H19.6336V3.696H16.8496V5.4H10.8496V7.704H16.8496V8.88ZM9.55359 7.656C9.21759 6.576 8.59359 4.968 8.16159 3.696L5.64159 4.44C6.02559 5.76 6.67359 7.488 6.93759 8.592L9.55359 7.656ZM9.76959 14.448L9.33759 14.544H8.35359C8.92959 12.864 9.50559 10.944 10.0096 9.264H4.39359V11.808H6.55359C6.00159 13.68 5.37759 15.6 4.82559 17.016H7.84959C7.48959 18.48 7.00959 19.992 6.45759 21.168C5.66559 21.672 4.77759 22.464 3.93759 23.472L5.85759 26.184C6.43359 24.816 7.29759 23.184 7.84959 23.184C8.32959 23.184 9.19359 23.976 10.2016 24.528C11.9296 25.536 13.9456 25.8 17.1376 25.8C19.9456 25.8 24.1936 25.632 26.1616 25.512C26.1856 24.744 26.6656 23.352 27.0016 22.584C24.3376 22.968 20.0416 23.208 17.2816 23.208C14.4736 23.208 12.2176 23.064 10.5856 22.08C9.93759 21.696 9.48159 21.36 9.09759 21.12C9.91359 19.32 10.5616 17.064 10.9696 14.88L9.76959 14.448ZM45.9776 7.344H41.1536V9.048H53.4416V7.344H48.7616V6.528H54.1856V4.704H48.7616V3.672H45.9776V4.704H40.2656V6.528H45.9776V7.344ZM42.6896 11.448H44.4176V12.888H42.6896V11.448ZM51.7136 12.888H50.1776V11.448H51.7136V12.888ZM46.5296 12.888V11.448H48.0896V12.888H46.5296ZM40.3616 14.616H54.1616V9.72H40.3616V14.616ZM40.8176 18.12C40.6496 16.848 40.0976 14.736 39.5456 13.104L37.6496 13.608C37.8416 14.16 38.0096 14.808 38.1776 15.456L35.9696 15.72C37.6976 13.536 39.3536 10.896 40.6256 8.328L38.4656 7.032C38.0096 8.136 37.4576 9.24 36.9056 10.272L35.3696 10.392C36.4736 8.64 37.5296 6.528 38.3216 4.56L35.9936 3.648C35.2256 6.168 33.8336 8.904 33.3776 9.576C32.9216 10.32 32.5376 10.8 32.1056 10.92C32.3696 11.52 32.7776 12.672 32.8976 13.152C33.2576 12.984 33.7616 12.864 35.5136 12.648C34.8656 13.656 34.3376 14.4 34.0496 14.76C33.3296 15.672 32.8496 16.248 32.2736 16.368C32.5616 17.016 32.9456 18.216 33.0896 18.696C33.5936 18.456 34.3856 18.24 38.6336 17.616C38.7056 18.048 38.7536 18.432 38.8016 18.768L40.8176 18.12ZM33.1376 19.44C32.9936 21.528 32.6816 23.736 32.1296 25.248C32.7056 25.392 33.7376 25.704 34.2176 25.968C34.7216 24.432 35.1056 22.032 35.2976 19.776L33.1376 19.44ZM35.6576 19.728C35.8736 21.504 36.0656 23.76 36.0656 25.272L38.0816 24.912C38.0336 23.4 37.8176 21.168 37.5296 19.392L35.6576 19.728ZM37.8896 19.272C38.3216 20.664 38.8016 22.488 38.9936 23.688L40.8176 23.064C40.6256 21.888 40.0976 20.112 39.6416 18.768L37.8896 19.272ZM43.7456 20.328H50.7056V21.096H43.7456V20.328ZM43.7456 18.576H50.7056V19.296H43.7456V18.576ZM43.7456 16.8H50.7056V17.52H43.7456V16.8ZM53.3696 22.536V15.336H41.2256V22.536H44.4416C43.0736 23.184 41.2256 23.832 39.9056 24.264C40.2416 24.84 40.6736 25.704 40.8896 26.232C42.6416 25.656 45.0416 24.768 46.9376 23.952L45.4976 22.536H49.0496L48.2576 23.976C50.0816 24.648 52.1696 25.512 53.4416 26.112L54.5696 24.12C53.4896 23.688 51.8576 23.064 50.2496 22.536H53.3696ZM63.8976 24H67.4736C67.7616 17.04 68.3136 13.416 72.4416 8.376V6.24H60.6336V9.192H68.6256C65.2416 13.896 64.2096 17.832 63.8976 24ZM99.9824 15.408V12.48H90.8384C90.8624 11.856 90.8864 11.256 90.8864 10.68V8.208H99.0464V5.28H80.0384V8.208H87.8864V10.632C87.8864 11.232 87.8624 11.832 87.8144 12.48H79.1744V15.408H87.2144C86.2304 18.456 83.8784 21.552 78.3344 23.52C78.9584 24.072 79.8224 25.272 80.2064 25.992C85.6064 23.976 88.3184 20.952 89.6384 17.76C91.6544 21.696 94.5584 24.48 99.0704 25.92C99.4784 25.104 100.342 23.856 101.038 23.256C96.3584 22.032 93.2864 19.224 91.6064 15.408H99.9824ZM121.574 18.168H113.222V16.056H121.574V18.168ZM114.566 23.184L115.766 22.776C115.574 22.128 115.142 21.192 114.638 20.424H120.47C120.182 21.24 119.678 22.344 119.222 23.184H114.566ZM113.51 12.432H121.838V11.592C122.63 12.408 123.446 13.128 124.358 13.8H110.87C111.806 13.128 112.694 12.384 113.51 11.52V12.432ZM124.646 13.992C125.462 14.568 126.326 15.048 127.262 15.48C127.694 14.76 128.534 13.632 129.206 13.08C127.718 12.504 126.35 11.688 125.126 10.704C126.158 9.96 127.358 9.048 128.366 8.16L126.278 6.672C125.582 7.464 124.502 8.448 123.494 9.216C123.11 8.808 122.75 8.424 122.414 7.992C123.446 7.248 124.694 6.312 125.75 5.424L123.59 3.888C122.99 4.608 122.054 5.472 121.142 6.192C120.686 5.424 120.254 4.584 119.918 3.744L117.374 4.512C118.214 6.528 119.246 8.424 120.542 10.056H114.782C115.862 8.664 116.75 7.104 117.374 5.376L115.478 4.416L114.998 4.536H107.894V6.84H113.63C113.126 7.704 112.526 8.52 111.806 9.312C111.134 8.64 110.03 7.896 109.118 7.368L107.582 8.952C108.446 9.504 109.454 10.296 110.126 10.968C108.878 12.048 107.438 12.96 106.046 13.536C106.622 14.064 107.414 15.024 107.798 15.648C108.662 15.216 109.502 14.76 110.318 14.184V20.424H113.822L111.926 21.024C112.31 21.672 112.694 22.512 112.91 23.184H107.03V25.608H128.174V23.184H122.078C122.438 22.512 122.846 21.744 123.23 20.928L120.854 20.424H124.646V13.992ZM139.11 5.016V7.92H144.582C144.654 8.736 144.75 9.6 144.918 10.512L143.454 10.248C142.134 16.56 139.278 21.192 134.286 23.712C135.03 24.264 136.374 25.44 136.902 26.04C141.078 23.544 143.958 19.56 145.758 14.184C147.078 18.48 149.622 23.016 154.59 26.016C155.094 25.272 156.27 24.024 156.894 23.52C148.062 18.312 147.414 9.552 147.414 5.016H139.11ZM166.702 23.256V20.88H169.822V23.256H166.702ZM165.406 18.672C166.486 18.144 167.518 17.496 168.454 16.728C169.582 17.424 170.638 18.096 171.43 18.672H165.406ZM173.614 17.112C172.798 16.536 171.526 15.768 170.23 15.024C171.19 13.896 172.03 12.6 172.606 11.088L171.574 10.344H173.446V6.024H169.606C169.318 5.28 168.982 4.416 168.694 3.72L166.414 4.512C166.582 4.944 166.774 5.496 166.942 6.024H162.718V10.344H164.782V8.28H171.238V10.104L171.214 10.08L170.806 10.152H167.782C167.95 9.792 168.07 9.432 168.19 9.072L166.03 8.64C165.526 10.224 164.422 11.88 162.574 13.08C163.03 13.44 163.702 14.352 163.966 14.952C165.07 14.16 165.91 13.272 166.606 12.264H169.51C169.126 12.84 168.67 13.392 168.166 13.848L166.582 12.984L164.998 14.64C165.406 14.88 165.814 15.12 166.246 15.384C164.998 16.2 163.558 16.8 162.094 17.232C162.55 17.736 163.198 18.84 163.462 19.488C163.75 19.392 164.038 19.272 164.326 19.152V26.088H166.702V25.464H169.822V26.064H172.318V18.672H172.246L173.614 17.112ZM177.07 17.736H181.366V19.152H177.07V17.736ZM177.07 14.28H181.366V15.72H177.07V14.28ZM177.07 10.872H181.366V12.264H177.07V10.872ZM184.054 21.336V8.688H179.926C180.094 8.184 180.286 7.608 180.43 7.032H184.654V4.632H173.926V7.032H177.838C177.766 7.584 177.67 8.16 177.574 8.688H174.526V21.336H177.118C175.99 22.296 174.046 23.448 172.582 24.12C172.99 24.696 173.494 25.608 173.758 26.208C175.39 25.44 177.478 24.24 178.918 23.112L177.214 21.336H180.79L179.374 22.944C180.694 23.832 182.518 25.2 183.358 26.088L184.99 24.144C184.078 23.304 182.374 22.104 181.078 21.336H184.054ZM199.31 9.864C199.022 11.64 198.638 13.248 198.11 14.688C197.174 13.68 195.974 12.576 195.014 11.64C195.254 11.064 195.47 10.488 195.686 9.864H199.31ZM200.126 7.152H196.574C196.838 6.168 197.078 5.184 197.294 4.152L194.414 3.648C193.67 7.776 192.254 11.736 190.166 14.136C190.814 14.568 192.062 15.48 192.566 15.96C192.974 15.432 193.382 14.808 193.766 14.136C194.894 15.288 196.07 16.536 196.862 17.544C195.326 20.376 193.118 22.368 190.382 23.64C191.102 24.144 192.302 25.344 192.782 26.04C198.11 23.256 201.614 17.352 202.718 7.632L200.678 7.056L200.126 7.152ZM212.99 16.32C211.838 14.856 209.414 12.504 207.758 10.872L206.702 11.64V3.672H203.678V26.088H206.702V13.776C208.166 15.336 209.774 17.088 210.566 18.264L212.99 16.32ZM223.854 9.168H221.478V7.008H223.854V9.168ZM223.854 13.464H221.478V11.256H223.854V13.464ZM223.854 17.808H221.478V15.576H223.854V17.808ZM226.158 4.728H219.27V20.064H226.158V4.728ZM220.326 20.448C219.774 21.84 218.934 23.496 218.142 24.6C218.694 24.888 219.606 25.488 220.038 25.872C220.806 24.648 221.79 22.728 222.438 21.12L220.326 20.448ZM223.038 21.408C223.806 22.608 224.742 24.264 225.15 25.32L226.998 24.096C226.518 23.136 225.606 21.576 224.814 20.4L223.038 21.408ZM236.142 18.552V19.824H230.742V18.552H236.142ZM230.742 22.992V21.672H236.142V22.992H230.742ZM228.342 26.04H230.742V25.056H236.142V25.944H238.614V16.392H228.342V26.04ZM229.638 9.768C230.046 10.8 230.502 12.216 230.718 13.056L232.254 12.528C232.062 11.712 231.558 10.368 231.102 9.336L229.638 9.768ZM236.046 13.08C236.43 12.216 236.862 10.968 237.294 9.792L235.614 9.336C235.398 10.32 234.942 11.736 234.582 12.672L236.046 13.08ZM237.318 13.44H234.294V8.976H237.318V13.44ZM229.47 8.976H232.494V13.44H229.47V8.976ZM237.222 6.912C237.798 6.144 238.398 5.28 238.974 4.416L236.382 3.576C235.998 4.584 235.326 5.904 234.678 6.912H231.558L232.734 6.432C232.398 5.664 231.702 4.536 231.078 3.648L228.822 4.488C229.302 5.232 229.83 6.144 230.142 6.912H227.262V15.504H239.646V6.912H237.222ZM251.854 7.752C251.494 6.744 250.894 5.16 250.462 3.912L247.846 4.656C248.278 5.928 248.854 7.608 249.166 8.688L251.854 7.752ZM258.718 15.552C258.142 17.256 256.726 19.056 253.15 20.352C253.822 20.904 254.734 21.912 255.142 22.512C258.238 21.12 260.038 19.344 260.974 17.52C262.87 19.248 264.934 21.168 266.014 22.44L268.006 20.448C266.782 19.176 264.502 17.232 262.582 15.552H268.462V12.96H262.03V10.344H267.694V7.752H264.91C265.558 6.744 266.254 5.616 266.878 4.512L263.998 3.672C263.542 4.896 262.798 6.504 262.03 7.752H258.454L259.774 7.176C259.342 6.288 258.43 4.776 257.758 3.72L255.358 4.656C255.886 5.616 256.558 6.816 256.99 7.752H253.966V10.344H259.078V12.96H253.366V14.664L252.478 14.28L252.07 14.4H250.702C251.278 12.768 251.902 10.896 252.406 9.264H246.502V11.808H249.046C248.446 13.608 247.822 15.504 247.27 16.848H250.486C250.102 18.264 249.598 19.752 249.022 20.904C248.134 21.312 247.054 22.224 246.046 23.448L247.966 26.184C248.494 24.816 249.31 23.184 249.862 23.184C250.342 23.184 251.182 23.976 252.19 24.528C253.918 25.536 255.91 25.8 259.102 25.8C261.91 25.8 266.11 25.632 268.102 25.512C268.15 24.744 268.606 23.352 268.942 22.584C266.278 22.968 261.982 23.208 259.222 23.208C256.414 23.208 254.182 23.064 252.55 22.08C252.094 21.816 251.734 21.552 251.422 21.336C252.286 19.68 253.006 17.64 253.51 15.552H258.718Z" fill="white"/>
<path d="M22.1296 10.848H25.1296C25.1296 9.19114 23.7864 7.848 22.1296 7.848V10.848ZM22.1296 12.024V15.024C23.7864 15.024 25.1296 13.6809 25.1296 12.024H22.1296ZM19.6336 12.024H16.6336C16.6336 13.6809 17.9767 15.024 19.6336 15.024V12.024ZM19.6336 10.848V7.848C17.9767 7.848 16.6336 9.19114 16.6336 10.848H19.6336ZM22.1296 15.072V18.072C23.7864 18.072 25.1296 16.7289 25.1296 15.072H22.1296ZM19.6336 15.072H16.6336C16.6336 16.7289 17.9767 18.072 19.6336 18.072V15.072ZM19.6336 13.848V10.848C17.9767 10.848 16.6336 12.1911 16.6336 13.848H19.6336ZM22.1296 13.848H25.1296C25.1296 12.1911 23.7864 10.848 22.1296 10.848V13.848ZM14.4256 15.072H11.4256C11.4256 16.7289 12.7687 18.072 14.4256 18.072V15.072ZM14.4256 13.848V10.848C12.7687 10.848 11.4256 12.1911 11.4256 13.848H14.4256ZM16.8496 13.848H19.8496C19.8496 12.1911 18.5064 10.848 16.8496 10.848V13.848ZM16.8496 15.072V18.072C18.5064 18.072 19.8496 16.7289 19.8496 15.072H16.8496ZM14.4256 10.848V7.848C12.7687 7.848 11.4256 9.19114 11.4256 10.848H14.4256ZM16.8496 10.848H19.8496C19.8496 9.19114 18.5064 7.848 16.8496 7.848V10.848ZM16.8496 12.024V15.024C18.5064 15.024 19.8496 13.6809 19.8496 12.024H16.8496ZM14.4256 12.024H11.4256C11.4256 13.6809 12.7687 15.024 14.4256 15.024V12.024ZM16.8496 8.88V11.88C18.5064 11.88 19.8496 10.5369 19.8496 8.88H16.8496ZM11.8096 8.88V5.88C10.1527 5.88 8.80959 7.22314 8.80959 8.88H11.8096ZM11.8096 17.04H8.80959C8.80959 18.6969 10.1527 20.04 11.8096 20.04V17.04ZM16.8496 17.04H19.8496C19.8496 15.3831 18.5064 14.04 16.8496 14.04V17.04ZM16.8496 18.144V21.144C18.5064 21.144 19.8496 19.8009 19.8496 18.144H16.8496ZM10.8976 18.144V15.144C9.24074 15.144 7.89759 16.4871 7.89759 18.144H10.8976ZM10.8976 20.472H7.89759C7.89759 22.1289 9.24074 23.472 10.8976 23.472V20.472ZM16.8496 20.472H19.8496C19.8496 18.8151 18.5064 17.472 16.8496 17.472V20.472ZM16.8496 22.632H13.8496C13.8496 24.2889 15.1927 25.632 16.8496 25.632V22.632ZM19.6336 22.632V25.632C21.2904 25.632 22.6336 24.2889 22.6336 22.632H19.6336ZM19.6336 20.472V17.472C17.9767 17.472 16.6336 18.8151 16.6336 20.472H19.6336ZM26.1856 20.472V23.472C27.8424 23.472 29.1856 22.1289 29.1856 20.472H26.1856ZM26.1856 18.144H29.1856C29.1856 16.4871 27.8424 15.144 26.1856 15.144V18.144ZM19.6336 18.144H16.6336C16.6336 19.8009 17.9767 21.144 19.6336 21.144V18.144ZM19.6336 17.04V14.04C17.9767 14.04 16.6336 15.3831 16.6336 17.04H19.6336ZM24.8656 17.04V20.04C26.5224 20.04 27.8656 18.6969 27.8656 17.04H24.8656ZM24.8656 8.88H27.8656C27.8656 7.22314 26.5224 5.88 24.8656 5.88V8.88ZM19.6336 8.88H16.6336C16.6336 10.5369 17.9767 11.88 19.6336 11.88V8.88ZM19.6336 7.704V4.704C17.9767 4.704 16.6336 6.04714 16.6336 7.704H19.6336ZM25.9216 7.704V10.704C27.5784 10.704 28.9216 9.36085 28.9216 7.704H25.9216ZM25.9216 5.4H28.9216C28.9216 3.74314 27.5784 2.4 25.9216 2.4V5.4ZM19.6336 5.4H16.6336C16.6336 7.05685 17.9767 8.4 19.6336 8.4V5.4ZM19.6336 3.696H22.6336C22.6336 2.03915 21.2904 0.696 19.6336 0.696V3.696ZM16.8496 3.696V0.696C15.1927 0.696 13.8496 2.03915 13.8496 3.696H16.8496ZM16.8496 5.4V8.4C18.5064 8.4 19.8496 7.05685 19.8496 5.4H16.8496ZM10.8496 5.4V2.4C9.19274 2.4 7.84959 3.74314 7.84959 5.4H10.8496ZM10.8496 7.704H7.84959C7.84959 9.36085 9.19274 10.704 10.8496 10.704V7.704ZM16.8496 7.704H19.8496C19.8496 6.04714 18.5064 4.704 16.8496 4.704V7.704ZM9.55359 7.656L10.5642 10.4806C12.0781 9.93897 12.8958 8.30009 12.4182 6.7648L9.55359 7.656ZM8.16159 3.696L11.0022 2.73125C10.4846 1.20695 8.85606 0.36295 7.31213 0.818777L8.16159 3.696ZM5.64159 4.44L4.79213 1.56278C3.20756 2.0306 2.2995 3.69157 2.76101 5.27799L5.64159 4.44ZM6.93759 8.592L4.01986 9.28972C4.2181 10.1187 4.75966 10.8243 5.50924 11.2301C6.25883 11.636 7.14567 11.7038 7.94825 11.4166L6.93759 8.592ZM9.76959 14.448L10.7858 11.6253C10.2513 11.4329 9.67327 11.3962 9.1188 11.5194L9.76959 14.448ZM9.33759 14.544V17.544C9.55648 17.544 9.77471 17.52 9.98839 17.4726L9.33759 14.544ZM8.35359 14.544L5.51576 13.571C5.20153 14.4875 5.34926 15.4993 5.91239 16.2877C6.47553 17.0761 7.38474 17.544 8.35359 17.544L8.35359 14.544ZM10.0096 9.264L12.8831 10.126C13.1556 9.21772 12.9826 8.23404 12.4165 7.47321C11.8504 6.71238 10.9579 6.264 10.0096 6.264L10.0096 9.264ZM4.39359 9.264V6.264C2.73674 6.264 1.39359 7.60715 1.39359 9.264H4.39359ZM4.39359 11.808H1.39359C1.39359 13.4649 2.73674 14.808 4.39359 14.808V11.808ZM6.55359 11.808L9.4311 12.6565C9.69861 11.7493 9.52263 10.769 8.95625 10.0115C8.38987 9.25404 7.49942 8.808 6.55359 8.808V11.808ZM4.82559 17.016L2.03047 15.9264C1.6706 16.8495 1.78974 17.8908 2.34881 18.7088C2.90789 19.5268 3.83479 20.016 4.82559 20.016V17.016ZM7.84959 17.016L10.7628 17.7324C10.9829 16.8373 10.7793 15.8907 10.2106 15.1652C9.64197 14.4398 8.77137 14.016 7.84959 14.016V17.016ZM6.45759 21.168L8.06822 23.699C8.54826 23.3935 8.93153 22.9578 9.1733 22.4427L6.45759 21.168ZM3.93759 23.472L1.63293 21.5514C0.762397 22.5961 0.70337 24.0956 1.48909 25.2055L3.93759 23.472ZM5.85759 26.184L3.40909 27.9174C4.03851 28.8065 5.10038 29.2845 6.18324 29.1663C7.26611 29.048 8.19979 28.3521 8.6225 27.3482L5.85759 26.184ZM10.2016 24.528L11.7132 21.9367C11.6898 21.923 11.6663 21.9097 11.6425 21.8967L10.2016 24.528ZM26.1616 25.512L26.3442 28.5064C27.8912 28.4121 29.1117 27.1549 29.1601 25.6057L26.1616 25.512ZM27.0016 22.584L29.7501 23.7865C30.1865 22.7888 30.0481 21.633 29.3884 20.7666C28.7288 19.9002 27.6514 19.4593 26.5736 19.6147L27.0016 22.584ZM10.5856 22.08L12.1346 19.5109C12.1281 19.5069 12.1216 19.503 12.115 19.4991L10.5856 22.08ZM9.09759 21.12L6.36525 19.8813C5.74463 21.2504 6.23295 22.8673 7.5076 23.664L9.09759 21.12ZM10.9696 14.88L13.9186 15.4309C14.1888 13.9846 13.3701 12.5557 11.9858 12.0573L10.9696 14.88ZM19.1296 10.848V12.024H25.1296V10.848H19.1296ZM22.1296 9.024H19.6336V15.024H22.1296V9.024ZM22.6336 12.024V10.848H16.6336V12.024H22.6336ZM19.6336 13.848H22.1296V7.848H19.6336V13.848ZM22.1296 12.072H19.6336V18.072H22.1296V12.072ZM22.6336 15.072V13.848H16.6336V15.072H22.6336ZM19.6336 16.848H22.1296V10.848H19.6336V16.848ZM19.1296 13.848V15.072H25.1296V13.848H19.1296ZM17.4256 15.072V13.848H11.4256V15.072H17.4256ZM14.4256 16.848H16.8496V10.848H14.4256V16.848ZM13.8496 13.848V15.072H19.8496V13.848H13.8496ZM16.8496 12.072H14.4256V18.072H16.8496V12.072ZM14.4256 13.848H16.8496V7.848H14.4256V13.848ZM13.8496 10.848V12.024H19.8496V10.848H13.8496ZM16.8496 9.024H14.4256V15.024H16.8496V9.024ZM17.4256 12.024V10.848H11.4256V12.024H17.4256ZM16.8496 5.88H11.8096V11.88H16.8496V5.88ZM8.80959 8.88V17.04H14.8096V8.88H8.80959ZM11.8096 20.04H16.8496V14.04H11.8096V20.04ZM13.8496 17.04V18.144H19.8496V17.04H13.8496ZM16.8496 15.144H10.8976V21.144H16.8496V15.144ZM7.89759 18.144V20.472H13.8976V18.144H7.89759ZM10.8976 23.472H16.8496V17.472H10.8976V23.472ZM13.8496 20.472V22.632H19.8496V20.472H13.8496ZM16.8496 25.632H19.6336V19.632H16.8496V25.632ZM22.6336 22.632V20.472H16.6336V22.632H22.6336ZM19.6336 23.472H26.1856V17.472H19.6336V23.472ZM29.1856 20.472V18.144H23.1856V20.472H29.1856ZM26.1856 15.144H19.6336V21.144H26.1856V15.144ZM22.6336 18.144V17.04H16.6336V18.144H22.6336ZM19.6336 20.04H24.8656V14.04H19.6336V20.04ZM27.8656 17.04V8.88H21.8656V17.04H27.8656ZM24.8656 5.88H19.6336V11.88H24.8656V5.88ZM22.6336 8.88V7.704H16.6336V8.88H22.6336ZM19.6336 10.704H25.9216V4.704H19.6336V10.704ZM28.9216 7.704V5.4H22.9216V7.704H28.9216ZM25.9216 2.4H19.6336V8.4H25.9216V2.4ZM22.6336 5.4V3.696H16.6336V5.4H22.6336ZM19.6336 0.696H16.8496V6.696H19.6336V0.696ZM13.8496 3.696V5.4H19.8496V3.696H13.8496ZM16.8496 2.4H10.8496V8.4H16.8496V2.4ZM7.84959 5.4V7.704H13.8496V5.4H7.84959ZM10.8496 10.704H16.8496V4.704H10.8496V10.704ZM13.8496 7.704V8.88H19.8496V7.704H13.8496ZM12.4182 6.7648C12.0853 5.69474 11.3463 3.74438 11.0022 2.73125L5.32095 4.66075C5.84087 6.19162 6.34993 7.45726 6.68902 8.5472L12.4182 6.7648ZM7.31213 0.818777L4.79213 1.56278L6.49106 7.31722L9.01106 6.57322L7.31213 0.818777ZM2.76101 5.27799C2.97265 6.00551 3.2557 6.84142 3.48623 7.5387C3.73609 8.29446 3.92235 8.88196 4.01986 9.28972L9.85533 7.89428C9.68884 7.19804 9.4191 6.36953 9.18296 5.65529C8.92749 4.88258 8.69454 4.19448 8.52218 3.60201L2.76101 5.27799ZM7.94825 11.4166L10.5642 10.4806L8.54294 4.83136L5.92694 5.76736L7.94825 11.4166ZM9.1188 11.5194L8.6868 11.6154L9.98839 17.4726L10.4204 17.3766L9.1188 11.5194ZM9.33759 11.544H8.35359V17.544H9.33759V11.544ZM11.1914 15.517C11.7898 13.7716 12.3828 11.7935 12.8831 10.126L7.13612 8.40196C6.62835 10.0945 6.06936 11.9564 5.51576 13.571L11.1914 15.517ZM10.0096 6.264H4.39359V12.264H10.0096V6.264ZM1.39359 9.264V11.808H7.39359V9.264H1.39359ZM4.39359 14.808H6.55359V8.808H4.39359V14.808ZM3.67609 10.9595C3.13475 12.7953 2.53821 14.6239 2.03047 15.9264L7.62072 18.1056C8.21698 16.5761 8.86844 14.5647 9.4311 12.6565L3.67609 10.9595ZM4.82559 20.016H7.84959V14.016H4.82559V20.016ZM4.93638 16.2996C4.6016 17.6611 4.17802 18.9641 3.74188 19.8933L9.1733 22.4427C9.84117 21.0199 10.3776 19.2989 10.7628 17.7324L4.93638 16.2996ZM4.84697 18.637C3.74142 19.3405 2.62756 20.3579 1.63293 21.5514L6.24226 25.3926C6.92763 24.5701 7.58977 24.0035 8.06822 23.699L4.84697 18.637ZM1.48909 25.2055L3.40909 27.9174L8.30609 24.4506L6.38609 21.7385L1.48909 25.2055ZM8.6225 27.3482C8.87945 26.7379 9.17136 26.1426 9.4162 25.7455C9.546 25.535 9.5945 25.4923 9.54924 25.5394C9.52537 25.5642 9.40664 25.6867 9.1908 25.8183C8.98511 25.9437 8.51582 26.184 7.84959 26.184V20.184C7.04537 20.184 6.42832 20.4753 6.06748 20.6953C5.69649 20.9215 5.41519 21.1821 5.2237 21.3813C4.84319 21.7772 4.53619 22.228 4.30898 22.5965C3.83982 23.3574 3.41174 24.2621 3.09269 25.0198L8.6225 27.3482ZM7.84959 26.184C7.51024 26.184 7.25921 26.1166 7.13844 26.0782C7.01174 26.0379 6.93595 25.9996 6.92643 25.9947C6.92042 25.9917 6.97928 26.0228 7.1678 26.148C7.25394 26.2052 7.34455 26.2668 7.45834 26.3438C7.56707 26.4175 7.69247 26.5023 7.8245 26.5894C8.08737 26.7628 8.40682 26.9655 8.76065 27.1593L11.6425 21.8967C11.2878 21.7024 11.0107 21.4976 10.4874 21.15C10.2739 21.0082 9.96377 20.8068 9.62926 20.638C9.35991 20.5021 8.69596 20.184 7.84959 20.184V26.184ZM8.68998 27.1193C11.1545 28.557 13.8716 28.8 17.1376 28.8V22.8C14.0196 22.8 12.7046 22.515 11.7132 21.9367L8.68998 27.1193ZM17.1376 28.8C20.0211 28.8 24.3319 28.6291 26.3442 28.5064L25.979 22.5176C24.0553 22.6349 19.8701 22.8 17.1376 22.8V28.8ZM29.1601 25.6057C29.1583 25.6654 29.1544 25.6294 29.1893 25.4665C29.2204 25.3211 29.2689 25.1367 29.3337 24.9247C29.4651 24.4943 29.629 24.0631 29.7501 23.7865L24.2531 21.3815C24.0382 21.8729 23.794 22.5217 23.5955 23.1713C23.4181 23.7522 23.1882 24.6126 23.1631 25.4183L29.1601 25.6057ZM26.5736 19.6147C24.0883 19.9729 19.9413 20.208 17.2816 20.208V26.208C20.1419 26.208 24.5869 25.9631 27.4296 25.5533L26.5736 19.6147ZM17.2816 20.208C14.3545 20.208 12.9458 19.9999 12.1346 19.5109L9.03655 24.6491C11.4894 26.1281 14.5927 26.208 17.2816 26.208V20.208ZM12.115 19.4991C11.8562 19.3458 11.6297 19.1985 11.4067 19.0498C11.2126 18.9205 10.9295 18.7272 10.6876 18.576L7.5076 23.664C7.64973 23.7528 7.78656 23.8475 8.07849 24.0422C8.34149 24.2175 8.66701 24.4303 9.05619 24.6609L12.115 19.4991ZM11.8299 22.3587C12.7716 20.2816 13.4796 17.7808 13.9186 15.4309L8.02061 14.3291C7.64361 16.3472 7.05563 18.3584 6.36525 19.8813L11.8299 22.3587ZM11.9858 12.0573L10.7858 11.6253L8.75344 17.2707L9.95344 17.7027L11.9858 12.0573ZM45.9776 7.344V10.344C47.6344 10.344 48.9776 9.00085 48.9776 7.344H45.9776ZM41.1536 7.344V4.344C39.4967 4.344 38.1536 5.68715 38.1536 7.344H41.1536ZM41.1536 9.048H38.1536C38.1536 10.7049 39.4967 12.048 41.1536 12.048V9.048ZM53.4416 9.048V12.048C55.0984 12.048 56.4416 10.7049 56.4416 9.048H53.4416ZM53.4416 7.344H56.4416C56.4416 5.68715 55.0984 4.344 53.4416 4.344V7.344ZM48.7616 7.344H45.7616C45.7616 9.00085 47.1047 10.344 48.7616 10.344V7.344ZM48.7616 6.528V3.528C47.1047 3.528 45.7616 4.87114 45.7616 6.528H48.7616ZM54.1856 6.528V9.528C55.8424 9.528 57.1856 8.18485 57.1856 6.528H54.1856ZM54.1856 4.704H57.1856C57.1856 3.04715 55.8424 1.704 54.1856 1.704V4.704ZM48.7616 4.704H45.7616C45.7616 6.36085 47.1047 7.704 48.7616 7.704V4.704ZM48.7616 3.672H51.7616C51.7616 2.01514 50.4184 0.671999 48.7616 0.671999V3.672ZM45.9776 3.672V0.671999C44.3207 0.671999 42.9776 2.01514 42.9776 3.672H45.9776ZM45.9776 4.704V7.704C47.6344 7.704 48.9776 6.36085 48.9776 4.704H45.9776ZM40.2656 4.704V1.704C38.6087 1.704 37.2656 3.04715 37.2656 4.704H40.2656ZM40.2656 6.528H37.2656C37.2656 8.18485 38.6087 9.528 40.2656 9.528V6.528ZM45.9776 6.528H48.9776C48.9776 4.87114 47.6344 3.528 45.9776 3.528V6.528ZM42.6896 11.448V8.448C41.0327 8.448 39.6896 9.79115 39.6896 11.448H42.6896ZM44.4176 11.448H47.4176C47.4176 9.79115 46.0744 8.448 44.4176 8.448V11.448ZM44.4176 12.888V15.888C46.0744 15.888 47.4176 14.5449 47.4176 12.888H44.4176ZM42.6896 12.888H39.6896C39.6896 14.5449 41.0327 15.888 42.6896 15.888V12.888ZM51.7136 12.888V15.888C53.3704 15.888 54.7136 14.5449 54.7136 12.888H51.7136ZM50.1776 12.888H47.1776C47.1776 14.5449 48.5207 15.888 50.1776 15.888V12.888ZM50.1776 11.448V8.448C48.5207 8.448 47.1776 9.79115 47.1776 11.448H50.1776ZM51.7136 11.448H54.7136C54.7136 9.79115 53.3704 8.448 51.7136 8.448V11.448ZM46.5296 12.888H43.5296C43.5296 14.5449 44.8727 15.888 46.5296 15.888V12.888ZM46.5296 11.448V8.448C44.8727 8.448 43.5296 9.79115 43.5296 11.448H46.5296ZM48.0896 11.448H51.0896C51.0896 9.79115 49.7464 8.448 48.0896 8.448V11.448ZM48.0896 12.888V15.888C49.7464 15.888 51.0896 14.5449 51.0896 12.888H48.0896ZM40.3616 14.616H37.3616C37.3616 16.2729 38.7047 17.616 40.3616 17.616V14.616ZM54.1616 14.616V17.616C55.8184 17.616 57.1616 16.2729 57.1616 14.616H54.1616ZM54.1616 9.72H57.1616C57.1616 8.06314 55.8184 6.72 54.1616 6.72V9.72ZM40.3616 9.72V6.72C38.7047 6.72 37.3616 8.06314 37.3616 9.72H40.3616ZM40.8176 18.12L41.7356 20.9761C43.1161 20.5324 43.9816 19.1648 43.7918 17.7272L40.8176 18.12ZM39.5456 13.104L42.3874 12.1428C41.8813 10.6464 40.3015 9.79887 38.7749 10.2047L39.5456 13.104ZM37.6496 13.608L36.8789 10.7087C36.0722 10.9231 35.3914 11.4639 34.9999 12.2011C34.6085 12.9383 34.5419 13.8052 34.8161 14.5936L37.6496 13.608ZM38.1776 15.456L38.5338 18.4348C39.3935 18.332 40.1669 17.8627 40.6552 17.1476C41.1434 16.4325 41.2989 15.5413 41.0816 14.7031L38.1776 15.456ZM35.9696 15.72L33.6169 13.8586C32.863 14.8114 32.7583 16.1248 33.3517 17.1851C33.9451 18.2454 35.1193 18.843 36.3258 18.6988L35.9696 15.72ZM40.6256 8.328L43.3139 9.65958C44.0078 8.25872 43.5096 6.55982 42.1691 5.75552L40.6256 8.328ZM38.4656 7.032L40.0091 4.45952C39.2603 4.01024 38.3529 3.90952 37.5238 4.18367C36.6947 4.45782 36.0262 5.07961 35.6928 5.88672L38.4656 7.032ZM36.9056 10.272L37.1393 13.2629C38.1593 13.1832 39.0684 12.5891 39.5509 11.687L36.9056 10.272ZM35.3696 10.392L32.8315 8.79264C32.2266 9.75252 32.215 10.9715 32.8015 11.9427C33.3879 12.914 34.4721 13.4713 35.6033 13.3829L35.3696 10.392ZM38.3216 4.56L41.1047 5.68002C41.4035 4.93745 41.3932 4.10624 41.076 3.37131C40.7589 2.63638 40.1612 2.05867 39.4159 1.7667L38.3216 4.56ZM35.9936 3.648L37.0879 0.854695C36.3094 0.54974 35.4391 0.583451 34.6865 0.947702C33.934 1.31195 33.3676 1.9737 33.1239 2.77343L35.9936 3.648ZM33.3776 9.576L30.8952 7.8915C30.8691 7.92985 30.844 7.9688 30.8198 8.00831L33.3776 9.576ZM32.1056 10.92L31.3027 8.02945C30.4639 8.26244 29.7677 8.8483 29.3948 9.63494C29.0219 10.4216 29.009 11.3314 29.3596 12.1282L32.1056 10.92ZM32.8976 13.152L29.9872 13.8796C30.2044 14.7486 30.7986 15.4751 31.6073 15.8604C32.416 16.2456 33.3545 16.2494 34.1663 15.8705L32.8976 13.152ZM35.5136 12.648L38.0371 14.2703C38.6664 13.2914 38.6728 12.037 38.0537 11.0517C37.4345 10.0665 36.3014 9.52816 35.1465 9.67054L35.5136 12.648ZM34.0496 14.76L31.707 12.8859C31.703 12.891 31.6989 12.896 31.6949 12.9011L34.0496 14.76ZM32.2736 16.368L31.6617 13.4311C30.7739 13.616 30.0174 14.1927 29.6038 14.9998C29.1902 15.8068 29.1638 16.7577 29.5322 17.5864L32.2736 16.368ZM33.0896 18.696L30.2161 19.558C30.4677 20.3966 31.073 21.0834 31.8733 21.4384C32.6736 21.7933 33.589 21.781 34.3794 21.4046L33.0896 18.696ZM38.6336 17.616L41.5928 17.1228C41.3241 15.5108 39.8145 14.4103 38.1976 14.6479L38.6336 17.616ZM38.8016 18.768L35.8317 19.1923C35.9568 20.0673 36.4613 20.8427 37.2107 21.3114C37.9601 21.7802 38.8781 21.8946 39.7196 21.6241L38.8016 18.768ZM33.1376 19.44L33.5987 16.4757C32.7685 16.3465 31.9222 16.5714 31.2657 17.0957C30.6091 17.6199 30.2025 18.3954 30.1447 19.2336L33.1376 19.44ZM32.1296 25.248L29.3115 24.2192C29.0199 25.018 29.081 25.9031 29.4796 26.6543C29.8783 27.4055 30.577 27.9522 31.402 28.1584L32.1296 25.248ZM34.2176 25.968L32.7718 28.5966C33.554 29.0268 34.4872 29.0864 35.3177 28.759C36.1482 28.4317 36.7898 27.7515 37.0681 26.9033L34.2176 25.968ZM35.2976 19.776L38.2868 20.0304C38.4204 18.46 37.3161 17.0539 35.7587 16.8116L35.2976 19.776ZM35.6576 19.728L35.1276 16.7752C33.5617 17.0563 32.4875 18.5109 32.6795 20.0902L35.6576 19.728ZM36.0656 25.272H33.0656C33.0656 26.1599 33.4589 27.0022 34.1397 27.5722C34.8205 28.1422 35.7189 28.3814 36.593 28.2253L36.0656 25.272ZM38.0816 24.912L38.609 27.8653C40.0752 27.6035 41.1273 26.3055 41.0801 24.8168L38.0816 24.912ZM37.5296 19.392L40.4909 18.9118C40.3621 18.1178 39.9199 17.4087 39.2635 16.9438C38.607 16.4789 37.7914 16.2971 36.9996 16.4392L37.5296 19.392ZM37.8896 19.272L37.0602 16.3889C36.2852 16.6119 35.6325 17.1375 35.2495 17.8472C34.8665 18.5569 34.7854 19.391 35.0244 20.1612L37.8896 19.272ZM38.9936 23.688L36.0313 24.162C36.1711 25.0358 36.6895 25.8033 37.4479 26.2592C38.2064 26.7151 39.1274 26.8129 39.9647 26.5265L38.9936 23.688ZM40.8176 23.064L41.7887 25.9025C43.1734 25.4288 44.0142 24.025 43.7784 22.5806L40.8176 23.064ZM39.6416 18.768L42.4825 17.8041C41.9678 16.287 40.3518 15.442 38.8122 15.8849L39.6416 18.768ZM43.7456 20.328V17.328C42.0887 17.328 40.7456 18.6711 40.7456 20.328H43.7456ZM50.7056 20.328H53.7056C53.7056 18.6711 52.3624 17.328 50.7056 17.328V20.328ZM50.7056 21.096V24.096C52.3624 24.096 53.7056 22.7529 53.7056 21.096H50.7056ZM43.7456 21.096H40.7456C40.7456 22.7529 42.0887 24.096 43.7456 24.096V21.096ZM43.7456 18.576V15.576C42.0887 15.576 40.7456 16.9191 40.7456 18.576H43.7456ZM50.7056 18.576H53.7056C53.7056 16.9191 52.3624 15.576 50.7056 15.576V18.576ZM50.7056 19.296V22.296C52.3624 22.296 53.7056 20.9529 53.7056 19.296H50.7056ZM43.7456 19.296H40.7456C40.7456 20.9529 42.0887 22.296 43.7456 22.296V19.296ZM43.7456 16.8V13.8C42.0887 13.8 40.7456 15.1431 40.7456 16.8H43.7456ZM50.7056 16.8H53.7056C53.7056 15.1431 52.3624 13.8 50.7056 13.8V16.8ZM50.7056 17.52V20.52C52.3624 20.52 53.7056 19.1769 53.7056 17.52H50.7056ZM43.7456 17.52H40.7456C40.7456 19.1769 42.0887 20.52 43.7456 20.52V17.52ZM53.3696 22.536V25.536C55.0264 25.536 56.3696 24.1929 56.3696 22.536H53.3696ZM53.3696 15.336H56.3696C56.3696 13.6791 55.0264 12.336 53.3696 12.336V15.336ZM41.2256 15.336V12.336C39.5687 12.336 38.2256 13.6791 38.2256 15.336H41.2256ZM41.2256 22.536H38.2256C38.2256 24.1929 39.5687 25.536 41.2256 25.536V22.536ZM44.4416 22.536L45.7259 25.2472C46.994 24.6465 47.6764 23.2469 47.3685 21.8778C47.0606 20.5088 45.8449 19.536 44.4416 19.536V22.536ZM39.9056 24.264L38.9725 21.4128C38.1111 21.6947 37.4233 22.3509 37.1013 23.1981C36.7793 24.0454 36.8576 24.9927 37.3143 25.7756L39.9056 24.264ZM40.8896 26.232L38.113 27.3679C38.7092 28.8253 40.3307 29.5737 41.8266 29.0819L40.8896 26.232ZM46.9376 23.952L48.1236 26.7076C49.0413 26.3127 49.7022 25.4867 49.8862 24.5047C50.0703 23.5227 49.7534 22.5135 49.041 21.8129L46.9376 23.952ZM45.4976 22.536V19.536C44.2796 19.536 43.1825 20.2724 42.7212 21.3996C42.2598 22.5268 42.5257 23.8211 43.3942 24.6751L45.4976 22.536ZM49.0496 22.536L51.6782 23.9818C52.1894 23.0524 52.1718 21.9221 51.632 21.0091C51.0921 20.0961 50.1103 19.536 49.0496 19.536V22.536ZM48.2576 23.976L45.6289 22.5302C45.2078 23.2959 45.1415 24.2071 45.4473 25.0257C45.753 25.8443 46.4005 26.4889 47.2205 26.791L48.2576 23.976ZM53.4416 26.112L52.1617 28.8253C53.5819 29.4952 55.2784 28.9566 56.0521 27.5902L53.4416 26.112ZM54.5696 24.12L57.1801 25.5982C57.6068 24.8447 57.6871 23.9436 57.4003 23.1265C57.1136 22.3095 56.4878 21.6562 55.6838 21.3346L54.5696 24.12ZM50.2496 22.536V19.536C48.7757 19.536 47.5201 20.6067 47.2873 22.0621C47.0544 23.5175 47.9133 24.9265 49.3137 25.3863L50.2496 22.536ZM45.9776 4.344H41.1536V10.344H45.9776V4.344ZM38.1536 7.344V9.048H44.1536V7.344H38.1536ZM41.1536 12.048H53.4416V6.048H41.1536V12.048ZM56.4416 9.048V7.344H50.4416V9.048H56.4416ZM53.4416 4.344H48.7616V10.344H53.4416V4.344ZM51.7616 7.344V6.528H45.7616V7.344H51.7616ZM48.7616 9.528H54.1856V3.528H48.7616V9.528ZM57.1856 6.528V4.704H51.1856V6.528H57.1856ZM54.1856 1.704H48.7616V7.704H54.1856V1.704ZM51.7616 4.704V3.672H45.7616V4.704H51.7616ZM48.7616 0.671999H45.9776V6.672H48.7616V0.671999ZM42.9776 3.672V4.704H48.9776V3.672H42.9776ZM45.9776 1.704H40.2656V7.704H45.9776V1.704ZM37.2656 4.704V6.528H43.2656V4.704H37.2656ZM40.2656 9.528H45.9776V3.528H40.2656V9.528ZM42.9776 6.528V7.344H48.9776V6.528H42.9776ZM42.6896 14.448H44.4176V8.448H42.6896V14.448ZM41.4176 11.448V12.888H47.4176V11.448H41.4176ZM44.4176 9.888H42.6896V15.888H44.4176V9.888ZM45.6896 12.888V11.448H39.6896V12.888H45.6896ZM51.7136 9.888H50.1776V15.888H51.7136V9.888ZM53.1776 12.888V11.448H47.1776V12.888H53.1776ZM50.1776 14.448H51.7136V8.448H50.1776V14.448ZM48.7136 11.448V12.888H54.7136V11.448H48.7136ZM49.5296 12.888V11.448H43.5296V12.888H49.5296ZM46.5296 14.448H48.0896V8.448H46.5296V14.448ZM45.0896 11.448V12.888H51.0896V11.448H45.0896ZM48.0896 9.888H46.5296V15.888H48.0896V9.888ZM40.3616 17.616H54.1616V11.616H40.3616V17.616ZM57.1616 14.616V9.72H51.1616V14.616H57.1616ZM54.1616 6.72H40.3616V12.72H54.1616V6.72ZM37.3616 9.72V14.616H43.3616V9.72H37.3616ZM43.7918 17.7272C43.588 16.1848 42.9707 13.8673 42.3874 12.1428L36.7038 14.0652C37.2244 15.6047 37.7111 17.5112 37.8434 18.5128L43.7918 17.7272ZM38.7749 10.2047L36.8789 10.7087L38.4203 16.5073L40.3163 16.0033L38.7749 10.2047ZM34.8161 14.5936C34.9602 15.0079 35.0974 15.5294 35.2736 16.2089L41.0816 14.7031C40.9217 14.0866 40.723 13.3121 40.4831 12.6224L34.8161 14.5936ZM37.8214 12.4772L35.6134 12.7412L36.3258 18.6988L38.5338 18.4348L37.8214 12.4772ZM38.3223 17.5814C40.1878 15.2236 41.9543 12.4044 43.3139 9.65958L37.9373 6.99642C36.7529 9.38762 35.2074 11.8484 33.6169 13.8586L38.3223 17.5814ZM42.1691 5.75552L40.0091 4.45952L36.9221 9.60448L39.0821 10.9005L42.1691 5.75552ZM35.6928 5.88672C35.2899 6.86225 34.7886 7.86917 34.2602 8.85704L39.5509 11.687C40.1266 10.6108 40.7293 9.40975 41.2384 8.17728L35.6928 5.88672ZM36.6719 7.28111L35.1359 7.40111L35.6033 13.3829L37.1393 13.2629L36.6719 7.28111ZM37.9077 11.9914C39.1183 10.0702 40.2535 7.79497 41.1047 5.68002L35.5385 3.43998C34.8056 5.26103 33.8288 7.20985 32.8315 8.79264L37.9077 11.9914ZM39.4159 1.7667L37.0879 0.854695L34.8993 6.4413L37.2273 7.3533L39.4159 1.7667ZM33.1239 2.77343C32.7927 3.86022 32.3108 5.04025 31.8458 6.04543C31.616 6.54232 31.3988 6.97784 31.2192 7.3172C31.1294 7.48688 31.0527 7.62551 30.9916 7.73119C30.9262 7.84451 30.895 7.8917 30.8952 7.8915L35.86 11.2605C36.5127 10.2987 38.0232 7.27914 38.8633 4.52257L33.1239 2.77343ZM30.8198 8.00831C30.7268 8.15999 30.6537 8.27156 30.5958 8.35366C30.5368 8.43732 30.5094 8.46772 30.5115 8.46544C30.5123 8.4645 30.5707 8.39924 30.6896 8.31506C30.8138 8.22721 31.0191 8.10821 31.3027 8.02945L32.9085 13.8106C33.8969 13.536 34.5631 12.9288 34.9537 12.4986C35.3532 12.0586 35.6801 11.5602 35.9354 11.1437L30.8198 8.00831ZM29.3596 12.1282C29.5743 12.6161 29.9184 13.6043 29.9872 13.8796L35.808 12.4244C35.6368 11.7396 35.1649 10.4239 34.8515 9.71178L29.3596 12.1282ZM34.1663 15.8705C34.0604 15.9199 34.0284 15.9085 34.2719 15.8597C34.5459 15.8049 35.017 15.7319 35.8807 15.6255L35.1465 9.67054C33.4984 9.87374 32.4972 10.0283 31.6289 10.4334L34.1663 15.8705ZM32.9901 11.0257C32.3635 12.0003 31.9001 12.6446 31.707 12.8859L36.3922 16.6341C36.7751 16.1554 37.3676 15.3117 38.0371 14.2703L32.9901 11.0257ZM31.6949 12.9011C31.5157 13.1281 31.377 13.3016 31.2558 13.4453C31.1341 13.5896 31.061 13.6668 31.0209 13.7056C30.9804 13.7448 31.013 13.7061 31.1116 13.6449C31.2206 13.5774 31.4074 13.484 31.6617 13.4311L32.8855 19.3049C33.9731 19.0783 34.7311 18.4648 35.1942 18.0164C35.6456 17.5794 36.0692 17.0434 36.4042 16.6189L31.6949 12.9011ZM29.5322 17.5864C29.618 17.7796 29.7502 18.1341 29.8954 18.5611C30.0332 18.9661 30.1541 19.3514 30.2161 19.558L35.9631 17.834C35.8203 17.3581 35.3891 15.9913 35.015 15.1496L29.5322 17.5864ZM34.3794 21.4046C34.3811 21.4038 34.3803 21.4042 34.3782 21.4051C34.3761 21.406 34.3751 21.4064 34.3759 21.4061C34.3769 21.4057 34.3945 21.3989 34.4369 21.3861C34.5294 21.3582 34.7119 21.3101 35.0588 21.2391C35.7618 21.0953 36.9499 20.8955 39.0696 20.5841L38.1976 14.6479C34.1427 15.2435 32.8086 15.507 31.7998 15.9874L34.3794 21.4046ZM35.6744 18.1092C35.7389 18.4961 35.7746 18.7921 35.8317 19.1923L41.7714 18.3437C41.7326 18.0719 41.6723 17.5999 41.5928 17.1228L35.6744 18.1092ZM39.7196 21.6241L41.7356 20.9761L39.8996 15.2639L37.8836 15.9119L39.7196 21.6241ZM30.1447 19.2336C30.0051 21.2574 29.7134 23.1185 29.3115 24.2192L34.9477 26.2768C35.6498 24.3535 35.9821 21.7986 36.1305 19.6464L30.1447 19.2336ZM31.402 28.1584C31.6194 28.2128 31.9498 28.3062 32.2675 28.4112C32.4245 28.4632 32.5597 28.5118 32.665 28.5535C32.7836 28.6005 32.8082 28.6166 32.7718 28.5966L35.6633 23.3394C34.8051 22.8673 33.4259 22.4798 32.8572 22.3376L31.402 28.1584ZM37.0681 26.9033C37.6794 25.0403 38.0876 22.3709 38.2868 20.0304L32.3084 19.5216C32.1236 21.6931 31.7638 23.8237 31.3671 25.0327L37.0681 26.9033ZM35.7587 16.8116L33.5987 16.4757L32.6765 22.4043L34.8365 22.7403L35.7587 16.8116ZM32.6795 20.0902C32.8898 21.8194 33.0656 23.9375 33.0656 25.272H39.0656C39.0656 23.5825 38.8573 21.1886 38.6357 19.3658L32.6795 20.0902ZM36.593 28.2253L38.609 27.8653L37.5542 21.9587L35.5382 22.3187L36.593 28.2253ZM41.0801 24.8168C41.0277 23.166 40.7979 20.8051 40.4909 18.9118L34.5683 19.8722C34.8373 21.5309 35.0395 23.634 35.0831 25.0072L41.0801 24.8168ZM36.9996 16.4392L35.1276 16.7752L36.1876 22.6808L38.0596 22.3448L36.9996 16.4392ZM35.0244 20.1612C35.4395 21.4988 35.8721 23.1672 36.0313 24.162L41.9559 23.214C41.7311 21.8088 41.2037 19.8292 40.7548 18.3828L35.0244 20.1612ZM39.9647 26.5265L41.7887 25.9025L39.8465 20.2255L38.0225 20.8495L39.9647 26.5265ZM43.7784 22.5806C43.5442 21.1463 42.9475 19.1745 42.4825 17.8041L36.8007 19.7319C37.2477 21.0495 37.707 22.6297 37.8568 23.5474L43.7784 22.5806ZM38.8122 15.8849L37.0602 16.3889L38.719 22.1551L40.471 21.6511L38.8122 15.8849ZM43.7456 23.328H50.7056V17.328H43.7456V23.328ZM47.7056 20.328V21.096H53.7056V20.328H47.7056ZM50.7056 18.096H43.7456V24.096H50.7056V18.096ZM46.7456 21.096V20.328H40.7456V21.096H46.7456ZM43.7456 21.576H50.7056V15.576H43.7456V21.576ZM47.7056 18.576V19.296H53.7056V18.576H47.7056ZM50.7056 16.296H43.7456V22.296H50.7056V16.296ZM46.7456 19.296V18.576H40.7456V19.296H46.7456ZM43.7456 19.8H50.7056V13.8H43.7456V19.8ZM47.7056 16.8V17.52H53.7056V16.8H47.7056ZM50.7056 14.52H43.7456V20.52H50.7056V14.52ZM46.7456 17.52V16.8H40.7456V17.52H46.7456ZM56.3696 22.536V15.336H50.3696V22.536H56.3696ZM53.3696 12.336H41.2256V18.336H53.3696V12.336ZM38.2256 15.336V22.536H44.2256V15.336H38.2256ZM41.2256 25.536H44.4416V19.536H41.2256V25.536ZM43.1573 19.8248C41.9715 20.3865 40.2763 20.9861 38.9725 21.4128L40.8387 27.1152C42.1748 26.6779 44.1757 25.9815 45.7259 25.2472L43.1573 19.8248ZM37.3143 25.7756C37.5913 26.2505 37.9578 26.9887 38.113 27.3679L43.6662 25.0961C43.3893 24.4193 42.8919 23.4295 42.4969 22.7524L37.3143 25.7756ZM41.8266 29.0819C43.6501 28.4824 46.1345 27.5637 48.1236 26.7076L45.7516 21.1964C43.9487 21.9723 41.6331 22.8296 39.9526 23.3821L41.8266 29.0819ZM49.041 21.8129L47.601 20.3969L43.3942 24.6751L44.8342 26.0911L49.041 21.8129ZM45.4976 25.536H49.0496V19.536H45.4976V25.536ZM46.4209 21.0902L45.6289 22.5302L50.8862 25.4218L51.6782 23.9818L46.4209 21.0902ZM47.2205 26.791C48.9845 27.4409 50.9881 28.2717 52.1617 28.8253L54.7215 23.3987C53.3511 22.7523 51.1787 21.8551 49.2947 21.161L47.2205 26.791ZM56.0521 27.5902L57.1801 25.5982L51.9591 22.6418L50.8311 24.6338L56.0521 27.5902ZM55.6838 21.3346C54.571 20.8895 52.8753 20.2406 51.1855 19.6857L49.3137 25.3863C50.8399 25.8874 52.4082 26.4865 53.4554 26.9054L55.6838 21.3346ZM50.2496 25.536H53.3696V19.536H50.2496V25.536ZM63.8976 24L60.9014 23.8484C60.8599 24.6693 61.157 25.4713 61.7234 26.067C62.2897 26.6628 63.0756 27 63.8976 27V24ZM67.4736 24V27C69.0822 27 70.4045 25.7313 70.471 24.124L67.4736 24ZM72.4416 8.376L74.7625 10.2769C75.2016 9.74074 75.4416 9.06906 75.4416 8.376H72.4416ZM72.4416 6.24H75.4416C75.4416 4.58315 74.0984 3.24 72.4416 3.24V6.24ZM60.6336 6.24V3.24C58.9767 3.24 57.6336 4.58315 57.6336 6.24H60.6336ZM60.6336 9.192H57.6336C57.6336 10.8489 58.9767 12.192 60.6336 12.192V9.192ZM68.6256 9.192L71.0609 10.9439C71.7182 10.0302 71.8088 8.82545 71.2954 7.82375C70.7821 6.82205 69.7512 6.192 68.6256 6.192V9.192ZM63.8976 27H67.4736V21H63.8976V27ZM70.471 24.124C70.6149 20.6467 70.82 18.3221 71.4014 16.295C71.9571 14.3572 72.9023 12.5481 74.7625 10.2769L70.1207 6.47508C67.8529 9.24389 66.4581 11.7668 65.6338 14.641C64.8352 17.4258 64.6203 20.3933 64.4762 23.876L70.471 24.124ZM75.4416 8.376V6.24H69.4416V8.376H75.4416ZM72.4416 3.24H60.6336V9.24H72.4416V3.24ZM57.6336 6.24V9.192H63.6336V6.24H57.6336ZM60.6336 12.192H68.6256V6.192H60.6336V12.192ZM66.1903 7.44007C62.3808 12.7356 61.2338 17.277 60.9014 23.8484L66.8938 24.1516C67.1854 18.387 68.1024 15.0564 71.0609 10.9439L66.1903 7.44007ZM99.9824 15.408V18.408C101.639 18.408 102.982 17.0649 102.982 15.408H99.9824ZM99.9824 12.48H102.982C102.982 10.8231 101.639 9.48 99.9824 9.48V12.48ZM90.8384 12.48L87.8406 12.3647C87.8093 13.1797 88.1111 13.9724 88.6767 14.5602C89.2423 15.1479 90.0228 15.48 90.8384 15.48V12.48ZM90.8864 8.208V5.208C89.2296 5.208 87.8864 6.55114 87.8864 8.208H90.8864ZM99.0464 8.208V11.208C100.703 11.208 102.046 9.86485 102.046 8.208H99.0464ZM99.0464 5.28H102.046C102.046 3.62315 100.703 2.28 99.0464 2.28V5.28ZM80.0384 5.28V2.28C78.3816 2.28 77.0384 3.62315 77.0384 5.28H80.0384ZM80.0384 8.208H77.0384C77.0384 9.86485 78.3816 11.208 80.0384 11.208V8.208ZM87.8864 8.208H90.8864C90.8864 6.55114 89.5433 5.208 87.8864 5.208V8.208ZM87.8144 12.48V15.48C89.3853 15.48 90.6902 14.2682 90.8062 12.7016L87.8144 12.48ZM79.1744 12.48V9.48C77.5176 9.48 76.1744 10.8231 76.1744 12.48H79.1744ZM79.1744 15.408H76.1744C76.1744 17.0649 77.5176 18.408 79.1744 18.408V15.408ZM87.2144 15.408L90.0693 16.3297C90.364 15.4167 90.2044 14.4179 89.6398 13.6424C89.0752 12.8668 88.1737 12.408 87.2144 12.408V15.408ZM78.3344 23.52L77.3308 20.6928C76.3299 21.0481 75.5915 21.9061 75.3893 22.9488C75.1871 23.9914 75.5512 25.0633 76.3467 25.767L78.3344 23.52ZM80.2064 25.992L77.5593 27.4038C78.2669 28.7304 79.8471 29.3284 81.2557 28.8025L80.2064 25.992ZM89.6384 17.76L92.3085 16.3924C91.7753 15.3512 90.6854 14.715 89.5166 14.7625C88.3478 14.81 87.3131 15.5325 86.8661 16.6136L89.6384 17.76ZM99.0704 25.92L98.1583 28.778C99.5667 29.2275 101.093 28.5839 101.754 27.2616L99.0704 25.92ZM101.038 23.256L102.997 25.5282C103.842 24.8004 104.213 23.6644 103.961 22.5784C103.709 21.4925 102.876 20.6357 101.797 20.3536L101.038 23.256ZM91.6064 15.408V12.408C90.5928 12.408 89.6476 12.9199 89.0938 13.7689C88.54 14.6178 88.4523 15.6891 88.8607 16.6168L91.6064 15.408ZM102.982 15.408V12.48H96.9824V15.408H102.982ZM99.9824 9.48H90.8384V15.48H99.9824V9.48ZM93.8362 12.5953C93.8596 11.988 93.8864 11.3255 93.8864 10.68H87.8864C87.8864 11.1865 87.8653 11.724 87.8406 12.3647L93.8362 12.5953ZM93.8864 10.68V8.208H87.8864V10.68H93.8864ZM90.8864 11.208H99.0464V5.208H90.8864V11.208ZM102.046 8.208V5.28H96.0464V8.208H102.046ZM99.0464 2.28H80.0384V8.28H99.0464V2.28ZM77.0384 5.28V8.208H83.0384V5.28H77.0384ZM80.0384 11.208H87.8864V5.208H80.0384V11.208ZM84.8864 8.208V10.632H90.8864V8.208H84.8864ZM84.8864 10.632C84.8864 11.1494 84.8658 11.675 84.8226 12.2584L90.8062 12.7016C90.859 11.989 90.8864 11.3146 90.8864 10.632H84.8864ZM87.8144 9.48H79.1744V15.48H87.8144V9.48ZM76.1744 12.48V15.408H82.1744V12.48H76.1744ZM79.1744 18.408H87.2144V12.408H79.1744V18.408ZM84.3595 14.4863C83.6833 16.5809 82.0609 19.0138 77.3308 20.6928L79.338 26.3472C85.6959 24.0902 88.7775 20.3311 90.0693 16.3297L84.3595 14.4863ZM76.3467 25.767C76.4296 25.8404 76.6575 26.0865 76.9548 26.4854C77.2375 26.865 77.4588 27.2152 77.5593 27.4038L82.8535 24.5802C82.3587 23.6525 81.2923 22.1312 80.3221 21.273L76.3467 25.767ZM81.2557 28.8025C87.3503 26.5272 90.7389 22.9491 92.4107 18.9064L86.8661 16.6136C85.8979 18.9549 83.8625 21.4248 79.1571 23.1815L81.2557 28.8025ZM86.9683 19.1276C89.3029 23.6856 92.7949 27.0663 98.1583 28.778L99.9825 23.062C96.3219 21.8937 94.006 19.7064 92.3085 16.3924L86.9683 19.1276ZM101.754 27.2616C102.053 26.6624 102.7 25.7842 102.997 25.5282L99.0796 20.9838C97.9845 21.9278 96.9035 23.5456 96.3871 24.5784L101.754 27.2616ZM101.797 20.3536C98.0027 19.3612 95.6628 17.1764 94.3521 14.1992L88.8607 16.6168C90.91 21.2716 94.7141 24.7028 100.279 26.1584L101.797 20.3536ZM91.6064 18.408H99.9824V12.408H91.6064V18.408ZM121.574 18.168V21.168C123.231 21.168 124.574 19.8249 124.574 18.168H121.574ZM113.222 18.168H110.222C110.222 19.8249 111.566 21.168 113.222 21.168V18.168ZM113.222 16.056V13.056C111.566 13.056 110.222 14.3991 110.222 16.056H113.222ZM121.574 16.056H124.574C124.574 14.3991 123.231 13.056 121.574 13.056V16.056ZM114.566 23.184L113.601 20.3437C112.211 20.8162 111.367 22.2251 111.607 23.6734C111.846 25.1217 113.098 26.184 114.566 26.184V23.184ZM115.766 22.776L116.732 25.6163C118.257 25.0979 119.1 23.4679 118.643 21.9237L115.766 22.776ZM114.638 20.424V17.424C113.536 17.424 112.522 18.0287 111.999 18.9989C111.475 19.969 111.525 21.1482 112.13 22.07L114.638 20.424ZM120.47 20.424L123.299 21.4225C123.623 20.5044 123.482 19.4861 122.919 18.6913C122.357 17.8965 121.444 17.424 120.47 17.424V20.424ZM119.222 23.184V26.184C120.322 26.184 121.334 25.582 121.859 24.6153L119.222 23.184ZM113.51 12.432H110.51C110.51 14.0889 111.854 15.432 113.51 15.432V12.432ZM121.838 12.432V15.432C123.495 15.432 124.838 14.0889 124.838 12.432H121.838ZM121.838 11.592L123.991 9.50257C123.14 8.62602 121.843 8.35284 120.711 8.81187C119.579 9.2709 118.838 10.3705 118.838 11.592H121.838ZM124.358 13.8V16.8C125.654 16.8 126.804 15.9678 127.208 14.7366C127.613 13.5054 127.181 12.1536 126.138 11.3848L124.358 13.8ZM110.87 13.8L109.121 11.363C108.062 12.1228 107.616 13.4788 108.015 14.719C108.414 15.9592 109.568 16.8 110.87 16.8V13.8ZM113.51 11.52H116.51C116.51 10.291 115.761 9.1863 114.619 8.73225C113.477 8.27819 112.173 8.56663 111.329 9.46013L113.51 11.52ZM124.646 13.992L126.376 11.5411C125.461 10.8948 124.261 10.8127 123.266 11.3283C122.271 11.844 121.646 12.8713 121.646 13.992H124.646ZM127.262 15.48L126.005 18.2039C127.396 18.8457 129.047 18.3369 129.835 17.0235L127.262 15.48ZM129.206 13.08L131.111 15.3982C131.935 14.7212 132.338 13.6576 132.168 12.6045C131.999 11.5514 131.284 10.6673 130.289 10.2823L129.206 13.08ZM125.126 10.704L123.372 8.27047C122.612 8.81813 122.152 9.68911 122.127 10.6253C122.103 11.5614 122.517 12.4554 123.247 13.0421L125.126 10.704ZM128.366 8.16L130.35 10.4111C131.037 9.80582 131.41 8.91994 131.362 8.00552C131.315 7.09111 130.853 6.24829 130.107 5.7169L128.366 8.16ZM126.278 6.672L128.019 4.2289C126.766 3.33586 125.041 3.53577 124.025 4.69166L126.278 6.672ZM123.494 9.216L121.31 11.2721C122.363 12.3908 124.091 12.5333 125.313 11.6023L123.494 9.216ZM122.414 7.992L120.66 5.55847C119.999 6.03484 119.561 6.75944 119.445 7.56577C119.329 8.3721 119.546 9.19082 120.046 9.83382L122.414 7.992ZM125.75 5.424L127.681 7.72008C128.392 7.12265 128.786 6.22997 128.748 5.30246C128.71 4.37495 128.245 3.51709 127.489 2.97913L125.75 5.424ZM123.59 3.888L125.329 1.44313C124.051 0.534547 122.289 0.763017 121.286 1.96744L123.59 3.888ZM121.142 6.192L118.563 7.72361C119.004 8.46717 119.745 8.98405 120.595 9.14172C121.446 9.29938 122.323 9.08248 123.001 8.54665L121.142 6.192ZM119.918 3.744L122.704 2.62983C122.126 1.18562 120.54 0.422482 119.051 0.872016L119.918 3.744ZM117.374 4.512L116.507 1.64002C115.695 1.88526 115.024 2.4631 114.662 3.23036C114.299 3.99762 114.279 4.88252 114.605 5.66584L117.374 4.512ZM120.542 10.056V13.056C121.694 13.056 122.743 12.3972 123.244 11.3604C123.745 10.3237 123.608 9.09192 122.892 8.19035L120.542 10.056ZM114.782 10.056L112.412 8.21701C111.71 9.12178 111.585 10.3473 112.088 11.3757C112.592 12.4041 113.637 13.056 114.782 13.056V10.056ZM117.374 5.376L120.196 6.39493C120.711 4.96954 120.082 3.38411 118.73 2.69953L117.374 5.376ZM115.478 4.416L116.834 1.73953C116.19 1.41368 115.451 1.33062 114.751 1.50557L115.478 4.416ZM114.998 4.536V7.536C115.244 7.536 115.488 7.50592 115.726 7.44643L114.998 4.536ZM107.894 4.536V1.536C106.238 1.536 104.894 2.87914 104.894 4.536H107.894ZM107.894 6.84H104.894C104.894 8.49685 106.238 9.84 107.894 9.84V6.84ZM113.63 6.84L116.222 8.35161C116.763 7.42374 116.767 6.2773 116.232 5.34582C115.697 4.41434 114.705 3.84 113.63 3.84V6.84ZM111.806 9.312L109.685 11.4333C110.265 12.0134 111.058 12.3307 111.878 12.3111C112.698 12.2916 113.474 11.9371 114.026 11.33L111.806 9.312ZM109.118 7.368L110.622 4.77172C109.43 4.08213 107.923 4.29149 106.965 5.27956L109.118 7.368ZM107.582 8.952L105.429 6.86356C104.802 7.51034 104.498 8.40474 104.603 9.2996C104.707 10.1945 105.208 10.995 105.967 11.4801L107.582 8.952ZM110.126 10.968L112.09 13.2365C112.72 12.6913 113.094 11.9087 113.124 11.076C113.154 10.2434 112.837 9.43581 112.248 8.84668L110.126 10.968ZM106.046 13.536L104.899 10.7639C103.952 11.156 103.27 12.0046 103.092 13.0143C102.914 14.0239 103.263 15.0547 104.019 15.7475L106.046 13.536ZM107.798 15.648L105.243 17.2203C106.058 18.5443 107.75 19.0265 109.14 18.3313L107.798 15.648ZM110.318 14.184H113.318C113.318 13.0633 112.694 12.036 111.699 11.5203C110.703 11.0047 109.504 11.0868 108.588 11.7331L110.318 14.184ZM110.318 20.424H107.318C107.318 22.0809 108.662 23.424 110.318 23.424V20.424ZM113.822 20.424L114.728 23.2842C116.139 22.8377 117.013 21.4288 116.787 19.9661C116.561 18.5034 115.302 17.424 113.822 17.424V20.424ZM111.926 21.024L111.021 18.1638C110.149 18.4399 109.45 19.0991 109.124 19.9541C108.797 20.809 108.879 21.7661 109.346 22.5534L111.926 21.024ZM112.91 23.184V26.184C113.869 26.184 114.77 25.7259 115.335 24.9512C115.899 24.1765 116.06 23.1786 115.766 22.266L112.91 23.184ZM107.03 23.184V20.184C105.374 20.184 104.03 21.5271 104.03 23.184H107.03ZM107.03 25.608H104.03C104.03 27.2649 105.374 28.608 107.03 28.608V25.608ZM128.174 25.608V28.608C129.831 28.608 131.174 27.2649 131.174 25.608H128.174ZM128.174 23.184H131.174C131.174 21.5271 129.831 20.184 128.174 20.184V23.184ZM122.078 23.184L119.434 21.7673C118.936 22.6971 118.963 23.8201 119.505 24.7251C120.046 25.6301 121.024 26.184 122.078 26.184V23.184ZM123.23 20.928L125.945 22.2054C126.335 21.3763 126.325 20.4143 125.917 19.5936C125.51 18.7729 124.749 18.1834 123.853 17.9933L123.23 20.928ZM120.854 20.424V17.424C119.319 17.424 118.031 18.5837 117.871 20.111C117.711 21.6384 118.73 23.04 120.232 23.3587L120.854 20.424ZM124.646 20.424V23.424C126.303 23.424 127.646 22.0809 127.646 20.424H124.646ZM121.574 15.168H113.222V21.168H121.574V15.168ZM116.222 18.168V16.056H110.222V18.168H116.222ZM113.222 19.056H121.574V13.056H113.222V19.056ZM118.574 16.056V18.168H124.574V16.056H118.574ZM115.532 26.0243L116.732 25.6163L114.801 19.9357L113.601 20.3437L115.532 26.0243ZM118.643 21.9237C118.358 20.9622 117.792 19.7613 117.147 18.778L112.13 22.07C112.493 22.6227 112.791 23.2938 112.89 23.6283L118.643 21.9237ZM114.638 23.424H120.47V17.424H114.638V23.424ZM117.641 19.4255C117.415 20.0658 116.981 21.0245 116.586 21.7527L121.859 24.6153C122.376 23.6635 122.949 22.4142 123.299 21.4225L117.641 19.4255ZM119.222 20.184H114.566V26.184H119.222V20.184ZM113.51 15.432H121.838V9.432H113.51V15.432ZM124.838 12.432V11.592H118.838V12.432H124.838ZM119.686 13.6814C120.585 14.6083 121.525 15.4388 122.579 16.2152L126.138 11.3848C125.368 10.8172 124.676 10.2077 123.991 9.50257L119.686 13.6814ZM124.358 10.8H110.87V16.8H124.358V10.8ZM112.62 16.237C113.678 15.4772 114.719 14.6099 115.691 13.5799L111.329 9.46013C110.67 10.1581 109.935 10.7788 109.121 11.363L112.62 16.237ZM110.51 11.52V12.432H116.51V11.52H110.51ZM122.916 16.4429C123.909 17.1436 124.938 17.7111 126.005 18.2039L128.52 12.7561C127.715 12.3849 127.016 11.9924 126.376 11.5411L122.916 16.4429ZM129.835 17.0235C130.193 16.4268 130.824 15.6338 131.111 15.3982L127.302 10.7618C126.245 11.6302 125.196 13.0932 124.69 13.9365L129.835 17.0235ZM130.289 10.2823C129.114 9.82729 128.012 9.17416 127.006 8.36587L123.247 13.0421C124.689 14.2018 126.323 15.1807 128.123 15.8777L130.289 10.2823ZM126.881 13.1375C127.948 12.368 129.237 11.3914 130.35 10.4111L126.383 5.90892C125.48 6.70457 124.369 7.55199 123.372 8.27047L126.881 13.1375ZM130.107 5.7169L128.019 4.2289L124.537 9.11509L126.625 10.6031L130.107 5.7169ZM124.025 4.69166C123.487 5.30427 122.561 6.15539 121.676 6.8297L125.313 11.6023C126.444 10.7406 127.678 9.62373 128.532 8.65234L124.025 4.69166ZM125.679 7.1599C125.284 6.74015 125.019 6.4542 124.782 6.15018L120.046 9.83382C120.482 10.3938 120.937 10.8758 121.31 11.2721L125.679 7.1599ZM124.169 10.4255C125.227 9.66229 126.543 8.67697 127.681 7.72008L123.82 3.12791C122.846 3.94703 121.665 4.8337 120.66 5.55847L124.169 10.4255ZM127.489 2.97913L125.329 1.44313L121.852 6.33286L124.012 7.86886L127.489 2.97913ZM121.286 1.96744C120.865 2.4725 120.1 3.19239 119.283 3.83735L123.001 8.54665C124.008 7.75161 125.116 6.74349 125.895 5.80855L121.286 1.96744ZM123.722 4.66038C123.327 3.99543 122.97 3.29594 122.704 2.62983L117.133 4.85817C117.539 5.87206 118.046 6.85257 118.563 7.72361L123.722 4.66038ZM119.051 0.872016L116.507 1.64002L118.241 7.38398L120.785 6.61598L119.051 0.872016ZM114.605 5.66584C115.52 7.86148 116.68 10.0168 118.193 11.9216L122.892 8.19035C121.812 6.83122 120.909 5.19452 120.144 3.35815L114.605 5.66584ZM120.542 7.056H114.782V13.056H120.542V7.056ZM117.153 11.895C118.411 10.273 119.458 8.43894 120.196 6.39493L114.553 4.35707C114.043 5.76906 113.314 7.05503 112.412 8.21701L117.153 11.895ZM118.73 2.69953L116.834 1.73953L114.123 7.09247L116.019 8.05247L118.73 2.69953ZM114.751 1.50557L114.271 1.62557L115.726 7.44643L116.206 7.32643L114.751 1.50557ZM114.998 1.536H107.894V7.536H114.998V1.536ZM104.894 4.536V6.84H110.894V4.536H104.894ZM107.894 9.84H113.63V3.84H107.894V9.84ZM111.039 5.32839C110.646 6.00304 110.172 6.6503 109.587 7.29398L114.026 11.33C114.881 10.3897 115.607 9.40496 116.222 8.35161L111.039 5.32839ZM113.928 7.19068C112.978 6.24058 111.605 5.34138 110.622 4.77172L107.615 9.96428C108.455 10.4506 109.291 11.0394 109.685 11.4333L113.928 7.19068ZM106.965 5.27956L105.429 6.86356L109.736 11.0404L111.272 9.45644L106.965 5.27956ZM105.967 11.4801C106.676 11.9332 107.509 12.5928 108.005 13.0893L112.248 8.84668C111.4 7.99921 110.216 7.07479 109.198 6.42391L105.967 11.4801ZM108.163 8.69949C107.128 9.59532 105.959 10.3255 104.899 10.7639L107.193 16.3081C108.918 15.5945 110.629 14.5007 112.09 13.2365L108.163 8.69949ZM104.019 15.7475C104.395 16.0917 105.008 16.8376 105.243 17.2203L110.353 14.0757C109.821 13.2104 108.85 12.0363 108.074 11.3245L104.019 15.7475ZM109.14 18.3313C110.058 17.8724 111.052 17.3382 112.048 16.6349L108.588 11.7331C107.953 12.1818 107.267 12.5596 106.457 12.9647L109.14 18.3313ZM107.318 14.184V20.424H113.318V14.184H107.318ZM110.318 23.424H113.822V17.424H110.318V23.424ZM112.917 17.5638L111.021 18.1638L112.832 23.8842L114.728 23.2842L112.917 17.5638ZM109.346 22.5534C109.625 23.0257 109.913 23.6617 110.054 24.102L115.766 22.266C115.476 21.3623 114.995 20.3183 114.507 19.4946L109.346 22.5534ZM112.91 20.184H107.03V26.184H112.91V20.184ZM104.03 23.184V25.608H110.03V23.184H104.03ZM107.03 28.608H128.174V22.608H107.03V28.608ZM131.174 25.608V23.184H125.174V25.608H131.174ZM128.174 20.184H122.078V26.184H128.174V20.184ZM124.723 24.6007C125.084 23.9271 125.525 23.0986 125.945 22.2054L120.516 19.6506C120.168 20.3894 119.793 21.0969 119.434 21.7673L124.723 24.6007ZM123.853 17.9933L121.477 17.4893L120.232 23.3587L122.608 23.8627L123.853 17.9933ZM120.854 23.424H124.646V17.424H120.854V23.424ZM127.646 20.424V13.992H121.646V20.424H127.646ZM139.11 5.016V2.016C137.454 2.016 136.11 3.35915 136.11 5.016H139.11ZM139.11 7.92H136.11C136.11 9.57685 137.454 10.92 139.11 10.92V7.92ZM144.582 7.92L147.571 7.65632C147.434 6.10767 146.137 4.92 144.582 4.92V7.92ZM144.918 10.512L144.386 13.4644C145.355 13.6392 146.349 13.3271 147.044 12.6293C147.739 11.9316 148.047 10.9371 147.869 9.96851L144.918 10.512ZM143.454 10.248L143.987 7.29562C142.388 7.00734 140.85 8.04386 140.518 9.63391L143.454 10.248ZM134.286 23.712L132.934 21.0339C132.006 21.5028 131.386 22.4194 131.297 23.4561C131.209 24.4927 131.663 25.5013 132.499 26.1213L134.286 23.712ZM136.902 26.04L134.65 28.0219C135.606 29.1077 137.2 29.3571 138.442 28.6151L136.902 26.04ZM145.758 14.184L148.626 13.3029C148.243 12.0567 147.099 11.2005 145.796 11.1842C144.492 11.168 143.328 11.9953 142.914 13.2315L145.758 14.184ZM154.59 26.016L153.04 28.5841C154.406 29.4091 156.179 29.02 157.074 27.6985L154.59 26.016ZM156.894 23.52L158.779 25.8538C159.545 25.2356 159.958 24.2815 159.886 23.3003C159.814 22.3191 159.266 21.4356 158.418 20.9358L156.894 23.52ZM147.414 5.016H150.414C150.414 3.35915 149.071 2.016 147.414 2.016V5.016ZM136.11 5.016V7.92H142.11V5.016H136.11ZM139.11 10.92H144.582V4.92H139.11V10.92ZM141.594 8.18368C141.67 9.04581 141.776 10.0134 141.968 11.0555L147.869 9.96851C147.725 9.18658 147.639 8.42619 147.571 7.65632L141.594 8.18368ZM145.451 7.55962L143.987 7.29562L142.922 13.2004L144.386 13.4644L145.451 7.55962ZM140.518 9.63391C139.318 15.3701 136.861 19.0519 132.934 21.0339L135.638 26.3901C141.696 23.3321 144.95 17.7499 146.391 10.8621L140.518 9.63391ZM132.499 26.1213C133.142 26.5982 134.308 27.6334 134.65 28.0219L139.155 24.0581C138.44 23.2466 136.919 21.9298 136.074 21.3027L132.499 26.1213ZM138.442 28.6151C143.371 25.6689 146.633 21.0218 148.603 15.1365L142.914 13.2315C141.284 18.0982 138.786 21.4191 135.363 23.4649L138.442 28.6151ZM142.891 15.0651C144.353 19.8229 147.252 25.089 153.04 28.5841L156.141 23.4479C151.993 20.943 149.804 17.1371 148.626 13.3029L142.891 15.0651ZM157.074 27.6985C157.4 27.218 158.369 26.1857 158.779 25.8538L155.009 21.1862C154.172 21.8623 152.789 23.326 152.107 24.3335L157.074 27.6985ZM158.418 20.9358C151.054 16.5932 150.414 9.34639 150.414 5.016H144.414C144.414 9.75761 145.071 20.0308 155.371 26.1042L158.418 20.9358ZM147.414 2.016H139.11V8.016H147.414V2.016ZM166.702 23.256H163.702C163.702 24.9129 165.046 26.256 166.702 26.256V23.256ZM166.702 20.88V17.88C165.046 17.88 163.702 19.2231 163.702 20.88H166.702ZM169.822 20.88H172.822C172.822 19.2231 171.479 17.88 169.822 17.88V20.88ZM169.822 23.256V26.256C171.479 26.256 172.822 24.9129 172.822 23.256H169.822ZM165.406 18.672L164.089 15.9768C162.834 16.5901 162.169 17.9878 162.484 19.3482C162.798 20.7086 164.01 21.672 165.406 21.672V18.672ZM168.454 16.728L170.03 14.1749C168.939 13.5021 167.542 13.596 166.551 14.4088L168.454 16.728ZM171.43 18.672V21.672C172.73 21.672 173.882 20.8355 174.283 19.5997C174.685 18.364 174.246 17.0101 173.195 16.2458L171.43 18.672ZM173.614 17.112L175.87 19.09C176.431 18.4505 176.694 17.6031 176.594 16.7585C176.493 15.9139 176.039 15.1516 175.344 14.6611L173.614 17.112ZM170.23 15.024L167.946 13.0796C167.368 13.7587 167.122 14.6597 167.275 15.5383C167.428 16.4168 167.963 17.1818 168.737 17.6258L170.23 15.024ZM172.606 11.088L175.41 12.156C175.894 10.8859 175.463 9.44927 174.361 8.65447L172.606 11.088ZM171.574 10.344V7.344C170.273 7.344 169.12 8.18346 168.72 9.4222C168.32 10.6609 168.764 12.0163 169.82 12.7775L171.574 10.344ZM173.446 10.344V13.344C175.103 13.344 176.446 12.0009 176.446 10.344H173.446ZM173.446 6.024H176.446C176.446 4.36715 175.103 3.024 173.446 3.024V6.024ZM169.606 6.024L166.809 7.10698C167.256 8.26238 168.367 9.024 169.606 9.024V6.024ZM168.694 3.72L171.466 2.57294C170.859 1.10441 169.211 0.364605 167.71 0.886106L168.694 3.72ZM166.414 4.512L165.43 1.67811C164.66 1.94543 164.033 2.51423 163.691 3.25379C163.349 3.99335 163.323 4.84006 163.618 5.59934L166.414 4.512ZM166.942 6.024V9.024C167.899 9.024 168.799 8.56734 169.364 7.79476C169.929 7.02218 170.091 6.02642 169.801 5.11439L166.942 6.024ZM162.718 6.024V3.024C161.062 3.024 159.718 4.36715 159.718 6.024H162.718ZM162.718 10.344H159.718C159.718 12.0009 161.062 13.344 162.718 13.344V10.344ZM164.782 10.344V13.344C166.439 13.344 167.782 12.0009 167.782 10.344H164.782ZM164.782 8.28V5.28C163.126 5.28 161.782 6.62315 161.782 8.28H164.782ZM171.238 8.28H174.238C174.238 6.62315 172.895 5.28 171.238 5.28V8.28ZM171.238 10.104L169.117 12.2254C169.975 13.0833 171.265 13.34 172.386 12.8756C173.507 12.4113 174.238 11.3174 174.238 10.104H171.238ZM171.214 10.08L173.336 7.95865C172.643 7.26645 171.657 6.95552 170.693 7.12565L171.214 10.08ZM170.806 10.152V13.152C170.981 13.152 171.156 13.1367 171.328 13.1063L170.806 10.152ZM167.782 10.152L165.064 8.88334C164.63 9.81247 164.701 10.8987 165.252 11.7635C165.803 12.6284 166.757 13.152 167.782 13.152V10.152ZM168.19 9.072L171.036 10.0207C171.309 9.20435 171.217 8.31047 170.785 7.56622C170.353 6.82197 169.623 6.29901 168.779 6.13026L168.19 9.072ZM166.03 8.64L166.619 5.69826C165.12 5.39846 163.635 6.2737 163.172 7.73039L166.03 8.64ZM162.574 13.08L160.941 10.5639C160.13 11.0905 159.622 11.9756 159.578 12.9415C159.533 13.9074 159.957 14.8355 160.715 15.4346L162.574 13.08ZM163.966 14.952L161.22 16.1602C161.585 16.9879 162.303 17.6071 163.175 17.8457C164.047 18.0843 164.98 17.9167 165.715 17.3896L163.966 14.952ZM166.606 12.264V9.264C165.621 9.264 164.698 9.74826 164.138 10.5594L166.606 12.264ZM169.51 12.264L172.007 13.9281C172.62 13.0075 172.677 11.8239 172.155 10.8484C171.633 9.87295 170.617 9.264 169.51 9.264V12.264ZM168.166 13.848L166.73 16.4817C167.85 17.0925 169.233 16.9284 170.179 16.0726L168.166 13.848ZM166.582 12.984L168.019 10.3503C166.829 9.70121 165.351 9.93075 164.414 10.9103L166.582 12.984ZM164.998 14.64L162.83 12.5663C162.197 13.2288 161.901 14.1446 162.027 15.0525C162.153 15.9605 162.687 16.761 163.477 17.2258L164.998 14.64ZM166.246 15.384L167.888 17.8949C168.749 17.3319 169.262 16.3669 169.246 15.3382C169.23 14.3095 168.689 13.3606 167.811 12.8242L166.246 15.384ZM162.094 17.232L161.245 14.3547C160.256 14.6466 159.486 15.4265 159.206 16.4196C158.927 17.4128 159.178 18.4797 159.87 19.2447L162.094 17.232ZM163.462 19.488L160.684 20.6199C161.281 22.0841 162.911 22.834 164.411 22.3341L163.462 19.488ZM164.326 19.152H167.326C167.326 18.1489 166.825 17.2122 165.991 16.6558C165.156 16.0995 164.098 15.997 163.173 16.3828L164.326 19.152ZM164.326 26.088H161.326C161.326 27.7449 162.67 29.088 164.326 29.088V26.088ZM166.702 26.088V29.088C168.359 29.088 169.702 27.7449 169.702 26.088H166.702ZM166.702 25.464V22.464C165.046 22.464 163.702 23.8071 163.702 25.464H166.702ZM169.822 25.464H172.822C172.822 23.8071 171.479 22.464 169.822 22.464V25.464ZM169.822 26.064H166.822C166.822 27.7209 168.166 29.064 169.822 29.064V26.064ZM172.318 26.064V29.064C173.975 29.064 175.318 27.7209 175.318 26.064H172.318ZM172.318 18.672H175.318C175.318 17.0151 173.975 15.672 172.318 15.672V18.672ZM172.246 18.672L169.991 16.694C169.214 17.5795 169.028 18.8374 169.514 19.9102C170 20.9829 171.069 21.672 172.246 21.672V18.672ZM177.07 17.736V14.736C175.414 14.736 174.07 16.0791 174.07 17.736H177.07ZM181.366 17.736H184.366C184.366 16.0791 183.023 14.736 181.366 14.736V17.736ZM181.366 19.152V22.152C183.023 22.152 184.366 20.8089 184.366 19.152H181.366ZM177.07 19.152H174.07C174.07 20.8089 175.414 22.152 177.07 22.152V19.152ZM177.07 14.28V11.28C175.414 11.28 174.07 12.6231 174.07 14.28H177.07ZM181.366 14.28H184.366C184.366 12.6231 183.023 11.28 181.366 11.28V14.28ZM181.366 15.72V18.72C183.023 18.72 184.366 17.3769 184.366 15.72H181.366ZM177.07 15.72H174.07C174.07 17.3769 175.414 18.72 177.07 18.72V15.72ZM177.07 10.872V7.872C175.414 7.872 174.07 9.21514 174.07 10.872H177.07ZM181.366 10.872H184.366C184.366 9.21514 183.023 7.872 181.366 7.872V10.872ZM181.366 12.264V15.264C183.023 15.264 184.366 13.9209 184.366 12.264H181.366ZM177.07 12.264H174.07C174.07 13.9209 175.414 15.264 177.07 15.264V12.264ZM184.054 21.336V24.336C185.711 24.336 187.054 22.9929 187.054 21.336H184.054ZM184.054 8.688H187.054C187.054 7.03115 185.711 5.688 184.054 5.688V8.688ZM179.926 8.688L177.08 7.73932C176.775 8.65417 176.929 9.65983 177.493 10.4421C178.057 11.2244 178.962 11.688 179.926 11.688V8.688ZM180.43 7.032V4.032C179.054 4.032 177.854 4.96889 177.52 6.30439L180.43 7.032ZM184.654 7.032V10.032C186.311 10.032 187.654 8.68885 187.654 7.032H184.654ZM184.654 4.632H187.654C187.654 2.97514 186.311 1.632 184.654 1.632V4.632ZM173.926 4.632V1.632C172.27 1.632 170.926 2.97514 170.926 4.632H173.926ZM173.926 7.032H170.926C170.926 8.68885 172.27 10.032 173.926 10.032V7.032ZM177.838 7.032L180.813 7.42002C180.925 6.56398 180.662 5.70133 180.093 5.05261C179.523 4.4039 178.702 4.032 177.838 4.032V7.032ZM177.574 8.688V11.688C179.024 11.688 180.267 10.6511 180.526 9.22465L177.574 8.688ZM174.526 8.688V5.688C172.87 5.688 171.526 7.03115 171.526 8.688H174.526ZM174.526 21.336H171.526C171.526 22.9929 172.87 24.336 174.526 24.336V21.336ZM177.118 21.336L179.063 23.6206C180.02 22.8057 180.368 21.4801 179.934 20.3001C179.5 19.1201 178.376 18.336 177.118 18.336V21.336ZM172.582 24.12L171.331 21.3935C170.52 21.766 169.916 22.4804 169.685 23.3427C169.454 24.205 169.618 25.1255 170.134 25.8541L172.582 24.12ZM173.758 26.208L171.012 27.4162C171.338 28.1565 171.949 28.734 172.707 29.0176C173.464 29.3011 174.304 29.2669 175.036 28.9225L173.758 26.208ZM178.918 23.112L180.768 25.4737C181.436 24.9508 181.851 24.17 181.911 23.3242C181.971 22.4785 181.67 21.6468 181.083 21.035L178.918 23.112ZM177.214 21.336V18.336C176.012 18.336 174.926 19.0536 174.455 20.1593C173.983 21.2651 174.217 22.5456 175.05 23.413L177.214 21.336ZM180.79 21.336L183.042 23.3186C183.821 22.4339 184.01 21.1749 183.524 20.1007C183.039 19.0264 181.969 18.336 180.79 18.336V21.336ZM179.374 22.944L177.123 20.9614C176.552 21.6093 176.289 22.4716 176.399 23.3279C176.51 24.1841 176.984 24.9513 177.7 25.4332L179.374 22.944ZM183.358 26.088L181.179 28.1496C181.767 28.7711 182.592 29.112 183.447 29.0867C184.302 29.0613 185.106 28.6721 185.656 28.0169L183.358 26.088ZM184.99 24.144L187.288 26.0729C188.319 24.845 188.202 23.0235 187.023 21.9374L184.99 24.144ZM181.078 21.336V18.336C179.727 18.336 178.542 19.2397 178.185 20.5431C177.828 21.8465 178.386 23.2279 179.549 23.9169L181.078 21.336ZM169.702 23.256V20.88H163.702V23.256H169.702ZM166.702 23.88H169.822V17.88H166.702V23.88ZM166.822 20.88V23.256H172.822V20.88H166.822ZM169.822 20.256H166.702V26.256H169.822V20.256ZM166.724 21.3672C167.995 20.7459 169.226 19.9752 170.357 19.0472L166.551 14.4088C165.81 15.0168 164.978 15.5421 164.089 15.9768L166.724 21.3672ZM166.879 19.2811C168.005 19.9758 168.975 20.5956 169.666 21.0982L173.195 16.2458C172.302 15.5964 171.16 14.8722 170.03 14.1749L166.879 19.2811ZM171.43 15.672H165.406V21.672H171.43V15.672ZM175.344 14.6611C174.405 13.998 173.028 13.1709 171.724 12.4222L168.737 17.6258C170.025 18.3651 171.192 19.074 171.884 19.5629L175.344 14.6611ZM172.515 16.9684C173.651 15.6337 174.689 14.0475 175.41 12.156L169.803 10.02C169.372 11.1525 168.73 12.1583 167.946 13.0796L172.515 16.9684ZM174.361 8.65447L173.329 7.91047L169.82 12.7775L170.852 13.5215L174.361 8.65447ZM171.574 13.344H173.446V7.344H171.574V13.344ZM176.446 10.344V6.024H170.446V10.344H176.446ZM173.446 3.024H169.606V9.024H173.446V3.024ZM172.404 4.94102C172.118 4.20135 171.77 3.3058 171.466 2.57294L165.922 4.86705C166.195 5.5262 166.519 6.35865 166.809 7.10698L172.404 4.94102ZM167.71 0.886106L165.43 1.67811L167.399 7.34589L169.679 6.55389L167.71 0.886106ZM163.618 5.59934C163.758 5.95934 163.93 6.44998 164.084 6.93361L169.801 5.11439C169.619 4.54201 169.406 3.92866 169.21 3.42466L163.618 5.59934ZM166.942 3.024H162.718V9.024H166.942V3.024ZM159.718 6.024V10.344H165.718V6.024H159.718ZM162.718 13.344H164.782V7.344H162.718V13.344ZM167.782 10.344V8.28H161.782V10.344H167.782ZM164.782 11.28H171.238V5.28H164.782V11.28ZM168.238 8.28V10.104H174.238V8.28H168.238ZM173.36 7.98265L173.336 7.95865L169.093 12.2014L169.117 12.2254L173.36 7.98265ZM170.693 7.12565L170.285 7.19765L171.328 13.1063L171.736 13.0343L170.693 7.12565ZM170.806 7.152H167.782V13.152H170.806V7.152ZM170.501 11.4207C170.753 10.8801 170.924 10.3588 171.036 10.0207L165.344 8.12332C165.217 8.50518 165.148 8.70389 165.064 8.88334L170.501 11.4207ZM168.779 6.13026L166.619 5.69826L165.442 11.5817L167.602 12.0137L168.779 6.13026ZM163.172 7.73039C162.866 8.69121 162.174 9.76276 160.941 10.5639L164.208 15.5961C166.67 13.9972 168.187 11.7568 168.889 9.54961L163.172 7.73039ZM160.715 15.4346C160.649 15.3824 160.651 15.374 160.72 15.4494C160.777 15.5135 160.852 15.6039 160.932 15.7127C161.012 15.8206 161.085 15.928 161.142 16.0213C161.203 16.1215 161.224 16.1688 161.22 16.1602L166.712 13.7438C166.458 13.165 166.085 12.5877 165.752 12.1393C165.436 11.7121 164.968 11.1478 164.433 10.7254L160.715 15.4346ZM165.715 17.3896C167.114 16.3857 168.194 15.2449 169.075 13.9686L164.138 10.5594C163.627 11.2991 163.026 11.9343 162.218 12.5144L165.715 17.3896ZM166.606 15.264H169.51V9.264H166.606V15.264ZM167.014 10.5999C166.741 11.01 166.441 11.3631 166.154 11.6234L170.179 16.0726C170.899 15.4209 171.512 14.67 172.007 13.9281L167.014 10.5999ZM169.603 11.2143L168.019 10.3503L165.146 15.6177L166.73 16.4817L169.603 11.2143ZM164.414 10.9103L162.83 12.5663L167.166 16.7137L168.75 15.0577L164.414 10.9103ZM163.477 17.2258C163.888 17.4673 164.275 17.695 164.682 17.9438L167.811 12.8242C167.354 12.545 166.925 12.2927 166.519 12.0542L163.477 17.2258ZM164.605 12.8731C163.666 13.487 162.513 13.9806 161.245 14.3547L162.943 20.1093C164.604 19.6194 166.331 18.913 167.888 17.8949L164.605 12.8731ZM159.87 19.2447C159.869 19.2442 159.916 19.2978 160.005 19.425C160.087 19.5432 160.182 19.6888 160.278 19.8495C160.484 20.1932 160.63 20.4876 160.684 20.6199L166.241 18.3561C165.878 17.4671 165.063 16.0412 164.319 15.2193L159.87 19.2447ZM164.411 22.3341C164.821 22.1974 165.211 22.0333 165.48 21.9212L163.173 16.3828C162.866 16.5107 162.68 16.5866 162.514 16.6419L164.411 22.3341ZM161.326 19.152V26.088H167.326V19.152H161.326ZM164.326 29.088H166.702V23.088H164.326V29.088ZM169.702 26.088V25.464H163.702V26.088H169.702ZM166.702 28.464H169.822V22.464H166.702V28.464ZM166.822 25.464V26.064H172.822V25.464H166.822ZM169.822 29.064H172.318V23.064H169.822V29.064ZM175.318 26.064V18.672H169.318V26.064H175.318ZM172.318 15.672H172.246V21.672H172.318V15.672ZM174.502 20.65L175.87 19.09L171.359 15.134L169.991 16.694L174.502 20.65ZM177.07 20.736H181.366V14.736H177.07V20.736ZM178.366 17.736V19.152H184.366V17.736H178.366ZM181.366 16.152H177.07V22.152H181.366V16.152ZM180.07 19.152V17.736H174.07V19.152H180.07ZM177.07 17.28H181.366V11.28H177.07V17.28ZM178.366 14.28V15.72H184.366V14.28H178.366ZM181.366 12.72H177.07V18.72H181.366V12.72ZM180.07 15.72V14.28H174.07V15.72H180.07ZM177.07 13.872H181.366V7.872H177.07V13.872ZM178.366 10.872V12.264H184.366V10.872H178.366ZM181.366 9.264H177.07V15.264H181.366V9.264ZM180.07 12.264V10.872H174.07V12.264H180.07ZM187.054 21.336V8.688H181.054V21.336H187.054ZM184.054 5.688H179.926V11.688H184.054V5.688ZM182.772 9.63668C182.935 9.14932 183.164 8.46544 183.341 7.7596L177.52 6.30439C177.408 6.75056 177.254 7.21868 177.08 7.73932L182.772 9.63668ZM180.43 10.032H184.654V4.032H180.43V10.032ZM187.654 7.032V4.632H181.654V7.032H187.654ZM184.654 1.632H173.926V7.632H184.654V1.632ZM170.926 4.632V7.032H176.926V4.632H170.926ZM173.926 10.032H177.838V4.032H173.926V10.032ZM174.864 6.64398C174.8 7.12796 174.714 7.6504 174.623 8.15135L180.526 9.22465C180.627 8.66959 180.732 8.04004 180.813 7.42002L174.864 6.64398ZM177.574 5.688H174.526V11.688H177.574V5.688ZM171.526 8.688V21.336H177.526V8.688H171.526ZM174.526 24.336H177.118V18.336H174.526V24.336ZM175.174 19.0514C174.318 19.7803 172.631 20.7966 171.331 21.3935L173.834 26.8465C175.461 26.0994 177.663 24.8117 179.063 23.6206L175.174 19.0514ZM170.134 25.8541C170.414 26.2495 170.822 26.9826 171.012 27.4162L176.504 24.9998C176.167 24.2334 175.566 23.1425 175.03 22.3859L170.134 25.8541ZM175.036 28.9225C176.804 28.0903 179.101 26.7796 180.768 25.4737L177.068 20.7503C175.856 21.7004 173.977 22.7897 172.481 23.4935L175.036 28.9225ZM181.083 21.035L179.379 19.259L175.05 23.413L176.754 25.189L181.083 21.035ZM177.214 24.336H180.79V18.336H177.214V24.336ZM178.539 19.3534L177.123 20.9614L181.626 24.9266L183.042 23.3186L178.539 19.3534ZM177.7 25.4332C179.004 26.3105 180.586 27.5222 181.179 28.1496L185.538 24.0264C184.451 22.8778 182.385 21.3535 181.049 20.4548L177.7 25.4332ZM185.656 28.0169L187.288 26.0729L182.693 22.2151L181.061 24.1591L185.656 28.0169ZM187.023 21.9374C185.904 20.9065 184.009 19.5856 182.608 18.7551L179.549 23.9169C180.74 24.6224 182.253 25.7015 182.958 26.3506L187.023 21.9374ZM181.078 24.336H184.054V18.336H181.078V24.336ZM199.31 9.864L202.272 10.3442C202.413 9.476 202.165 8.58973 201.595 7.91986C201.025 7.24999 200.19 6.864 199.31 6.864V9.864ZM198.11 14.688L195.912 16.7294C196.622 17.4941 197.679 17.8349 198.702 17.6291C199.725 17.4233 200.568 16.7006 200.927 15.7208L198.11 14.688ZM195.014 11.64L192.245 10.4862C191.772 11.6211 192.04 12.9297 192.92 13.788L195.014 11.64ZM195.686 9.864V6.864C194.408 6.864 193.27 7.6744 192.851 8.88267L195.686 9.864ZM200.126 7.152V10.152C200.299 10.152 200.471 10.1372 200.64 10.1076L200.126 7.152ZM196.574 7.152L193.677 6.37462C193.435 7.27559 193.626 8.23774 194.194 8.9779C194.762 9.71806 195.642 10.152 196.574 10.152V7.152ZM197.294 4.152L200.231 4.76659C200.397 3.97097 200.234 3.14184 199.778 2.46895C199.322 1.79606 198.612 1.33703 197.812 1.19691L197.294 4.152ZM194.414 3.648L194.932 0.692907C193.305 0.408322 191.755 1.49114 191.462 3.11587L194.414 3.648ZM190.166 14.136L187.903 12.1669C187.337 12.8175 187.078 13.6803 187.193 14.535C187.308 15.3897 187.785 16.1538 188.502 16.6322L190.166 14.136ZM192.566 15.96L190.497 18.1324C191.113 18.7182 191.947 19.0158 192.794 18.9514C193.641 18.8869 194.421 18.4665 194.94 17.7943L192.566 15.96ZM193.766 14.136L195.91 12.0371C195.252 11.3651 194.317 11.0406 193.384 11.1605C192.451 11.2804 191.628 11.8309 191.162 12.6476L193.766 14.136ZM196.862 17.544L199.499 18.9743C200.07 17.9222 199.961 16.6316 199.221 15.6905L196.862 17.544ZM190.382 23.64L189.118 20.9196C188.145 21.3718 187.488 22.3087 187.394 23.377C187.3 24.4454 187.783 25.4827 188.662 26.0977L190.382 23.64ZM192.782 26.04L190.313 27.7432C191.173 28.9907 192.829 29.4007 194.172 28.6989L192.782 26.04ZM202.718 7.632L205.699 7.97056C205.865 6.50997 204.948 5.14431 203.534 4.74488L202.718 7.632ZM200.678 7.056L201.494 4.16888C201.061 4.0468 200.607 4.02339 200.164 4.10036L200.678 7.056ZM212.99 16.32L214.867 18.6603C216.151 17.6305 216.366 15.7584 215.348 14.4648L212.99 16.32ZM207.758 10.872L209.864 8.73525C208.819 7.70487 207.181 7.58239 205.994 8.44579L207.758 10.872ZM206.702 11.64H203.702C203.702 12.7684 204.336 13.8013 205.341 14.3133C206.347 14.8254 207.554 14.7299 208.467 14.0662L206.702 11.64ZM206.702 3.672H209.702C209.702 2.01514 208.359 0.671999 206.702 0.671999V3.672ZM203.678 3.672V0.671999C202.022 0.671999 200.678 2.01514 200.678 3.672H203.678ZM203.678 26.088H200.678C200.678 27.7449 202.022 29.088 203.678 29.088V26.088ZM206.702 26.088V29.088C208.359 29.088 209.702 27.7449 209.702 26.088H206.702ZM206.702 13.776L208.89 11.7231C208.048 10.8256 206.743 10.5336 205.598 10.9865C204.454 11.4394 203.702 12.5453 203.702 13.776H206.702ZM210.566 18.264L208.078 19.9398C208.547 20.6357 209.285 21.1036 210.115 21.2298C210.944 21.3561 211.789 21.1293 212.443 20.6043L210.566 18.264ZM196.349 9.38379C196.081 11.0339 195.737 12.4454 195.294 13.6552L200.927 15.7208C201.539 14.0506 201.963 12.2461 202.272 10.3442L196.349 9.38379ZM200.309 12.6466C199.306 11.567 197.971 10.333 197.109 9.492L192.92 13.788C193.977 14.819 195.043 15.793 195.912 16.7294L200.309 12.6466ZM197.784 12.7938C198.052 12.1504 198.289 11.5155 198.521 10.8453L192.851 8.88267C192.651 9.46045 192.457 9.97755 192.245 10.4862L197.784 12.7938ZM195.686 12.864H199.31V6.864H195.686V12.864ZM200.126 4.152H196.574V10.152H200.126V4.152ZM199.472 7.92938C199.748 6.90047 200.002 5.86161 200.231 4.76659L194.358 3.53741C194.155 4.50639 193.929 5.43553 193.677 6.37462L199.472 7.92938ZM197.812 1.19691L194.932 0.692907L193.897 6.60309L196.777 7.10709L197.812 1.19691ZM191.462 3.11587C190.753 7.05159 189.463 10.3743 187.903 12.1669L192.43 16.1051C195.046 13.0977 196.588 8.50041 197.367 4.18012L191.462 3.11587ZM188.502 16.6322C189.128 17.0495 190.193 17.8423 190.497 18.1324L194.635 13.7876C193.932 13.1177 192.5 12.0865 191.831 11.6398L188.502 16.6322ZM194.94 17.7943C195.45 17.1345 195.934 16.3901 196.371 15.6244L191.162 12.6476C190.831 13.2259 190.499 13.7295 190.193 14.1257L194.94 17.7943ZM191.623 16.2349C192.749 17.3847 193.822 18.5304 194.503 19.3975L199.221 15.6905C198.319 14.5416 197.04 13.1913 195.91 12.0371L191.623 16.2349ZM194.225 16.1137C193.006 18.3616 191.288 19.9105 189.118 20.9196L191.647 26.3604C194.949 24.8255 197.647 22.3904 199.499 18.9743L194.225 16.1137ZM188.662 26.0977C188.814 26.2044 189.153 26.491 189.551 26.8893C189.953 27.2915 190.225 27.6161 190.313 27.7432L195.252 24.3368C194.86 23.7679 194.292 23.1445 193.794 22.6467C193.292 22.145 192.67 21.5796 192.103 21.1823L188.662 26.0977ZM194.172 28.6989C200.733 25.2704 204.536 18.2089 205.699 7.97056L199.738 7.29344C198.692 16.4951 195.488 21.2416 191.393 23.3811L194.172 28.6989ZM203.534 4.74488L201.494 4.16888L199.863 9.94312L201.903 10.5191L203.534 4.74488ZM200.164 4.10036L199.612 4.19636L200.64 10.1076L201.192 10.0116L200.164 4.10036ZM215.348 14.4648C214.045 12.8094 211.429 10.2773 209.864 8.73525L205.653 13.0087C207.4 14.7307 209.631 16.9026 210.633 18.1752L215.348 14.4648ZM205.994 8.44579L204.938 9.21379L208.467 14.0662L209.523 13.2982L205.994 8.44579ZM209.702 11.64V3.672H203.702V11.64H209.702ZM206.702 0.671999H203.678V6.672H206.702V0.671999ZM200.678 3.672V26.088H206.678V3.672H200.678ZM203.678 29.088H206.702V23.088H203.678V29.088ZM209.702 26.088V13.776H203.702V26.088H209.702ZM204.515 15.8289C206.034 17.4478 207.45 19.0078 208.078 19.9398L213.055 16.5882C212.098 15.1682 210.299 13.2242 208.89 11.7231L204.515 15.8289ZM212.443 20.6043L214.867 18.6603L211.113 13.9797L208.689 15.9237L212.443 20.6043ZM223.854 9.168V12.168C225.511 12.168 226.854 10.8249 226.854 9.168H223.854ZM221.478 9.168H218.478C218.478 10.8249 219.822 12.168 221.478 12.168V9.168ZM221.478 7.008V4.008C219.822 4.008 218.478 5.35115 218.478 7.008H221.478ZM223.854 7.008H226.854C226.854 5.35115 225.511 4.008 223.854 4.008V7.008ZM223.854 13.464V16.464C225.511 16.464 226.854 15.1209 226.854 13.464H223.854ZM221.478 13.464H218.478C218.478 15.1209 219.822 16.464 221.478 16.464V13.464ZM221.478 11.256V8.256C219.822 8.256 218.478 9.59914 218.478 11.256H221.478ZM223.854 11.256H226.854C226.854 9.59914 225.511 8.256 223.854 8.256V11.256ZM223.854 17.808V20.808C225.511 20.808 226.854 19.4649 226.854 17.808H223.854ZM221.478 17.808H218.478C218.478 19.4649 219.822 20.808 221.478 20.808V17.808ZM221.478 15.576V12.576C219.822 12.576 218.478 13.9191 218.478 15.576H221.478ZM223.854 15.576H226.854C226.854 13.9191 225.511 12.576 223.854 12.576V15.576ZM226.158 4.728H229.158C229.158 3.07115 227.815 1.728 226.158 1.728V4.728ZM219.27 4.728V1.728C217.614 1.728 216.27 3.07115 216.27 4.728H219.27ZM219.27 20.064H216.27C216.27 21.7209 217.614 23.064 219.27 23.064V20.064ZM226.158 20.064V23.064C227.815 23.064 229.158 21.7209 229.158 20.064H226.158ZM220.326 20.448L221.236 17.5892C219.734 17.1114 218.119 17.8771 217.538 19.3421L220.326 20.448ZM218.142 24.6L215.705 22.8513C215.198 23.5577 215.023 24.4493 215.224 25.295C215.425 26.1408 215.984 26.8576 216.755 27.2598L218.142 24.6ZM220.038 25.872L218.045 28.1142C218.705 28.7005 219.589 28.9666 220.463 28.8419C221.336 28.7171 222.111 28.214 222.58 27.4665L220.038 25.872ZM222.438 21.12L225.221 22.2413C225.533 21.4671 225.508 20.5979 225.153 19.8426C224.797 19.0874 224.143 18.5143 223.348 18.2612L222.438 21.12ZM223.038 21.408L221.558 18.7989C220.842 19.2053 220.324 19.8881 220.126 20.6872C219.928 21.4864 220.068 22.3317 220.512 23.0252L223.038 21.408ZM225.15 25.32L222.352 26.4012C222.68 27.2488 223.374 27.9024 224.239 28.1783C225.105 28.4543 226.049 28.3229 226.807 27.8211L225.15 25.32ZM226.998 24.096L228.655 26.5971C229.919 25.7598 230.36 24.1107 229.682 22.7544L226.998 24.096ZM224.814 20.4L227.303 18.7242C226.427 17.4237 224.697 17.017 223.334 17.7909L224.814 20.4ZM236.142 18.552H239.142C239.142 16.8951 237.799 15.552 236.142 15.552V18.552ZM236.142 19.824V22.824C237.799 22.824 239.142 21.4809 239.142 19.824H236.142ZM230.742 19.824H227.742C227.742 21.4809 229.086 22.824 230.742 22.824V19.824ZM230.742 18.552V15.552C229.086 15.552 227.742 16.8951 227.742 18.552H230.742ZM230.742 22.992H227.742C227.742 24.6489 229.086 25.992 230.742 25.992V22.992ZM230.742 21.672V18.672C229.086 18.672 227.742 20.0151 227.742 21.672H230.742ZM236.142 21.672H239.142C239.142 20.0151 237.799 18.672 236.142 18.672V21.672ZM236.142 22.992V25.992C237.799 25.992 239.142 24.6489 239.142 22.992H236.142ZM228.342 26.04H225.342C225.342 27.6969 226.686 29.04 228.342 29.04V26.04ZM230.742 26.04V29.04C232.399 29.04 233.742 27.6969 233.742 26.04H230.742ZM230.742 25.056V22.056C229.086 22.056 227.742 23.3991 227.742 25.056H230.742ZM236.142 25.056H239.142C239.142 23.3991 237.799 22.056 236.142 22.056V25.056ZM236.142 25.944H233.142C233.142 27.6009 234.486 28.944 236.142 28.944V25.944ZM238.614 25.944V28.944C240.271 28.944 241.614 27.6009 241.614 25.944H238.614ZM238.614 16.392H241.614C241.614 14.7351 240.271 13.392 238.614 13.392V16.392ZM228.342 16.392V13.392C226.686 13.392 225.342 14.7351 225.342 16.392H228.342ZM229.638 9.768L228.789 6.89065C227.981 7.12904 227.311 7.69606 226.942 8.45316C226.573 9.21025 226.539 10.0877 226.849 10.871L229.638 9.768ZM230.718 13.056L227.813 13.8031C228.021 14.6138 228.559 15.3004 229.296 15.6973C230.033 16.0942 230.902 16.1652 231.694 15.8931L230.718 13.056ZM232.254 12.528L233.23 15.3651C234.687 14.8642 235.528 13.3408 235.175 11.8409L232.254 12.528ZM231.102 9.336L233.846 8.12351C233.237 6.7446 231.699 6.032 230.253 6.45866L231.102 9.336ZM236.046 13.08L235.241 15.9699C236.674 16.3693 238.184 15.658 238.788 14.2984L236.046 13.08ZM237.294 9.792L240.11 10.8265C240.4 10.0371 240.346 9.16219 239.96 8.41504C239.574 7.66788 238.892 7.11705 238.08 6.89676L237.294 9.792ZM235.614 9.336L236.4 6.44076C235.608 6.22566 234.762 6.34479 234.06 6.77036C233.357 7.19593 232.86 7.89075 232.684 8.69278L235.614 9.336ZM234.582 12.672L231.782 11.5951C231.479 12.3841 231.522 13.2645 231.902 14.0197C232.282 14.775 232.963 15.3349 233.777 15.5619L234.582 12.672ZM237.318 13.44V16.44C238.975 16.44 240.318 15.0969 240.318 13.44H237.318ZM234.294 13.44H231.294C231.294 15.0969 232.638 16.44 234.294 16.44V13.44ZM234.294 8.976V5.976C232.638 5.976 231.294 7.31914 231.294 8.976H234.294ZM237.318 8.976H240.318C240.318 7.31914 238.975 5.976 237.318 5.976V8.976ZM229.47 8.976V5.976C227.814 5.976 226.47 7.31914 226.47 8.976H229.47ZM232.494 8.976H235.494C235.494 7.31914 234.151 5.976 232.494 5.976V8.976ZM232.494 13.44V16.44C234.151 16.44 235.494 15.0969 235.494 13.44H232.494ZM229.47 13.44H226.47C226.47 15.0969 227.814 16.44 229.47 16.44V13.44ZM237.222 6.912L234.822 5.112C234.141 6.02105 234.031 7.23729 234.539 8.25364C235.047 9.26999 236.086 9.912 237.222 9.912V6.912ZM238.974 4.416L241.471 6.0801C241.992 5.29845 242.117 4.31784 241.808 3.43054C241.499 2.54325 240.793 1.85174 239.899 1.56212L238.974 4.416ZM236.382 3.576L237.307 0.722122C235.787 0.229508 234.148 1.0148 233.579 2.50801L236.382 3.576ZM234.678 6.912V9.912C235.699 9.912 236.65 9.39294 237.202 8.53427L234.678 6.912ZM231.558 6.912L230.425 4.13446C229.097 4.67642 228.338 6.08235 228.615 7.48966C228.891 8.89696 230.124 9.912 231.558 9.912V6.912ZM232.734 6.432L233.868 9.20954C234.617 8.90398 235.21 8.30915 235.514 7.55987C235.818 6.8106 235.807 5.97034 235.483 5.22954L232.734 6.432ZM231.078 3.648L233.533 1.92316C232.749 0.807004 231.31 0.360549 230.032 0.836561L231.078 3.648ZM228.822 4.488L227.776 1.67656C226.924 1.99369 226.262 2.67982 225.975 3.54232C225.689 4.40482 225.809 5.35069 226.302 6.11438L228.822 4.488ZM230.142 6.912V9.912C231.141 9.912 232.074 9.41539 232.631 8.5872C233.189 7.75902 233.298 6.70778 232.922 5.78287L230.142 6.912ZM227.262 6.912V3.912C225.606 3.912 224.262 5.25515 224.262 6.912H227.262ZM227.262 15.504H224.262C224.262 17.1609 225.606 18.504 227.262 18.504V15.504ZM239.646 15.504V18.504C241.303 18.504 242.646 17.1609 242.646 15.504H239.646ZM239.646 6.912H242.646C242.646 5.25515 241.303 3.912 239.646 3.912V6.912ZM223.854 6.168H221.478V12.168H223.854V6.168ZM224.478 9.168V7.008H218.478V9.168H224.478ZM221.478 10.008H223.854V4.008H221.478V10.008ZM220.854 7.008V9.168H226.854V7.008H220.854ZM223.854 10.464H221.478V16.464H223.854V10.464ZM224.478 13.464V11.256H218.478V13.464H224.478ZM221.478 14.256H223.854V8.256H221.478V14.256ZM220.854 11.256V13.464H226.854V11.256H220.854ZM223.854 14.808H221.478V20.808H223.854V14.808ZM224.478 17.808V15.576H218.478V17.808H224.478ZM221.478 18.576H223.854V12.576H221.478V18.576ZM220.854 15.576V17.808H226.854V15.576H220.854ZM226.158 1.728H219.27V7.728H226.158V1.728ZM216.27 4.728V20.064H222.27V4.728H216.27ZM219.27 23.064H226.158V17.064H219.27V23.064ZM229.158 20.064V4.728H223.158V20.064H229.158ZM217.538 19.3421C217.044 20.5868 216.311 22.0062 215.705 22.8513L220.58 26.3487C221.558 24.9858 222.505 23.0932 223.115 21.5539L217.538 19.3421ZM216.755 27.2598C217.148 27.4652 217.842 27.9332 218.045 28.1142L222.031 23.6298C221.371 23.0428 220.24 22.3108 219.53 21.9402L216.755 27.2598ZM222.58 27.4665C223.447 26.0844 224.51 24.0051 225.221 22.2413L219.656 19.9987C219.071 21.4509 218.166 23.2116 217.497 24.2775L222.58 27.4665ZM223.348 18.2612L221.236 17.5892L219.417 23.3068L221.529 23.9788L223.348 18.2612ZM220.512 23.0252C221.251 24.1809 222.055 25.633 222.352 26.4012L227.949 24.2388C227.43 22.895 226.362 21.0351 225.565 19.7908L220.512 23.0252ZM226.807 27.8211L228.655 26.5971L225.342 21.5949L223.494 22.8189L226.807 27.8211ZM229.682 22.7544C229.137 21.6645 228.157 19.993 227.303 18.7242L222.326 22.0758C223.056 23.159 223.9 24.6075 224.315 25.4376L229.682 22.7544ZM223.334 17.7909L221.558 18.7989L224.519 24.0171L226.295 23.0091L223.334 17.7909ZM233.142 18.552V19.824H239.142V18.552H233.142ZM236.142 16.824H230.742V22.824H236.142V16.824ZM233.742 19.824V18.552H227.742V19.824H233.742ZM230.742 21.552H236.142V15.552H230.742V21.552ZM233.742 22.992V21.672H227.742V22.992H233.742ZM230.742 24.672H236.142V18.672H230.742V24.672ZM233.142 21.672V22.992H239.142V21.672H233.142ZM236.142 19.992H230.742V25.992H236.142V19.992ZM228.342 29.04H230.742V23.04H228.342V29.04ZM233.742 26.04V25.056H227.742V26.04H233.742ZM230.742 28.056H236.142V22.056H230.742V28.056ZM233.142 25.056V25.944H239.142V25.056H233.142ZM236.142 28.944H238.614V22.944H236.142V28.944ZM241.614 25.944V16.392H235.614V25.944H241.614ZM238.614 13.392H228.342V19.392H238.614V13.392ZM225.342 16.392V26.04H231.342V16.392H225.342ZM226.849 10.871C227.213 11.7926 227.63 13.0899 227.813 13.8031L233.624 12.3089C233.375 11.3421 232.88 9.80737 232.428 8.66502L226.849 10.871ZM231.694 15.8931L233.23 15.3651L231.279 9.69094L229.743 10.2189L231.694 15.8931ZM235.175 11.8409C234.919 10.756 234.328 9.2137 233.846 8.12351L228.358 10.5485C228.789 11.5223 229.205 12.668 229.334 13.2151L235.175 11.8409ZM230.253 6.45866L228.789 6.89065L230.487 12.6453L231.951 12.2133L230.253 6.45866ZM238.788 14.2984C239.225 13.3138 239.717 11.8977 240.11 10.8265L234.478 8.75755C234.008 10.0383 233.635 11.1182 233.305 11.8616L238.788 14.2984ZM238.08 6.89676L236.4 6.44076L234.829 12.2312L236.509 12.6872L238.08 6.89676ZM232.684 8.69278C232.51 9.4864 232.106 10.7524 231.782 11.5951L237.382 13.7489C237.778 12.7196 238.287 11.1536 238.545 9.97922L232.684 8.69278ZM233.777 15.5619L235.241 15.9699L236.852 10.1901L235.388 9.78213L233.777 15.5619ZM237.318 10.44H234.294V16.44H237.318V10.44ZM237.294 13.44V8.976H231.294V13.44H237.294ZM234.294 11.976H237.318V5.976H234.294V11.976ZM234.318 8.976V13.44H240.318V8.976H234.318ZM229.47 11.976H232.494V5.976H229.47V11.976ZM229.494 8.976V13.44H235.494V8.976H229.494ZM232.494 10.44H229.47V16.44H232.494V10.44ZM232.47 13.44V8.976H226.47V13.44H232.47ZM239.622 8.712C240.243 7.88496 240.876 6.97203 241.471 6.0801L236.478 2.7519C235.921 3.58797 235.354 4.40304 234.822 5.112L239.622 8.712ZM239.899 1.56212L237.307 0.722122L235.458 6.42988L238.05 7.26988L239.899 1.56212ZM233.579 2.50801C233.275 3.30659 232.7 4.44181 232.155 5.28973L237.202 8.53427C237.953 7.36619 238.722 5.86141 239.186 4.64399L233.579 2.50801ZM234.678 3.912H231.558V9.912H234.678V3.912ZM232.692 9.68954L233.868 9.20954L231.601 3.65446L230.425 4.13446L232.692 9.68954ZM235.483 5.22954C235.027 4.18707 234.196 2.86654 233.533 1.92316L228.624 5.37284C229.209 6.20546 229.77 7.14092 229.986 7.63445L235.483 5.22954ZM230.032 0.836561L227.776 1.67656L229.869 7.29944L232.125 6.45944L230.032 0.836561ZM226.302 6.11438C226.746 6.80294 227.156 7.53115 227.363 8.04113L232.922 5.78287C232.505 4.75685 231.859 3.66106 231.343 2.86162L226.302 6.11438ZM230.142 3.912H227.262V9.912H230.142V3.912ZM224.262 6.912V15.504H230.262V6.912H224.262ZM227.262 18.504H239.646V12.504H227.262V18.504ZM242.646 15.504V6.912H236.646V15.504H242.646ZM239.646 3.912H237.222V9.912H239.646V3.912ZM251.854 7.752L252.841 10.5851C253.596 10.3221 254.215 9.76844 254.561 9.04701C254.906 8.32559 254.949 7.49617 254.68 6.74299L251.854 7.752ZM250.462 3.912L253.297 2.93067C252.777 1.42678 251.172 0.591085 249.642 1.02643L250.462 3.912ZM247.846 4.656L247.026 1.77043C246.235 1.99525 245.572 2.53451 245.19 3.26227C244.808 3.99004 244.741 4.84257 245.006 5.62075L247.846 4.656ZM249.166 8.688L246.284 9.52062C246.513 10.3119 247.057 10.9745 247.788 11.3528C248.52 11.7311 249.375 11.792 250.153 11.5211L249.166 8.688ZM258.718 15.552L261.56 16.5127C261.87 15.597 261.719 14.5883 261.156 13.803C260.592 13.0177 259.685 12.552 258.718 12.552V15.552ZM253.15 20.352L252.128 17.5315C251.115 17.8989 250.376 18.7819 250.194 19.8445C250.011 20.9071 250.413 21.9858 251.246 22.6702L253.15 20.352ZM255.142 22.512L252.662 24.1989C253.48 25.4027 255.045 25.8451 256.373 25.2482L255.142 22.512ZM260.974 17.52L262.995 15.3027C262.305 14.6734 261.36 14.4017 260.441 14.5678C259.521 14.734 258.732 15.3191 258.305 16.1503L260.974 17.52ZM266.014 22.44L263.728 24.3817C264.27 25.0206 265.055 25.4034 265.892 25.4375C266.73 25.4716 267.543 25.1539 268.136 24.5613L266.014 22.44ZM268.006 20.448L270.128 22.5693C271.283 21.4136 271.301 19.5455 270.168 18.3679L268.006 20.448ZM262.582 15.552V12.552C261.333 12.552 260.214 13.3269 259.774 14.4968C259.335 15.6668 259.666 16.9867 260.607 17.8097L262.582 15.552ZM268.462 15.552V18.552C270.119 18.552 271.462 17.2089 271.462 15.552H268.462ZM268.462 12.96H271.462C271.462 11.3031 270.119 9.96 268.462 9.96V12.96ZM262.03 12.96H259.03C259.03 14.6169 260.374 15.96 262.03 15.96V12.96ZM262.03 10.344V7.344C260.374 7.344 259.03 8.68715 259.03 10.344H262.03ZM267.694 10.344V13.344C269.351 13.344 270.694 12.0009 270.694 10.344H267.694ZM267.694 7.752H270.694C270.694 6.09514 269.351 4.752 267.694 4.752V7.752ZM264.91 7.752L262.387 6.12973C261.793 7.05285 261.751 8.22634 262.277 9.18956C262.803 10.1528 263.813 10.752 264.91 10.752V7.752ZM266.878 4.512L269.49 5.98817C269.941 5.1905 270.003 4.23053 269.657 3.38178C269.312 2.53302 268.598 1.88855 267.718 1.632L266.878 4.512ZM263.998 3.672L264.838 0.791998C263.329 0.351793 261.736 1.15143 261.187 2.62467L263.998 3.672ZM262.03 7.752V10.752C263.072 10.752 264.039 10.2115 264.585 9.32429L262.03 7.752ZM258.454 7.752L257.255 5.00238C255.952 5.57056 255.227 6.97414 255.518 8.36484C255.808 9.75553 257.034 10.752 258.454 10.752V7.752ZM259.774 7.176L260.974 9.92562C261.723 9.5988 262.306 8.98062 262.589 8.21393C262.872 7.44725 262.83 6.59841 262.472 5.8636L259.774 7.176ZM257.758 3.72L260.289 2.10937C259.52 0.9005 258.003 0.404403 256.668 0.925035L257.758 3.72ZM255.358 4.656L254.268 1.86103C253.463 2.17495 252.833 2.82065 252.538 3.63281C252.244 4.44497 252.313 5.34474 252.73 6.10175L255.358 4.656ZM256.99 7.752V10.752C258.013 10.752 258.966 10.2306 259.517 9.36886C260.069 8.50709 260.143 7.42373 259.714 6.49483L256.99 7.752ZM253.966 7.752V4.752C252.31 4.752 250.966 6.09514 250.966 7.752H253.966ZM253.966 10.344H250.966C250.966 12.0009 252.31 13.344 253.966 13.344V10.344ZM259.078 10.344H262.078C262.078 8.68715 260.735 7.344 259.078 7.344V10.344ZM259.078 12.96V15.96C260.735 15.96 262.078 14.6169 262.078 12.96H259.078ZM253.366 12.96V9.96C251.71 9.96 250.366 11.3031 250.366 12.96H253.366ZM253.366 14.664L252.176 17.4176C253.103 17.8185 254.17 17.7259 255.014 17.1712C255.858 16.6165 256.366 15.6742 256.366 14.664H253.366ZM252.478 14.28L253.669 11.5264C253.025 11.2481 252.305 11.204 251.632 11.4019L252.478 14.28ZM252.07 14.4V17.4C252.357 17.4 252.642 17.3589 252.917 17.2781L252.07 14.4ZM250.702 14.4L247.873 13.4015C247.549 14.3197 247.691 15.3379 248.253 16.1327C248.816 16.9275 249.729 17.4 250.702 17.4V14.4ZM252.406 9.264L255.273 10.1492C255.554 9.23905 255.386 8.24948 254.82 7.48294C254.255 6.7164 253.359 6.264 252.406 6.264V9.264ZM246.502 9.264V6.264C244.846 6.264 243.502 7.60715 243.502 9.264H246.502ZM246.502 11.808H243.502C243.502 13.4649 244.846 14.808 246.502 14.808V11.808ZM249.046 11.808L251.892 12.7567C252.197 11.8418 252.044 10.8362 251.48 10.0539C250.916 9.27156 250.011 8.808 249.046 8.808V11.808ZM247.27 16.848L244.495 15.7082C244.115 16.6336 244.221 17.6875 244.778 18.5184C245.336 19.3494 246.27 19.848 247.27 19.848V16.848ZM250.486 16.848L253.382 17.6332C253.626 16.7315 253.437 15.7674 252.869 15.0253C252.302 14.2833 251.421 13.848 250.486 13.848V16.848ZM249.022 20.904L250.275 23.63C250.896 23.3449 251.4 22.8565 251.706 22.2456L249.022 20.904ZM246.046 23.448L243.731 21.5409C242.873 22.582 242.816 24.0673 243.591 25.1713L246.046 23.448ZM247.966 26.184L245.511 27.9073C246.147 28.814 247.231 29.2963 248.331 29.1618C249.43 29.0272 250.366 28.2977 250.765 27.2642L247.966 26.184ZM252.19 24.528L253.702 21.9367C253.679 21.923 253.655 21.9097 253.631 21.8967L252.19 24.528ZM268.102 25.512L268.283 28.5066C269.795 28.4155 271.002 27.2112 271.097 25.6991L268.102 25.512ZM268.942 22.584L271.691 23.7865C272.127 22.7888 271.989 21.633 271.329 20.7666C270.67 19.9002 269.592 19.4593 268.514 19.6147L268.942 22.584ZM252.55 22.08L254.099 19.5109C254.084 19.5017 254.069 19.4926 254.054 19.4837L252.55 22.08ZM251.422 21.336L248.763 19.9483C248.063 21.2894 248.471 22.9416 249.715 23.8026L251.422 21.336ZM253.51 15.552V12.552C252.125 12.552 250.919 13.5011 250.594 14.8481L253.51 15.552ZM254.68 6.74299C254.278 5.61842 253.734 4.19108 253.297 2.93067L247.627 4.89333C248.055 6.12892 248.711 7.86957 249.029 8.76101L254.68 6.74299ZM249.642 1.02643L247.026 1.77043L248.667 7.54157L251.283 6.79757L249.642 1.02643ZM245.006 5.62075C245.451 6.93176 245.997 8.52537 246.284 9.52062L252.049 7.85538C251.712 6.69063 251.106 4.92424 250.687 3.69125L245.006 5.62075ZM250.153 11.5211L252.841 10.5851L250.868 4.91885L248.18 5.85485L250.153 11.5211ZM255.876 14.5913C255.646 15.2731 255.016 16.4849 252.128 17.5315L254.173 23.1725C258.437 21.6271 260.639 19.2389 261.56 16.5127L255.876 14.5913ZM251.246 22.6702C251.702 23.045 252.419 23.8418 252.662 24.1989L257.623 20.8251C257.05 19.9822 255.942 18.763 255.055 18.0338L251.246 22.6702ZM256.373 25.2482C259.951 23.6393 262.334 21.4416 263.643 18.8897L258.305 16.1503C257.743 17.2464 256.526 18.6007 253.912 19.7758L256.373 25.2482ZM258.954 19.7373C260.894 21.5058 262.798 23.2868 263.728 24.3817L268.301 20.4983C267.071 19.0492 264.847 16.9902 262.995 15.3027L258.954 19.7373ZM268.136 24.5613L270.128 22.5693L265.885 18.3267L263.893 20.3187L268.136 24.5613ZM270.168 18.3679C268.827 16.9739 266.39 14.8977 264.558 13.2943L260.607 17.8097C262.614 19.5663 264.738 21.3781 265.845 22.5281L270.168 18.3679ZM262.582 18.552H268.462V12.552H262.582V18.552ZM271.462 15.552V12.96H265.462V15.552H271.462ZM268.462 9.96H262.03V15.96H268.462V9.96ZM265.03 12.96V10.344H259.03V12.96H265.03ZM262.03 13.344H267.694V7.344H262.03V13.344ZM270.694 10.344V7.752H264.694V10.344H270.694ZM267.694 4.752H264.91V10.752H267.694V4.752ZM267.434 9.37427C268.102 8.3358 268.829 7.15691 269.49 5.98817L264.267 3.03583C263.679 4.07509 263.015 5.1522 262.387 6.12973L267.434 9.37427ZM267.718 1.632L264.838 0.791998L263.158 6.552L266.038 7.392L267.718 1.632ZM261.187 2.62467C260.786 3.70215 260.123 5.12804 259.475 6.17971L264.585 9.32429C265.474 7.87996 266.299 6.08984 266.81 4.71933L261.187 2.62467ZM262.03 4.752H258.454V10.752H262.03V4.752ZM259.654 10.5016L260.974 9.92562L258.575 4.42638L257.255 5.00238L259.654 10.5016ZM262.472 5.8636C261.958 4.80736 260.964 3.169 260.289 2.10937L255.227 5.33063C255.897 6.38299 256.727 7.76864 257.077 8.4884L262.472 5.8636ZM256.668 0.925035L254.268 1.86103L256.448 7.45096L258.848 6.51496L256.668 0.925035ZM252.73 6.10175C253.288 7.11671 253.891 8.19537 254.267 9.00917L259.714 6.49483C259.226 5.43663 258.485 4.11529 257.987 3.21024L252.73 6.10175ZM256.99 4.752H253.966V10.752H256.99V4.752ZM250.966 7.752V10.344H256.966V7.752H250.966ZM253.966 13.344H259.078V7.344H253.966V13.344ZM256.078 10.344V12.96H262.078V10.344H256.078ZM259.078 9.96H253.366V15.96H259.078V9.96ZM250.366 12.96V14.664H256.366V12.96H250.366ZM254.557 11.9104L253.669 11.5264L251.288 17.0336L252.176 17.4176L254.557 11.9104ZM251.632 11.4019L251.224 11.5219L252.917 17.2781L253.325 17.1581L251.632 11.4019ZM252.07 11.4H250.702V17.4H252.07V11.4ZM253.531 15.3985C254.119 13.7341 254.756 11.8241 255.273 10.1492L249.54 8.37878C249.049 9.96794 248.438 11.8019 247.873 13.4015L253.531 15.3985ZM252.406 6.264H246.502V12.264H252.406V6.264ZM243.502 9.264V11.808H249.502V9.264H243.502ZM246.502 14.808H249.046V8.808H246.502V14.808ZM246.2 10.8593C245.584 12.7092 244.999 14.483 244.495 15.7082L250.045 17.9878C250.646 16.525 251.309 14.5068 251.892 12.7567L246.2 10.8593ZM247.27 19.848H250.486V13.848H247.27V19.848ZM247.591 16.0628C247.232 17.3869 246.789 18.6619 246.339 19.5624L251.706 22.2456C252.407 20.8421 252.973 19.1411 253.382 17.6332L247.591 16.0628ZM247.77 18.178C246.306 18.8507 244.884 20.1404 243.731 21.5409L248.362 25.3551C249.225 24.3076 249.963 23.7733 250.275 23.63L247.77 18.178ZM243.591 25.1713L245.511 27.9073L250.422 24.4607L248.502 21.7247L243.591 25.1713ZM250.765 27.2642C250.998 26.6619 251.267 26.0747 251.494 25.6868C251.615 25.4802 251.657 25.4471 251.603 25.5048C251.575 25.5352 251.451 25.6662 251.227 25.8055C251.009 25.9403 250.534 26.184 249.862 26.184V20.184C248.366 20.184 247.44 21.1711 247.212 21.4159C246.834 21.8224 246.535 22.2828 246.317 22.6552C245.866 23.4253 245.463 24.3381 245.168 25.1038L250.765 27.2642ZM249.862 26.184C249.522 26.184 249.268 26.116 249.143 26.0757C249.012 26.0338 248.933 25.9934 248.921 25.9872C248.91 25.9818 248.964 26.0102 249.151 26.1364C249.237 26.1942 249.326 26.2553 249.44 26.3336C249.548 26.408 249.673 26.4937 249.806 26.5819C250.07 26.7576 250.391 26.963 250.749 27.1593L253.631 21.8967C253.288 21.7087 253.018 21.5074 252.506 21.1616C252.297 21.0208 251.988 20.8167 251.653 20.6456C251.381 20.5061 250.715 20.184 249.862 20.184V26.184ZM250.679 27.1193C253.141 28.5558 255.831 28.8 259.102 28.8V22.8C255.989 22.8 254.696 22.5162 253.702 21.9367L250.679 27.1193ZM259.102 28.8C261.987 28.8 266.25 28.629 268.283 28.5066L267.922 22.5174C265.971 22.635 261.834 22.8 259.102 22.8V28.8ZM271.097 25.6991C271.095 25.7191 271.1 25.6526 271.137 25.4791C271.172 25.32 271.223 25.1257 271.288 24.91C271.42 24.4686 271.578 24.0442 271.691 23.7865L266.194 21.3815C265.971 21.8918 265.732 22.5474 265.541 23.186C265.365 23.7736 265.155 24.5839 265.108 25.3249L271.097 25.6991ZM268.514 19.6147C266.029 19.9729 261.882 20.208 259.222 20.208V26.208C262.083 26.208 266.528 25.9631 269.37 25.5533L268.514 19.6147ZM259.222 20.208C256.3 20.208 254.912 20.0008 254.099 19.5109L251.001 24.6491C253.453 26.1272 256.529 26.208 259.222 26.208V20.208ZM254.054 19.4837C253.733 19.2981 253.512 19.1341 253.13 18.8694L249.715 23.8026C249.956 23.9699 250.456 24.3339 251.047 24.6763L254.054 19.4837ZM254.082 22.7237C255.084 20.803 255.88 18.5222 256.427 16.2559L250.594 14.8481C250.133 16.7578 249.489 18.557 248.763 19.9483L254.082 22.7237ZM253.51 18.552H258.718V12.552H253.51V18.552Z" fill="url(#paint0_linear)"/>
<defs>
<linearGradient id="paint0_linear" x1="136.5" y1="-4" x2="136.5" y2="32" gradientUnits="userSpaceOnUse">
<stop stop-color="#FF9580"/>
<stop offset="1" stop-color="#FF0D0D"/>
</linearGradient>
</defs>
</svg>
