<svg width="17" height="17" viewBox="0 0 17 17" fill="none" xmlns="http://www.w3.org/2000/svg">
<path fill-rule="evenodd" clip-rule="evenodd" d="M13.8065 11.6127C13.8065 11.6965 13.7741 11.7747 13.7132 11.8343C13.656 11.8939 13.576 11.9274 13.4884 11.9274H13.4846C13.3074 11.9256 13.1645 11.7896 13.1645 11.6183C13.1607 10.1378 11.5356 9.57546 11.0383 9.43952C11.0373 9.43952 11.0362 9.43927 11.0349 9.43887L11.0314 9.43759C11.0282 9.43639 11.0242 9.43491 11.0193 9.43394C10.8459 9.39111 10.482 9.30358 10.0362 9.20675C9.86664 9.35758 9.64183 9.44883 9.39416 9.44883H5.55525C5.54763 9.44883 5.53953 9.44837 5.53144 9.4479C5.52334 9.44744 5.51524 9.44697 5.50762 9.44697C5.6829 11.0857 6.80504 12.5159 8.413 13.0857L11.246 14.0895V12.2664C11.246 12.0932 11.3889 11.9535 11.566 11.9535C11.7432 11.9535 11.8861 12.0932 11.8861 12.2664V14.5345V15.7077C11.8861 15.8809 11.7432 16.0206 11.566 16.0206C11.3889 16.0206 11.246 15.8809 11.246 15.7077V14.7543L8.19581 13.6742C6.25254 12.9852 4.92655 11.1993 4.84653 9.19185C4.84653 9.18369 4.84608 9.17554 4.84562 9.16716L4.84561 9.16716L4.84561 9.16715C4.84513 9.15832 4.84462 9.14926 4.84462 9.13971L4.84081 9.13598H3.88061C3.70343 9.13598 3.56054 9.27565 3.56054 9.44883V9.50098V15.7077C3.56054 15.8809 3.41765 16.0206 3.24047 16.0206C3.06329 16.0206 2.92041 15.8809 2.92041 15.7077V9.77844C2.30504 10.1062 1.63061 10.6835 1.64014 11.6425V15.7077V15.7114C1.64014 15.8828 1.49534 16.0243 1.32007 16.0243C1.14479 16.0243 1 15.8828 1 15.7114V11.6425C1.00762 10.3222 1.96782 9.46746 3.02329 9.0317C3.18141 8.72443 3.50529 8.51214 3.88061 8.51214H4.59314V8.19929C4.59314 7.73188 4.9456 7.34268 5.40474 7.27191C4.76461 6.5829 4.36071 5.56986 4.36071 4.44322C4.36071 2.4488 5.63908 1 7.40136 1C9.16363 1 10.4439 2.44693 10.4439 4.44322C10.4439 5.56427 10.0438 6.57172 9.4094 7.26074C9.93332 7.26819 10.3563 7.68532 10.3563 8.19929V8.51214C10.3563 8.55311 10.3525 8.59408 10.3467 8.63505C10.8535 8.74678 11.2003 8.83617 11.206 8.83803C12.4462 9.16578 13.7799 10.0708 13.8065 11.6127ZM13.8065 14.1212V15.7115C13.8065 15.8828 13.6617 16.0244 13.4864 16.0244C13.3111 16.0244 13.1663 15.8828 13.1663 15.7115V14.1212C13.1663 13.9499 13.3111 13.8083 13.4864 13.8083C13.6617 13.8065 13.8065 13.948 13.8065 14.1212ZM9.71608 8.51231C9.71608 8.63149 9.64559 8.73577 9.54461 8.78791C9.5008 8.81026 9.44936 8.82516 9.39792 8.82516H7.40705H7.40134H5.55526C5.52859 8.82516 5.50382 8.82143 5.48096 8.81585C5.44095 8.80653 5.40285 8.78978 5.37046 8.76743C5.29045 8.71156 5.23901 8.62218 5.2352 8.52162V8.51231V8.47321V8.19947C5.2352 8.02629 5.37808 7.88663 5.55526 7.88663H6.18967C6.56117 8.08774 6.97268 8.19947 7.40324 8.19947C7.8338 8.19947 8.24531 8.08774 8.61681 7.88663H9.39601C9.57319 7.88663 9.71608 8.02629 9.71608 8.19947V8.503V8.51231ZM5.00085 4.44334C5.00085 5.67985 5.55525 6.75249 6.35541 7.26087C6.67166 7.46199 7.02602 7.57372 7.40133 7.57372C7.77665 7.57372 8.131 7.46199 8.44726 7.26087C9.24932 6.75249 9.80181 5.68172 9.80181 4.44334C9.80181 2.81205 8.79209 1.62582 7.40133 1.62582C6.01058 1.62768 5.00085 2.81205 5.00085 4.44334ZM13.1663 12.8675C13.1663 12.6963 13.3109 12.5549 13.486 12.5549C13.6611 12.5549 13.8057 12.6963 13.8057 12.8675C13.8057 13.0386 13.6611 13.18 13.486 13.18C13.3109 13.18 13.1663 13.0386 13.1663 12.8675ZM16.3611 4.19182L16.0468 5.72628V7.88644V8.51214C16.0468 8.91997 15.7781 9.26634 15.4066 9.39669V15.7114C15.4066 15.8846 15.2637 16.0243 15.0866 16.0243C14.9094 16.0243 14.7665 15.8846 14.7665 15.7114V9.39669C14.3931 9.2682 14.1264 8.91997 14.1264 8.51214V7.88644V5.72628L13.812 4.19182C13.8006 4.13782 13.8044 4.08381 13.8216 4.03167L14.7817 1.21415C14.8256 1.08566 14.9475 1 15.0847 1C15.2218 1 15.3457 1.08566 15.3876 1.21415L16.3478 4.03167C16.3687 4.08381 16.3725 4.13782 16.3611 4.19182ZM14.7666 8.19913H15.4061V8.51163C15.4061 8.68462 15.2634 8.82413 15.0864 8.82413C14.9094 8.82413 14.7666 8.68462 14.7666 8.51163V8.19913ZM15.4061 6.00918H14.7666V7.57168H15.4061V6.00918ZM15.0864 2.30344L15.717 4.15073L15.4636 5.38164H14.7073L14.4558 4.15073L15.0864 2.30344Z" fill="#4C4E54"/>
<path d="M13.7132 11.8343L13.6083 11.727L13.6049 11.7305L13.7132 11.8343ZM13.8065 11.6127H13.9565L13.9565 11.6101L13.8065 11.6127ZM13.4846 11.9274L13.483 12.0774H13.4846V11.9274ZM13.1645 11.6183H13.3145L13.3145 11.6179L13.1645 11.6183ZM11.0383 9.43952L11.0779 9.29483L11.0585 9.28952H11.0383V9.43952ZM11.0349 9.43887L10.9843 9.58018L10.9898 9.58191L11.0349 9.43887ZM11.0314 9.43759L10.9785 9.57799L10.9808 9.5788L11.0314 9.43759ZM11.0193 9.43394L10.9832 9.57973L10.9905 9.58115L11.0193 9.43394ZM10.0362 9.20675L10.068 9.06016L9.99349 9.04397L9.9365 9.09467L10.0362 9.20675ZM5.53144 9.4479L5.52283 9.59766H5.52283L5.53144 9.4479ZM5.50762 9.44697V9.29697H5.34072L5.35847 9.46292L5.50762 9.44697ZM8.413 13.0857L8.3629 13.2271L8.36291 13.2271L8.413 13.0857ZM11.246 14.0895L11.1959 14.2308L11.396 14.3017V14.0895H11.246ZM11.246 14.7543H11.396V14.6483L11.296 14.6129L11.246 14.7543ZM8.19581 13.6742L8.14568 13.8156L8.14574 13.8156L8.19581 13.6742ZM4.84653 9.19185H4.69641L4.69665 9.19782L4.84653 9.19185ZM4.84562 9.16716L4.99544 9.15888L4.9951 9.15471L4.84562 9.16716ZM4.84561 9.16715L4.69578 9.17544L4.69613 9.1796L4.84561 9.16715ZM4.84462 9.13971H4.99462V9.07657L4.94947 9.03244L4.84462 9.13971ZM4.84081 9.13598L4.94566 9.02871L4.90194 8.98598H4.84081V9.13598ZM2.92041 9.77844H3.07041V9.5286L2.84989 9.64605L2.92041 9.77844ZM1.64014 11.6425H1.79014L1.79013 11.641L1.64014 11.6425ZM1 11.6425L0.85 11.6416V11.6425H1ZM3.02329 9.0317L3.08053 9.17035L3.13145 9.14932L3.15666 9.10034L3.02329 9.0317ZM4.59314 8.51214V8.66214H4.74314V8.51214H4.59314ZM5.40474 7.27191L5.42759 7.42016L5.70719 7.37707L5.51464 7.16982L5.40474 7.27191ZM9.4094 7.26074L9.29905 7.15914L9.07179 7.40596L9.40727 7.41073L9.4094 7.26074ZM10.3467 8.63505L10.1982 8.61432L10.179 8.75167L10.3144 8.78153L10.3467 8.63505ZM11.206 8.83803L11.1594 8.98088L11.1676 8.98305L11.206 8.83803ZM13.4864 13.8083V13.9584L13.488 13.9583L13.4864 13.8083ZM9.54461 8.78791L9.61276 8.92154L9.61344 8.92119L9.54461 8.78791ZM5.48096 8.81585L5.51657 8.67012L5.51496 8.66975L5.48096 8.81585ZM5.37046 8.76743L5.28459 8.89042L5.28528 8.89089L5.37046 8.76743ZM5.2352 8.52162H5.08509L5.0853 8.5273L5.2352 8.52162ZM6.18967 7.88663L6.26108 7.75472L6.22767 7.73663H6.18967V7.88663ZM8.61681 7.88663V7.73663H8.57882L8.5454 7.75472L8.61681 7.88663ZM6.35541 7.26087L6.4359 7.1343L6.43585 7.13426L6.35541 7.26087ZM8.44726 7.26087L8.36695 7.13418L8.36676 7.1343L8.44726 7.26087ZM7.40133 1.62582V1.47582L7.40113 1.47582L7.40133 1.62582ZM16.0468 5.72628L15.8998 5.69618L15.8968 5.71108V5.72628H16.0468ZM16.3611 4.19182L16.2144 4.16076L16.2142 4.16172L16.3611 4.19182ZM15.4066 9.39669L15.357 9.25515L15.2566 9.29036V9.39669H15.4066ZM14.7665 9.39669H14.9165V9.28967L14.8153 9.25485L14.7665 9.39669ZM14.1264 5.72628H14.2764V5.71108L14.2733 5.69618L14.1264 5.72628ZM13.812 4.19182L13.959 4.16172L13.9588 4.16076L13.812 4.19182ZM13.8216 4.03167L13.6796 3.98328L13.6791 3.98482L13.8216 4.03167ZM14.7817 1.21415L14.6398 1.16574L14.6398 1.16577L14.7817 1.21415ZM15.3876 1.21415L15.245 1.26067L15.2456 1.26254L15.3876 1.21415ZM16.3478 4.03167L16.2056 4.08013L16.2086 4.08761L16.3478 4.03167ZM15.4061 8.19913H15.5561V8.04913H15.4061V8.19913ZM14.7666 8.19913V8.04913H14.6166V8.19913H14.7666ZM14.7666 6.00918V5.85918H14.6166V6.00918H14.7666ZM15.4061 6.00918H15.5561V5.85918H15.4061V6.00918ZM14.7666 7.57168H14.6166V7.72168H14.7666V7.57168ZM15.4061 7.57168V7.72168H15.5561V7.57168H15.4061ZM15.717 4.15073L15.8639 4.18097L15.8722 4.14095L15.859 4.10227L15.717 4.15073ZM15.0864 2.30344L15.2284 2.25498L15.0864 1.83912L14.9444 2.25498L15.0864 2.30344ZM15.4636 5.38164V5.53164H15.5859L15.6105 5.41188L15.4636 5.38164ZM14.7073 5.38164L14.5603 5.41166L14.5848 5.53164H14.7073V5.38164ZM14.4558 4.15073L14.3139 4.10227L14.3007 4.14083L14.3089 4.18075L14.4558 4.15073ZM13.818 11.9416C13.9081 11.8536 13.9565 11.7366 13.9565 11.6127H13.6565C13.6565 11.6564 13.6402 11.6959 13.6083 11.7271L13.818 11.9416ZM13.4884 12.0774C13.6148 12.0774 13.7346 12.0287 13.8214 11.9382L13.6049 11.7305C13.5774 11.7591 13.5372 11.7774 13.4884 11.7774V12.0774ZM13.4846 12.0774H13.4884V11.7774H13.4846V12.0774ZM13.0145 11.6183C13.0145 11.8788 13.2307 12.0748 13.483 12.0774L13.4861 11.7774C13.3841 11.7764 13.3145 11.7005 13.3145 11.6183H13.0145ZM10.9988 9.58421C11.2397 9.65009 11.7503 9.81872 12.1979 10.1458C12.6433 10.4713 13.0127 10.9422 13.0145 11.6187L13.3145 11.6179C13.3124 10.814 12.8674 10.2634 12.3749 9.90361C11.8848 9.54543 11.3341 9.36489 11.0779 9.29483L10.9988 9.58421ZM10.9898 9.58191C10.9956 9.58374 11.0141 9.58952 11.0383 9.58952V9.28952C11.0503 9.28952 11.06 9.29101 11.0663 9.29229C11.0727 9.29357 11.0776 9.29502 11.0801 9.29583L10.9898 9.58191ZM10.9808 9.5788L10.9844 9.58008L11.0855 9.29765L11.0819 9.29637L10.9808 9.5788ZM10.9905 9.58115C10.982 9.57949 10.9757 9.57689 10.9785 9.57797L11.0842 9.2972C11.0807 9.29589 11.0665 9.29033 11.048 9.28672L10.9905 9.58115ZM10.0044 9.35333C10.4485 9.4498 10.811 9.53699 10.9833 9.57956L11.0552 9.28831C10.8808 9.24522 10.5155 9.15736 10.068 9.06016L10.0044 9.35333ZM9.39416 9.59883C9.67935 9.59883 9.93945 9.49358 10.1359 9.31882L9.9365 9.09467C9.79383 9.22159 9.60431 9.29883 9.39416 9.29883V9.59883ZM5.55525 9.59883H9.39416V9.29883H5.55525V9.59883ZM5.52283 9.59766C5.53001 9.59807 5.54254 9.59883 5.55525 9.59883V9.29883C5.55272 9.29883 5.54906 9.29867 5.54004 9.29815L5.52283 9.59766ZM5.50762 9.59697C5.51015 9.59697 5.51381 9.59714 5.52283 9.59766L5.54004 9.29815C5.53286 9.29774 5.52033 9.29697 5.50762 9.29697V9.59697ZM8.4631 12.9443C6.90886 12.3935 5.82583 11.0117 5.65677 9.43102L5.35847 9.46292C5.53996 11.1598 6.70122 12.6382 8.3629 13.2271L8.4631 12.9443ZM11.2961 13.9481L8.46309 12.9443L8.36291 13.2271L11.1959 14.2308L11.2961 13.9481ZM11.096 12.2664V14.0895H11.396V12.2664H11.096ZM11.566 11.8035C11.3093 11.8035 11.096 12.0071 11.096 12.2664H11.396C11.396 12.1792 11.4685 12.1035 11.566 12.1035V11.8035ZM12.0361 12.2664C12.0361 12.0071 11.8228 11.8035 11.566 11.8035V12.1035C11.6636 12.1035 11.7361 12.1792 11.7361 12.2664H12.0361ZM12.0361 14.5345V12.2664H11.7361V14.5345H12.0361ZM12.0361 15.7077V14.5345H11.7361V15.7077H12.0361ZM11.566 16.1706C11.8228 16.1706 12.0361 15.9669 12.0361 15.7077H11.7361C11.7361 15.7948 11.6636 15.8706 11.566 15.8706V16.1706ZM11.096 15.7077C11.096 15.9669 11.3093 16.1706 11.566 16.1706V15.8706C11.4685 15.8706 11.396 15.7948 11.396 15.7077H11.096ZM11.096 14.7543V15.7077H11.396V14.7543H11.096ZM8.14574 13.8156L11.1959 14.8957L11.296 14.6129L8.24588 13.5328L8.14574 13.8156ZM4.69665 9.19782C4.77916 11.268 6.14596 13.1065 8.14568 13.8156L8.24594 13.5328C6.35912 12.8638 5.07393 11.1306 4.99641 9.18587L4.69665 9.19782ZM4.69584 9.17545C4.69635 9.18454 4.69653 9.18854 4.69653 9.19185H4.99653C4.99653 9.17885 4.99581 9.16653 4.99539 9.15888L4.69584 9.17545ZM4.69613 9.17961L4.69613 9.17962L4.9951 9.15471L4.9951 9.1547L4.69613 9.17961ZM4.69613 9.1796L4.69613 9.17961L4.9951 9.1547L4.9951 9.15469L4.69613 9.1796ZM4.69462 9.13971C4.69462 9.15403 4.69538 9.16711 4.69584 9.17544L4.99538 9.15886C4.99487 9.14953 4.99462 9.14449 4.99462 9.13971H4.69462ZM4.73597 9.24325L4.73978 9.24698L4.94947 9.03244L4.94566 9.02871L4.73597 9.24325ZM3.88061 9.28598H4.84081V8.98598H3.88061V9.28598ZM3.71054 9.44883C3.71054 9.3617 3.78303 9.28598 3.88061 9.28598V8.98598C3.62383 8.98598 3.41054 9.1896 3.41054 9.44883H3.71054ZM3.71054 9.50098V9.44883H3.41054V9.50098H3.71054ZM3.71054 15.7077V9.50098H3.41054V15.7077H3.71054ZM3.24047 16.1706C3.49725 16.1706 3.71054 15.9669 3.71054 15.7077H3.41054C3.41054 15.7948 3.33806 15.8706 3.24047 15.8706V16.1706ZM2.77041 15.7077C2.77041 15.9669 2.98369 16.1706 3.24047 16.1706V15.8706C3.14289 15.8706 3.07041 15.7948 3.07041 15.7077H2.77041ZM2.77041 9.77844V15.7077H3.07041V9.77844H2.77041ZM1.79013 11.641C1.78144 10.7667 2.39295 10.2293 2.99092 9.91084L2.84989 9.64605C2.21713 9.98307 1.47978 10.6002 1.49014 11.644L1.79013 11.641ZM1.79014 15.7077V11.6425H1.49014V15.7077H1.79014ZM1.79014 15.7114V15.7077H1.49014V15.7114H1.79014ZM1.32007 16.1743C1.57494 16.1743 1.79014 15.9688 1.79014 15.7114H1.49014C1.49014 15.7967 1.41574 15.8743 1.32007 15.8743V16.1743ZM0.85 15.7114C0.85 15.9688 1.06519 16.1743 1.32007 16.1743V15.8743C1.22439 15.8743 1.15 15.7967 1.15 15.7114H0.85ZM0.85 11.6425V15.7114H1.15V11.6425H0.85ZM2.96604 8.89305C1.88326 9.34009 0.858121 10.2351 0.850002 11.6416L1.15 11.6434C1.15712 10.4093 2.05238 9.59483 3.08053 9.17035L2.96604 8.89305ZM3.88061 8.36214C3.44749 8.36214 3.073 8.60729 2.88991 8.96306L3.15666 9.10034C3.28983 8.84158 3.5631 8.66214 3.88061 8.66214V8.36214ZM4.59314 8.36214H3.88061V8.66214H4.59314V8.36214ZM4.44314 8.19929V8.51214H4.74314V8.19929H4.44314ZM5.38189 7.12366C4.85355 7.20509 4.44314 7.65393 4.44314 8.19929H4.74314C4.74314 7.80983 5.03765 7.48026 5.42759 7.42016L5.38189 7.12366ZM4.21071 4.44322C4.21071 5.60469 4.62694 6.6551 5.29485 7.37401L5.51464 7.16982C4.90227 6.5107 4.51071 5.53502 4.51071 4.44322H4.21071ZM7.40136 0.85C5.53922 0.85 4.21071 2.38406 4.21071 4.44322H4.51071C4.51071 2.51353 5.73894 1.15 7.40136 1.15V0.85ZM10.5939 4.44322C10.5939 2.38201 9.26333 0.85 7.40136 0.85V1.15C9.06394 1.15 10.2939 2.51186 10.2939 4.44322H10.5939ZM9.51975 7.36234C10.1816 6.64358 10.5939 5.59902 10.5939 4.44322H10.2939C10.2939 5.52952 9.90608 6.49987 9.29905 7.15914L9.51975 7.36234ZM10.5063 8.19929C10.5063 7.59988 10.014 7.11932 9.41153 7.11076L9.40727 7.41073C9.85266 7.41706 10.2063 7.77076 10.2063 8.19929H10.5063ZM10.5063 8.51214V8.19929H10.2063V8.51214H10.5063ZM10.4953 8.65577C10.5016 8.6105 10.5063 8.56222 10.5063 8.51214H10.2063C10.2063 8.544 10.2033 8.57766 10.1982 8.61432L10.4953 8.65577ZM11.2524 8.69541C11.2382 8.69078 10.8835 8.59979 10.379 8.48857L10.3144 8.78153C10.8235 8.89377 11.1623 8.98155 11.1595 8.98065L11.2524 8.69541ZM13.9565 11.6101C13.9281 9.96658 12.5085 9.02708 11.2443 8.69301L11.1676 8.98305C12.384 9.30448 13.6316 10.175 13.6565 11.6153L13.9565 11.6101ZM13.9565 15.7115V14.1212H13.6565V15.7115H13.9565ZM13.4864 16.1744C13.7413 16.1744 13.9565 15.9689 13.9565 15.7115H13.6565C13.6565 15.7968 13.5821 15.8744 13.4864 15.8744V16.1744ZM13.0163 15.7115C13.0163 15.9689 13.2315 16.1744 13.4864 16.1744V15.8744C13.3907 15.8744 13.3163 15.7968 13.3163 15.7115H13.0163ZM13.0163 14.1212V15.7115H13.3163V14.1212H13.0163ZM13.4864 13.6583C13.2315 13.6583 13.0163 13.8638 13.0163 14.1212H13.3163C13.3163 14.0359 13.3907 13.9583 13.4864 13.9583V13.6583ZM13.9565 14.1212C13.9565 13.8628 13.7418 13.6556 13.4848 13.6583L13.488 13.9583C13.5815 13.9573 13.6565 14.0332 13.6565 14.1212H13.9565ZM9.61344 8.92119C9.76003 8.8455 9.86608 8.69222 9.86608 8.51231H9.56608C9.56608 8.57076 9.53115 8.62605 9.47579 8.65463L9.61344 8.92119ZM9.39792 8.97516C9.47728 8.97516 9.55196 8.95255 9.61276 8.92154L9.47647 8.65429C9.44963 8.66797 9.42144 8.67516 9.39792 8.67516V8.97516ZM7.40705 8.97516H9.39792V8.67516H7.40705V8.97516ZM7.40134 8.97516H7.40705V8.67516H7.40134V8.97516ZM5.55526 8.97516H7.40134V8.67516H5.55526V8.97516ZM5.44535 8.96156C5.47762 8.96944 5.51448 8.97516 5.55526 8.97516V8.67516C5.5427 8.67516 5.53002 8.67342 5.51657 8.67013L5.44535 8.96156ZM5.28528 8.89089C5.33365 8.92427 5.38922 8.9485 5.44696 8.96194L5.51496 8.66975C5.49269 8.66457 5.47205 8.65528 5.45565 8.64397L5.28528 8.89089ZM5.0853 8.5273C5.09097 8.67674 5.16763 8.80876 5.28459 8.89042L5.45633 8.64444C5.41327 8.61437 5.38705 8.56762 5.38509 8.51594L5.0853 8.5273ZM5.0852 8.51231V8.52162H5.3852V8.51231H5.0852ZM5.0852 8.47321V8.51231H5.3852V8.47321H5.0852ZM5.0852 8.19947V8.47321H5.3852V8.19947H5.0852ZM5.55526 7.73663C5.29848 7.73663 5.0852 7.94024 5.0852 8.19947H5.3852C5.3852 8.11234 5.45768 8.03663 5.55526 8.03663V7.73663ZM6.18967 7.73663H5.55526V8.03663H6.18967V7.73663ZM7.40324 8.04947C6.99913 8.04947 6.61203 7.9447 6.26108 7.75472L6.11826 8.01854C6.51032 8.23078 6.94623 8.34947 7.40324 8.34947V8.04947ZM8.5454 7.75472C8.19446 7.9447 7.80735 8.04947 7.40324 8.04947V8.34947C7.86026 8.34947 8.29617 8.23078 8.68822 8.01854L8.5454 7.75472ZM9.39601 7.73663H8.61681V8.03663H9.39601V7.73663ZM9.86608 8.19947C9.86608 7.94024 9.65279 7.73663 9.39601 7.73663V8.03663C9.49359 8.03663 9.56608 8.11234 9.56608 8.19947H9.86608ZM9.86608 8.503V8.19947H9.56608V8.503H9.86608ZM9.86608 8.51231V8.503H9.56608V8.51231H9.86608ZM6.43585 7.13426C5.68753 6.65882 5.15085 5.63951 5.15085 4.44334H4.85085C4.85085 5.72019 5.42297 6.84616 6.27497 7.38748L6.43585 7.13426ZM7.40133 7.42372C7.05682 7.42372 6.7301 7.32139 6.4359 7.1343L6.27492 7.38745C6.61322 7.60259 6.99522 7.72372 7.40133 7.72372V7.42372ZM8.36676 7.1343C8.07257 7.32139 7.74585 7.42372 7.40133 7.42372V7.72372C7.80744 7.72372 8.18944 7.60259 8.52775 7.38745L8.36676 7.1343ZM9.65181 4.44334C9.65181 5.6415 9.11696 6.65879 8.36695 7.13418L8.52756 7.38757C9.38169 6.84618 9.95181 5.72193 9.95181 4.44334H9.65181ZM7.40133 1.77582C8.68758 1.77582 9.65181 2.87141 9.65181 4.44334H9.95181C9.95181 2.75268 8.8966 1.47582 7.40133 1.47582V1.77582ZM5.15085 4.44334C5.15085 2.87162 6.11496 1.77754 7.40153 1.77582L7.40113 1.47582C5.90619 1.47782 4.85085 2.75247 4.85085 4.44334H5.15085ZM13.486 12.4049C13.2313 12.4049 13.0163 12.6103 13.0163 12.8675H13.3163C13.3163 12.7823 13.3905 12.7049 13.486 12.7049V12.4049ZM13.9557 12.8675C13.9557 12.6103 13.7407 12.4049 13.486 12.4049V12.7049C13.5814 12.7049 13.6557 12.7823 13.6557 12.8675H13.9557ZM13.486 13.33C13.7407 13.33 13.9557 13.1246 13.9557 12.8675H13.6557C13.6557 12.9526 13.5814 13.03 13.486 13.03V13.33ZM13.0163 12.8675C13.0163 13.1246 13.2313 13.33 13.486 13.33V13.03C13.3905 13.03 13.3163 12.9526 13.3163 12.8675H13.0163ZM16.1937 5.75639L16.5081 4.22193L16.2142 4.16172L15.8998 5.69618L16.1937 5.75639ZM16.1968 7.88644V5.72628H15.8968V7.88644H16.1968ZM16.1968 8.51214V7.88644H15.8968V8.51214H16.1968ZM15.4563 9.53823C15.8834 9.38837 16.1968 8.98833 16.1968 8.51214H15.8968C15.8968 8.85161 15.6729 9.1443 15.357 9.25515L15.4563 9.53823ZM15.5566 15.7114V9.39669H15.2566V15.7114H15.5566ZM15.0866 16.1743C15.3433 16.1743 15.5566 15.9707 15.5566 15.7114H15.2566C15.2566 15.7986 15.1841 15.8743 15.0866 15.8743V16.1743ZM14.6165 15.7114C14.6165 15.9707 14.8298 16.1743 15.0866 16.1743V15.8743C14.989 15.8743 14.9165 15.7986 14.9165 15.7114H14.6165ZM14.6165 9.39669V15.7114H14.9165V9.39669H14.6165ZM13.9764 8.51214C13.9764 8.98753 14.2872 9.39038 14.7177 9.53853L14.8153 9.25485C14.499 9.14602 14.2764 8.8524 14.2764 8.51214H13.9764ZM13.9764 7.88644V8.51214H14.2764V7.88644H13.9764ZM13.9764 5.72628V7.88644H14.2764V5.72628H13.9764ZM13.6651 4.22193L13.9794 5.75639L14.2733 5.69618L13.959 4.16172L13.6651 4.22193ZM13.6791 3.98482C13.6542 4.06058 13.6481 4.14146 13.6653 4.22288L13.9588 4.16076C13.9532 4.13418 13.9547 4.10705 13.9641 4.07853L13.6791 3.98482ZM14.6398 1.16577L13.6796 3.98329L13.9635 4.08006L14.9237 1.26254L14.6398 1.16577ZM15.0847 0.85C14.8849 0.85 14.7048 0.974986 14.6398 1.16574L14.9237 1.26257C14.9463 1.19634 15.0101 1.15 15.0847 1.15V0.85ZM15.5302 1.16764C15.467 0.973868 15.2829 0.85 15.0847 0.85V1.15C15.1607 1.15 15.2244 1.19746 15.245 1.26067L15.5302 1.16764ZM16.4898 3.98329L15.5296 1.16577L15.2456 1.26254L16.2058 4.08006L16.4898 3.98329ZM16.5079 4.22288C16.5251 4.1412 16.5195 4.0568 16.4869 3.97574L16.2086 4.08761C16.2179 4.11083 16.2199 4.13444 16.2144 4.16076L16.5079 4.22288ZM15.4061 8.04913H14.7666V8.34913H15.4061V8.04913ZM15.5561 8.51163V8.19913H15.2561V8.51163H15.5561ZM15.0864 8.97413C15.3429 8.97413 15.5561 8.77068 15.5561 8.51163H15.2561C15.2561 8.59857 15.1838 8.67413 15.0864 8.67413V8.97413ZM14.6166 8.51163C14.6166 8.77068 14.8298 8.97413 15.0864 8.97413V8.67413C14.989 8.67413 14.9166 8.59857 14.9166 8.51163H14.6166ZM14.6166 8.19913V8.51163H14.9166V8.19913H14.6166ZM14.7666 6.15918H15.4061V5.85918H14.7666V6.15918ZM14.9166 7.57168V6.00918H14.6166V7.57168H14.9166ZM15.4061 7.42168H14.7666V7.72168H15.4061V7.42168ZM15.2561 6.00918V7.57168H15.5561V6.00918H15.2561ZM15.859 4.10227L15.2284 2.25498L14.9444 2.3519L15.575 4.19919L15.859 4.10227ZM15.6105 5.41188L15.8639 4.18097L15.5701 4.12049L15.3167 5.35139L15.6105 5.41188ZM14.7073 5.53164H15.4636V5.23164H14.7073V5.53164ZM14.3089 4.18075L14.5603 5.41166L14.8543 5.35161L14.6028 4.1207L14.3089 4.18075ZM14.9444 2.25498L14.3139 4.10227L14.5978 4.19919L15.2284 2.3519L14.9444 2.25498Z" fill="#4C4E54"/>
</svg>
