<svg width="20" height="20" viewBox="0 0 20 20" fill="none" xmlns="http://www.w3.org/2000/svg">
<path fill-rule="evenodd" clip-rule="evenodd" d="M16.205 2.50002C16.3831 2.49858 16.5486 2.59206 16.6393 2.74541L18.1674 5.32833C18.2131 5.40542 18.2371 5.49335 18.2371 5.58292V17C18.2371 17.2762 18.0133 17.5 17.7371 17.5H14.7367C14.4606 17.5 14.2367 17.2762 14.2367 17V16.185H13.4003V15.185H14.7367C15.0129 15.185 15.2367 15.4089 15.2367 15.685V16.5H17.2371V5.71975L16.217 3.99556L15.2367 5.71542V6.85757C15.2367 7.13372 15.0129 7.35757 14.7367 7.35757H13.3997V6.35757H14.2367V5.58292C14.2367 5.49609 14.2593 5.41076 14.3023 5.33532L15.7746 2.7524C15.8628 2.5976 16.0268 2.50146 16.205 2.50002Z" fill="#394553"/>
<path fill-rule="evenodd" clip-rule="evenodd" d="M14.3023 10.1905H13.4003V9.19046H15.3023V13.491H13.4003V12.491H14.3023V10.1905Z" fill="#394553"/>
<path fill-rule="evenodd" clip-rule="evenodd" d="M10.6365 2.50002C10.8146 2.49858 10.9801 2.59206 11.0708 2.74541L12.599 5.32833C12.6446 5.40542 12.6686 5.49335 12.6686 5.58292V17C12.6686 17.2762 12.4448 17.5 12.1686 17.5H9.16824C8.8921 17.5 8.66824 17.2762 8.66824 17V16.185H7.83151V15.185H9.16824C9.44438 15.185 9.66824 15.4089 9.66824 15.685V16.5H11.6686V5.71975L10.6486 3.99556L9.66824 5.71542V6.85757C9.66824 7.13372 9.44438 7.35757 9.16824 7.35757H7.83124V6.35757H8.66824V5.58292C8.66824 5.49609 8.69085 5.41076 8.73385 5.33532L10.2061 2.7524C10.2944 2.5976 10.4583 2.50146 10.6365 2.50002Z" fill="#394553"/>
<path fill-rule="evenodd" clip-rule="evenodd" d="M8.73361 10.1905H7.83154V9.19046H9.73361V13.491H7.83154V12.491H8.73361V10.1905Z" fill="#394553"/>
<path fill-rule="evenodd" clip-rule="evenodd" d="M5.06778 2.50002C5.24596 2.49856 5.41146 2.59205 5.50219 2.74541L7.03031 5.32833C7.07592 5.40542 7.09998 5.49335 7.09998 5.58292V17C7.09998 17.2762 6.87612 17.5 6.59998 17.5H3.60013C3.32398 17.5 3.10013 17.2762 3.10013 17V16.185H2.26312V15.185H3.60013C3.87627 15.185 4.10013 15.4089 4.10013 15.685V16.5H6.09998V5.71975L5.07999 3.9957L4.10013 5.71537V6.85757C4.10013 7.13372 3.87627 7.35757 3.60013 7.35757H2.26312V6.35757H3.10013V5.58292C3.10013 5.49612 3.12272 5.41081 3.1657 5.33539L4.63743 2.75247C4.72565 2.59764 4.88959 2.50147 5.06778 2.50002Z" fill="#394553"/>
<path fill-rule="evenodd" clip-rule="evenodd" d="M3.16519 10.0677H2.26312V9.06766H4.16519V13.491H2.26312V12.491H3.16519V10.0677Z" fill="#394553"/>
<path d="M4.5 15C4.77614 15 5 14.7761 5 14.5C5 14.2239 4.77614 14 4.5 14C4.22386 14 4 14.2239 4 14.5C4 14.7761 4.22386 15 4.5 15Z" fill="#394553"/>
<path d="M4.5 9C4.77614 9 5 8.77614 5 8.5C5 8.22386 4.77614 8 4.5 8C4.22386 8 4 8.22386 4 8.5C4 8.77614 4.22386 9 4.5 9Z" fill="#394553"/>
<path d="M10.5 15C10.7761 15 11 14.7761 11 14.5C11 14.2239 10.7761 14 10.5 14C10.2239 14 10 14.2239 10 14.5C10 14.7761 10.2239 15 10.5 15Z" fill="#394553"/>
<path d="M10.5 9C10.7761 9 11 8.77614 11 8.5C11 8.22386 10.7761 8 10.5 8C10.2239 8 10 8.22386 10 8.5C10 8.77614 10.2239 9 10.5 9Z" fill="#394553"/>
<path d="M16.5 15C16.7761 15 17 14.7761 17 14.5C17 14.2239 16.7761 14 16.5 14C16.2239 14 16 14.2239 16 14.5C16 14.7761 16.2239 15 16.5 15Z" fill="#394553"/>
<path d="M16.5 9C16.7761 9 17 8.77614 17 8.5C17 8.22386 16.7761 8 16.5 8C16.2239 8 16 8.22386 16 8.5C16 8.77614 16.2239 9 16.5 9Z" fill="#394553"/>
</svg>
