<svg width="11" height="11" viewBox="0 0 11 11" fill="none" xmlns="http://www.w3.org/2000/svg">
<g clip-path="url(#clip0)">
<path d="M4.32169 2.63413C4.32169 2.63413 4.33066 2.62542 4.33964 2.62107L4.73894 2.38599C4.7524 2.38164 4.74791 2.37728 4.73894 2.37728L4.68959 2.37293C4.67613 2.37293 4.66267 2.36422 4.6537 2.35552L3.50963 1.10611C3.39746 0.984212 3.20005 0.966799 3.06994 1.07563L2.85459 1.25412C2.6841 1.39343 2.70205 1.65463 2.89048 1.77217L4.29926 2.62978C4.31272 2.62978 4.32169 2.63413 4.32169 2.63413Z" fill="white"/>
<path d="M7.77628 6.7523C7.7673 6.7523 7.74936 6.74795 7.7359 6.74795L7.4353 6.60864C7.42633 6.59993 7.41287 6.58687 7.40389 6.57817L7.38146 6.54769C7.37249 6.53899 7.368 6.53899 7.37249 6.55205L7.39043 6.74359C7.39043 6.75665 7.39941 6.77407 7.40389 6.78277L7.95574 7.68391C7.96023 7.69262 7.97369 7.69698 7.98715 7.69262L8.25185 7.54026C8.26083 7.5359 8.26531 7.52284 8.26083 7.50978L7.80768 6.77407C7.8032 6.76536 7.79422 6.75665 7.79422 6.75665C7.77628 6.7523 7.77628 6.7523 7.77628 6.7523Z" fill="white"/>
<path d="M6.56951 0.622552C6.79384 0.801039 6.93292 1.35827 6.93292 1.35827C6.93741 1.37133 6.93741 1.38874 6.93741 1.4018C6.93741 1.4018 6.92395 1.57158 6.89703 1.65865C6.85665 1.78925 5.94588 2.35083 5.94588 2.35083C5.9369 2.35518 5.91896 2.35518 5.90999 2.35083C5.90999 2.35083 4.9723 1.73265 4.94089 1.5977C4.92743 1.52805 4.91846 1.40615 4.91846 1.40615C4.91846 1.39309 4.91846 1.37568 4.92294 1.36262C4.92294 1.36262 5.08895 0.753152 5.35365 0.579018C5.38955 0.548545 6.47978 0.552898 6.56951 0.622552Z" fill="white"/>
<path d="M5.45239 0.422274C5.46137 0.422274 6.06705 0.387448 6.44841 0.435334L5.95937 0L5.45239 0.422274Z" fill="white"/>
<path d="M7.16616 5.71195C7.16616 5.69889 7.16168 5.69019 7.16168 5.69454C7.16168 5.69889 7.1527 5.69019 7.14373 5.68148L4.5864 2.62543C4.57742 2.61673 4.56396 2.61237 4.55499 2.62108L4.42937 2.71685C4.42039 2.72556 4.40693 2.73862 4.40245 2.75168L3.70703 6.27789C3.70703 6.29095 3.71152 6.30836 3.716 6.31707C3.716 6.31707 3.87752 6.62615 4.06596 6.62615C4.07493 6.62615 4.07493 6.62615 4.07493 6.62615C4.0839 6.62615 4.09736 6.6218 4.11082 6.61745L4.42039 6.27789C4.42488 6.26483 4.42937 6.24741 4.42937 6.23435L4.70753 3.52657C4.71202 3.51351 4.71202 3.51351 4.71202 3.52657V5.40722C4.71202 5.42028 4.71202 5.43769 4.71202 5.45075L4.33515 9.96082C4.33515 9.97388 4.33515 9.99129 4.33963 10.0043L4.8197 10.5529C4.82867 10.5572 4.8511 10.5616 4.86007 10.5572L5.42538 10.0914C5.42987 10.0827 5.43884 10.0609 5.43884 10.0522L5.76636 6.12987C5.76636 6.11681 5.77982 6.10811 5.78879 6.10811H6.05798C6.07144 6.10811 6.08042 6.11681 6.08042 6.12987L6.40794 10.0522C6.40794 10.0653 6.41691 10.0784 6.42588 10.0871L6.9867 10.5572C7.00016 10.5616 7.01811 10.5616 7.02708 10.5529L7.50265 10C7.51163 9.99129 7.51611 9.97388 7.51611 9.96082L7.16616 5.71195Z" fill="white"/>
<path d="M5.06198 2.45557C5.06198 2.45557 5.05749 2.45557 5.05301 2.45557C5.04852 2.45557 5.02609 2.45557 5.01712 2.45992L4.7569 2.51651C4.74344 2.52087 4.74344 2.52957 4.74792 2.53828L7.1258 5.38537C7.13477 5.39407 7.13926 5.39407 7.13926 5.38101V3.52649C7.13926 3.51343 7.14374 3.51343 7.14374 3.52649L7.42191 6.23427C7.42191 6.24733 7.42639 6.26474 7.43088 6.2778L7.74045 6.61736C7.74943 6.62172 7.76737 6.62607 7.77635 6.62607C7.77635 6.62607 7.77635 6.62607 7.78532 6.62607C7.97375 6.62607 8.13527 6.31698 8.13527 6.31698C8.13976 6.30828 8.14424 6.28651 8.14424 6.2778L7.44883 2.74724C7.44434 2.73418 7.43088 2.72112 7.42191 2.71677L6.83866 2.45992C6.8252 2.45992 6.81174 2.45557 6.80725 2.45557C6.80276 2.45557 6.78482 2.45557 6.77136 2.45557L5.95032 3.04762L5.08441 2.45557C5.07095 2.45557 5.06198 2.45557 5.06198 2.45557Z" fill="white"/>
</g>
<defs>
<clipPath id="clip0">
<rect width="11" height="11" fill="white"/>
</clipPath>
</defs>
</svg>
