<svg width="20" height="20" viewBox="0 0 20 20" fill="none" xmlns="http://www.w3.org/2000/svg">
<path fill-rule="evenodd" clip-rule="evenodd" d="M8.85915 1C4.51866 1 1 4.51866 1 8.85916C1 13.1996 4.51866 16.7183 8.85915 16.7183C10.6769 16.7183 12.3504 16.1012 13.6818 15.0651C13.7257 15.1422 13.7806 15.2147 13.8463 15.2804L17.2688 18.703C17.6649 19.099 18.307 19.099 18.703 18.703C19.099 18.307 19.099 17.6649 18.703 17.2688L15.2804 13.8463C15.2147 13.7806 15.1422 13.7257 15.0651 13.6818C16.1012 12.3504 16.7183 10.6769 16.7183 8.85916C16.7183 4.51866 13.1996 1 8.85915 1ZM3.02817 8.85916C3.02817 5.63879 5.63879 3.02817 8.85915 3.02817C12.0795 3.02817 14.6901 5.63879 14.6901 8.85916C14.6901 12.0795 12.0795 14.6901 8.85915 14.6901C5.63879 14.6901 3.02817 12.0795 3.02817 8.85916Z" fill="white"/>
</svg>
