<svg width="44" height="44" viewBox="0 0 44 44" fill="none" xmlns="http://www.w3.org/2000/svg">
<path opacity="0.1" d="M42.819 4.73108L40.516 4.90461L34.6796 9.14801V9.16378C32.3608 7.20772 29.1586 5.81954 25.5306 5.36207L23.196 3.13784L20.8141 5.2832C17.0283 5.64602 13.7 7.01842 11.3496 9.02181L5.70247 4.92038L3.38367 4.73108L7.54804 23.1244C7.51649 23.1086 7.48495 23.1086 7.4534 23.0929C7.4534 23.0929 7.86352 28.3774 8.05281 30.1284C8.05281 30.1284 26.272 34.3087 38.4181 29.6867C38.4181 29.6867 38.5127 24.6072 38.8913 23.2979C38.9071 23.2822 38.9228 23.2822 38.9228 23.2822L42.819 4.73108Z" fill="black"/>
<path d="M36.3257 16.3957C36.2153 10.212 29.2905 5.16405 20.804 5.08517C12.3175 5.0063 5.48727 9.94379 5.4715 16.1275L36.3257 16.3957Z" fill="#FE3D86"/>
<path d="M1.18079 4.6277L3.48381 4.80123L9.32025 9.04463L9.49376 13.1145C9.49376 13.1145 12.3173 15.2441 14.084 12.7675L14.6204 14.7078L10.2036 18.4148L8.26338 17.5314L1.18079 4.6277Z" fill="#F39318"/>
<path d="M40.6161 4.6277L38.3131 4.80123L32.4766 9.04463L32.3031 13.1145C32.3031 13.1145 29.4795 15.2441 27.7128 12.7675L27.1765 14.7078L31.5933 18.4148L33.5335 17.5314L40.6161 4.6277Z" fill="#F39318"/>
<path d="M1.18079 4.62773L8.2476 9.581V12.4047C8.2476 12.4047 8.78393 14.5343 11.2605 14.5343C13.737 14.5343 14.084 12.594 14.084 12.594V9.21818L20.9931 3.03448L27.5236 9.21818V12.5782C27.5236 12.5782 27.6971 14.5185 31.057 14.345C34.4169 14.1714 33.8806 12.5782 33.8806 12.5782V9.21818L40.6162 4.62773L36.7199 23.1946C36.7199 23.1946 31.2463 25.8447 21.5137 25.8447C11.781 25.8447 5.42403 23.3681 5.42403 23.3681L1.18079 4.62773Z" fill="#FEEE53"/>
<path d="M5.25049 22.9896C5.25049 22.9896 5.66062 28.2741 5.84991 30.0251C5.84991 30.0251 24.069 34.2054 36.2151 29.5834C36.2151 29.5834 36.3098 24.1884 36.7199 23.0842C36.7199 23.1 19.321 27.2803 5.25049 22.9896Z" fill="#F39318"/>
<path d="M21.151 30.9085C22.3184 30.9085 23.2647 29.8774 23.2647 28.6054C23.2647 27.3334 22.3184 26.3023 21.151 26.3023C19.9836 26.3023 19.0372 27.3334 19.0372 28.6054C19.0372 29.8774 19.9836 30.9085 21.151 30.9085Z" fill="url(#paint0_radial)"/>
<path d="M12.2699 29.5991C13.1585 29.5991 13.8789 28.8081 13.8789 27.8323C13.8789 26.8566 13.1585 26.0656 12.2699 26.0656C11.3813 26.0656 10.6609 26.8566 10.6609 27.8323C10.6609 28.8081 11.3813 29.5991 12.2699 29.5991Z" fill="url(#paint1_radial)"/>
<path d="M29.7637 29.3782C30.6523 29.3782 31.3727 28.5872 31.3727 27.6115C31.3727 26.6357 30.6523 25.8447 29.7637 25.8447C28.8751 25.8447 28.1547 26.6357 28.1547 27.6115C28.1547 28.5872 28.8751 29.3782 29.7637 29.3782Z" fill="url(#paint2_radial)"/>
<path d="M22.6809 22.3585L17.6647 18.1939L19.6365 17.8311L22.3812 20.0238L22.6809 22.3585Z" fill="#F8A036"/>
<path d="M19.6364 17.8311L21.8606 15.2441L22.0183 12.941L17.6647 18.1939L19.6364 17.8311Z" fill="#FB3B84"/>
<path d="M24.3845 17.0897L21.8606 15.2441L22.0183 12.941L26.8452 17.0424L24.3845 17.0897Z" fill="#ED2476"/>
<path d="M22.6807 22.3585L26.8451 17.0424L24.3843 17.0897L22.381 20.0238L22.6807 22.3585Z" fill="#E2841E"/>
<path d="M19.6364 17.8311L21.8606 15.2441L24.3844 17.0897L22.3811 20.0238L19.6364 17.8311Z" fill="#EA5C88"/>
<path opacity="0.1" d="M32.4766 9.04465C30.1578 7.10436 26.9556 5.71618 23.3276 5.25871L21.1823 3.22377L22.4127 31.776C27.0661 31.7445 32.0192 31.2082 36.2151 29.5991C36.2151 29.5991 36.3097 24.5197 36.6883 23.2104C36.7041 23.1946 36.7199 23.1946 36.7199 23.1946L40.6161 4.62773L38.313 4.80125L32.4766 9.04465Z" fill="black"/>
<path d="M15.2451 41.3448H17.1932L19.2324 34.5718H17.5756L16.8109 37.6579C16.6197 38.3862 16.4741 39.0871 16.2829 39.8245H16.2374C16.0371 39.0871 15.9096 38.3862 15.7094 37.6579L14.9356 34.5718H13.215L15.2451 41.3448Z" fill="#F39318"/>
<path d="M20.6123 41.3448H22.2418V34.5718H20.6123V41.3448Z" fill="#F39318"/>
<path d="M24.4777 41.3448H26.1072V39.0962H26.8992C28.3285 39.0962 29.5756 38.3862 29.5756 36.7749C29.5756 35.0998 28.3467 34.5718 26.8537 34.5718H24.4777V41.3448ZM26.1072 37.8127V35.8554H26.7718C27.5547 35.8554 27.9916 36.0921 27.9916 36.7749C27.9916 37.4394 27.6093 37.8127 26.8173 37.8127H26.1072Z" fill="#F39318"/>
<defs>
<radialGradient id="paint0_radial" cx="0" cy="0" r="1" gradientUnits="userSpaceOnUse" gradientTransform="translate(21.1478 28.6072) scale(2.11011 2.31087)">
<stop stop-color="#EA5C88"/>
<stop offset="1" stop-color="#FB3B84"/>
</radialGradient>
<radialGradient id="paint1_radial" cx="0" cy="0" r="1" gradientUnits="userSpaceOnUse" gradientTransform="translate(12.2761 27.8368) scale(1.6077 1.76067)">
<stop stop-color="#EA5C88"/>
<stop offset="1" stop-color="#FB3B84"/>
</radialGradient>
<radialGradient id="paint2_radial" cx="0" cy="0" r="1" gradientUnits="userSpaceOnUse" gradientTransform="translate(29.7601 27.6167) scale(1.60771 1.76067)">
<stop stop-color="#EA5C88"/>
<stop offset="1" stop-color="#FB3B84"/>
</radialGradient>
</defs>
</svg>
