<svg width="34" height="34" viewBox="0 0 34 34" fill="none" xmlns="http://www.w3.org/2000/svg">
<path d="M21.0736 25.2811C21.8987 24.4688 21.4535 22.6031 20.1057 20.4478C20.5955 20.3713 21.0534 20.2544 21.3998 20.0754C22.6461 19.4321 23.4876 18.2596 24.1246 17.0468C24.8094 15.7457 25.2689 14.3156 26.1625 13.1309C26.3133 12.9306 26.4642 12.7511 26.6146 12.5821C28.5425 12.8132 30.0815 13.2276 30.0815 13.2276L30.6696 11.7332C29.9273 11.4668 29.1662 11.256 28.3927 11.1026C28.8665 10.8333 29.1757 10.7493 29.1757 10.7493L28.6184 9.24269C27.7249 9.62041 26.9997 10.1777 26.3925 10.8449C24.123 10.718 21.8376 11.1701 20.0345 12.5683C18.6788 13.6202 17.7629 15.0785 16.9012 16.5373C16.1377 15.788 15.3247 15.0911 14.4675 14.4511C14.6301 14.1838 14.8043 13.9437 14.9919 13.7583C16.125 12.6427 17.62 11.9292 18.6007 10.6526C20.6619 7.97194 19.1542 3.76975 17.4585 1.59375C17.1546 1.88647 16.652 2.31306 16.2738 2.64987C18.0763 4.49597 19.337 7.72809 17.9244 10.1432C17.1349 11.4931 15.6761 12.3399 14.6561 13.4996C14.4797 13.7009 14.322 13.9559 14.1791 14.2375C11.5117 12.3245 9.06366 11.5547 8.09359 12.5099C7.99727 12.6084 7.91793 12.7222 7.85878 12.8467L7.85506 12.843L7.82903 12.9189C7.79291 13.0013 7.75997 13.0868 7.73766 13.1803L1.0625 32.4062L20.5392 25.5967L20.5339 25.5914C20.7432 25.5239 20.9275 25.4246 21.0736 25.2811ZM4.93691 29.9264L3.31128 29.1688L4.40831 26.0079L9.43978 28.3517L4.93691 29.9264ZM13.9421 26.7777L5.50641 22.8469L6.60344 19.6865L12.9072 22.8507C9.14441 20.4016 7.70047 16.5251 7.70047 16.5251L8.07553 15.445C8.74225 17.1318 10.209 19.2323 12.2246 21.2149C14.2572 23.2156 16.4114 24.6649 18.1332 25.3125L13.9421 26.7777ZM17.1822 16.822C18.063 15.5593 18.9709 14.2848 20.2332 13.3779C21.4349 12.5141 23.3856 12.3563 25.2349 12.4599C24.6102 13.5511 24.1485 14.7618 23.7341 15.9248C23.2332 17.3326 22.5617 18.7924 21.2813 19.6557C20.936 19.8884 20.4521 20.0584 19.9352 20.1843C19.2249 19.0958 18.2931 17.9451 17.1822 16.822Z" fill="#BB6946"/>
<path d="M12.2362 11.6875C12.7685 11.6875 11.1727 10.0938 11.4394 8.69603C12.4615 8.61741 14.7979 9.078 13.4379 7.21013C14.9764 7.48106 15.7733 6.3325 14.3209 5.24397C14.8043 5.27797 15.5555 4.36634 15.0163 4.25106C13.2886 3.88503 12.6124 4.8195 13.7089 6.16728C12.556 5.95266 11.6163 6.48869 12.4822 7.6925C9.15339 7.27759 11.0473 11.6875 12.2362 11.6875Z" fill="#BB6946"/>
<path d="M23.6645 10.2712C24.1634 10.046 23.3171 8.55794 23.0419 8.17757C25.1472 7.95232 25.0676 7.32491 23.7474 5.98085C27.3365 6.10144 23.8584 4.06144 24.3461 3.25394C24.7685 2.55375 26.0642 3.28794 25.9441 2.898C25.5393 1.59379 21.6994 2.47566 24.1294 4.91091C22.0086 4.95235 21.8052 5.64563 23.3856 7.08266C20.6327 7.11294 22.8788 10.625 23.6645 10.2712Z" fill="#BB6946"/>
<path d="M32.7766 15.5258C31.9361 15.7611 31.8065 15.6729 31.9186 16.5096C29.9774 15.6161 27.9236 14.3735 29.1699 17.6656C26.9652 16.3529 27.0752 17.5026 26.6629 19.3943C26.1264 18.9762 25.364 17.8744 25.364 17.8744L24.5565 18.5603C24.5565 18.5603 26.0361 20.647 26.7665 20.5286C27.4088 20.425 27.7584 19.2111 27.794 18.1411C29.8393 19.0044 30.8184 19.1197 29.8828 16.5952C31.518 17.5137 33.523 18.3239 32.7766 15.5258Z" fill="#BB6946"/>
<path d="M3.21348 6.0759L4.71585 7.5788L3.21348 9.08118L1.71057 7.5788L3.21348 6.0759Z" fill="#BB6946"/>
<path d="M6.81274 12.3239L5.3093 13.8263L3.8064 12.3229L5.30983 10.82L6.81274 12.3239Z" fill="#BB6946"/>
<path d="M9.14817 3.71875L10.6505 5.22113L9.14764 6.72456L7.64526 5.22113L9.14817 3.71875Z" fill="#BB6946"/>
<path d="M25.5059 24.6946L24.0024 23.1917L25.5048 21.6883L27.0083 23.1912L25.5059 24.6946Z" fill="#BB6946"/>
<path d="M22.1558 29.8488L20.6534 28.3464L22.1558 26.8435L23.6587 28.3464L22.1558 29.8488Z" fill="#BB6946"/>
<path d="M28.7476 31.0356L27.2441 29.5327L28.746 28.0293L30.2494 29.5322L28.7476 31.0356Z" fill="#BB6946"/>
<path d="M30.2499 24.191L28.7476 22.6881L30.2499 21.1857L31.7523 22.6881L30.2499 24.191Z" fill="#BB6946"/>
<path d="M27.7419 5.3125L29.2443 6.81488L27.7414 8.31778L26.239 6.81488L27.7419 5.3125Z" fill="#BB6946"/>
</svg>
