<svg width="11" height="21" viewBox="0 0 11 21" fill="none" xmlns="http://www.w3.org/2000/svg">
<path d="M3.51368 19.9188C6.30564 20.4605 8.72257 18.3353 8.72257 15.6267C8.72257 14.2098 8.01416 12.918 6.93071 12.1263V2.58361C6.93071 1.16679 5.80559 0 4.3471 0C2.93029 0 1.7635 1.16679 1.7635 2.58361V12.1263C0.471693 13.0847 -0.278387 14.7099 0.0966527 16.5434C0.430021 18.2103 1.80517 19.5854 3.51368 19.9188Z" fill="white"/>
<path d="M3.51368 19.9188C6.30564 20.4605 8.72257 18.3353 8.72257 15.6267C8.72257 14.2098 8.01416 12.918 6.93071 12.1263V2.58361C6.93071 1.16679 5.80559 0 4.3471 0C2.93029 0 1.7635 1.16679 1.7635 2.58361V12.1263C0.471693 13.0847 -0.278387 14.7099 0.0966527 16.5434C0.430021 18.2103 1.80517 19.5854 3.51368 19.9188ZM2.30522 12.918L2.68026 12.6263V2.62528C2.68026 1.70851 3.43034 1.00011 4.30543 1.00011C5.22219 1.00011 5.97227 1.75019 5.97227 2.62528V12.6263L6.34731 12.918C7.22241 13.5431 7.72246 14.5849 7.72246 15.6683C7.72246 16.5851 7.34742 17.4602 6.72235 18.0852C6.05562 18.7103 5.22219 19.0854 4.30543 19.0854C2.59692 19.0854 1.26344 17.8769 0.971745 16.3767C0.76339 15.0016 1.26344 13.6681 2.30522 12.918Z" fill="#686868"/>
<path d="M4.34709 18.0853C5.01383 18.0853 5.6389 17.8352 6.09728 17.3769C6.55566 16.9185 6.80569 16.2934 6.80569 15.6267C6.80569 13.9598 5.38887 13.4181 5.01383 13.0847V2.43262H3.63869V13.0847C3.34699 13.4181 1.51346 14.0848 1.93017 16.1267C2.13853 17.2102 3.09696 18.0853 4.34709 18.0853Z" fill="#686868"/>
<path d="M10.3894 2.55371H8.01416V3.51215H10.3894C10.6394 3.51215 10.8478 3.30379 10.8478 3.05376C10.8895 2.76207 10.6811 2.55371 10.3894 2.55371Z" fill="#686868"/>
<path d="M9.93105 6.84168C9.93105 6.59166 9.72269 6.3833 9.47266 6.3833H8.05585V7.34174H9.47266C9.72269 7.30006 9.93105 7.09171 9.93105 6.84168Z" fill="#686868"/>
<path d="M10.8895 10.6722C10.8895 10.4222 10.6811 10.2139 10.4311 10.2139H8.05585V11.1723H10.4311C10.6811 11.1723 10.8895 10.9223 10.8895 10.6722Z" fill="#686868"/>
</svg>
