<svg width="17" height="19" viewBox="0 0 17 19" fill="none" xmlns="http://www.w3.org/2000/svg">
<path fill-rule="evenodd" clip-rule="evenodd" d="M13.5998 1.5C12.4676 1.5 11.5498 2.41782 11.5498 3.55C11.5498 4.68218 12.4676 5.6 13.5998 5.6C14.732 5.6 15.6498 4.68218 15.6498 3.55C15.6498 2.41782 14.732 1.5 13.5998 1.5ZM10.5498 3.55C10.5498 1.86553 11.9153 0.5 13.5998 0.5C15.2842 0.5 16.6498 1.86553 16.6498 3.55C16.6498 5.23447 15.2842 6.6 13.5998 6.6C11.9153 6.6 10.5498 5.23447 10.5498 3.55Z" fill="#555555"/>
<path fill-rule="evenodd" clip-rule="evenodd" d="M3.39991 7.4502C2.26773 7.4502 1.34991 8.36801 1.34991 9.5002C1.34991 10.6324 2.26773 11.5502 3.39991 11.5502C4.5321 11.5502 5.44991 10.6324 5.44991 9.5002C5.44991 8.36801 4.5321 7.4502 3.39991 7.4502ZM0.349915 9.5002C0.349915 7.81573 1.71545 6.4502 3.39991 6.4502C5.08438 6.4502 6.44991 7.81573 6.44991 9.5002C6.44991 11.1847 5.08438 12.5502 3.39991 12.5502C1.71545 12.5502 0.349915 11.1847 0.349915 9.5002Z" fill="#555555"/>
<path fill-rule="evenodd" clip-rule="evenodd" d="M13.5998 13.3999C12.4676 13.3999 11.5498 14.3177 11.5498 15.4499C11.5498 16.5821 12.4676 17.4999 13.5998 17.4999C14.732 17.4999 15.6498 16.5821 15.6498 15.4499C15.6498 14.3177 14.732 13.3999 13.5998 13.3999ZM10.5498 15.4499C10.5498 13.7654 11.9153 12.3999 13.5998 12.3999C15.2842 12.3999 16.6498 13.7654 16.6498 15.4499C16.6498 17.1344 15.2842 18.4999 13.5998 18.4999C11.9153 18.4999 10.5498 17.1344 10.5498 15.4499Z" fill="#555555"/>
<path fill-rule="evenodd" clip-rule="evenodd" d="M5.16921 10.532C5.30824 10.2934 5.61437 10.2127 5.85296 10.3518L11.6585 13.7348C11.897 13.8738 11.9778 14.1799 11.8387 14.4185C11.6997 14.6571 11.3936 14.7378 11.155 14.5988L5.34948 11.2158C5.11089 11.0767 5.03018 10.7706 5.16921 10.532Z" fill="#555555"/>
<path fill-rule="evenodd" clip-rule="evenodd" d="M11.8301 4.58156C11.9692 4.82006 11.8887 5.12624 11.6502 5.26542L5.85323 8.64842C5.61473 8.7876 5.30856 8.70709 5.16937 8.46859C5.03019 8.23009 5.1107 7.92392 5.3492 7.78473L11.1462 4.40173C11.3847 4.26255 11.6909 4.34306 11.8301 4.58156Z" fill="#555555"/>
</svg>
