<svg width="25" height="25" viewBox="0 0 25 25" fill="none" xmlns="http://www.w3.org/2000/svg">
<path d="M21.3928 9.05361C21.3928 8.52783 21.5975 8.03362 21.9691 7.662C22.0389 7.59225 22.0389 7.47925 21.9691 7.40949L17.1726 2.613C17.1029 2.54325 16.9899 2.54325 16.9201 2.613C16.5485 2.98462 16.0543 3.18935 15.5285 3.18935C15.0083 3.18935 14.5152 2.98444 14.14 2.61248C14.0701 2.54325 13.9576 2.54342 13.8881 2.613L5.438 11.0631C5.32599 11.1751 5.4052 11.3679 5.56426 11.3679H8.08919C8.13663 11.3679 8.18197 11.3491 8.21545 11.3156L14.2679 5.26332L19.3184 10.3141L18.5667 11.0627C18.5156 11.1138 18.5 11.1907 18.5278 11.2575C18.5553 11.3243 18.6204 11.3679 18.6927 11.3679H20.0066C20.022 11.5742 20.1338 12.2174 20.3369 12.2574C20.3946 12.2688 20.4565 12.2509 20.4994 12.2067L21.9709 10.6923C22.0387 10.6224 22.0382 10.5111 21.9696 10.4421C21.5977 10.067 21.3928 9.5738 21.3928 9.05361Z" fill="#F2673A"/>
<path d="M19.6976 10.188L14.3942 4.88456C14.3244 4.8148 14.2114 4.8148 14.1416 4.88456L7.96296 11.0631C7.85095 11.1751 7.93016 11.3679 8.08922 11.3679H18.6928C18.74 11.3679 18.7854 11.3492 18.8189 11.3159L19.6974 10.4408C19.7677 10.3705 19.767 10.2574 19.6976 10.188Z" fill="#FFCA3E"/>
<path opacity="0.2" d="M22.5 14.3214V21.1071C22.5 21.2071 22.4214 21.2857 22.3214 21.2857C21.7929 21.2857 21.3036 21.4893 20.9321 21.8607C20.5607 22.2321 20.3571 22.7214 20.3571 23.25C20.3571 23.35 20.2786 23.4286 20.1786 23.4286H4.82143C4.72144 23.4286 4.64286 23.35 4.64286 23.25C4.64286 22.7214 4.43928 22.2321 4.06786 21.8607C3.69644 21.4893 3.20716 21.2857 2.67857 21.2857C2.57858 21.2857 2.5 21.2071 2.5 21.1071V14.3214C2.5 14.2214 2.57858 14.1428 2.67857 14.1428C3.20716 14.1428 3.69644 13.9393 4.06786 13.5678C4.43928 13.1964 4.64286 12.7071 4.64286 12.1786C4.64286 12.0785 4.72144 12 4.82143 12H20.1786C20.2786 12 20.3571 12.0785 20.3571 12.1786C20.3571 12.5379 20.4235 12.694 20.5357 13.0036C20.6322 13.2071 20.7643 13.4 20.9321 13.5678C21.3036 13.9393 21.7929 14.1428 22.3214 14.1428C22.4214 14.1428 22.5 14.2214 22.5 14.3214Z" fill="black"/>
<path d="M22.5 13.3322V20.1179C22.5 20.2179 22.4214 20.2964 22.3214 20.2964C21.7929 20.2964 21.3036 20.5 20.9321 20.8714C20.5607 21.2429 20.3571 21.7322 20.3571 22.2607C20.3571 22.3607 20.2786 22.4393 20.1786 22.4393H4.82143C4.72144 22.4393 4.64286 22.3607 4.64286 22.2607C4.64286 21.7322 4.43928 21.2429 4.06786 20.8714C3.69644 20.5 3.20716 20.2964 2.67857 20.2964C2.57858 20.2964 2.5 20.2179 2.5 20.1179V13.3322C2.5 13.2321 2.57858 13.1536 2.67857 13.1536C3.20716 13.1536 3.69644 12.95 4.06786 12.5786C4.43928 12.2071 4.64286 11.7179 4.64286 11.1893C4.64286 11.0893 4.72144 11.0107 4.82143 11.0107H20.1786C20.2786 11.0107 20.3571 11.0893 20.3571 11.1893C20.3571 11.5486 20.4235 11.7048 20.5357 12.0143C20.6322 12.2179 20.7643 12.4107 20.9321 12.5786C21.3036 12.95 21.7929 13.1536 22.3214 13.1536C22.4214 13.1536 22.5 13.2321 22.5 13.3322Z" fill="#FCB216"/>
<path d="M22.5 19.5822V20.1179C22.5 20.2179 22.4214 20.2965 22.3214 20.2965C21.7929 20.2965 21.3036 20.5 20.9321 20.8715C20.5607 21.2429 20.3571 21.7322 20.3571 22.2607C20.3571 22.3608 20.2786 22.4393 20.1786 22.4393H4.82143C4.72144 22.4393 4.64286 22.3608 4.64286 22.2607C4.64286 21.7322 4.43928 21.2429 4.06786 20.8715C3.69644 20.5 3.20716 20.2965 2.67857 20.2965C2.57858 20.2965 2.5 20.2179 2.5 20.1179V13.3322C2.5 13.2322 2.57858 13.1536 2.67857 13.1536C3.20716 13.1536 3.69644 12.95 4.06786 12.5786C4.43928 12.2072 4.64286 11.7179 4.64286 11.1893C4.64286 11.0893 4.72144 11.0107 4.82143 11.0107H6.78571C6.78571 11.0107 7.14286 19.5822 22.5 19.5822Z" fill="#F99D28"/>
<path d="M18.75 12.7965H6.24998C6.15128 12.7965 6.07141 12.8763 6.07141 12.975V20.475C6.07141 20.5737 6.15128 20.6536 6.24998 20.6536H18.75C18.8487 20.6536 18.9286 20.5737 18.9286 20.475V12.975C18.9286 12.8763 18.8487 12.7965 18.75 12.7965Z" fill="#FFE36E"/>
<path d="M7.25024 12.7965H6.24998C6.15128 12.7965 6.07141 12.8763 6.07141 12.975V20.475C6.07141 20.5737 6.15128 20.6536 6.24998 20.6536H18.75C18.8487 20.6536 18.9286 20.5737 18.9286 20.475V19.4084C10.8873 18.5852 8.16692 15.0084 7.25024 12.7965Z" fill="#FED767"/>
<path d="M9.5 15.9201C9.93949 15.7799 10.3621 15.8465 10.8049 15.8781C10.7779 15.8255 10.7576 15.787 10.7339 15.7414C10.7475 15.7344 10.761 15.7169 10.7711 15.7169C11.143 15.7379 11.3458 15.5347 11.4439 15.1878C11.498 15.0056 11.6366 14.9075 11.7786 14.8094C11.8293 14.7743 11.8766 14.7358 11.9375 14.6867C11.8563 14.6622 11.7955 14.6412 11.7143 14.6167C11.809 14.4169 11.8969 14.2277 12.0051 14C12.2688 14.5501 12.5156 15.0687 12.7691 15.6012C12.6474 15.6783 12.5325 15.7554 12.4141 15.829C12.4209 15.8465 12.4277 15.864 12.4344 15.8816C12.6542 15.794 12.8773 15.7064 13.097 15.6223C13.1308 15.6083 13.1748 15.6048 13.2086 15.6153C13.6379 15.7064 14.0639 15.8045 14.5 15.8991C14.2295 16.3406 13.807 16.5333 13.354 16.7085C13.4216 16.782 13.4723 16.8416 13.523 16.8977C13.2187 17.1254 13.283 17.4233 13.3573 17.7246C13.3675 17.7666 13.3675 17.8157 13.3742 17.8858C13.2492 17.8402 13.141 17.7982 13.0328 17.7596C13.3709 18.082 13.5669 18.4639 13.5331 18.9685C13.4858 18.9474 13.4385 18.9264 13.3911 18.9019C12.9787 18.6776 12.5629 18.4569 12.1538 18.2221C12.0423 18.1591 11.9544 18.1485 11.8462 18.2221C11.7583 18.2817 11.6569 18.3272 11.5521 18.3833C11.5419 18.3378 11.5352 18.2992 11.5216 18.2361C11.3492 18.3798 11.1937 18.527 11.0179 18.6496C10.8421 18.7722 10.6528 18.8703 10.4297 19C10.4905 18.6146 10.5683 18.2817 10.592 17.9418C10.619 17.5739 10.7542 17.3146 11.0957 17.185C11.116 17.178 11.1295 17.1605 11.1836 17.1219C11.116 17.1219 11.0855 17.1149 11.0585 17.1219C10.7813 17.185 10.5818 17.0729 10.3959 16.8591C10.1457 16.5753 9.86849 16.316 9.60142 16.0497C9.58114 16.0112 9.54395 15.9692 9.5 15.9201Z" fill="#D22227"/>
</svg>
