<svg width="25" height="25" viewBox="0 0 25 25" fill="none" xmlns="http://www.w3.org/2000/svg">
<path d="M14.2159 5.0143C10.7016 4.84534 5.73422 6.16321 3.97706 9.54237C2.62539 12.1443 3.94327 15.76 6.71418 16.6724C6.74797 16.74 6.81555 16.7738 6.88314 16.8076C7.32243 16.9765 7.76172 17.0779 8.2348 17.1793C7.79551 18.1254 7.11968 18.8351 6.20731 19.3757C6.00456 19.4771 6.07214 19.7474 6.27489 19.815C8.40376 20.4571 10.5664 19.3757 11.3774 17.382C11.9181 17.4834 12.5263 17.4158 13.0332 17.2131C13.067 17.2131 13.1008 17.2131 13.1684 17.2131C16.7165 16.6386 21.2784 14.8815 21.5487 10.6575C21.7852 6.83904 17.3923 5.18325 14.2159 5.0143ZM20.4336 11.3671C19.724 14.2056 17.0544 15.1518 14.5538 15.9628C13.5063 16.0642 12.3912 16.2669 11.4112 16.5372C11.276 16.4697 11.1409 16.5034 11.0395 16.6386C11.0057 16.6386 10.9719 16.6386 10.9381 16.6724C10.8368 16.7062 10.7692 16.8076 10.7692 16.8752C10.7692 16.9089 10.7692 16.9089 10.7692 16.9427V16.9765C10.7354 17.0441 10.7016 17.1455 10.803 17.2131C10.1271 18.7675 8.6403 19.6123 6.95072 19.4433C7.76172 18.8351 8.33618 18.0579 8.80926 17.1117C8.87684 17.0103 8.84305 16.8076 8.70789 16.7738C8.2348 16.571 7.72793 16.4359 7.22105 16.3345C7.18726 16.3007 7.15347 16.2669 7.11968 16.2331C4.48393 14.6787 3.36881 11.2657 5.63285 8.86654C7.59276 6.83904 11.0057 5.96046 13.7428 5.99425C16.6827 6.02804 21.3797 7.58246 20.4336 11.3671Z" fill="#745B4A"/>
<path d="M9.35 11.0292C8.9783 10.3534 7.93076 10.3534 7.59284 11.063C7.55905 11.1306 7.52526 11.232 7.52526 11.2996C7.45767 11.4347 7.42388 11.5699 7.42388 11.7388C7.42388 12.4147 8.13351 12.8202 8.74175 12.6174C9.3838 12.4147 9.68792 11.6375 9.35 11.0292Z" fill="#745B4A"/>
<path d="M13.0667 10.1506C12.5936 10.0154 12.1206 10.3534 11.9516 10.7589C11.7826 10.9954 11.7826 11.2995 11.9516 11.5361C12.053 11.6712 12.1881 11.7726 12.3571 11.8402C12.4585 11.9078 12.5598 11.9416 12.6612 11.9753C13.0667 12.0429 13.4046 11.874 13.6074 11.5361C13.6412 11.4685 13.675 11.4009 13.675 11.3333C13.8439 10.8602 13.5736 10.2858 13.0667 10.1506Z" fill="#745B4A"/>
<path d="M17.7976 10.9616C17.8314 10.3196 17.2569 9.77892 16.6149 9.94788C16.0404 10.1168 15.7025 10.8265 15.9729 11.3671C15.9729 11.3671 15.9729 11.3671 15.9729 11.4009C16.0067 11.4347 16.0067 11.4685 16.0404 11.5023C16.5473 12.2119 17.8314 11.9754 17.8314 11.0292C17.8314 10.9954 17.7976 10.9616 17.7976 10.9616Z" fill="#745B4A"/>
</svg>
