<svg width="21" height="38" viewBox="0 0 21 38" fill="none" xmlns="http://www.w3.org/2000/svg">
<path d="M6.49977 36.8467C11.6645 37.8488 16.1354 33.9174 16.1354 28.9069C16.1354 26.286 14.825 23.8964 12.8207 22.4318V4.77927C12.8207 2.15838 10.7394 0 8.04147 0C5.42058 0 3.2622 2.15838 3.2622 4.77927V22.4318C0.872559 24.2047 -0.514973 27.211 0.178793 30.6028C0.795473 33.6862 3.33928 36.23 6.49977 36.8467Z" fill="white"/>
<path d="M6.49977 36.8467C11.6645 37.8488 16.1354 33.9174 16.1354 28.9069C16.1354 26.286 14.825 23.8964 12.8207 22.4318V4.77927C12.8207 2.15838 10.7394 0 8.04147 0C5.42058 0 3.2622 2.15838 3.2622 4.77927V22.4318C0.872559 24.2047 -0.514973 27.211 0.178793 30.6028C0.795473 33.6862 3.33928 36.23 6.49977 36.8467ZM4.2643 23.8964L4.95807 23.3568V4.85636C4.95807 3.16049 6.3456 1.85004 7.96438 1.85004C9.66026 1.85004 11.0478 3.23757 11.0478 4.85636V23.3568L11.7416 23.8964C13.3603 25.0526 14.2854 26.9798 14.2854 28.984C14.2854 30.6799 13.5916 32.2986 12.4353 33.4549C11.202 34.6112 9.66026 35.305 7.96438 35.305C4.8039 35.305 2.33717 33.0695 1.79758 30.2944C1.41215 27.7506 2.33717 25.2839 4.2643 23.8964Z" fill="#434343"/>
<path d="M8.04137 33.455C9.27473 33.455 10.431 32.9925 11.2789 32.1446C12.1269 31.2966 12.5894 30.1403 12.5894 28.907C12.5894 25.8236 9.9685 24.8215 9.27473 24.2048V12H6.73093V24.2048C6.19133 24.8215 2.79959 26.0548 3.57044 29.832C3.95586 31.8362 5.72882 33.455 8.04137 33.455Z" fill="#F09829"/>
<path d="M18.3709 12.6565C18.3709 12.194 17.9855 11.8086 17.523 11.8086H14.9021V13.5816H17.523C17.9855 13.5045 18.3709 13.119 18.3709 12.6565Z" fill="#F09829"/>
<path d="M20.1439 19.742C20.1439 19.2795 19.7585 18.894 19.2959 18.894H14.9021V20.667H19.2959C19.7585 20.667 20.1439 20.2045 20.1439 19.742Z" fill="#F09829"/>
</svg>
