<svg width="25" height="25" viewBox="0 0 25 25" fill="none" xmlns="http://www.w3.org/2000/svg">
<path d="M18.0839 7.78432C18.123 7.74479 18.1621 7.74479 18.1621 7.70527C19.1011 6.00572 19.1793 4.10856 18.749 2.21139C18.7099 2.01377 18.5142 1.97425 18.3577 2.01377C15.0714 2.64616 11.9024 4.6619 9.71145 7.2705C8.18563 9.08862 6.89455 13.3572 8.92898 15.2939C8.49862 16.4006 8.18563 17.4678 7.95089 18.4954C7.52053 18.4559 7.09017 18.4163 6.65981 18.4163H6.62069C6.54244 18.2582 6.3077 18.2978 6.26858 18.4559C5.91647 19.7997 5.7991 21.6178 6.62069 22.8431C6.69894 22.9616 6.85543 22.9616 6.9728 22.9221C7.12929 23.0407 7.40316 23.0407 7.52053 22.8035C8.18563 21.3807 8.9681 20.1949 10.4548 19.5626C10.8069 19.4045 10.8852 18.8116 10.4157 18.7325C9.82882 18.6535 9.28109 18.5744 8.69424 18.5349C8.92898 17.784 9.20284 17.0725 9.43758 16.3216C9.43758 16.3216 9.43758 16.3216 9.47671 16.3216C13.2326 16.0449 17.0667 12.7644 18.0839 9.16767C18.0839 9.12814 18.0839 9.08862 18.0839 9.04909C18.123 8.97005 18.0839 8.891 18.0448 8.81195C17.8883 8.53528 17.5362 8.37718 17.3014 8.17956C17.2623 8.14004 17.184 8.10051 17.1449 8.06099C17.4188 8.06099 17.6535 8.02146 17.8883 7.90289C18.0448 7.90289 18.0839 7.82384 18.0839 7.78432ZM9.12459 19.4045C8.22475 20.0368 7.40316 20.9459 7.01192 21.9735C6.93368 21.4992 6.81631 21.0645 6.77718 20.5902C6.73806 20.0368 6.69894 19.444 6.65981 18.8906C7.48141 19.1278 8.303 19.2859 9.12459 19.4045ZM17.497 2.92283C17.6926 2.80426 17.8491 2.76473 17.9665 2.76473C16.6363 4.18761 15.4235 5.68953 14.2889 7.2705C14.4454 6.36144 14.2498 5.41286 13.8977 4.54333C14.954 3.83189 16.4016 2.92283 17.497 2.92283ZM13.2717 4.97809C13.3891 4.89904 13.5064 4.82 13.6629 4.70142C13.9368 5.76858 13.8585 6.79621 13.7803 7.90289C13.3891 8.21908 12.9978 8.5748 12.6457 8.97005C12.6066 7.98194 12.2936 6.99383 11.8632 6.08477C12.3327 5.68953 12.8022 5.29429 13.2717 4.97809ZM11.6285 6.32192C11.9415 7.34955 12.098 8.37718 12.2545 9.44434C11.6676 10.1558 11.1199 10.9463 10.6504 11.7367C10.7678 10.6301 10.4157 9.40481 9.86794 8.41671C10.3765 7.66574 10.9634 6.95431 11.6285 6.32192ZM9.20284 14.7011C8.18563 12.5668 8.65511 10.4324 9.7897 8.61433C9.90707 9.08862 10.0244 9.52339 10.1027 9.99768C10.2592 10.6696 10.2592 11.381 10.3765 12.0529C10.3765 12.0925 10.4157 12.132 10.4548 12.132C9.98531 12.962 9.55495 13.8315 9.20284 14.7011ZM14.4845 13.2387C13.0761 14.4639 11.472 15.0963 9.75057 15.6892C10.0636 14.8592 10.4157 14.0687 10.8069 13.2782C12.3327 12.7249 13.8585 12.3691 15.4626 12.2506C15.1496 12.6063 14.8366 12.9225 14.4845 13.2387ZM15.8147 11.8158C14.1715 11.7763 12.6066 12.0925 11.1199 12.7249C11.5111 12.0134 11.9806 11.3415 12.4501 10.6301C13.9759 10.2743 15.5409 10.0767 17.1058 9.8791C16.7146 10.5905 16.2842 11.2229 15.8147 11.8158ZM17.6144 7.4286C17.4188 7.4286 17.2232 7.4286 17.0275 7.4286C16.8319 7.4286 16.5972 7.4286 16.4016 7.50765C16.206 7.50765 15.9712 7.70527 16.1277 7.94241C16.3233 8.25861 16.5972 8.53528 16.9102 8.77242C17.1058 8.93052 17.3014 9.08862 17.497 9.20719C17.4188 9.36529 17.3405 9.48386 17.2623 9.64196C17.2232 9.64196 17.2232 9.60243 17.184 9.60243C15.6191 9.68148 14.1324 9.99768 12.6066 10.3929C13.1152 9.64196 13.6238 8.93052 14.0933 8.14004C14.0933 8.10051 14.0933 8.10051 14.0933 8.06099C14.7584 7.74479 15.3844 7.4286 16.0886 7.19145C16.6363 7.03336 17.2232 6.91478 17.7709 6.79621C17.7709 7.03336 17.6926 7.23098 17.6144 7.4286ZM14.4845 7.5867C15.6582 5.9662 16.9102 4.42475 18.2404 2.96236C18.2795 3.08093 18.3186 3.23903 18.3577 3.47617C18.3969 4.02951 18.3577 4.62238 18.2795 5.17572C18.2013 5.61048 18.0839 6.04525 17.9665 6.44049C16.7928 6.48002 15.5017 6.91478 14.4845 7.5867Z" fill="#745B4A"/>
</svg>
