<svg width="20" height="20" viewBox="0 0 20 20" fill="none" xmlns="http://www.w3.org/2000/svg">
<path d="M9.25008 7.04V4.74952C9.25005 4.60121 9.20605 4.45624 9.12364 4.33293C9.04122 4.20962 8.9241 4.11352 8.78708 4.05677C8.65005 4.00002 8.49928 3.98516 8.35382 4.01409C8.20835 4.04302 8.07473 4.11442 7.96985 4.21928L2.7199 9.46922C2.65019 9.53881 2.59489 9.62146 2.55715 9.71245C2.51942 9.80343 2.5 9.90097 2.5 9.99947C2.5 10.098 2.51942 10.1955 2.55715 10.2865C2.59489 10.3775 2.65019 10.4601 2.7199 10.5297L7.96985 15.7797C8.07459 15.8849 8.20824 15.9566 8.35383 15.9857C8.49941 16.0149 8.65037 16.0001 8.78754 15.9433C8.92472 15.8865 9.04191 15.7902 9.12427 15.6666C9.20662 15.5431 9.25041 15.3979 9.25008 15.2494V12.9274C9.46308 12.9124 9.67383 12.9057 9.88233 12.9057C13.9518 12.9057 16.0615 15.5847 16.1538 15.7032C16.2483 15.8282 16.3798 15.9203 16.5296 15.9665C16.6794 16.0127 16.84 16.0105 16.9885 15.9604C17.1375 15.9104 17.267 15.8149 17.3588 15.6873C17.4506 15.5598 17.5 15.4066 17.5 15.2494C17.5 8.40648 11.4356 7.23874 9.25008 7.04V7.04ZM9.88233 11.4057C9.39708 11.4057 8.89834 11.4395 8.40109 11.5055C8.22089 11.5296 8.05557 11.6183 7.93585 11.7552C7.81612 11.892 7.75012 12.0676 7.7501 12.2494V13.4389L4.31063 9.99947L7.7501 6.56V7.74949C7.7501 8.16349 8.10334 8.49948 8.51659 8.49948C9.19908 8.49948 14.602 8.65023 15.7758 13.3182C14.5353 12.4047 12.565 11.4057 9.88233 11.4057Z" fill="#686868"/>
</svg>
