<svg width="25" height="25" viewBox="0 0 25 25" fill="none" xmlns="http://www.w3.org/2000/svg">
<circle opacity="0.2" cx="12.5" cy="13.3444" r="9.5" fill="black"/>
<circle cx="12.5" cy="12.5" r="9.5" fill="#FFB8B4"/>
<circle cx="12.2361" cy="12.7639" r="7.65278" fill="#C57C7C"/>
<circle cx="12.5002" cy="12.5" r="7.22" fill="#F89C9C"/>
<path d="M16.1671 11.9139C16.1592 11.9056 16.1434 11.8974 16.1355 11.8891C16.1118 11.8727 16.088 11.8562 16.0722 11.8397C16.0248 11.8067 16.0327 11.7161 16.0959 11.7161C16.1038 11.7161 16.1038 11.7161 16.1118 11.7161C16.2857 11.3206 16.4439 10.8344 16.1671 10.4388C15.9536 10.1257 15.5582 10.0927 15.2181 10.0515C15.1391 10.101 14.9967 10.0433 15.0204 9.91144C15.1865 9.1698 14.1822 8.46113 13.5733 8.88963C13.5337 8.98852 13.3835 9.005 13.336 8.88139C13.0751 8.05735 11.9996 8.11503 11.6358 8.82371C11.707 8.93083 11.5567 9.0874 11.446 8.98852C11.1218 8.68362 10.6948 8.83195 10.3468 9.01324C10.157 9.11212 9.99885 9.22749 9.9514 9.45822C9.92768 9.59007 9.93558 9.73015 9.93558 9.862C10.0542 9.93616 9.94349 10.1339 9.80905 10.0763C8.90754 9.70543 8.4726 10.8426 8.86009 11.543C8.97871 11.5348 9.02616 11.7243 8.89963 11.7738C7.80832 12.1611 8.36188 13.4878 8.97871 14.0399C9.39784 14.4107 10.0226 14.6744 10.2203 15.2512C10.2203 15.2512 10.2203 15.2512 10.2203 15.2595C10.2994 15.4408 10.3152 15.6468 10.244 15.861C10.1649 16.0835 9.91186 16.3967 10.2756 16.5697C10.3784 16.6191 10.6236 16.6027 10.7422 16.6027C11.0506 16.5944 11.3432 16.5203 11.6437 16.4543C11.6279 16.4131 11.6279 16.3555 11.6358 16.306C11.6437 16.2483 11.7149 16.2483 11.7465 16.2895C11.9363 16.545 12.4345 16.6356 12.7271 16.5944C13.0197 16.545 13.2174 16.3719 13.3281 16.1C13.3835 15.9599 13.6049 16.0506 13.5654 16.1906C13.5416 16.2566 13.5179 16.3225 13.4784 16.3884C13.6919 16.4708 13.9054 16.5697 14.1189 16.6356C14.2217 16.6686 14.3245 16.7098 14.4273 16.718C14.712 16.751 14.8307 16.5862 14.8465 16.339C14.8307 16.1659 14.8227 15.9929 14.8386 15.8116C14.8386 15.8033 14.8386 15.8033 14.8386 15.7951C14.8386 15.688 14.8465 15.5561 14.886 15.4408C14.886 15.4325 14.886 15.4243 14.886 15.416C14.9572 14.7486 15.4949 14.3613 15.9694 13.9822C16.3095 13.7185 16.689 13.3971 16.7207 12.9192C16.7444 12.4495 16.4913 12.1528 16.1671 11.9139ZM13.1067 11.9798C13.2095 11.2052 13.2807 10.4059 13.4784 9.65599C13.4942 9.60655 13.5733 9.60655 13.5733 9.66423C13.5733 10.3976 13.4467 11.1475 13.3519 11.8727C13.249 12.639 13.1937 13.4548 12.996 14.2047C12.9723 14.2871 12.8457 14.2871 12.8457 14.1882C12.8536 13.4548 13.0039 12.7049 13.1067 11.9798ZM11.4223 15.0947C10.9241 14.7486 10.4812 14.2377 10.1175 13.7515C9.77742 13.2983 9.44529 12.7626 9.37411 12.1776C9.3662 12.1116 9.46901 12.0704 9.50064 12.1364C9.76951 12.7132 10.0147 13.2323 10.418 13.7268C10.7659 14.1553 11.2088 14.5178 11.5409 14.9546C11.5963 15.037 11.4935 15.1441 11.4223 15.0947ZM11.5567 14.3118C10.7659 13.3724 10.3231 11.815 10.3152 10.5872C10.3152 10.5212 10.4101 10.5048 10.4259 10.5707C10.5445 11.1887 10.6631 11.7985 10.8687 12.4001C11.0822 13.0346 11.4144 13.6032 11.6833 14.2129C11.707 14.2789 11.62 14.386 11.5567 14.3118ZM11.5884 9.76312C11.6042 9.71367 11.6833 9.71367 11.6833 9.77136C11.7386 11.2958 12.1736 12.7874 12.1736 14.3201C12.1736 14.4272 12.0312 14.4272 12.0154 14.3283C11.9047 13.529 11.8572 12.7214 11.7465 11.9303C11.6595 11.2629 11.3748 10.4223 11.5884 9.76312ZM13.2174 15.5726C12.996 15.7127 12.7034 15.7374 12.4503 15.7045C12.2526 15.6797 11.9363 15.6221 11.8256 15.4243C11.7386 15.2677 11.8019 14.8804 11.96 14.7403C12.1577 14.3778 12.7667 14.4519 13.0751 14.5838C13.4863 14.7815 13.6365 15.3007 13.2174 15.5726ZM13.5179 14.2377C13.4863 14.3283 13.3598 14.3036 13.3756 14.2047C13.4942 13.6279 13.7631 13.0922 14.0082 12.5566C14.285 11.9468 14.4748 11.337 14.6804 10.7025C14.6883 10.6778 14.7199 10.6778 14.7199 10.7025C14.7516 11.2629 14.5064 11.8232 14.2929 12.3259C14.0161 12.9686 13.7393 13.5784 13.5179 14.2377ZM14.8148 13.5949C14.5143 14.0976 14.2217 14.6167 13.8422 15.0617C13.7868 15.1276 13.684 15.0452 13.7235 14.9711C14.2455 13.9822 14.9097 13.0675 15.4238 12.0704C15.4475 12.0292 15.5107 12.054 15.5028 12.1034C15.4238 12.6555 15.0837 13.1334 14.8148 13.5949Z" fill="#FFF1EE"/>
<g style="mix-blend-mode:overlay" opacity="0.5">
<path d="M21.5722 9.71173C21.5658 9.68798 21.5616 9.67215 21.5552 9.64841L3.18528 14.5706C3.19165 14.5944 3.19589 14.6102 3.20225 14.6339C4.61043 19.8893 9.86881 23.0527 14.9385 21.6943C20.0082 20.3359 22.9804 14.9671 21.5722 9.71173Z" fill="black"/>
</g>
</svg>
