<svg width="20" height="20" viewBox="0 0 20 20" fill="none" xmlns="http://www.w3.org/2000/svg">
<path d="M12.0516 11.0322C12.0516 11.5212 12.0535 12.0105 12.0499 12.4995C12.0492 12.5891 12.0728 12.656 12.1337 12.7242C12.6456 13.2968 12.8959 13.9717 12.8672 14.737C12.8147 16.133 11.7823 17.2678 10.3989 17.4706C8.87816 17.6934 7.41358 16.6246 7.17197 15.1152C7.02768 14.2131 7.26134 13.4179 7.85898 12.7307C7.92546 12.6541 7.94883 12.5814 7.94859 12.4845C7.94618 11.5265 7.93871 5.58339 7.94979 4.62539C7.9616 3.61488 8.62307 2.65278 9.66249 2.51765C10.3165 2.43261 10.9924 2.65856 11.4667 3.11601C11.855 3.56333 12.054 4.08196 12.0516 4.67646C12.0504 5.13342 12.0516 10.5753 12.0516 11.0322ZM11.2384 11.2184C11.2384 10.6892 11.2412 5.17509 11.2374 4.64611C11.2297 4.13615 11.0399 3.72376 10.7036 3.50793C10.3271 3.26632 9.75956 3.18394 9.37222 3.44843C8.9856 3.71244 8.76688 4.16988 8.7635 4.63141C8.75604 5.64554 8.75483 11.6448 8.76639 12.6589C8.7688 12.8762 8.71316 13.0299 8.55393 13.1804C8.17791 13.5357 7.97557 13.9857 7.9457 14.5014C7.8703 15.8061 8.98223 16.8323 10.2789 16.6634C11.4891 16.5059 12.2951 15.3099 11.9933 14.1261C11.8822 13.6909 11.638 13.3428 11.3154 13.0424C11.2581 12.9889 11.2364 12.9323 11.2369 12.854C11.24 12.3089 11.2386 11.7635 11.2384 11.2184Z" fill="#4C4E54"/>
<path d="M10.569 13.3801C10.563 13.3546 10.5596 13.3291 10.5593 13.3047C10.5557 12.8521 10.5533 9.03432 10.5533 9.03432C10.5533 8.73514 10.3071 8.49281 10.0036 8.49281C9.69987 8.49281 9.45368 8.73514 9.45368 9.03432C9.45368 9.03432 9.45464 12.2935 9.45753 13.2708C9.45778 13.3069 9.45464 13.3406 9.44814 13.3727C8.9483 13.5868 8.5983 14.0833 8.5983 14.6614C8.5983 14.7929 8.61636 14.9206 8.65057 15.0413C8.81606 15.6307 9.35757 16.0629 10 16.0629C10.6776 16.0629 11.2425 15.5823 11.3735 14.9437C11.3735 14.9437 11.3735 14.9437 11.3735 14.9435C11.3921 14.8522 11.402 14.758 11.402 14.6612C11.402 14.0898 11.0599 13.5981 10.569 13.3801Z" fill="#FF9C28"/>
</svg>
