<svg width="24" height="24" viewBox="0 0 24 24" fill="none" xmlns="http://www.w3.org/2000/svg">
<path d="M23.3958 17.7534L1.37802 23.9765C1.12791 24.0391 0.877799 23.9609 0.627687 23.7417C0.377574 23.5225 0.197805 23.225 0.0883812 22.8493C-0.0210431 22.4736 -0.0288592 22.1292 0.0649331 21.816C0.158725 21.5029 0.338494 21.3151 0.604239 21.2524L22.622 15.0294C22.8721 14.9667 23.1222 15.045 23.3723 15.2642C23.6224 15.4834 23.8022 15.7808 23.9116 16.1566C24.021 16.5323 24.0289 16.8767 23.9351 17.1898C23.8413 17.5029 23.6615 17.6908 23.3958 17.7534ZM19.5034 14.137C19.4877 14.3092 19.4565 14.5205 19.4096 14.771L14.9076 16.0391C14.9701 15.6164 15.0014 15.272 15.0014 15.0059C15.0014 12.5636 13.7508 10.5597 11.2497 8.99413C11.2497 9.02544 11.2262 9.16634 11.1793 9.41683C11.1324 9.66732 11.0933 9.86301 11.0621 10.0039C11.0308 10.1448 10.9761 10.364 10.8979 10.6614C10.8198 10.9589 10.7416 11.2133 10.6635 11.4247C10.5853 11.636 10.4915 11.8943 10.3821 12.1996C10.2727 12.5049 10.1476 12.775 10.0069 13.0098C9.86623 13.2446 9.70991 13.4912 9.53795 13.7495C9.366 14.0078 9.1706 14.2427 8.95175 14.454C8.7329 14.6654 8.49842 14.8493 8.24831 15.0059C7.9982 15.1624 7.79498 15.4364 7.63866 15.8278L5.52833 15.2407C5.5127 15.2407 5.50098 15.2446 5.49316 15.2524L5.48144 15.2642L5.50488 15.2407L4.54351 14.9589C4.60604 14.4266 4.86397 13.6947 5.3173 12.7632C5.77063 11.8317 5.99729 11.0763 5.99729 10.4971C5.99729 9.76125 5.94649 9.02935 5.84488 8.30137C5.74327 7.57339 5.62213 6.95499 5.48144 6.44618C5.34075 5.93738 5.19615 5.47945 5.04765 5.07241C4.89914 4.66536 4.77018 4.36008 4.66075 4.15656L4.52007 3.85127C6.03637 4.49315 7.59958 5.40117 9.20968 6.57534C9.22531 6.51272 9.2683 6.38748 9.33864 6.19961C9.40899 6.01174 9.45588 5.89041 9.47933 5.83562C9.50278 5.78082 9.53795 5.67515 9.58485 5.51859C9.63175 5.36204 9.66301 5.24462 9.67864 5.16634C9.69427 5.08806 9.70991 4.9863 9.72554 4.86106C9.74117 4.73581 9.74899 4.61057 9.74899 4.48532C9.74899 3.76517 9.62393 3.02935 9.37382 2.27789C9.1237 1.52642 8.87359 0.95499 8.62348 0.563601L8.27176 0C8.42808 0.0626223 8.64693 0.16047 8.9283 0.293542C9.20968 0.426614 9.75289 0.720157 10.5579 1.17417C11.363 1.62818 12.1211 2.10568 12.8324 2.60665C13.5437 3.10763 14.3175 3.74951 15.1538 4.53229C15.9901 5.31507 16.6818 6.1135 17.2289 6.92759L17.2524 6.95108C17.6275 6.46575 18.1278 6.01957 18.753 5.61252C19.3783 5.20548 19.9098 4.91585 20.3475 4.74364L20.9806 4.48532C20.9337 4.54795 20.8595 4.63405 20.7579 4.74364C20.6562 4.85323 20.4765 5.08806 20.2185 5.44814C19.9606 5.80822 19.73 6.17613 19.5268 6.55186C19.3236 6.92759 19.1321 7.40117 18.9524 7.9726C18.7726 8.54403 18.6671 9.10372 18.6358 9.65166C19.2611 11.2955 19.5503 12.7906 19.5034 14.137ZM5.48144 15.2642L5.34075 15.5225C5.34075 15.4912 5.38764 15.4051 5.48144 15.2642ZM4.70765 18.9276L0.604239 17.7534C0.338494 17.6908 0.158725 17.5029 0.0649331 17.1898C-0.0288592 16.8767 -0.0210431 16.5323 0.0883812 16.1566C0.197805 15.7808 0.377574 15.4834 0.627687 15.2642C0.877799 15.045 1.12791 14.9667 1.37802 15.0294L9.91312 17.4481L4.70765 18.9276ZM23.3958 21.2524C23.6615 21.3151 23.8413 21.5029 23.9351 21.816C24.0289 22.1292 24.021 22.4736 23.9116 22.8493C23.8022 23.225 23.6224 23.5225 23.3723 23.7417C23.1222 23.9609 22.8721 24.0391 22.622 23.9765L13.7117 21.4638L18.9172 19.9843L23.3958 21.2524Z" fill="#8B8B8B"/>
</svg>
