<svg width="16" height="16" viewBox="0 0 16 16" fill="none" xmlns="http://www.w3.org/2000/svg">
<path d="M8 0.500244C3.86 0.500244 0.5 3.86024 0.5 8.00024C0.5 12.1402 3.86 15.5002 8 15.5002C12.14 15.5002 15.5 12.1402 15.5 8.00024C15.5 3.86024 12.14 0.500244 8 0.500244ZM5.9675 11.2177L3.275 8.52524C3.20556 8.45581 3.15048 8.37337 3.1129 8.28265C3.07533 8.19193 3.05598 8.09469 3.05598 7.99649C3.05598 7.8983 3.07533 7.80106 3.1129 7.71034C3.15048 7.61961 3.20556 7.53718 3.275 7.46774C3.34444 7.39831 3.42687 7.34323 3.51759 7.30565C3.60832 7.26807 3.70555 7.24873 3.80375 7.24873C3.90195 7.24873 3.99918 7.26807 4.08991 7.30565C4.18063 7.34323 4.26306 7.39831 4.3325 7.46774L6.5 9.62774L11.66 4.46774C11.8002 4.32751 11.9904 4.24873 12.1888 4.24873C12.3871 4.24873 12.5773 4.32751 12.7175 4.46774C12.8577 4.60798 12.9365 4.79817 12.9365 4.99649C12.9365 5.19481 12.8577 5.38501 12.7175 5.52524L7.025 11.2177C6.95562 11.2873 6.8732 11.3424 6.78247 11.3801C6.69174 11.4177 6.59448 11.4371 6.49625 11.4371C6.39802 11.4371 6.30076 11.4177 6.21003 11.3801C6.1193 11.3424 6.03689 11.2873 5.9675 11.2177Z" fill="#E2273A"/>
</svg>
