<svg width="25" height="25" viewBox="0 0 25 25" fill="none" xmlns="http://www.w3.org/2000/svg">
<path d="M7 11C8.10457 11 9 10.1046 9 9C9 7.89543 8.10457 7 7 7C5.89543 7 5 7.89543 5 9C5 10.1046 5.89543 11 7 11Z" fill="white"/>
<path d="M10.625 15.3333L8.75 12.6667L5 18H20L14.375 10L10.625 15.3333Z" fill="white"/>
<path d="M22.5 2H2.5C1.12125 2 0 3.17731 0 4.625V20.375C0 21.8227 1.12125 23 2.5 23H22.5C23.8787 23 25 21.8227 25 20.375V4.625C25 3.17731 23.8787 2 22.5 2ZM2.5 20.375V4.625H22.5L22.5025 20.375H2.5Z" fill="white"/>
</svg>
