<svg width="25" height="25" viewBox="0 0 25 25" fill="none" xmlns="http://www.w3.org/2000/svg">
<g opacity="0.1">
<path opacity="0.1" d="M19.2524 9.115C19.2524 9.08 19.2524 9.052 19.2524 9.017C19.2524 8.436 18.7069 8.282 18.7069 8.282C18.7069 8.282 18.2057 8.009 17.4906 7.645C16.2153 6.966 14.2617 6 13.3182 6C13.2739 6 13.2223 6 13.1633 6.007C13.1117 6 13.0528 6 13.0012 6C11.4605 6 7.42072 8.233 7.42072 8.233C7.42072 8.233 6.69091 8.401 6.75725 9.052C6.8236 9.703 6.69828 16.619 13.0012 20C18.3383 17.137 19.0682 11.789 19.2082 9.815C19.2377 9.458 19.2451 9.213 19.2524 9.115Z" fill="black"/>
<path opacity="0.1" d="M7.81126 16.052L4.951 16.094L4.94363 16.08L4.65613 16.57L5.45965 18.6L8.80645 18.67L9.38882 18.18H9.32985C9.02023 17.732 7.81126 16.052 7.81126 16.052Z" fill="black"/>
<path opacity="0.1" d="M6.10113 11.04H6.09376V8.772H2.06876L2.09087 8.835L1.88446 9.36L2.68799 11.53H5.73991L6.10113 11.04Z" fill="black"/>
<path opacity="0.1" d="M7.19229 14.89L7.17754 14.876L6.38139 12.328H3.49902L3.48428 12.3L3.19678 12.72L4.14037 15.24L6.83107 15.31L7.19229 14.89Z" fill="black"/>
<path opacity="0.1" d="M23.7933 8.835L23.8154 8.772H19.7831V11.04H19.7757L20.1369 11.53H23.1888L23.9997 9.36L23.7933 8.835Z" fill="black"/>
<path opacity="0.1" d="M22.3854 12.328H19.503L18.7069 14.876L18.6921 14.89L19.0534 15.31L21.7441 15.24L22.6877 12.72L22.4002 12.3L22.3854 12.328Z" fill="black"/>
<path opacity="0.1" d="M20.9406 16.094L18.0804 16.052C18.0804 16.052 16.864 17.732 16.5544 18.18H16.5102L17.0926 18.67L20.4394 18.6L21.2429 16.57L20.9554 16.08L20.9406 16.094Z" fill="black"/>
</g>
<path d="M17.8225 8.289C17.8225 8.289 13.6649 6 12.1242 6C10.5834 6 6.5437 8.233 6.5437 8.233C6.5437 8.233 5.81389 8.401 5.88024 9.052C5.93922 9.703 5.82127 16.619 12.1242 20C18.427 16.619 18.3091 9.759 18.3681 9.108C18.427 8.457 17.8225 8.289 17.8225 8.289Z" fill="#F39318"/>
<path d="M17.793 8.324C17.793 8.324 13.9006 6 12.4337 6C10.9667 6 7.07436 8.324 7.07436 8.324C7.07436 8.324 6.44038 8.492 6.49936 9.115C6.55833 9.738 6.44038 16.143 12.4337 19.37C18.4269 16.143 18.309 9.738 18.368 9.115C18.4269 8.492 17.793 8.324 17.793 8.324Z" fill="#FEEE53"/>
<path d="M16.8496 9.08699C16.8496 9.08699 13.6355 7.16899 12.4339 7.16899C11.2322 7.16899 8.01077 9.08699 8.01077 9.08699C8.01077 9.08699 7.48738 9.22699 7.53898 9.73799C7.58321 10.249 7.49475 15.534 12.4339 18.194C17.373 15.534 17.2771 10.249 17.3287 9.73799C17.3803 9.22699 16.8496 9.08699 16.8496 9.08699Z" fill="#F79E2C"/>
<path d="M1.18433 8.772H5.20933V11.047H2.07631L1.18433 8.772Z" fill="#EF3D00"/>
<path d="M4.05212 16.094L6.91975 16.052C6.91975 16.052 8.17296 17.788 8.46046 18.201H4.87776L4.05212 16.094Z" fill="#EF3D00"/>
<path d="M2.5849 12.328H5.49676L6.29291 14.876L3.54323 14.785L2.5849 12.328Z" fill="#EF3D00"/>
<path d="M1.22115 8.8L1 9.36L1.80353 11.53H4.85545L5.21667 11.04L2.05417 11.005L1.22115 8.8Z" fill="#F39318"/>
<path d="M2.59982 12.3L2.31232 12.72L3.25591 15.24L5.94661 15.31L6.30783 14.89L3.58027 14.785L2.59982 12.3Z" fill="#F39318"/>
<path d="M4.0519 16.08L3.7644 16.57L4.56793 18.6L7.91473 18.67L8.48973 18.18H4.92915L4.0519 16.08Z" fill="#F39318"/>
<path d="M22.9313 8.772H18.9062V11.047H22.0393L22.9313 8.772Z" fill="#EF3D00"/>
<path d="M20.0637 16.094L17.196 16.052C17.196 16.052 15.9428 17.788 15.6553 18.201H19.238L20.0637 16.094Z" fill="#EF3D00"/>
<path d="M21.5306 12.328H18.6188L17.8226 14.876L20.5723 14.785L21.5306 12.328Z" fill="#EF3D00"/>
<path d="M22.8945 8.8L23.1156 9.36L22.3121 11.53H19.2602L18.899 11.04L22.0615 11.005L22.8945 8.8Z" fill="#F39318"/>
<path d="M21.5159 12.3L21.8034 12.72L20.8598 15.24L18.1691 15.31L17.8079 14.89L20.5354 14.785L21.5159 12.3Z" fill="#F39318"/>
<path d="M20.0636 16.08L20.3511 16.57L19.5475 18.6L16.2007 18.67L15.6257 18.18H19.1863L20.0636 16.08Z" fill="#F39318"/>
<g style="mix-blend-mode:overlay" opacity="0.5">
<path d="M12.5146 19.79C17.5127 16.885 18.213 11.74 18.3457 9.808C18.3678 9.458 18.3752 9.213 18.3825 9.115C18.3825 9.08 18.3825 9.052 18.3825 9.017C18.3825 8.436 17.837 8.282 17.837 8.282C17.837 8.282 17.3357 8.009 16.6207 7.645C15.4191 6.994 13.5982 6.091 12.6104 6L12.5146 19.79Z" fill="black"/>
</g>
<path d="M10 10.9201C10.4395 10.78 10.8621 10.8465 11.3049 10.8781C11.2779 10.8255 11.2576 10.787 11.2339 10.7414C11.2475 10.7344 11.261 10.7169 11.2711 10.7169C11.643 10.7379 11.8458 10.5347 11.9439 10.1878C11.998 10.0056 12.1366 9.9075 12.2786 9.80939C12.3293 9.77435 12.3766 9.73581 12.4375 9.68676C12.3563 9.66223 12.2955 9.64121 12.2143 9.61668C12.309 9.41696 12.3969 9.22775 12.5051 9C12.7688 9.55011 13.0156 10.0687 13.2691 10.6013C13.1474 10.6783 13.0325 10.7554 12.9141 10.829C12.9209 10.8465 12.9277 10.8641 12.9344 10.8816C13.1542 10.794 13.3773 10.7064 13.597 10.6223C13.6308 10.6083 13.6748 10.6048 13.7086 10.6153C14.1379 10.7064 14.5639 10.8045 15 10.8991C14.7295 11.3406 14.307 11.5333 13.854 11.7085C13.9216 11.7821 13.9723 11.8416 14.023 11.8977C13.7187 12.1254 13.783 12.4233 13.8573 12.7246C13.8675 12.7666 13.8675 12.8157 13.8742 12.8858C13.7492 12.8402 13.641 12.7982 13.5328 12.7596C13.8709 13.082 14.0669 13.4639 14.0331 13.9685C13.9858 13.9474 13.9385 13.9264 13.8911 13.9019C13.4787 13.6776 13.0629 13.4569 12.6538 13.2221C12.5423 13.1591 12.4544 13.1486 12.3462 13.2221C12.2583 13.2817 12.1569 13.3273 12.0521 13.3833C12.0419 13.3378 12.0352 13.2992 12.0216 13.2362C11.8492 13.3798 11.6937 13.527 11.5179 13.6496C11.3421 13.7722 11.1528 13.8704 10.9297 14C10.9905 13.6146 11.0683 13.2817 11.092 12.9418C11.119 12.5739 11.2542 12.3146 11.5957 12.185C11.616 12.178 11.6295 12.1605 11.6836 12.1219C11.616 12.1219 11.5855 12.1149 11.5585 12.1219C11.2813 12.185 11.0818 12.0729 10.8959 11.8591C10.6457 11.5753 10.3685 11.316 10.1014 11.0498C10.0811 11.0112 10.0439 10.9692 10 10.9201Z" fill="#FEEE53"/>
</svg>
