<svg width="34" height="34" viewBox="0 0 34 34" fill="none" xmlns="http://www.w3.org/2000/svg">
<path d="M12.4271 10.06C12.4271 10.06 12.452 10.0359 12.4768 10.0239L13.5821 9.37312C13.6194 9.36107 13.607 9.34901 13.5821 9.34901L13.4455 9.33696C13.4083 9.33696 13.371 9.31286 13.3462 9.28876L10.1792 5.8302C9.86872 5.49278 9.32227 5.44458 8.9621 5.74585L8.36597 6.23993C7.89403 6.62555 7.94371 7.34859 8.46532 7.67396L12.365 10.048C12.4023 10.048 12.4271 10.06 12.4271 10.06Z" fill="#B1532B"/>
<path d="M21.9893 21.4597C21.9645 21.4597 21.9148 21.4477 21.8775 21.4477L21.0454 21.0621C21.0206 21.038 20.9833 21.0018 20.9585 20.9777L20.8964 20.8934C20.8715 20.8693 20.8591 20.8693 20.8715 20.9054L20.9212 21.4356C20.9212 21.4718 20.9461 21.52 20.9585 21.5441L22.4861 24.0386C22.4985 24.0627 22.5358 24.0747 22.573 24.0627L23.3058 23.6409C23.3306 23.6289 23.343 23.5927 23.3306 23.5566L22.0762 21.52C22.0638 21.4959 22.039 21.4718 22.039 21.4718C21.9893 21.4597 21.9893 21.4597 21.9893 21.4597Z" fill="#B1532B"/>
<path d="M18.6491 4.49148C19.2701 4.98556 19.6551 6.52806 19.6551 6.52806C19.6675 6.56421 19.6675 6.61241 19.6675 6.64857C19.6675 6.64857 19.6302 7.11854 19.5557 7.35956C19.444 7.72108 16.9228 9.27562 16.9228 9.27562C16.898 9.28767 16.8483 9.28767 16.8234 9.27562C16.8234 9.27562 14.2278 7.56442 14.1408 7.19085C14.1036 6.99804 14.0787 6.66062 14.0787 6.66062C14.0787 6.62446 14.0787 6.57626 14.0912 6.54011C14.0912 6.54011 14.5507 4.85301 15.2834 4.37098C15.3828 4.28662 18.4007 4.29867 18.6491 4.49148Z" fill="#B1532B"/>
<path d="M15.5561 3.93708C15.5809 3.93708 17.2576 3.84067 18.3132 3.97323L16.9595 2.76816L15.5561 3.93708Z" fill="#B1532B"/>
<path d="M20.3007 18.5796C20.3007 18.5435 20.2883 18.5194 20.2883 18.5314C20.2883 18.5435 20.2635 18.5194 20.2386 18.4953L13.1595 10.0357C13.1347 10.0116 13.0974 9.99952 13.0726 10.0236L12.7249 10.2887C12.7 10.3128 12.6628 10.349 12.6503 10.3851L10.7253 20.1462C10.7253 20.1824 10.7377 20.2306 10.7502 20.2547C10.7502 20.2547 11.1973 21.1103 11.7189 21.1103C11.7437 21.1103 11.7437 21.1103 11.7437 21.1103C11.7686 21.1103 11.8058 21.0982 11.8431 21.0862L12.7 20.1462C12.7124 20.1101 12.7249 20.0619 12.7249 20.0257L13.4949 12.5302C13.5073 12.494 13.5073 12.494 13.5073 12.5302V17.7361C13.5073 17.7722 13.5073 17.8204 13.5073 17.8566L12.4641 30.3411C12.4641 30.3773 12.4641 30.4255 12.4765 30.4617L13.8054 31.98C13.8302 31.9921 13.8923 32.0041 13.9171 31.9921L15.482 30.7027C15.4944 30.6786 15.5192 30.6183 15.5192 30.5942L16.4259 19.7365C16.4259 19.7004 16.4631 19.6763 16.488 19.6763H17.2331C17.2704 19.6763 17.2952 19.7004 17.2952 19.7365L18.2018 30.5942C18.2018 30.6304 18.2267 30.6665 18.2515 30.6906L19.804 31.9921C19.8412 32.0041 19.8909 32.0041 19.9157 31.98L21.2322 30.4496C21.257 30.4255 21.2695 30.3773 21.2695 30.3411L20.3007 18.5796Z" fill="#B1532B"/>
<path d="M14.4757 9.56554C14.4757 9.56554 14.4633 9.56554 14.4509 9.56554C14.4384 9.56554 14.3763 9.56554 14.3515 9.57759L13.6312 9.73425C13.5939 9.7463 13.5939 9.7704 13.6063 9.7945L20.1887 17.6757C20.2135 17.6998 20.2259 17.6998 20.2259 17.6636V12.53C20.2259 12.4939 20.2383 12.4939 20.2383 12.53L21.0083 20.0256C21.0083 20.0617 21.0208 20.1099 21.0332 20.1461L21.8901 21.086C21.915 21.0981 21.9646 21.1101 21.9895 21.1101C21.9895 21.1101 21.9895 21.1101 22.0143 21.1101C22.5359 21.1101 22.983 20.2545 22.983 20.2545C22.9955 20.2304 23.0079 20.1702 23.0079 20.1461L21.0829 10.3729C21.0704 10.3368 21.0332 10.3006 21.0083 10.2886L19.3938 9.57759C19.3566 9.57759 19.3193 9.56554 19.3069 9.56554C19.2945 9.56554 19.2448 9.56554 19.2075 9.56554L16.9348 11.2044L14.5378 9.56554C14.5005 9.56554 14.4757 9.56554 14.4757 9.56554Z" fill="#B1532B"/>
</svg>
