<svg width="25" height="25" viewBox="0 0 25 25" fill="none" xmlns="http://www.w3.org/2000/svg">
<path opacity="0.1" d="M3 5V6.30619H4.46407V7.22212V19.392L12.1957 22.5221L19.6312 19.392V7.22212V6.30619H21.0952V5H3Z" fill="black"/>
<path d="M19.6312 18.392L12.1957 21.5221L4.46411 18.392V5.3062H19.6312V18.392Z" fill="#FFD930"/>
<path opacity="0.1" d="M19.6312 5.3062H4.46411V6.21416H19.6312V5.3062Z" fill="black"/>
<path d="M18.1341 7.47257H5.96092C5.77996 7.47257 5.64014 7.32921 5.64014 7.16195C5.64014 6.98673 5.78819 6.85133 5.96092 6.85133H18.1341C18.315 6.85133 18.4549 6.9947 18.4549 7.16195C18.4631 7.32921 18.315 7.47257 18.1341 7.47257Z" fill="#F39318"/>
<path d="M5.63196 8.09381H18.4631V17.4841L12.0146 20.0407L5.63196 17.3089V8.09381Z" fill="#F39318"/>
<g style="mix-blend-mode:overlay" opacity="0.6">
<path d="M12.3354 21.5221L19.6311 18.4558V5.36992H12.3354V21.5221Z" fill="black"/>
</g>
<path opacity="0.1" d="M8.05839 12.6018C8.03371 12.323 8.30514 12.0442 8.59302 12.0283C8.8151 12.0204 8.98782 12.0841 9.11943 12.2593C9.25925 12.4504 9.2757 12.6575 9.177 12.8726C9.12765 12.9841 9.11943 12.9841 9.2099 13.0558C9.4731 13.2708 9.73631 13.4858 9.99951 13.7088C10.1147 13.8044 10.2298 13.9 10.345 13.9956C10.3943 14.0434 10.419 14.0274 10.4437 13.9717C10.7233 13.4221 11.003 12.8646 11.2826 12.315C11.3813 12.1239 11.4718 11.9327 11.5705 11.7416C11.5952 11.7018 11.587 11.6699 11.5458 11.646C11.3813 11.5425 11.2909 11.3832 11.2826 11.192C11.2744 10.9929 11.3484 10.8177 11.5129 10.6903C11.7597 10.4991 12.1134 10.5389 12.319 10.7619C12.4999 10.9611 12.5246 11.2956 12.3437 11.5186C12.3025 11.5664 12.2614 11.6062 12.2121 11.646C12.1709 11.6779 12.1627 11.7018 12.1874 11.7496C12.4259 12.2195 12.6644 12.6894 12.903 13.1593C13.0428 13.4301 13.1826 13.7088 13.3142 13.9796C13.3389 14.0274 13.3554 14.0434 13.4047 14.0035C13.5939 13.8442 13.7913 13.685 13.9887 13.5177C14.1861 13.3504 14.3835 13.1911 14.5891 13.0319C14.6302 13 14.6385 12.9761 14.6056 12.9283C14.4493 12.6734 14.4986 12.3628 14.7125 12.1717C14.9263 11.9726 15.2965 11.9805 15.5103 12.1796C15.7077 12.3708 15.7489 12.5938 15.6584 12.8407C15.5761 13.0558 15.3952 13.1911 15.1402 13.1991C15.0004 13.2071 15.0004 13.1991 14.9757 13.3345C14.8934 13.7327 14.803 14.131 14.7207 14.5292C14.6549 14.8478 14.5891 15.4133 14.5233 15.7319C14.5151 15.7876 13.9393 15.2938 11.9571 15.1982C9.95016 15.1982 9.26748 15.7558 9.25925 15.692C9.19345 15.3496 9.11943 14.7761 9.0454 14.4416C8.96315 14.0513 8.8809 13.6611 8.79865 13.2708C8.79042 13.231 8.77397 13.2071 8.72462 13.215C8.57657 13.223 8.43674 13.1911 8.32159 13.1035C8.14064 12.9681 8.05016 12.8088 8.05839 12.6018Z" fill="black"/>
<path d="M8.41221 12.1398C8.38753 11.861 8.65896 11.5823 8.94684 11.5664C9.16892 11.5584 9.34164 11.6221 9.47325 11.7973C9.61307 11.9885 9.62952 12.1956 9.53082 12.4106C9.48147 12.5221 9.47325 12.5221 9.56372 12.5938C9.82693 12.8088 10.0901 13.0239 10.3533 13.2469C10.4685 13.3425 10.5836 13.438 10.6988 13.5336C10.7481 13.5814 10.7728 13.5655 10.7975 13.5097C11.0771 12.9602 11.3568 12.4026 11.6364 11.8531C11.7351 11.6619 11.8256 11.4708 11.9243 11.2796C11.949 11.2398 11.9408 11.2079 11.8997 11.1841C11.7351 11.0805 11.6447 10.9212 11.6364 10.7301C11.6282 10.531 11.7022 10.3557 11.8668 10.2283C12.1135 10.0372 12.4672 10.077 12.6728 10.3C12.8538 10.4991 12.8784 10.8336 12.6975 11.0566C12.6564 11.1044 12.6152 11.1442 12.5659 11.1841C12.5248 11.2159 12.5165 11.2398 12.5412 11.2876C12.7797 11.7575 13.0183 12.2274 13.2568 12.6973C13.3966 12.9681 13.5364 13.2469 13.668 13.5177C13.6927 13.5655 13.7092 13.5814 13.7585 13.5416C13.9477 13.3823 14.1451 13.223 14.3425 13.0557C14.5399 12.8885 14.7373 12.7292 14.9429 12.5699C14.9841 12.538 14.9923 12.5141 14.9594 12.4664C14.8031 12.2115 14.8525 11.9009 15.0663 11.7097C15.2802 11.5106 15.6503 11.5186 15.8642 11.7177C16.0616 11.9088 16.1027 12.1318 16.0122 12.3787C15.93 12.5938 15.749 12.7292 15.494 12.7372C15.3542 12.7451 15.3542 12.7372 15.3295 12.8726C15.2473 13.2708 15.1568 13.669 15.0745 14.0672C15.0087 14.3858 14.9429 14.9513 14.8771 15.2699C14.8689 15.3257 14.2932 14.8318 12.3109 14.7363C10.304 14.7363 9.6213 15.2938 9.61307 15.2301C9.54727 14.8876 9.47325 14.3141 9.39922 13.9796C9.31697 13.5894 9.23472 13.1991 9.15247 12.8088C9.14424 12.769 9.12779 12.7451 9.07844 12.7531C8.93039 12.761 8.79056 12.7292 8.67541 12.6416C8.48623 12.5062 8.40398 12.3469 8.41221 12.1398Z" fill="#FFD930"/>
</svg>
