<svg width="25" height="25" viewBox="0 0 25 25" fill="none" xmlns="http://www.w3.org/2000/svg">
<path opacity="0.2" d="M12.0002 22C16.9707 22 21.0002 17.9706 21.0002 13C21.0002 8.02945 16.9707 4.00002 12.0002 4.00002C7.02962 4.00002 3.00018 8.02945 3.00018 13C3.00018 17.9706 7.02962 22 12.0002 22Z" fill="black"/>
<path d="M12.1432 21.2342C17.0829 21.2342 21.0874 17.1648 21.0874 12.1449C21.0874 7.12499 17.0829 3.05556 12.1432 3.05556C7.20338 3.05556 3.19891 7.12499 3.19891 12.1449C3.19891 17.1648 7.20338 21.2342 12.1432 21.2342Z" fill="#FFD930"/>
<path d="M12.0019 19.4587C15.8987 19.4587 19.0576 16.2485 19.0576 12.2885C19.0576 8.32849 15.8987 5.11827 12.0019 5.11827C8.10508 5.11827 4.94611 8.32849 4.94611 12.2885C4.94611 16.2485 8.10508 19.4587 12.0019 19.4587Z" fill="#D7B527"/>
<path d="M12.1432 19.0352C15.888 19.0352 18.9238 15.9502 18.9238 12.1446C18.9238 8.33896 15.888 5.25391 12.1432 5.25391C8.3983 5.25391 5.36249 8.33896 5.36249 12.1446C5.36249 15.9502 8.3983 19.0352 12.1432 19.0352Z" fill="#FEEE53"/>
<g style="mix-blend-mode:overlay">
<path d="M20.8317 9.98853C20.826 9.96698 20.8221 9.95262 20.8163 9.93108L3.52793 14.5635C3.5337 14.585 3.53755 14.5994 3.54332 14.6209C4.82106 19.3895 9.73127 22.2227 14.5025 20.9442C19.2737 19.6658 22.1095 14.7571 20.8317 9.98853Z" fill="black"/>
</g>
<path d="M8 11.0722C8.70318 10.8479 9.37931 10.9545 10.0879 11.0049C10.0446 10.9208 10.0122 10.8592 9.97431 10.7863C9.99594 10.7751 10.0176 10.747 10.0338 10.747C10.6288 10.7807 10.9533 10.4555 11.1102 9.90051C11.1968 9.60899 11.4185 9.45201 11.6457 9.29504C11.7268 9.23898 11.8026 9.17731 11.8999 9.09882C11.7701 9.05958 11.6728 9.02594 11.5429 8.9867C11.6944 8.66715 11.835 8.36442 12.0081 8.00002C12.43 8.88018 12.8249 9.7099 13.2306 10.562C13.0358 10.6854 12.8519 10.8087 12.6626 10.9264C12.6734 10.9545 12.6842 10.9825 12.6951 11.0105C13.0467 10.8704 13.4037 10.7302 13.7552 10.5957C13.8093 10.5732 13.8796 10.5676 13.9337 10.5845C14.6207 10.7302 15.3022 10.8872 16 11.0386C15.5673 11.7449 14.8911 12.0533 14.1663 12.3336C14.2745 12.4513 14.3556 12.5466 14.4368 12.6363C13.95 13.0007 14.0527 13.4772 14.1717 13.9594C14.188 14.0266 14.188 14.1051 14.1988 14.2173C13.9986 14.1444 13.8256 14.0771 13.6525 14.0154C14.1934 14.5312 14.5071 15.1423 14.453 15.9496C14.3773 15.9159 14.3016 15.8823 14.2258 15.843C13.5659 15.4842 12.9006 15.1311 12.2461 14.7554C12.0676 14.6545 11.927 14.6377 11.7539 14.7554C11.6133 14.8507 11.451 14.9236 11.2833 15.0133C11.2671 14.9404 11.2563 14.8788 11.2346 14.7779C10.9588 15.0077 10.7099 15.2432 10.4287 15.4394C10.1474 15.6356 9.84449 15.7926 9.48749 16C9.58486 15.3833 9.70926 14.8507 9.74713 14.307C9.7904 13.7183 10.0068 13.3034 10.5531 13.096C10.5855 13.0848 10.6072 13.0568 10.6937 12.9951C10.5855 12.9951 10.5368 12.9839 10.4936 12.9951C10.05 13.096 9.7309 12.9166 9.4334 12.5746C9.03313 12.1205 8.58959 11.7057 8.16227 11.2796C8.12982 11.218 8.07032 11.1507 8 11.0722Z" fill="#604330"/>
</svg>
