<svg width="25" height="25" viewBox="0 0 25 25" fill="none" xmlns="http://www.w3.org/2000/svg">
<path opacity="0.2" d="M12.0002 22C16.9707 22 21.0002 17.9706 21.0002 13C21.0002 8.02945 16.9707 4.00002 12.0002 4.00002C7.02962 4.00002 3.00018 8.02945 3.00018 13C3.00018 17.9706 7.02962 22 12.0002 22Z" fill="black"/>
<path d="M12.1432 21.2342C17.0829 21.2342 21.0874 17.1648 21.0874 12.1449C21.0874 7.12499 17.0829 3.05556 12.1432 3.05556C7.20338 3.05556 3.19891 7.12499 3.19891 12.1449C3.19891 17.1648 7.20338 21.2342 12.1432 21.2342Z" fill="#C9CECD"/>
<path d="M12.0018 19.4587C15.8986 19.4587 19.0576 16.2485 19.0576 12.2885C19.0576 8.32849 15.8986 5.11827 12.0018 5.11827C8.10502 5.11827 4.94604 8.32849 4.94604 12.2885C4.94604 16.2485 8.10502 19.4587 12.0018 19.4587Z" fill="#888989"/>
<path d="M12.1432 19.0352C15.888 19.0352 18.9238 15.9502 18.9238 12.1446C18.9238 8.33896 15.888 5.25391 12.1432 5.25391C8.3983 5.25391 5.36249 8.33896 5.36249 12.1446C5.36249 15.9502 8.3983 19.0352 12.1432 19.0352Z" fill="#DDDDDD"/>
<g clip-path="url(#clip0)">
<path d="M11.2565 15.163C11.1739 15.202 11.0816 15.228 11.0087 15.2844C10.9309 15.3451 10.8823 15.4319 10.8094 15.5013C10.6101 15.6921 10.4011 15.6878 10.1873 15.5273C9.91025 15.3234 9.73528 15.0719 9.64294 14.7596C9.56518 14.5037 9.46797 14.2522 9.36104 14.0006C9.30758 13.8749 9.33188 13.7881 9.42423 13.671C9.65752 13.3761 10.0026 13.272 10.3477 13.1462C10.7171 13.0118 10.7851 12.912 10.7559 12.5607C10.7511 12.474 10.7365 12.3829 10.7559 12.3049C10.824 12.0533 10.9649 11.9666 11.2517 12.0013C11.4558 12.0273 11.66 12.0793 11.8592 12.1184C11.8981 12.127 11.9467 12.1444 11.9759 12.1314C12.2578 12.0099 12.4911 12.1704 12.7389 12.2355C12.7924 12.2485 12.841 12.2788 12.8799 12.3135C13.0889 12.5087 13.327 12.6909 13.4971 12.912C13.6429 13.1029 13.7013 13.3501 13.8228 13.5583C13.9637 13.7968 13.9443 13.9963 13.7644 14.2088C13.3124 14.7509 12.875 15.3061 12.4279 15.8482C12.3841 15.9003 12.2821 15.935 12.2043 15.9436C11.971 15.9697 11.7377 15.9697 11.5044 15.9913C11.3392 16.0087 11.2274 15.974 11.1205 15.8352C11.0135 15.6964 11.0621 15.5967 11.135 15.4839C11.1885 15.3972 11.2371 15.3061 11.2906 15.2194C11.2857 15.202 11.2711 15.1847 11.2565 15.163ZM11.5287 14.417C11.8446 14.4647 12.0682 14.3172 12.1946 14.1438C12.3064 13.9963 12.2869 13.7708 12.3112 13.5799C12.3161 13.5496 12.2529 13.5019 12.2092 13.4845C12.0925 13.4368 11.9613 13.4151 11.8495 13.3588C11.5433 13.2156 11.3052 13.3544 11.033 13.4845C11.3197 13.7578 11.6016 14.0137 11.5287 14.417Z" fill="#3C3836"/>
<path d="M10.9941 11.5502C10.9941 11.3767 10.9795 11.1946 10.9989 11.0124C11.0378 10.5527 11.0864 10.0973 11.135 9.63756C11.1496 9.48576 11.1496 9.32963 11.2079 9.19084C11.2468 9.1041 11.3829 8.99567 11.4752 9.00001C11.5627 9.00435 11.7134 9.1388 11.7134 9.21253C11.694 9.71996 11.6454 10.2231 11.6065 10.7305C11.5968 10.8649 11.5676 10.9994 11.5822 11.1338C11.6016 11.4591 11.4315 11.6109 10.9941 11.5502Z" fill="#3C3836"/>
<path d="M12.9141 10.8866C12.7294 10.8519 12.6517 10.7565 12.6906 10.6047C12.7878 10.197 12.8752 9.78936 12.9967 9.39036C13.0211 9.31663 13.1863 9.23856 13.2884 9.22988C13.3467 9.22555 13.4196 9.36 13.4779 9.43806C13.4876 9.45107 13.4779 9.48143 13.4779 9.50312C13.4876 9.93682 13.2446 10.5397 12.9141 10.8866Z" fill="#3C3836"/>
<path d="M15.2518 10.4746C15.2178 10.5787 15.2178 10.6568 15.174 10.7131C14.9408 10.9994 14.7075 11.2813 14.4596 11.5589C14.3721 11.6586 14.0853 11.5805 14.0562 11.4504C14.0416 11.3941 14.0319 11.3247 14.0562 11.2813C14.2798 10.943 14.3964 10.5353 14.8047 10.3271C14.8873 10.2838 15.0282 10.3141 15.1303 10.3445C15.1886 10.3575 15.2178 10.4356 15.2518 10.4746Z" fill="#3C3836"/>
<path d="M8.83615 13.0161C8.3161 12.7819 8.18001 12.3352 8.00018 11.9102C8.25292 11.6716 8.66118 11.754 8.82643 12.075C8.88475 12.1921 8.93335 12.3135 8.98682 12.435C9.13263 12.7646 9.13263 12.7646 8.83615 13.0161Z" fill="#3C3836"/>
<path d="M14.9357 12.9858C14.751 12.8253 14.7219 12.6865 14.9163 12.539C15.1496 12.3569 15.3683 12.1617 15.6064 11.9839C15.7377 11.8841 15.8349 11.9839 15.9369 12.062C16.0536 12.1487 15.9904 12.2224 15.9467 12.3092C15.7425 12.7039 15.2954 12.7949 14.9357 12.9858Z" fill="#3C3836"/>
<path d="M12.2725 11.5675C12.2628 11.3464 12.4135 11.2206 12.569 11.1035C12.7002 10.9994 12.812 11.0601 12.8849 11.1642C12.9967 11.329 12.9044 11.7584 12.7197 11.8408C12.6371 11.8798 12.4815 11.8408 12.3892 11.7887C12.3211 11.754 12.3066 11.6456 12.2725 11.5675Z" fill="#3C3836"/>
<path d="M13.9736 12.0533C13.8764 12.1574 13.8084 12.2528 13.7112 12.3222C13.6577 12.3612 13.5605 12.3439 13.4779 12.3525C13.4779 12.2832 13.4439 12.1964 13.4779 12.1444C13.6334 11.8972 13.6577 11.8972 13.9736 12.0533Z" fill="#3C3836"/>
<path d="M14.5032 12.925C14.5713 13.0248 14.615 13.0898 14.6928 13.2069C14.4838 13.272 14.2942 13.3284 14.1095 13.3848C14.0901 13.3544 14.0706 13.3197 14.0512 13.2893C14.1922 13.1722 14.3331 13.0595 14.5032 12.925Z" fill="#3C3836"/>
</g>
<g style="mix-blend-mode:overlay">
<path d="M20.832 9.98853C20.8262 9.96698 20.8224 9.95262 20.8166 9.93108L3.52817 14.5635C3.53394 14.585 3.53779 14.5994 3.54356 14.6209C4.8213 19.3895 9.73151 22.2227 14.5027 20.9442C19.2739 19.6658 22.1097 14.7571 20.832 9.98853Z" fill="black"/>
</g>
<defs>
<clipPath id="clip0">
<rect width="8" height="7" fill="white" transform="translate(8.00018 9.00002)"/>
</clipPath>
</defs>
</svg>
