<svg width="34" height="34" viewBox="0 0 34 34" fill="none" xmlns="http://www.w3.org/2000/svg">
<path fill-rule="evenodd" clip-rule="evenodd" d="M8.86744 20.3454C8.86744 20.4336 8.04094 20.643 7.7434 20.9515C7.56709 21.1279 7.42383 21.3262 7.31363 21.5466V24.0482C7.75443 23.7176 8.19522 23.4861 8.86744 23.409V20.3454ZM8.86744 11.9482C8.86744 12.0364 8.04094 12.2457 7.7434 12.5543C7.56709 12.7306 7.42383 12.929 7.31363 13.1494V20.1361C7.64423 19.7724 8.19522 19.53 8.86744 19.4418V11.9482ZM7.32465 11.7498C7.32465 11.3862 8.20624 11.1437 8.87846 11.0556V7.99203C8.43766 8.08019 8.17318 8.26753 7.9087 8.52099C7.54505 8.88465 7.32465 9.38055 7.32465 9.92053V11.7498ZM24.9015 24.6763L9.26416 24.6873C8.71316 24.6873 8.21726 24.9187 7.8536 25.2714C7.48995 25.635 7.26955 26.1309 7.26955 26.6819C7.26955 27.2329 7.48995 27.7068 7.8536 28.0594C8.21726 28.4231 8.71316 28.6215 9.26416 28.6215H24.9126C24.5599 28.0705 24.3836 27.3101 24.3836 26.6268C24.3836 26.4064 24.4056 26.1971 24.4387 25.9767H9.26416C9.08784 25.9767 8.92254 26.0648 8.7903 26.186C8.625 26.3624 8.33848 26.3734 8.16216 26.1971C7.98584 26.0207 7.98584 25.7342 8.16216 25.5579C8.44868 25.2604 8.8454 25.084 9.25314 25.084H24.6811C24.7473 24.9849 24.8134 24.8196 24.9015 24.6763ZM24.4828 14.7803C24.9677 14.7803 25.3644 15.1771 25.3644 15.6619C25.3644 16.1468 24.9677 16.5435 24.4828 16.5435C23.9979 16.5435 23.6012 16.1468 23.6012 15.6619C23.6012 15.1771 23.9979 14.7803 24.4828 14.7803ZM5.99123 26.693V9.93155C5.99123 9.01689 6.33285 8.19039 6.93895 7.59531C7.54505 7.00023 8.36052 6.63657 9.27518 6.63657L14.675 6.61453L14.0468 7.91489H9.76006V23.398L25.684 23.409L25.6729 18.5492H22.7306C22.4882 18.5492 22.2567 18.4169 22.1355 18.1965L20.9674 15.9925C20.8572 15.7942 20.8572 15.5738 20.9674 15.3754L22.1135 13.1935C22.2127 12.962 22.4441 12.7747 22.7196 12.7747H25.706V7.92591H22.8408L22.9069 7.80469C23.0943 7.40797 23.1714 7.02227 23.1494 6.64759L26.3011 6.65861C26.6647 6.65861 26.9623 6.93411 26.9623 7.29777C26.9623 9.13811 26.9623 11.0225 26.9623 12.7857H27.4031C27.7667 12.7857 28.0092 13.1273 28.0092 13.491V17.899C28.0092 18.2627 27.7667 18.5161 27.4031 18.5161H26.9072V24.0482C26.9072 24.3016 26.797 24.522 26.5876 24.6322C26.5105 24.7094 26.4443 24.7865 26.3782 24.8636C25.9044 25.4036 25.684 26.0538 25.684 26.693C25.684 27.3431 25.9264 27.9933 26.4003 28.5333C26.4994 28.6435 26.6096 28.7537 26.7198 28.8529C26.9953 29.0953 27.0284 29.5141 26.786 29.7786C26.6537 29.9328 26.4554 30.01 26.268 29.999H9.25314C8.33848 29.999 7.53403 29.6243 6.92793 29.0292C6.33285 28.4341 5.99123 27.6076 5.99123 26.693ZM26.7529 14.0751H23.1163L22.3008 15.6179L23.1163 17.1607H26.7639L26.7529 14.0751Z" fill="#B1532B"/>
<path fill-rule="evenodd" clip-rule="evenodd" d="M13.033 19.1333L13.3195 19.2655L15.6998 17.4582L15.7329 17.4031L14.5758 16.4003L13.6171 16.246L18.3887 6.05252L20.5707 7.06636L20.7139 6.76882C20.8021 6.58148 20.5596 6.28394 20.196 6.00844C20.0086 5.86518 19.7772 5.73294 19.5348 5.62274C19.3034 5.51254 19.0499 5.42438 18.8075 5.3803C18.3667 5.28112 17.981 5.28112 17.8928 5.47948L12.8897 16.1689L13.033 19.1333ZM21.9151 7.33084L16.8459 18.1635C16.7908 18.2737 16.7137 18.3729 16.6145 18.439L12.8677 21.2822C12.5812 21.5026 12.1624 21.4475 11.942 21.1609C11.8539 21.0397 11.8098 20.9075 11.8098 20.7752L11.5784 16.0587C11.5784 15.9485 11.6004 15.8383 11.6445 15.7501L16.7137 4.91746C17.1214 4.04688 18.0912 3.85954 19.116 4.09096C19.4466 4.1681 19.7882 4.2783 20.1188 4.43258C20.4384 4.58686 20.747 4.76318 21.0225 4.97256C21.838 5.6007 22.3118 6.47128 21.9151 7.33084Z" fill="#B1532B"/>
</svg>
