<svg width="25" height="25" viewBox="0 0 25 25" fill="none" xmlns="http://www.w3.org/2000/svg">
<path d="M22.041 9.89688C21.0359 9.64561 19.989 9.81312 18.9839 9.89688C18.1045 9.98063 17.1831 10.0225 16.3456 10.2738C16.1781 9.51997 15.4661 8.72429 15.0474 8.17987C14.2517 7.1748 13.3303 6.54662 12.2834 5.79282H12.2415C12.2415 5.91845 12.2415 6.04409 12.2415 6.16972C11.404 7.04916 10.7339 8.26363 10.1895 9.43622C10.022 9.68749 9.81258 9.93876 9.60319 10.19C9.43568 10.6926 9.10065 10.9438 8.59811 10.902C8.13745 10.9438 7.71867 10.9857 7.25801 11.0695C6.37857 11.1951 5.49913 11.3207 4.57781 11.3626C4.2009 11.4045 3.90776 11.9489 4.24278 12.2002C5.54101 13.2053 6.83923 14.336 8.26309 15.1735C7.17426 17.1418 7.55116 19.6126 6.83923 21.7484C6.67172 22.2928 7.34177 22.6278 7.76055 22.4185C9.60319 21.3715 11.739 20.5339 13.4141 19.2357C13.456 19.1938 13.4979 19.152 13.5397 19.1101C14.2935 19.6545 15.2567 20.0314 16.0943 20.4083C17.1831 20.9108 18.3139 21.4553 19.4864 21.7484C20.0309 21.874 20.3659 21.204 20.0727 20.8271C20.0309 19.7383 19.5283 18.6494 19.1095 17.6862C18.7326 16.7649 18.3139 15.8436 17.8113 15.006C19.4446 13.8334 20.8265 12.3677 22.3342 11.0276C22.7111 10.5669 22.4598 9.98063 22.041 9.89688ZM17.0994 13.8753C16.9319 13.7078 16.6387 13.8334 16.7225 14.0847C17.0994 15.3829 17.6438 16.5974 18.1045 17.8537C18.3557 18.5238 18.5232 19.3195 18.7745 20.0314C18.0207 19.7383 17.225 19.4451 16.4712 19.1101C15.508 18.6913 14.4611 18.105 13.4141 17.9375C13.2885 17.8537 13.121 17.8537 12.9116 17.9375C11.3202 18.5657 9.89634 19.5707 8.4306 20.4921C8.76563 18.6913 8.80751 16.8068 9.05877 15.0479C9.05877 15.006 9.05877 15.006 9.05877 14.9641C9.05877 14.8385 9.05877 14.7129 8.97502 14.6291C8.17933 13.6659 7.13238 12.8284 6.04354 12.1164C6.79735 12.0327 7.55116 11.9908 8.26309 11.9489C8.8075 11.907 9.43568 11.9489 9.89634 11.6558C10.5664 11.237 10.9014 10.2319 11.3202 9.60373C11.8227 8.80805 12.3253 8.05424 12.6603 7.1748C12.9953 7.71921 13.4979 8.17987 13.791 8.64053C14.3354 9.43622 14.8798 10.902 15.843 11.1951C15.8849 11.1951 15.9687 11.1951 16.0106 11.1951C16.9738 11.3626 18.0207 11.2789 19.0258 11.2789C19.4446 11.2789 19.9052 11.2789 20.324 11.2789C19.3189 12.1583 18.1882 12.9959 17.0994 13.8753Z" fill="#745B4A"/>
<path d="M8.01186 5.20653C7.5512 4.66212 7.09054 4.1177 6.54613 3.61516C6.37861 3.44765 6.12735 3.65704 6.25298 3.86643C6.62988 4.45273 7.00679 5.03902 7.29993 5.62532C7.59308 6.16973 7.80247 6.92354 8.26313 7.34232C8.55628 7.59359 9.05882 7.3842 9.01694 7.0073C8.97506 6.29537 8.43065 5.70907 8.01186 5.20653Z" fill="#745B4A"/>
<path d="M7.13235 7.80296C6.8392 7.38418 6.33666 7.13291 5.91788 6.83976C5.45722 6.54661 5.03844 6.29534 4.5359 6.04407C4.159 5.83468 3.90773 6.3791 4.24275 6.58849C4.66153 6.88164 5.08032 7.17479 5.45722 7.50981C5.79225 7.84484 6.08539 8.22174 6.50417 8.43113C6.92296 8.6824 7.42549 8.17986 7.13235 7.80296Z" fill="#745B4A"/>
<path d="M6.5461 9.2687C4.8291 8.93368 3.11209 8.68241 1.35321 8.38926C0.976304 8.34738 0.850669 8.8918 1.22757 8.93368C2.94458 9.22682 4.66158 9.68748 6.33671 10.19C6.92301 10.3994 7.1324 9.39434 6.5461 9.2687Z" fill="#745B4A"/>
<path d="M18.3558 2.69383C17.6858 3.78266 16.932 4.82961 16.3457 5.91845C16.0944 6.37911 16.7645 6.71413 17.0157 6.29535C17.7276 5.2484 18.3139 4.07581 18.9421 2.98697C19.1515 2.61007 18.5652 2.31692 18.3558 2.69383Z" fill="#745B4A"/>
<path d="M21.371 4.57836C20.366 5.12278 19.3609 5.75095 18.5233 6.54663C18.0208 7.00729 18.8165 7.7611 19.2771 7.25856C20.0309 6.46288 20.8266 5.75095 21.7479 5.16465C22.1667 4.95526 21.7898 4.36897 21.371 4.57836Z" fill="#745B4A"/>
<path d="M23.5904 6.42099C22.2085 6.71413 20.7008 7.17479 19.4445 7.84484C18.9838 8.09611 19.3189 8.76616 19.8214 8.64053C21.1615 8.3055 22.6272 7.63545 23.8417 6.9654C24.1767 6.79789 23.9255 6.37911 23.5904 6.42099Z" fill="#745B4A"/>
</svg>
