<svg width="25" height="25" viewBox="0 0 25 25" fill="none" xmlns="http://www.w3.org/2000/svg">
<path d="M18.9281 15.6047C20.5337 13.0083 20.3288 10.0019 17.6982 8.22546C16.7075 7.57636 15.4776 7.06392 14.1794 6.79062C15.4093 6.31234 16.5708 5.62908 17.4591 4.74084C17.5616 4.63835 17.4932 4.46754 17.3566 4.46754C16.2292 4.2284 15.136 4.26256 14.0428 4.67252C13.8378 4.74084 13.6328 4.84333 13.462 4.97998C13.7011 4.5017 13.872 4.02342 13.872 3.54514C13.872 3.40849 13.7353 3.34016 13.6328 3.37432C13.3595 3.44265 13.0862 3.51098 12.8129 3.5793C13.1204 2.89604 13.2912 1.90532 12.9154 1.29038C12.6763 0.88043 12.5054 0.948756 12.1638 1.22206C11.1731 2.1103 10.1824 3.61346 9.84073 5.08247C9.53327 4.29672 8.9525 3.64763 8.23508 3.20351C8.20091 3.23767 8.09842 3.306 8.09842 3.40849C8.06426 3.71595 8.06426 4.02342 8.0301 4.33089C7.41517 3.68179 6.66358 3.27184 5.80951 3.03269C5.63869 2.99853 5.60453 3.20351 5.74118 3.27184C6.66358 3.5793 7.44933 4.12591 8.06426 4.87749C8.13259 4.97998 8.33756 4.91166 8.37173 4.775C8.40589 4.43337 8.44005 4.09175 8.44005 3.75012C9.25996 4.46754 9.70408 5.32161 9.80657 6.3465C9.80657 6.41482 9.80657 6.44899 9.80657 6.51731C9.80657 6.68813 9.80657 6.85894 9.80657 7.02976C9.73824 6.96143 9.63576 6.89311 9.53327 6.82478C9.36245 6.65396 9.15747 6.51731 8.98666 6.3465C8.64503 6.00487 8.37173 5.59491 8.0301 5.28745C7.96177 5.21912 7.82512 5.28745 7.85928 5.38994C8.0301 5.83405 8.37173 6.20985 8.67919 6.55148C8.74752 6.65397 8.85001 6.72229 8.9525 6.85894C8.33756 6.55148 7.75679 6.10736 7.27851 5.62908C6.90272 5.25328 6.56109 4.80917 6.28779 4.33089C6.08281 3.92093 5.94616 3.51098 5.60453 3.20351C5.57037 3.16935 5.5362 3.20351 5.5362 3.23767C5.36539 4.19423 6.35611 5.32161 6.97105 5.93654C7.62014 6.58564 8.40589 7.09808 9.25996 7.43971C8.81585 7.67885 8.40589 7.98632 8.06426 8.36211C6.01449 9.79696 4.64797 11.9151 5.16041 14.5798C5.5362 16.6295 6.93688 18.201 8.71336 19.0551C7.89345 20.1825 7.14186 21.549 6.73191 22.813C6.76607 22.9155 6.80023 23.0522 6.90272 23.1205C6.90272 23.1205 6.90272 23.1205 6.93688 23.1205C6.97105 23.1205 7.03937 23.1205 7.07354 23.1205C7.68847 22.9838 8.3034 22.7789 8.85001 22.5056C9.02082 23.0863 9.32829 23.5305 9.77241 23.9404C9.8749 24.0429 10.0457 24.0087 10.114 23.8721C10.729 22.4372 11.4806 21.0707 12.3005 19.7042C12.3005 19.7042 12.3005 19.67 12.3346 19.67C12.3688 19.67 12.4371 19.67 12.4713 19.67C13.3595 20.8999 14.2478 22.0956 15.1702 23.2913C15.2385 23.3938 15.341 23.428 15.4435 23.3938C15.4435 23.3938 15.4776 23.3938 15.4776 23.3596C15.5801 23.3255 15.6484 23.2572 15.7509 23.1547C15.7851 22.8814 15.7851 22.5739 15.7851 22.3006C15.7851 22.0273 15.7851 21.7881 15.7509 21.549C16.3317 21.959 17.0491 22.3006 17.7665 22.5056C17.8349 22.5056 17.869 22.5056 17.9032 22.5397C17.9715 22.5397 18.0398 22.5056 18.074 22.5056C18.1423 22.4714 18.1765 22.4031 18.2107 22.3348C18.2107 22.3006 18.2107 22.3006 18.2107 22.2664C17.2883 21.1049 16.4 19.9433 15.5118 18.7476C16.8783 18.0644 18.074 16.937 18.9281 15.6047ZM16.9466 4.74084C15.6484 5.62908 14.3844 6.27817 12.9496 6.68813C12.7787 6.68813 12.5738 6.68813 12.403 6.68813C13.3595 6.27817 14.3161 5.90238 15.2726 5.49243C15.3751 5.45826 15.3068 5.28745 15.2043 5.28745C14.1794 5.59491 13.1545 6.0732 12.198 6.58564C12.6079 6.24401 12.9837 5.86822 13.2912 5.4241C13.3254 5.4241 13.3254 5.38994 13.3595 5.38994C14.3844 4.70668 15.7168 4.46754 16.9466 4.74084ZM10.1824 6.38066C10.319 5.35577 10.524 4.39921 11.0706 3.44265C11.3097 2.99853 11.788 2.00781 12.2663 1.80283C13.1887 1.39287 12.4713 3.5793 12.3346 3.81844C12.2663 3.95509 12.403 4.12591 12.5738 4.09175C12.8812 3.98926 13.2229 3.92093 13.5303 3.81844C13.4278 4.63835 12.8471 5.45826 12.0955 6.10736C11.788 6.38066 11.4464 6.6198 11.0706 6.79062C10.8315 6.82478 10.6265 6.89311 10.3873 6.96143C10.6948 6.58564 10.9681 6.14152 11.2756 5.76573C11.6172 5.28745 11.993 4.80917 12.198 4.29672C12.2321 4.2284 12.1297 4.16007 12.0955 4.2284C11.6514 4.60419 11.3439 5.11663 11.0023 5.59491C10.729 5.97071 10.4557 6.38066 10.1824 6.79062C10.1824 6.6198 10.1824 6.48315 10.1824 6.38066ZM9.80657 23.428C9.46494 23.0522 9.25996 22.6422 9.15747 22.1639C9.12331 22.0273 8.9525 21.9931 8.85001 22.0273C8.37173 22.3006 7.89345 22.5056 7.41517 22.6422C8.13259 21.6173 8.74752 20.4216 9.19164 19.2601C9.8749 19.5334 10.5923 19.67 11.3097 19.7384C11.4122 19.7384 11.5147 19.7384 11.6172 19.7384C10.8998 20.8999 10.319 22.1298 9.80657 23.428ZM17.2541 21.8565C16.7416 21.6173 16.2292 21.4465 15.7168 21.2415C15.6484 21.2074 15.5801 21.2415 15.5801 21.3099C15.5459 21.3099 15.5118 21.344 15.4776 21.3782C15.341 21.7198 15.3068 22.2323 15.3751 22.6764C14.5552 21.6515 13.7353 20.6266 12.8812 19.6017C13.7011 19.4651 14.4869 19.2259 15.2385 18.8501C15.7851 19.9433 16.4683 20.9341 17.2541 21.8565ZM15.6143 17.7569C12.8812 19.4651 8.85001 19.3626 6.76607 16.6295C5.77534 15.3314 5.39955 13.589 5.87783 12.0175C6.28779 10.7194 7.21019 9.72863 8.26924 8.87456C9.36245 8.15713 10.4215 7.61053 11.6172 7.40555C11.7539 7.40555 11.8905 7.37139 12.0272 7.33722C12.3346 7.30306 12.6079 7.30306 12.9496 7.30306C14.7602 7.37139 16.7075 8.12297 18.074 9.35284C20.8754 12.0175 18.1765 16.1513 15.6143 17.7569Z" fill="#745B4A"/>
<path d="M15.8534 10.9585C14.521 8.77206 11.4805 8.46459 9.43074 9.83111C9.36242 9.89943 9.32826 9.96776 9.32826 10.0702C7.7226 11.2659 6.69771 13.2132 7.55178 15.2288C8.50835 17.4153 11.7538 18.3377 13.8378 17.3811C15.9559 16.3562 17.0491 12.9741 15.8534 10.9585ZM13.5645 16.8687C11.6172 17.7569 8.47418 16.8003 7.85925 14.6139C7.34681 12.8033 8.37169 11.2318 9.77237 10.2069C11.6172 9.48948 13.8378 9.21617 15.2043 11.0268C16.5025 12.735 15.4776 15.9804 13.5645 16.8687Z" fill="#745B4A"/>
<path d="M14.6577 12.5983C14.4869 10.651 12.0955 10.1728 10.5582 10.6852C10.4557 10.7194 10.4215 10.8218 10.4215 10.9243C9.22583 11.3685 8.26927 12.9058 8.47425 14.1357C8.74755 15.8438 10.9681 16.4929 12.4713 16.2879C14.0428 16.0488 14.7602 14.0332 14.6577 12.5983ZM12.0955 15.7755C10.8657 15.878 8.95253 15.3314 8.85004 13.8282C8.78171 12.53 9.94325 11.3685 11.1048 11.0268C12.4371 10.9243 13.9745 11.1635 14.1111 12.7691C14.2478 14.0332 13.462 15.673 12.0955 15.7755Z" fill="#745B4A"/>
<path d="M12.7788 12.9058C12.7788 12.5983 12.6421 12.2909 12.3346 12.12C11.7197 11.7443 10.6948 11.7784 10.2165 12.3592C9.73826 12.9741 10.0116 13.8965 10.6607 14.2723C11.2756 14.6481 12.1638 14.5456 12.608 13.9648C12.8813 13.6574 12.9154 13.2474 12.7788 12.9058Z" fill="#745B4A"/>
</svg>
