<?xml version="1.0" ?><svg height="24" viewBox="0 0 24 24" width="24" xmlns="http://www.w3.org/2000/svg"><title/><g data-name="Layer 2" id="Layer_2"><g data-name="Layer 1" id="Layer_1-2"><path d="M.5,20.5a3,3,0,0,0,3,3h20V3.5H3.5" fill="none" stroke="#000" stroke-linecap="round" stroke-linejoin="round"/><path d="M.5,20.5a3,3,0,0,1,3-3h0V.5h0a3,3,0,0,0-3,3v17" fill="none" stroke="#000" stroke-linecap="round" stroke-linejoin="round"/><polyline fill="none" points="7.897 20.5 10.494 11.237 13.091 20.5" stroke="#000" stroke-linecap="round" stroke-linejoin="round"/><line fill="none" stroke="#000" stroke-linecap="round" stroke-linejoin="round" x1="9.28558" x2="13.08108" y1="15.54852" y2="15.54852"/><line fill="none" stroke="#000" stroke-linecap="round" stroke-linejoin="round" x1="10.49421" x2="10.49421" y1="8.30282" y2="6.50281"/><path d="M11.04459,13.20058a2.51012,2.51012,0,0,0,2.043-2.418,2.54576,2.54576,0,0,0-2.60695-2.47976A2.54576,2.54576,0,0,0,7.8737,10.78258a2.51318,2.51318,0,0,0,2.068,2.42538" fill="none" stroke="#000" stroke-linecap="round" stroke-linejoin="round"/><path d="M9.94175,13.55186" fill="none" stroke="#000" stroke-linecap="round" stroke-linejoin="round"/><path d="M11.04459,13.54409" fill="none" stroke="#000" stroke-linecap="round" stroke-linejoin="round"/><path d="M19.57742,6.9402c0-.2783-.1162-.43739-.20809-.43739H17.76947c-.08985,0-.192.153-.192.4381v10.5619c0,.05059.8023,2.5736.8023,2.5736.07225.2907.3078.32549.3897.0002,0,0,.808-2.5231.808-2.5738Z" fill="none" stroke="#000" stroke-linecap="round" stroke-linejoin="round"/><line fill="none" stroke="#000" stroke-linecap="round" stroke-linejoin="round" x1="17.57742" x2="19.57742" y1="17.50281" y2="17.50281"/></g><g data-name="Layer 2" id="Layer_2-2"><rect fill="none" height="24" width="24"/></g></g></svg>