<svg width="24" height="24" xmlns="http://www.w3.org/2000/svg">
 <title/>

 <g>
  <title>background</title>
  <rect fill="none" id="canvas_background" height="402" width="582" y="-1" x="-1"/>
 </g>
 <g>
  <title>Layer 1</title>
  <path fill="#3d84f2" id="svg_1" d="m19.365,9.863c0.349,0 0.63,0.285 0.63,0.631c0,0.345 -0.281,0.63 -0.63,0.63l-1.755,0l0,1.125l1.755,0c0.349,0 0.63,0.283 0.63,0.63c0,0.344 -0.281,0.629 -0.63,0.629l-2.386,0c-0.345,0 -0.627,-0.285 -0.627,-0.629l0,-4.771c0,-0.345 0.282,-0.63 0.63,-0.63l2.386,0c0.346,0 0.627,0.285 0.627,0.63c0,0.349 -0.281,0.63 -0.63,0.63l-1.755,0l0,1.125l1.755,0zm-3.855,3.016c0,0.27 -0.174,0.51 -0.432,0.596c-0.064,0.021 -0.133,0.031 -0.199,0.031c-0.211,0 -0.391,-0.09 -0.51,-0.25l-2.443,-3.317l0,2.94c0,0.344 -0.279,0.629 -0.631,0.629c-0.346,0 -0.626,-0.285 -0.626,-0.629l0,-4.771c0,-0.27 0.173,-0.51 0.43,-0.595c0.06,-0.023 0.136,-0.033 0.194,-0.033c0.195,0 0.375,0.104 0.495,0.254l2.462,3.33l0,-2.956c0,-0.345 0.282,-0.63 0.63,-0.63c0.345,0 0.63,0.285 0.63,0.63l0,4.771zm-5.741,0c0,0.344 -0.282,0.629 -0.631,0.629c-0.345,0 -0.627,-0.285 -0.627,-0.629l0,-4.771c0,-0.345 0.282,-0.63 0.63,-0.63c0.346,0 0.628,0.285 0.628,0.63l0,4.771zm-2.466,0.629l-2.386,0c-0.345,0 -0.63,-0.285 -0.63,-0.629l0,-4.771c0,-0.345 0.285,-0.63 0.63,-0.63c0.348,0 0.63,0.285 0.63,0.63l0,4.141l1.756,0c0.348,0 0.629,0.283 0.629,0.63c0,0.344 -0.282,0.629 -0.629,0.629m16.697,-3.194c0,-5.371 -5.385,-9.742 -12,-9.742s-12,4.371 -12,9.742c0,4.811 4.27,8.842 10.035,9.608c0.391,0.082 0.923,0.258 1.058,0.59c0.12,0.301 0.079,0.766 0.038,1.08l-0.164,1.02c-0.045,0.301 -0.24,1.186 1.049,0.645c1.291,-0.539 6.916,-4.078 9.436,-6.975c1.724,-1.889 2.548,-3.824 2.548,-5.968"/>
 </g>
</svg>