<svg width="26" height="26" viewBox="0 0 26 26" fill="none" xmlns="http://www.w3.org/2000/svg">
<path d="M1 3.92694H11.5364" stroke="white" stroke-width="2" stroke-linecap="round" stroke-linejoin="round"/>
<path d="M16.8052 3.92694L25.0002 3.92694" stroke="white" stroke-width="2" stroke-linecap="round" stroke-linejoin="round"/>
<path d="M1 13.2928H3.63409" stroke="white" stroke-width="2" stroke-linecap="round" stroke-linejoin="round"/>
<path d="M9.19434 13.2928H24.9989" stroke="white" stroke-width="2" stroke-linecap="round" stroke-linejoin="round"/>
<path d="M1 22.0001H14.5001" stroke="white" stroke-width="2" stroke-linecap="round" stroke-linejoin="round"/>
<path d="M19.7312 22.0734H24.9994" stroke="white" stroke-width="2" stroke-linecap="round" stroke-linejoin="round"/>
<path d="M14.1709 6.26837C15.6257 6.26837 16.805 5.08901 16.805 3.63419C16.805 2.17937 15.6257 1 14.1709 1C12.7162 1 11.5368 2.17937 11.5368 3.63419C11.5368 5.08901 12.7162 6.26837 14.1709 6.26837Z" stroke="white" stroke-width="2" stroke-linecap="round" stroke-linejoin="round"/>
<path d="M6.56085 15.6344C8.01562 15.6344 9.19495 14.455 9.19495 13.0002C9.19495 11.5454 8.01562 10.366 6.56085 10.366C5.10608 10.366 3.92676 11.5454 3.92676 13.0002C3.92676 14.455 5.10608 15.6344 6.56085 15.6344Z" stroke="white" stroke-width="2" stroke-linecap="round" stroke-linejoin="round"/>
<path d="M17.0964 25.0002C18.5512 25.0002 19.7305 23.8208 19.7305 22.366C19.7305 20.9112 18.5512 19.7318 17.0964 19.7318C15.6417 19.7318 14.4623 20.9112 14.4623 22.366C14.4623 23.8208 15.6417 25.0002 17.0964 25.0002Z" stroke="white" stroke-width="2" stroke-linecap="round" stroke-linejoin="round"/>
</svg>
