<svg width="1440" height="41" viewBox="0 0 1440 41" fill="none" xmlns="http://www.w3.org/2000/svg">
<path d="M28.6779 16.5184C32.4957 19.2264 36.9794 3.24488 38.7551 0.536901C40.5309 -2.17108 33.1616 5.81968 30.4536 14.2988C28.6779 16.5184 21.0423 1.69112 18.4675 2.31262C18.4231 2.31262 24.8157 13.8104 28.6779 16.5184Z" fill="#522C14"/>
<path d="M28.7667 24.2872C24.9489 21.5792 20.4652 37.5607 18.6895 40.2687C16.9138 42.9767 24.283 34.9859 26.991 26.5069C28.7667 24.2872 36.4023 39.1145 38.9771 38.493C38.9771 38.493 32.5845 26.9952 28.7667 24.2872Z" fill="#522C14"/>
<path d="M34.8486 22.1119C32.6289 20.3361 47.4562 12.7005 46.8347 10.1257C46.8347 10.1257 35.3369 16.5183 32.6289 20.3361C29.9209 24.1539 45.9024 28.6376 48.6104 30.4134C51.274 32.1891 43.2832 24.8198 34.8486 22.1119Z" fill="#522C14"/>
<path d="M24.8157 20.4695C27.5237 16.6517 11.5422 12.168 8.83422 10.3923C6.12625 8.61653 14.117 15.9858 22.5961 18.6938C24.8157 20.4695 9.98844 28.1051 10.6099 30.6799C10.6099 30.6799 22.1077 24.2873 24.8157 20.4695Z" fill="#522C14"/>
<path d="M28.7223 37.1169C29.6546 39.7361 33.9607 36.0515 31.3415 33.6542C31.3415 33.6098 27.7901 34.4533 28.7223 37.1169Z" fill="#522C14"/>
<path d="M27.9676 7.72857C30.1429 6.52995 27.9676 2.71215 26.1919 3.15608C25.6148 3.33365 25.8368 8.92718 27.9676 7.72857Z" fill="#522C14"/>
<path d="M1.55376 23.7989L2.08647 23.2218C2.08647 23.2218 3.77341 3.7332 0.532717 4.84303C0.532717 4.84303 -0.665896 29.126 0.532717 34.0981C1.73133 39.0257 3.99538 33.6541 2.79676 29.0816C1.59815 24.5092 1.55376 23.7989 1.55376 23.7989Z" fill="#522C14"/>
<path d="M82.8375 16.5184C86.6553 19.2264 91.139 3.24488 92.9147 0.536901C94.6904 -2.17108 87.3212 5.81968 84.6132 14.2988C82.8375 16.5184 75.2019 1.69112 72.6271 2.31262C72.6271 2.31262 79.0197 13.8104 82.8375 16.5184Z" fill="#522C14"/>
<path d="M82.9262 24.2872C79.1084 21.5792 74.6247 37.5607 72.849 40.2687C71.0733 42.9767 78.4425 34.9859 81.1505 26.5069C82.9262 24.2872 90.5618 39.1145 93.1366 38.493C93.181 38.493 86.7884 26.9952 82.9262 24.2872Z" fill="#522C14"/>
<path d="M89.0081 22.1119C86.7884 20.3361 101.616 12.7005 100.994 10.1257C100.994 10.1257 89.4964 16.5183 86.7884 20.3361C84.0805 24.1539 100.062 28.6376 102.77 30.4134C105.478 32.1891 97.4872 24.8198 89.0081 22.1119Z" fill="#522C14"/>
<path d="M79.0197 20.4695C81.7276 16.6517 65.7461 12.168 63.0381 10.3923C60.3302 8.61653 68.3209 15.9858 76.8 18.6938C79.0197 20.4695 64.1924 28.1051 64.8139 30.6799C64.7695 30.6799 76.3117 24.2873 79.0197 20.4695Z" fill="#522C14"/>
<path d="M82.8818 37.1169C83.8141 39.7361 88.1202 36.0515 85.501 33.6542C85.501 33.6098 81.9496 34.4533 82.8818 37.1169Z" fill="#522C14"/>
<path d="M82.1716 7.72857C84.3468 6.52995 82.1716 2.71215 80.3958 3.15608C79.7743 3.33365 79.9963 8.92718 82.1716 7.72857Z" fill="#522C14"/>
<path d="M55.7577 23.7989L56.2904 23.2218C56.2904 23.2218 57.9773 3.7332 54.7367 4.84303C54.7367 4.84303 53.538 29.126 54.7367 34.0981C55.9353 39.0257 58.1993 33.6541 57.0007 29.0816C55.8021 24.5092 55.7577 23.7989 55.7577 23.7989Z" fill="#522C14"/>
<path d="M136.997 16.5184C140.815 19.2264 145.298 3.24488 147.074 0.536901C148.85 -2.17108 141.481 5.81968 138.773 14.2988C136.997 16.5184 129.361 1.69112 126.787 2.31262C126.787 2.31262 133.179 13.8104 136.997 16.5184Z" fill="#522C14"/>
<path d="M137.13 24.2872C133.312 21.5792 128.829 37.5607 127.053 40.2687C125.277 42.9767 132.646 34.9859 135.354 26.5069C137.13 24.2872 144.766 39.1145 147.341 38.493C147.341 38.493 140.948 26.9952 137.13 24.2872Z" fill="#522C14"/>
<path d="M143.168 22.1119C140.948 20.3361 155.775 12.7005 155.154 10.1257C155.154 10.1257 143.656 16.5183 140.948 20.3361C138.24 24.1539 154.222 28.6376 156.929 30.4134C159.637 32.1891 151.647 24.8198 143.168 22.1119Z" fill="#522C14"/>
<path d="M133.179 20.4695C135.887 16.6517 119.906 12.168 117.198 10.3923C114.49 8.61653 122.48 15.9858 130.96 18.6938C133.179 20.4695 118.352 28.1051 118.973 30.6799C118.973 30.6799 130.471 24.2873 133.179 20.4695Z" fill="#522C14"/>
<path d="M137.086 37.1169C138.018 39.7361 142.324 36.0515 139.705 33.6542C139.705 33.6098 136.109 34.4533 137.086 37.1169Z" fill="#522C14"/>
<path d="M136.331 7.72857C138.506 6.52995 136.331 2.71215 134.511 3.15608C133.978 3.33365 134.156 8.92718 136.331 7.72857Z" fill="#522C14"/>
<path d="M109.917 23.7989L110.45 23.2218C110.45 23.2218 112.137 3.7332 108.896 4.84303C108.896 4.84303 107.698 29.126 108.896 34.0981C110.095 39.0257 112.359 33.6541 111.16 29.0816C109.962 24.5092 109.917 23.7989 109.917 23.7989Z" fill="#522C14"/>
<path d="M191.201 16.5184C195.019 19.2264 199.502 3.24488 201.278 0.536901C203.054 -2.17108 195.685 5.81968 192.977 14.2988C191.201 16.5184 183.565 1.69112 180.991 2.31262C180.946 2.31262 187.339 13.8104 191.201 16.5184Z" fill="#522C14"/>
<path d="M191.29 24.2872C187.472 21.5792 182.988 37.5607 181.212 40.2687C179.437 42.9767 186.806 34.9859 189.514 26.5069C191.29 24.2872 198.925 39.1145 201.5 38.493C201.545 38.493 195.152 26.9952 191.29 24.2872Z" fill="#522C14"/>
<path d="M197.372 22.1119C195.152 20.3361 209.979 12.7005 209.358 10.1257C209.358 10.1257 197.86 16.5183 195.152 20.3361C192.444 24.1539 208.425 28.6376 211.133 30.4134C213.841 32.1891 205.851 24.8198 197.372 22.1119Z" fill="#522C14"/>
<path d="M187.383 20.4695C190.091 16.6517 174.11 12.168 171.402 10.3923C168.694 8.61653 176.684 15.9858 185.163 18.6938C187.383 20.4695 172.556 28.1051 173.177 30.6799C173.133 30.6799 184.631 24.2873 187.383 20.4695Z" fill="#522C14"/>
<path d="M191.245 37.1169C192.178 39.7361 196.484 36.0515 193.865 33.6542C193.865 33.6098 190.313 34.4533 191.245 37.1169Z" fill="#522C14"/>
<path d="M190.491 7.72857C192.666 6.52995 190.491 2.71215 188.671 3.15608C188.138 3.33365 188.36 8.92718 190.491 7.72857Z" fill="#522C14"/>
<path d="M164.121 23.7989L164.654 23.2218C164.654 23.2218 166.341 3.7332 163.1 4.84303C163.1 4.84303 161.901 29.126 163.1 34.0981C164.299 39.0257 166.563 33.6541 165.364 29.0816C164.121 24.5092 164.121 23.7989 164.121 23.7989Z" fill="#522C14"/>
<path d="M245.36 16.5184C249.178 19.2264 253.662 3.24488 255.438 0.536901C257.213 -2.17108 249.844 5.81968 247.136 14.2988C245.36 16.5184 237.725 1.69112 235.15 2.31262C235.15 2.31262 241.543 13.8104 245.36 16.5184Z" fill="#522C14"/>
<path d="M245.494 24.2872C241.676 21.5792 237.192 37.5607 235.416 40.2687C233.641 42.9767 241.01 34.9859 243.718 26.5069C245.494 24.2872 253.129 39.1145 255.704 38.493C255.704 38.493 249.311 26.9952 245.494 24.2872Z" fill="#522C14"/>
<path d="M251.531 22.1119C249.311 20.3361 264.139 12.7005 263.517 10.1257C263.517 10.1257 252.019 16.5183 249.311 20.3361C246.603 24.1539 262.585 28.6376 265.293 30.4134C268.001 32.1891 260.01 24.8198 251.531 22.1119Z" fill="#522C14"/>
<path d="M241.543 20.4695C244.251 16.6517 228.269 12.168 225.561 10.3923C222.853 8.61653 230.844 15.9858 239.323 18.6938C241.543 20.4695 226.715 28.1051 227.337 30.6799C227.337 30.6799 238.835 24.2873 241.543 20.4695Z" fill="#522C14"/>
<path d="M245.405 37.1169C246.337 39.7361 250.643 36.0515 248.024 33.6542C248.024 33.6098 244.473 34.4533 245.405 37.1169Z" fill="#522C14"/>
<path d="M244.695 7.72857C246.87 6.52995 244.695 2.71215 242.919 3.15608C242.297 3.33365 242.519 8.92718 244.695 7.72857Z" fill="#522C14"/>
<path d="M218.281 23.7989L218.813 23.2218C218.813 23.2218 220.5 3.7332 217.26 4.84303C217.26 4.84303 216.061 29.126 217.26 34.0981C218.458 39.0257 220.722 33.6541 219.524 29.0816C218.325 24.5092 218.281 23.7989 218.281 23.7989Z" fill="#522C14"/>
<path d="M299.564 16.5184C303.382 19.2264 307.866 3.24488 309.642 0.536901C311.417 -2.17108 304.048 5.81968 301.34 14.2988C299.564 16.5184 291.929 1.69112 289.354 2.31262C289.31 2.31262 295.702 13.8104 299.564 16.5184Z" fill="#522C14"/>
<path d="M299.653 24.2872C295.835 21.5792 291.352 37.5607 289.576 40.2687C287.8 42.9767 295.17 34.9859 297.877 26.5069C299.653 24.2872 307.289 39.1145 309.864 38.493C309.864 38.493 303.471 26.9952 299.653 24.2872Z" fill="#522C14"/>
<path d="M305.735 22.1119C303.515 20.3361 318.343 12.7005 317.721 10.1257C317.721 10.1257 306.223 16.5183 303.515 20.3361C300.807 24.1539 316.789 28.6376 319.497 30.4134C322.16 32.1891 314.17 24.8198 305.735 22.1119Z" fill="#522C14"/>
<path d="M295.702 20.4695C298.41 16.6517 282.429 12.168 279.721 10.3923C277.013 8.61653 285.003 15.9858 293.483 18.6938C295.702 20.4695 280.875 28.1051 281.496 30.6799C281.496 30.6799 292.994 24.2873 295.702 20.4695Z" fill="#522C14"/>
<path d="M299.609 37.1169C300.541 39.7361 304.847 36.0515 302.228 33.6542C302.228 33.6098 298.677 34.4533 299.609 37.1169Z" fill="#522C14"/>
<path d="M298.854 7.72857C301.029 6.52995 298.854 2.71215 297.078 3.15608C296.501 3.33365 296.723 8.92718 298.854 7.72857Z" fill="#522C14"/>
<path d="M272.44 23.7989L272.973 23.2218C272.973 23.2218 274.66 3.7332 271.419 4.84303C271.419 4.84303 270.221 29.126 271.419 34.0981C272.618 39.0257 274.882 33.6541 273.683 29.0816C272.485 24.5092 272.44 23.7989 272.44 23.7989Z" fill="#522C14"/>
<path d="M353.724 16.5184C357.542 19.2264 362.025 3.24488 363.801 0.536901C365.577 -2.17108 358.208 5.81968 355.5 14.2988C353.724 16.5184 346.088 1.69112 343.514 2.31262C343.514 2.31262 349.906 13.8104 353.724 16.5184Z" fill="#522C14"/>
<path d="M353.813 24.2872C349.995 21.5792 345.511 37.5607 343.735 40.2687C341.96 42.9767 349.329 34.9859 352.037 26.5069C353.813 24.2872 361.448 39.1145 364.023 38.493C364.067 38.493 357.675 26.9952 353.813 24.2872Z" fill="#522C14"/>
<path d="M359.895 22.1119C357.675 20.3361 372.502 12.7005 371.881 10.1257C371.881 10.1257 360.383 16.5183 357.675 20.3361C354.967 24.1539 370.948 28.6376 373.656 30.4134C376.364 32.1891 368.374 24.8198 359.895 22.1119Z" fill="#522C14"/>
<path d="M349.906 20.4695C352.614 16.6517 336.633 12.168 333.925 10.3923C331.217 8.61653 339.207 15.9858 347.687 18.6938C349.906 20.4695 335.079 28.1051 335.7 30.6799C335.656 30.6799 347.198 24.2873 349.906 20.4695Z" fill="#522C14"/>
<path d="M353.768 37.1169C354.701 39.7361 359.007 36.0515 356.388 33.6542C356.388 33.6098 352.836 34.4533 353.768 37.1169Z" fill="#522C14"/>
<path d="M353.058 7.72857C355.233 6.52995 353.058 2.71215 351.238 3.15608C350.661 3.33365 350.883 8.92718 353.058 7.72857Z" fill="#522C14"/>
<path d="M326.644 23.7989L327.177 23.2218C327.177 23.2218 328.864 3.7332 325.623 4.84303C325.623 4.84303 324.425 29.126 325.623 34.0981C326.822 39.0701 329.086 33.6541 327.887 29.0816C326.689 24.5092 326.644 23.7989 326.644 23.7989Z" fill="#522C14"/>
<path d="M407.883 16.5184C411.701 19.2264 416.185 3.24488 417.961 0.536901C419.736 -2.17108 412.367 5.81968 409.659 14.2988C407.883 16.5184 400.248 1.69112 397.673 2.31262C397.673 2.31262 404.066 13.8104 407.883 16.5184Z" fill="#522C14"/>
<path d="M408.017 24.2872C404.199 21.5792 399.715 37.5607 397.939 40.2687C396.164 42.9767 403.533 34.9859 406.241 26.5069C408.017 24.2872 415.652 39.1145 418.227 38.493C418.227 38.493 411.834 26.9952 408.017 24.2872Z" fill="#522C14"/>
<path d="M414.054 22.1119C411.834 20.3361 426.662 12.7005 426.04 10.1257C426.04 10.1257 414.542 16.5183 411.834 20.3361C409.126 24.1539 425.108 28.6376 427.816 30.4134C430.524 32.1891 422.533 24.8198 414.054 22.1119Z" fill="#522C14"/>
<path d="M404.066 20.4695C406.774 16.6517 390.792 12.168 388.084 10.3923C385.376 8.61653 393.367 15.9858 401.846 18.6938C404.066 20.4695 389.238 28.1051 389.86 30.6799C389.86 30.6799 401.358 24.2873 404.066 20.4695Z" fill="#522C14"/>
<path d="M407.972 37.1169C408.904 39.7361 413.211 36.0515 410.591 33.6542C410.591 33.6098 406.996 34.4533 407.972 37.1169Z" fill="#522C14"/>
<path d="M407.218 7.72857C409.393 6.52995 407.218 2.71215 405.442 3.15608C404.865 3.33365 405.042 8.92718 407.218 7.72857Z" fill="#522C14"/>
<path d="M380.804 23.7989L381.336 23.2218C381.336 23.2218 383.023 3.7332 379.783 4.84303C379.783 4.84303 378.584 29.126 379.783 34.0981C380.981 39.0257 383.245 33.6541 382.047 29.0816C380.848 24.5092 380.804 23.7989 380.804 23.7989Z" fill="#522C14"/>
<path d="M461.599 16.5184C465.417 19.2264 469.901 3.24488 471.676 0.536901C473.452 -2.17108 466.083 5.81968 463.375 14.2988C461.599 16.5184 453.963 1.69112 451.389 2.31262C451.389 2.31262 457.781 13.8104 461.599 16.5184Z" fill="#522C14"/>
<path d="M461.688 24.2872C457.87 21.5792 453.386 37.5607 451.611 40.2687C449.835 42.9767 457.204 34.9859 459.912 26.5069C461.688 24.2872 469.323 39.1145 471.898 38.493C471.943 38.493 465.55 26.9952 461.688 24.2872Z" fill="#522C14"/>
<path d="M467.77 22.1119C465.55 20.3361 480.377 12.7005 479.756 10.1257C479.756 10.1257 468.258 16.5183 465.55 20.3361C462.842 24.1539 478.824 28.6376 481.532 30.4134C484.239 32.1891 476.249 24.8198 467.77 22.1119Z" fill="#522C14"/>
<path d="M457.781 20.4695C460.489 16.6517 444.508 12.168 441.8 10.3923C439.092 8.61653 447.082 15.9858 455.562 18.6938C457.781 20.4695 442.954 28.1051 443.575 30.6799C443.531 30.6799 455.073 24.2873 457.781 20.4695Z" fill="#522C14"/>
<path d="M461.643 37.1169C462.576 39.7361 466.882 36.0515 464.263 33.6542C464.263 33.6098 460.711 34.4533 461.643 37.1169Z" fill="#522C14"/>
<path d="M460.933 7.72857C463.108 6.52995 460.933 2.71215 459.157 3.15608C458.536 3.33365 458.758 8.92718 460.933 7.72857Z" fill="#522C14"/>
<path d="M434.519 23.7989L435.052 23.2218C435.052 23.2218 436.739 3.7332 433.498 4.84303C433.498 4.84303 432.3 29.126 433.498 34.0981C434.697 39.0257 436.961 33.6541 435.762 29.0816C434.564 24.5092 434.519 23.7989 434.519 23.7989Z" fill="#522C14"/>
<path d="M515.759 16.5184C519.576 19.2264 524.06 3.24488 525.836 0.536901C527.612 -2.17108 520.242 5.81968 517.534 14.2988C515.759 16.5184 508.123 1.69112 505.548 2.31262C505.548 2.31262 511.941 13.8104 515.759 16.5184Z" fill="#522C14"/>
<path d="M515.892 24.2872C512.074 21.5792 507.59 37.5607 505.815 40.2687C504.039 42.9767 511.408 34.9859 514.116 26.5069C515.892 24.2872 523.527 39.1145 526.102 38.493C526.102 38.493 519.71 26.9952 515.892 24.2872Z" fill="#522C14"/>
<path d="M521.929 22.1119C519.71 20.3361 534.537 12.7005 533.915 10.1257C533.915 10.1257 522.418 16.5183 519.71 20.3361C517.002 24.1539 532.983 28.6376 535.691 30.4134C538.399 32.1891 530.408 24.8198 521.929 22.1119Z" fill="#522C14"/>
<path d="M511.941 20.4695C514.649 16.6517 498.667 12.168 495.959 10.3923C493.251 8.61653 501.242 15.9858 509.721 18.6938C511.941 20.4695 497.113 28.1051 497.735 30.6799C497.735 30.6799 509.233 24.2873 511.941 20.4695Z" fill="#522C14"/>
<path d="M515.847 37.1169C516.78 39.7361 521.086 36.0515 518.467 33.6542C518.467 33.6098 514.871 34.4533 515.847 37.1169Z" fill="#522C14"/>
<path d="M515.093 7.72857C517.268 6.52995 515.093 2.71215 513.317 3.15608C512.74 3.33365 512.917 8.92718 515.093 7.72857Z" fill="#522C14"/>
<path d="M488.679 23.7989L489.212 23.2218C489.212 23.2218 490.899 3.7332 487.658 4.84303C487.658 4.84303 486.459 29.126 487.658 34.0981C488.856 39.0701 491.12 33.6541 489.922 29.0816C488.723 24.5092 488.679 23.7989 488.679 23.7989Z" fill="#522C14"/>
<path d="M569.963 16.5184C573.78 19.2264 578.264 3.24488 580.04 0.536901C581.816 -2.17108 574.446 5.81968 571.738 14.2988C569.963 16.5184 562.327 1.69112 559.752 2.31262C559.708 2.31262 566.1 13.8104 569.963 16.5184Z" fill="#522C14"/>
<path d="M570.051 24.2872C566.234 21.5792 561.75 37.5607 559.974 40.2687C558.198 42.9767 565.568 34.9859 568.276 26.5069C570.051 24.2872 577.687 39.1145 580.262 38.493C580.306 38.493 573.914 26.9952 570.051 24.2872Z" fill="#522C14"/>
<path d="M576.133 22.1119C573.914 20.3361 588.741 12.7005 588.119 10.1257C588.119 10.1257 576.622 16.5183 573.914 20.3361C571.206 24.1539 587.187 28.6376 589.895 30.4134C592.603 32.1891 584.612 24.8198 576.133 22.1119Z" fill="#522C14"/>
<path d="M566.145 20.4695C568.853 16.6517 552.871 12.168 550.163 10.3923C547.455 8.61653 555.446 15.9858 563.925 18.6938C566.145 20.4695 551.317 28.1051 551.939 30.6799C551.895 30.6799 563.392 24.2873 566.145 20.4695Z" fill="#522C14"/>
<path d="M570.007 37.1169C570.939 39.7361 575.245 36.0515 572.626 33.6542C572.626 33.6098 569.075 34.4533 570.007 37.1169Z" fill="#522C14"/>
<path d="M569.252 7.72857C571.428 6.52995 569.252 2.71215 567.477 3.15608C566.899 3.33365 567.121 8.92718 569.252 7.72857Z" fill="#522C14"/>
<path d="M542.883 23.7989L543.416 23.2218C543.416 23.2218 545.102 3.7332 541.862 4.84303C541.862 4.84303 540.663 29.126 541.862 34.0981C543.06 39.0701 545.324 33.6541 544.126 29.0816C542.883 24.5092 542.883 23.7989 542.883 23.7989Z" fill="#522C14"/>
<path d="M624.122 16.5184C627.94 19.2264 632.424 3.24488 634.199 0.536901C635.975 -2.17108 628.606 5.81968 625.898 14.2988C624.122 16.5184 616.486 1.69112 613.912 2.31262C613.912 2.31262 620.304 13.8104 624.122 16.5184Z" fill="#522C14"/>
<path d="M624.255 24.2872C620.437 21.5792 615.954 37.5607 614.178 40.2687C612.402 42.9767 619.772 34.9859 622.48 26.5069C624.255 24.2872 631.891 39.1145 634.466 38.493C634.466 38.493 628.073 26.9952 624.255 24.2872Z" fill="#522C14"/>
<path d="M630.293 22.1119C628.073 20.3361 642.9 12.7005 642.279 10.1257C642.279 10.1257 630.781 16.5183 628.073 20.3361C625.365 24.1539 641.347 28.6376 644.055 30.4134C646.763 32.1891 638.772 24.8198 630.293 22.1119Z" fill="#522C14"/>
<path d="M620.304 20.4695C623.012 16.6517 607.031 12.168 604.323 10.3923C601.615 8.61653 609.606 15.9858 618.085 18.6938C620.304 20.4695 605.477 28.1051 606.099 30.6799C606.099 30.6799 617.596 24.2873 620.304 20.4695Z" fill="#522C14"/>
<path d="M624.166 37.1169C625.099 39.7361 629.405 36.0515 626.786 33.6542C626.786 33.6098 623.234 34.4533 624.166 37.1169Z" fill="#522C14"/>
<path d="M623.456 7.72857C625.631 6.52995 623.456 2.71215 621.68 3.15608C621.059 3.33365 621.281 8.92718 623.456 7.72857Z" fill="#522C14"/>
<path d="M597.042 23.7989L597.575 23.2218C597.575 23.2218 599.262 3.7332 596.021 4.84303C596.021 4.84303 594.823 29.126 596.021 34.0981C597.22 39.0257 599.484 33.6541 598.285 29.0816C597.087 24.5092 597.042 23.7989 597.042 23.7989Z" fill="#522C14"/>
<path d="M678.326 16.5184C682.144 19.2264 686.628 3.24488 688.403 0.536901C690.179 -2.17108 682.81 5.81968 680.102 14.2988C678.326 16.5184 670.69 1.69112 668.116 2.31262C668.071 2.31262 674.464 13.8104 678.326 16.5184Z" fill="#522C14"/>
<path d="M678.415 24.2872C674.597 21.5792 670.113 37.5607 668.338 40.2687C666.562 42.9767 673.931 34.9859 676.639 26.5069C678.415 24.2872 686.05 39.1145 688.625 38.493C688.625 38.493 682.233 26.9952 678.415 24.2872Z" fill="#522C14"/>
<path d="M684.497 22.1119C682.277 20.3361 697.104 12.7005 696.483 10.1257C696.483 10.1257 684.985 16.5183 682.277 20.3361C679.569 24.1539 695.55 28.6376 698.258 30.4134C700.922 32.1891 692.931 24.8198 684.497 22.1119Z" fill="#522C14"/>
<path d="M674.464 20.4695C677.172 16.6517 661.19 12.168 658.482 10.3923C655.774 8.61653 663.765 15.9858 672.244 18.6938C674.464 20.4695 659.636 28.1051 660.258 30.6799C660.258 30.6799 671.756 24.2873 674.464 20.4695Z" fill="#522C14"/>
<path d="M678.37 37.1169C679.303 39.7361 683.609 36.0515 680.99 33.6542C680.99 33.6098 677.438 34.4533 678.37 37.1169Z" fill="#522C14"/>
<path d="M677.616 7.72857C679.791 6.52995 677.616 2.71215 675.84 3.15608C675.263 3.33365 675.485 8.92718 677.616 7.72857Z" fill="#522C14"/>
<path d="M651.202 23.7989L651.735 23.2218C651.735 23.2218 653.421 3.7332 650.181 4.84303C650.181 4.84303 648.982 29.126 650.181 34.0981C651.379 39.0701 653.643 33.6541 652.445 29.0816C651.246 24.5092 651.202 23.7989 651.202 23.7989Z" fill="#522C14"/>
<path d="M732.486 16.5184C736.303 19.2264 740.787 3.24488 742.563 0.536901C744.338 -2.17108 736.969 5.81968 734.261 14.2988C732.486 16.5184 724.85 1.69112 722.275 2.31262C722.275 2.31262 728.668 13.8104 732.486 16.5184Z" fill="#522C14"/>
<path d="M732.574 24.2872C728.757 21.5792 724.273 37.5607 722.497 40.2687C720.721 42.9767 728.091 34.9859 730.799 26.5069C732.574 24.2872 740.21 39.1145 742.785 38.493C742.829 38.493 736.437 26.9952 732.574 24.2872Z" fill="#522C14"/>
<path d="M738.656 22.1119C736.437 20.3361 751.264 12.7005 750.642 10.1257C750.642 10.1257 739.144 16.5183 736.437 20.3361C733.729 24.1539 749.71 28.6376 752.418 30.4134C755.126 32.1891 747.135 24.8198 738.656 22.1119Z" fill="#522C14"/>
<path d="M728.668 20.4695C731.376 16.6517 715.394 12.168 712.686 10.3923C709.978 8.61653 717.969 15.9858 726.448 18.6938C728.668 20.4695 713.84 28.1051 714.462 30.6799C714.418 30.6799 725.96 24.2873 728.668 20.4695Z" fill="#522C14"/>
<path d="M732.53 37.1169C733.462 39.7361 737.768 36.0515 735.149 33.6542C735.149 33.6098 731.598 34.4533 732.53 37.1169Z" fill="#522C14"/>
<path d="M731.82 7.72857C733.995 6.52995 731.82 2.71215 730.044 3.15608C729.422 3.33365 729.644 8.92718 731.82 7.72857Z" fill="#522C14"/>
<path d="M705.406 23.7989L705.938 23.2218C705.938 23.2218 707.625 3.7332 704.385 4.84303C704.385 4.84303 703.186 29.126 704.385 34.0981C705.583 39.0701 707.847 33.6541 706.649 29.0816C705.45 24.5092 705.406 23.7989 705.406 23.7989Z" fill="#522C14"/>
<path d="M786.645 16.5184C790.463 19.2264 794.947 3.24488 796.722 0.536901C798.498 -2.17108 791.129 5.81968 788.421 14.2988C786.645 16.5184 779.009 1.69112 776.435 2.31262C776.435 2.31262 782.827 13.8104 786.645 16.5184Z" fill="#522C14"/>
<path d="M786.778 24.2872C782.96 21.5792 778.477 37.5607 776.701 40.2687C774.925 42.9767 782.295 34.9859 785.003 26.5069C786.778 24.2872 794.414 39.1145 796.989 38.493C796.989 38.493 790.596 26.9952 786.778 24.2872Z" fill="#522C14"/>
<path d="M792.816 22.1119C790.596 20.3361 805.423 12.7005 804.802 10.1257C804.802 10.1257 793.304 16.5183 790.596 20.3361C787.888 24.1539 803.87 28.6376 806.578 30.4134C809.286 32.1891 801.295 24.8198 792.816 22.1119Z" fill="#522C14"/>
<path d="M782.827 20.4695C785.535 16.6517 769.554 12.168 766.846 10.3923C764.138 8.61653 772.129 15.9858 780.608 18.6938C782.827 20.4695 768 28.1051 768.621 30.6799C768.621 30.6799 780.119 24.2873 782.827 20.4695Z" fill="#522C14"/>
<path d="M786.734 37.1169C787.666 39.7361 791.972 36.0515 789.353 33.6542C789.353 33.6098 785.757 34.4533 786.734 37.1169Z" fill="#522C14"/>
<path d="M785.979 7.72857C788.154 6.52995 785.979 2.71215 784.203 3.15608C783.626 3.33365 783.804 8.92718 785.979 7.72857Z" fill="#522C14"/>
<path d="M759.565 23.7989L760.098 23.2218C760.098 23.2218 761.785 3.7332 758.544 4.84303C758.544 4.84303 757.346 29.126 758.544 34.0981C759.743 39.0257 762.007 33.6541 760.808 29.0816C759.61 24.5092 759.565 23.7989 759.565 23.7989Z" fill="#522C14"/>
<path d="M841.337 16.5184C845.155 19.2264 849.639 3.24488 851.415 0.536901C853.19 -2.17108 845.821 5.81968 843.113 14.2988C841.337 16.5184 833.702 1.69112 831.127 2.31262C831.083 2.31262 837.475 13.8104 841.337 16.5184Z" fill="#522C14"/>
<path d="M841.426 24.2872C837.608 21.5792 833.125 37.5607 831.349 40.2687C829.573 42.9767 836.942 34.9859 839.65 26.5069C841.426 24.2872 849.062 39.1145 851.637 38.493C851.637 38.493 845.244 26.9952 841.426 24.2872Z" fill="#522C14"/>
<path d="M847.508 22.1119C845.288 20.3361 860.116 12.7005 859.494 10.1257C859.494 10.1257 847.996 16.5183 845.288 20.3361C842.58 24.1539 858.562 28.6376 861.27 30.4134C863.933 32.1891 855.943 24.8198 847.508 22.1119Z" fill="#522C14"/>
<path d="M837.475 20.4695C840.183 16.6517 824.202 12.168 821.494 10.3923C818.786 8.61653 826.776 15.9858 835.255 18.6938C837.475 20.4695 822.648 28.1051 823.269 30.6799C823.269 30.6799 834.767 24.2873 837.475 20.4695Z" fill="#522C14"/>
<path d="M841.382 37.1169C842.314 39.7361 846.62 36.0515 844.001 33.6542C844.001 33.6098 840.45 34.4533 841.382 37.1169Z" fill="#522C14"/>
<path d="M840.627 7.72857C842.802 6.52995 840.627 2.71215 838.851 3.15608C838.274 3.33365 838.496 8.92718 840.627 7.72857Z" fill="#522C14"/>
<path d="M814.213 23.7989L814.746 23.2218C814.746 23.2218 816.433 3.7332 813.192 4.84303C813.192 4.84303 811.994 29.126 813.192 34.0981C814.391 39.0701 816.655 33.6541 815.456 29.0816C814.258 24.5092 814.213 23.7989 814.213 23.7989Z" fill="#522C14"/>
<path d="M868.417 23.7989L868.95 23.2218C868.95 23.2218 870.637 3.7332 867.396 4.84303C867.396 4.84303 866.197 29.126 867.396 34.0981C868.595 39.0701 870.859 33.6541 869.66 29.0816C868.461 24.5092 868.417 23.7989 868.417 23.7989Z" fill="#522C14"/>
<path d="M895.678 16.5184C899.496 19.2264 903.979 3.24488 905.755 0.536901C907.531 -2.17108 900.162 5.81968 897.454 14.2988C895.678 16.5184 888.042 1.69112 885.468 2.31262C885.423 2.31262 891.816 13.8104 895.678 16.5184Z" fill="#522C14"/>
<path d="M895.767 24.2872C891.949 21.5792 887.465 37.5607 885.689 40.2687C883.914 42.9767 891.283 34.9859 893.991 26.5069C895.767 24.2872 903.402 39.1145 905.977 38.493C905.977 38.493 899.585 26.9952 895.767 24.2872Z" fill="#522C14"/>
<path d="M901.849 22.1119C899.629 20.3361 914.456 12.7005 913.835 10.1257C913.835 10.1257 902.337 16.5183 899.629 20.3361C896.921 24.1539 912.902 28.6376 915.61 30.4134C918.274 32.1891 910.283 24.8198 901.849 22.1119Z" fill="#522C14"/>
<path d="M891.816 20.4695C894.524 16.6517 878.542 12.168 875.834 10.3923C873.126 8.61653 881.117 15.9858 889.596 18.6938C891.816 20.4695 876.988 28.1051 877.61 30.6799C877.61 30.6799 889.108 24.2873 891.816 20.4695Z" fill="#522C14"/>
<path d="M895.722 37.1169C896.655 39.7361 900.961 36.0515 898.342 33.6542C898.342 33.6098 894.79 34.4533 895.722 37.1169Z" fill="#522C14"/>
<path d="M894.968 7.72857C897.143 6.52995 894.968 2.71215 893.192 3.15608C892.615 3.33365 892.837 8.92718 894.968 7.72857Z" fill="#522C14"/>
<path d="M868.554 23.7989L869.086 23.2218C869.086 23.2218 870.773 3.7332 867.533 4.84303C867.533 4.84303 866.334 29.126 867.533 34.0981C868.731 39.0257 870.995 33.6541 869.797 29.0816C868.598 24.5092 868.554 23.7989 868.554 23.7989Z" fill="#522C14"/>
<path d="M949.837 16.5184C953.655 19.2264 958.139 3.24488 959.915 0.536901C961.69 -2.17108 954.321 5.81968 951.613 14.2988C949.837 16.5184 942.202 1.69112 939.627 2.31262C939.627 2.31262 946.02 13.8104 949.837 16.5184Z" fill="#522C14"/>
<path d="M949.926 24.2872C946.108 21.5792 941.625 37.5607 939.849 40.2687C938.073 42.9767 945.443 34.9859 948.151 26.5069C949.926 24.2872 957.562 39.1145 960.137 38.493C960.181 38.493 953.788 26.9952 949.926 24.2872Z" fill="#522C14"/>
<path d="M956.008 22.1119C953.788 20.3361 968.616 12.7005 967.994 10.1257C967.994 10.1257 956.496 16.5183 953.788 20.3361C951.08 24.1539 967.062 28.6376 969.77 30.4134C972.478 32.1891 964.487 24.8198 956.008 22.1119Z" fill="#522C14"/>
<path d="M946.02 20.4695C948.728 16.6517 932.746 12.168 930.038 10.3923C927.33 8.61653 935.321 15.9858 943.8 18.6938C946.02 20.4695 931.192 28.1051 931.814 30.6799C931.769 30.6799 943.312 24.2873 946.02 20.4695Z" fill="#522C14"/>
<path d="M949.882 37.1169C950.814 39.7361 955.12 36.0515 952.501 33.6542C952.501 33.6098 948.95 34.4533 949.882 37.1169Z" fill="#522C14"/>
<path d="M949.172 7.72857C951.347 6.52995 949.172 2.71215 947.396 3.15608C946.774 3.33365 946.996 8.92718 949.172 7.72857Z" fill="#522C14"/>
<path d="M922.758 23.7989L923.29 23.2218C923.29 23.2218 924.977 3.7332 921.737 4.84303C921.737 4.84303 920.538 29.126 921.737 34.0981C922.935 39.0257 925.199 33.6541 924.001 29.0816C922.802 24.5092 922.758 23.7989 922.758 23.7989Z" fill="#522C14"/>
<path d="M1004 16.5184C1007.81 19.2264 1012.3 3.24488 1014.07 0.536901C1015.85 -2.17108 1008.48 5.81968 1005.77 14.2988C1004 16.5184 996.361 1.69112 993.787 2.31262C993.787 2.31262 1000.18 13.8104 1004 16.5184Z" fill="#522C14"/>
<path d="M1004.13 24.2872C1000.31 21.5792 995.829 37.5607 994.053 40.2687C992.277 42.9767 999.646 34.9859 1002.35 26.5069C1004.13 24.2872 1011.77 39.1145 1014.34 38.493C1014.34 38.493 1007.95 26.9952 1004.13 24.2872Z" fill="#522C14"/>
<path d="M1010.17 22.1119C1007.95 20.3361 1022.78 12.7005 1022.15 10.1257C1022.15 10.1257 1010.66 16.5183 1007.95 20.3361C1005.24 24.1539 1021.22 28.6376 1023.93 30.4134C1026.64 32.1891 1018.65 24.8198 1010.17 22.1119Z" fill="#522C14"/>
<path d="M1000.18 20.4695C1002.89 16.6517 986.906 12.168 984.198 10.3923C981.49 8.61653 989.48 15.9858 997.96 18.6938C1000.18 20.4695 985.352 28.1051 985.973 30.6799C985.973 30.6799 997.471 24.2873 1000.18 20.4695Z" fill="#522C14"/>
<path d="M1004.09 37.1169C1005.02 39.7361 1009.32 36.0515 1006.7 33.6542C1006.7 33.6098 1003.11 34.4533 1004.09 37.1169Z" fill="#522C14"/>
<path d="M1003.33 7.72857C1005.51 6.52995 1003.33 2.71215 1001.51 3.15608C1000.98 3.33365 1001.16 8.92718 1003.33 7.72857Z" fill="#522C14"/>
<path d="M976.917 23.7989L977.45 23.2218C977.45 23.2218 979.137 3.7332 975.896 4.84303C975.896 4.84303 974.698 29.126 975.896 34.0981C977.095 39.0257 979.359 33.6541 978.16 29.0816C976.962 24.5092 976.917 23.7989 976.917 23.7989Z" fill="#522C14"/>
<path d="M1058.2 16.5184C1062.02 19.2264 1066.5 3.24488 1068.28 0.536901C1070.05 -2.17108 1062.68 5.81968 1059.98 14.2988C1058.2 16.5184 1050.57 1.69112 1047.99 2.31262C1047.95 2.31262 1054.34 13.8104 1058.2 16.5184Z" fill="#522C14"/>
<path d="M1058.29 24.2872C1054.47 21.5792 1049.99 37.5607 1048.21 40.2687C1046.44 42.9767 1053.81 34.9859 1056.51 26.5069C1058.29 24.2872 1065.93 39.1145 1068.5 38.493C1068.54 38.493 1062.15 26.9952 1058.29 24.2872Z" fill="#522C14"/>
<path d="M1064.37 22.1119C1062.15 20.3361 1076.98 12.7005 1076.36 10.1257C1076.36 10.1257 1064.86 16.5183 1062.15 20.3361C1059.44 24.1539 1075.43 28.6376 1078.13 30.4134C1080.84 32.1891 1072.85 24.8198 1064.37 22.1119Z" fill="#522C14"/>
<path d="M1054.38 20.4695C1057.09 16.6517 1041.11 12.168 1038.4 10.3923C1035.69 8.61653 1043.68 15.9858 1052.16 18.6938C1054.38 20.4695 1039.56 28.1051 1040.18 30.6799C1040.13 30.6799 1051.63 24.2873 1054.38 20.4695Z" fill="#522C14"/>
<path d="M1058.25 37.1169C1059.18 39.7361 1063.48 36.0515 1060.86 33.6542C1060.86 33.6098 1057.31 34.4533 1058.25 37.1169Z" fill="#522C14"/>
<path d="M1057.49 7.72857C1059.67 6.52995 1057.49 2.71215 1055.67 3.15608C1055.14 3.33365 1055.36 8.92718 1057.49 7.72857Z" fill="#522C14"/>
<path d="M1031.12 23.7989L1031.65 23.2218C1031.65 23.2218 1033.34 3.7332 1030.1 4.84303C1030.1 4.84303 1028.9 29.126 1030.1 34.0981C1031.3 39.0257 1033.56 33.6541 1032.36 29.0816C1031.12 24.5092 1031.12 23.7989 1031.12 23.7989Z" fill="#522C14"/>
<path d="M1112.36 16.5184C1116.18 19.2264 1120.66 3.24488 1122.44 0.536901C1124.21 -2.17108 1116.84 5.81968 1114.14 14.2988C1112.36 16.5184 1104.72 1.69112 1102.15 2.31262C1102.15 2.31262 1108.54 13.8104 1112.36 16.5184Z" fill="#522C14"/>
<path d="M1112.49 24.2872C1108.68 21.5792 1104.19 37.5607 1102.42 40.2687C1100.64 42.9767 1108.01 34.9859 1110.72 26.5069C1112.49 24.2872 1120.13 39.1145 1122.7 38.493C1122.7 38.493 1116.31 26.9952 1112.49 24.2872Z" fill="#522C14"/>
<path d="M1118.53 22.1119C1116.31 20.3361 1131.14 12.7005 1130.52 10.1257C1130.52 10.1257 1119.02 16.5183 1116.31 20.3361C1113.6 24.1539 1129.58 28.6376 1132.29 30.4134C1135 32.1891 1127.01 24.8198 1118.53 22.1119Z" fill="#522C14"/>
<path d="M1108.54 20.4695C1111.25 16.6517 1095.27 12.168 1092.56 10.3923C1089.85 8.61653 1097.84 15.9858 1106.32 18.6938C1108.54 20.4695 1093.72 28.1051 1094.34 30.6799C1094.34 30.6799 1105.83 24.2873 1108.54 20.4695Z" fill="#522C14"/>
<path d="M1112.4 37.1169C1113.34 39.7361 1117.64 36.0515 1115.02 33.6542C1115.02 33.6098 1111.47 34.4533 1112.4 37.1169Z" fill="#522C14"/>
<path d="M1111.69 7.72857C1113.87 6.52995 1111.69 2.71215 1109.92 3.15608C1109.3 3.33365 1109.52 8.92718 1111.69 7.72857Z" fill="#522C14"/>
<path d="M1085.28 23.7989L1085.81 23.2218C1085.81 23.2218 1087.5 3.7332 1084.26 4.84303C1084.26 4.84303 1083.06 29.126 1084.26 34.0981C1085.46 39.0257 1087.72 33.6541 1086.52 29.0816C1085.33 24.5092 1085.28 23.7989 1085.28 23.7989Z" fill="#522C14"/>
<path d="M1166.56 16.5184C1170.38 19.2264 1174.87 3.24488 1176.64 0.536901C1178.42 -2.17108 1171.05 5.81968 1168.34 14.2988C1166.56 16.5184 1158.93 1.69112 1156.35 2.31262C1156.31 2.31262 1162.7 13.8104 1166.56 16.5184Z" fill="#522C14"/>
<path d="M1166.65 24.2872C1162.84 21.5792 1158.35 37.5607 1156.58 40.2687C1154.8 42.9767 1162.17 34.9859 1164.88 26.5069C1166.65 24.2872 1174.29 39.1145 1176.86 38.493C1176.86 38.493 1170.47 26.9952 1166.65 24.2872Z" fill="#522C14"/>
<path d="M1172.74 22.1119C1170.52 20.3361 1185.34 12.7005 1184.72 10.1257C1184.72 10.1257 1173.22 16.5183 1170.52 20.3361C1167.81 24.1539 1183.79 28.6376 1186.5 30.4134C1189.16 32.1891 1181.17 24.8198 1172.74 22.1119Z" fill="#522C14"/>
<path d="M1162.7 20.4695C1165.41 16.6517 1149.43 12.168 1146.72 10.3923C1144.01 8.61653 1152 15.9858 1160.48 18.6938C1162.7 20.4695 1147.87 28.1051 1148.5 30.6799C1148.5 30.6799 1159.99 24.2873 1162.7 20.4695Z" fill="#522C14"/>
<path d="M1166.61 37.1169C1167.54 39.7361 1171.85 36.0515 1169.23 33.6542C1169.23 33.6098 1165.68 34.4533 1166.61 37.1169Z" fill="#522C14"/>
<path d="M1165.85 7.72857C1168.03 6.52995 1165.85 2.71215 1164.08 3.15608C1163.5 3.33365 1163.72 8.92718 1165.85 7.72857Z" fill="#522C14"/>
<path d="M1139.44 23.7989L1139.97 23.2218C1139.97 23.2218 1141.66 3.7332 1138.42 4.84303C1138.42 4.84303 1137.22 29.126 1138.42 34.0981C1139.62 39.0257 1141.88 33.6541 1140.68 29.0816C1139.48 24.5092 1139.44 23.7989 1139.44 23.7989Z" fill="#522C14"/>
<path d="M1220.72 16.5184C1224.54 19.2264 1229.03 3.24488 1230.8 0.536901C1232.58 -2.17108 1225.21 5.81968 1222.5 14.2988C1220.72 16.5184 1213.09 1.69112 1210.51 2.31262C1210.51 2.31262 1216.91 13.8104 1220.72 16.5184Z" fill="#522C14"/>
<path d="M1220.81 24.2872C1216.99 21.5792 1212.51 37.5607 1210.74 40.2687C1208.96 42.9767 1216.33 34.9859 1219.04 26.5069C1220.81 24.2872 1228.45 39.1145 1231.02 38.493C1231.07 38.493 1224.67 26.9952 1220.81 24.2872Z" fill="#522C14"/>
<path d="M1226.89 22.1119C1224.67 20.3361 1239.5 12.7005 1238.88 10.1257C1238.88 10.1257 1227.38 16.5183 1224.67 20.3361C1221.97 24.1539 1237.95 28.6376 1240.66 30.4134C1243.36 32.1891 1235.37 24.8198 1226.89 22.1119Z" fill="#522C14"/>
<path d="M1216.91 20.4695C1219.61 16.6517 1203.63 12.168 1200.92 10.3923C1198.22 8.61653 1206.21 15.9858 1214.69 18.6938C1216.91 20.4695 1202.08 28.1051 1202.7 30.6799C1202.66 30.6799 1214.2 24.2873 1216.91 20.4695Z" fill="#522C14"/>
<path d="M1220.77 37.1169C1221.7 39.7361 1226.01 36.0515 1223.39 33.6542C1223.39 33.6098 1219.84 34.4533 1220.77 37.1169Z" fill="#522C14"/>
<path d="M1220.06 7.72857C1222.23 6.52995 1220.06 2.71215 1218.24 3.15608C1217.66 3.33365 1217.88 8.92718 1220.06 7.72857Z" fill="#522C14"/>
<path d="M1193.64 23.7989L1194.18 23.2218C1194.18 23.2218 1195.86 3.7332 1192.62 4.84303C1192.62 4.84303 1191.42 29.126 1192.62 34.0981C1193.82 39.0701 1196.09 33.6541 1194.89 29.0816C1193.69 24.5092 1193.64 23.7989 1193.64 23.7989Z" fill="#522C14"/>
<path d="M1274.88 16.5184C1278.7 19.2264 1283.19 3.24488 1284.96 0.536901C1286.74 -2.17108 1279.37 5.81968 1276.66 14.2988C1274.88 16.5184 1267.25 1.69112 1264.67 2.31262C1264.67 2.31262 1271.07 13.8104 1274.88 16.5184Z" fill="#522C14"/>
<path d="M1275.02 24.2872C1271.2 21.5792 1266.72 37.5607 1264.94 40.2687C1263.16 42.9767 1270.53 34.9859 1273.24 26.5069C1275.02 24.2872 1282.65 39.1145 1285.23 38.493C1285.23 38.493 1278.83 26.9952 1275.02 24.2872Z" fill="#522C14"/>
<path d="M1281.05 22.1119C1278.83 20.3361 1293.66 12.7005 1293.04 10.1257C1293.04 10.1257 1281.54 16.5183 1278.83 20.3361C1276.13 24.1539 1292.11 28.6376 1294.82 30.4134C1297.52 32.1891 1289.53 24.8198 1281.05 22.1119Z" fill="#522C14"/>
<path d="M1271.07 20.4695C1273.77 16.6517 1257.79 12.168 1255.08 10.3923C1252.38 8.61653 1260.37 15.9858 1268.85 18.6938C1271.07 20.4695 1256.24 28.1051 1256.86 30.6799C1256.86 30.6799 1268.36 24.2873 1271.07 20.4695Z" fill="#522C14"/>
<path d="M1274.97 37.1169C1275.9 39.7361 1280.21 36.0515 1277.59 33.6542C1277.59 33.6098 1274 34.4533 1274.97 37.1169Z" fill="#522C14"/>
<path d="M1274.22 7.72857C1276.39 6.52995 1274.22 2.71215 1272.44 3.15608C1271.86 3.33365 1272.04 8.92718 1274.22 7.72857Z" fill="#522C14"/>
<path d="M1247.8 23.7989L1248.34 23.2218C1248.34 23.2218 1250.02 3.7332 1246.78 4.84303C1246.78 4.84303 1245.58 29.126 1246.78 34.0981C1247.98 39.0257 1250.25 33.6541 1249.05 29.0816C1247.85 24.5092 1247.8 23.7989 1247.8 23.7989Z" fill="#522C14"/>
<path d="M1328.6 16.5184C1332.42 19.2264 1336.9 3.24488 1338.68 0.536901C1340.45 -2.17108 1333.08 5.81968 1330.37 14.2988C1328.6 16.5184 1320.96 1.69112 1318.39 2.31262C1318.39 2.31262 1324.78 13.8104 1328.6 16.5184Z" fill="#522C14"/>
<path d="M1328.69 24.2872C1324.87 21.5792 1320.39 37.5607 1318.61 40.2687C1316.83 42.9767 1324.2 34.9859 1326.91 26.5069C1328.69 24.2872 1336.32 39.1145 1338.9 38.493C1338.94 38.493 1332.55 26.9952 1328.69 24.2872Z" fill="#522C14"/>
<path d="M1334.77 22.1119C1332.55 20.3361 1347.38 12.7005 1346.76 10.1257C1346.76 10.1257 1335.26 16.5183 1332.55 20.3361C1329.84 24.1539 1345.82 28.6376 1348.53 30.4134C1351.24 32.1891 1343.25 24.8198 1334.77 22.1119Z" fill="#522C14"/>
<path d="M1324.78 20.4695C1327.49 16.6517 1311.51 12.168 1308.8 10.3923C1306.09 8.61653 1314.08 15.9858 1322.56 18.6938C1324.78 20.4695 1309.95 28.1051 1310.58 30.6799C1310.53 30.6799 1322.07 24.2873 1324.78 20.4695Z" fill="#522C14"/>
<path d="M1328.64 37.1169C1329.58 39.7361 1333.88 36.0515 1331.26 33.6542C1331.26 33.6098 1327.71 34.4533 1328.64 37.1169Z" fill="#522C14"/>
<path d="M1327.93 7.72857C1330.11 6.52995 1327.93 2.71215 1326.16 3.15608C1325.54 3.33365 1325.76 8.92718 1327.93 7.72857Z" fill="#522C14"/>
<path d="M1301.52 23.7989L1302.05 23.2218C1302.05 23.2218 1303.74 3.7332 1300.5 4.84303C1300.5 4.84303 1299.3 29.126 1300.5 34.0981C1301.7 39.0257 1303.96 33.6541 1302.76 29.0816C1301.56 24.5092 1301.52 23.7989 1301.52 23.7989Z" fill="#522C14"/>
<path d="M1382.76 16.5184C1386.58 19.2264 1391.06 3.24488 1392.84 0.536901C1394.61 -2.17108 1387.24 5.81968 1384.53 14.2988C1382.76 16.5184 1375.12 1.69112 1372.55 2.31262C1372.55 2.31262 1378.94 13.8104 1382.76 16.5184Z" fill="#522C14"/>
<path d="M1382.89 24.2872C1379.07 21.5792 1374.59 37.5607 1372.81 40.2687C1371.04 42.9767 1378.41 34.9859 1381.12 26.5069C1382.89 24.2872 1390.53 39.1145 1393.1 38.493C1393.1 38.493 1386.71 26.9952 1382.89 24.2872Z" fill="#522C14"/>
<path d="M1388.93 22.1119C1386.71 20.3361 1401.54 12.7005 1400.92 10.1257C1400.92 10.1257 1389.42 16.5183 1386.71 20.3361C1384 24.1539 1399.98 28.6376 1402.69 30.4134C1405.4 32.1891 1397.41 24.8198 1388.93 22.1119Z" fill="#522C14"/>
<path d="M1378.94 20.4695C1381.65 16.6517 1365.67 12.168 1362.96 10.3923C1360.25 8.61653 1368.24 15.9858 1376.72 18.6938C1378.94 20.4695 1364.11 28.1051 1364.73 30.6799C1364.73 30.6799 1376.23 24.2873 1378.94 20.4695Z" fill="#522C14"/>
<path d="M1382.85 37.1169C1383.78 39.7361 1388.09 36.0515 1385.47 33.6542C1385.47 33.6098 1381.87 34.4533 1382.85 37.1169Z" fill="#522C14"/>
<path d="M1382.09 7.72857C1384.27 6.52995 1382.09 2.71215 1380.32 3.15608C1379.74 3.33365 1379.92 8.92718 1382.09 7.72857Z" fill="#522C14"/>
<path d="M1355.68 23.7989L1356.21 23.2218C1356.21 23.2218 1357.9 3.7332 1354.66 4.84303C1354.66 4.84303 1353.46 29.126 1354.66 34.0981C1355.86 39.0701 1358.12 33.6541 1356.92 29.0816C1355.72 24.5092 1355.68 23.7989 1355.68 23.7989Z" fill="#522C14"/>
<path d="M1436.96 16.5184C1440.78 19.2264 1445.26 3.24488 1447.04 0.536901C1448.82 -2.17108 1441.45 5.81968 1438.74 14.2988C1436.96 16.5184 1429.33 1.69112 1426.75 2.31262C1426.71 2.31262 1433.1 13.8104 1436.96 16.5184Z" fill="#522C14"/>
<path d="M1437.05 24.2872C1433.23 21.5792 1428.75 37.5607 1426.97 40.2687C1425.2 42.9767 1432.57 34.9859 1435.28 26.5069C1437.05 24.2872 1444.69 39.1145 1447.26 38.493C1447.31 38.493 1440.91 26.9952 1437.05 24.2872Z" fill="#522C14"/>
<path d="M1443.13 22.1119C1440.91 20.3361 1455.74 12.7005 1455.12 10.1257C1455.12 10.1257 1443.62 16.5183 1440.91 20.3361C1438.21 24.1539 1454.19 28.6376 1456.9 30.4134C1459.6 32.1891 1451.61 24.8198 1443.13 22.1119Z" fill="#522C14"/>
<path d="M1433.14 20.4695C1435.85 16.6517 1419.87 12.168 1417.16 10.3923C1414.46 8.61653 1422.45 15.9858 1430.92 18.6938C1433.14 20.4695 1418.32 28.1051 1418.94 30.6799C1418.89 30.6799 1430.39 24.2873 1433.14 20.4695Z" fill="#522C14"/>
<path d="M1437.01 37.1169C1437.94 39.7361 1442.25 36.0515 1439.63 33.6542C1439.63 33.6098 1436.07 34.4533 1437.01 37.1169Z" fill="#522C14"/>
<path d="M1436.25 7.72857C1438.43 6.52995 1436.25 2.71215 1434.48 3.15608C1433.9 3.33365 1434.12 8.92718 1436.25 7.72857Z" fill="#522C14"/>
<path d="M1409.88 23.7989L1410.42 23.2218C1410.42 23.2218 1412.1 3.7332 1408.86 4.84303C1408.86 4.84303 1407.66 29.126 1408.86 34.0981C1410.06 39.0701 1412.32 33.6541 1411.13 29.0816C1409.88 24.5092 1409.88 23.7989 1409.88 23.7989Z" fill="#522C14"/>
</svg>
