<svg width="22" height="23" viewBox="0 0 22 23" fill="none" xmlns="http://www.w3.org/2000/svg">
<path d="M5.56584 16.9573C5.19254 16.4589 4.81925 15.5867 4.07265 14.4653C3.69936 13.8423 2.57946 12.5963 2.20617 12.0978C1.9573 11.5994 1.9573 11.3502 2.08173 10.8518C2.20617 10.1042 2.95276 9.4812 3.82379 9.4812C4.44595 9.4812 5.06811 9.97961 5.56584 10.3534C5.81471 10.6026 6.188 11.101 6.43687 11.3502C6.68573 11.5994 6.68573 11.724 6.9346 11.9732C7.18346 12.3471 7.30789 12.5963 7.18346 12.0978C7.05903 11.4748 6.9346 10.478 6.68573 9.4812C6.5613 8.73358 6.43687 8.60898 6.31244 8.11057C6.188 7.48756 6.06357 7.11375 5.93914 6.49074C5.81471 6.11693 5.69027 5.12011 5.56584 4.6217C5.44141 3.99869 5.44141 2.87727 5.93914 2.37886C6.31244 2.00505 7.05903 1.88045 7.55676 2.12965C8.17892 2.50346 8.55222 3.37568 8.67665 3.74948C8.92552 4.3725 9.17438 5.24471 9.29881 6.24153C9.54768 7.48756 9.92098 9.35659 9.92098 9.7304C9.92098 9.23199 9.79654 8.35977 9.92098 7.86136C10.0454 7.48756 10.2943 6.98915 10.792 6.86454C11.1653 6.73994 11.5386 6.73994 11.9119 6.73994C12.2852 6.86454 12.6585 7.11375 12.9074 7.36295C13.4051 8.11057 13.4051 9.7304 13.4051 9.6058C13.5295 9.10739 13.5295 8.11057 13.7784 7.61216C13.9028 7.36295 14.4005 7.11375 14.6494 6.98915C15.0227 6.86454 15.5204 6.86454 15.8937 6.98915C16.1426 6.98915 16.6403 7.36295 16.7648 7.61216C17.0136 7.98597 17.1381 9.23199 17.2625 9.7304C17.2625 9.855 17.3869 9.23199 17.6358 8.85818C18.1335 8.11057 19.8756 7.86136 20 9.6058C20 10.478 20 10.3534 20 10.9764C20 11.5994 20 11.9732 20 12.4717C20 12.9701 19.8756 14.0915 19.7511 14.5899C19.6267 14.9637 19.2534 15.8359 18.8801 16.3343C18.8801 16.3343 17.5113 17.8296 17.3869 18.5772C17.2625 19.3248 17.2625 19.3248 17.2625 19.8232C17.2625 20.3216 17.3869 20.9446 17.3869 20.9446C17.3869 20.9446 16.3915 21.0692 15.8937 20.9446C15.396 20.82 14.7738 19.9478 14.6494 19.574C14.4005 19.2002 14.0272 19.2002 13.7784 19.574C13.5295 20.0724 12.9074 20.9446 12.4096 20.9446C11.5386 21.0692 9.79654 20.9446 8.55222 20.9446C8.55222 20.9446 8.80108 19.6986 8.30335 19.2002C7.93006 18.8264 7.30789 18.2034 6.9346 17.8296L5.56584 16.9573Z" fill="white"/>
<path d="M5.02844 17.8007C4.9268 17.7359 4.8377 17.6533 4.76545 17.5568C4.54716 17.2654 4.33897 16.8892 4.13897 16.5279C4.12085 16.4951 4.10279 16.4625 4.08479 16.4301C3.85384 16.0138 3.59 15.5448 3.24025 15.0195C3.23147 15.0063 3.223 14.9929 3.21485 14.9793C3.07448 14.745 2.75381 14.338 2.36859 13.8719C2.27046 13.7532 2.1676 13.63 2.06587 13.5082C1.80606 13.197 1.55357 12.8947 1.40577 12.6973C1.36983 12.6493 1.33828 12.5982 1.3115 12.5446C1.15892 12.239 1.03776 11.9224 1.00741 11.5578C0.979046 11.217 1.03753 10.9114 1.1029 10.6444C1.33506 9.39014 2.52755 8.4812 3.82379 8.4812C4.39198 8.4812 4.88512 8.70451 5.24303 8.912C5.36051 8.98011 5.47562 9.05407 5.58525 9.12871C5.5734 9.08892 5.56174 9.05274 5.55027 9.01827C5.54053 8.98899 5.52893 8.95569 5.516 8.91855C5.4678 8.78014 5.40104 8.5884 5.34221 8.35279C5.33838 8.33742 5.33491 8.32196 5.3318 8.30643C5.27474 8.0207 5.21781 7.79217 5.15557 7.54288L5.15422 7.53748C5.09567 7.30297 5.03247 7.04981 4.96913 6.73922C4.8872 6.46477 4.8195 6.07496 4.76736 5.77476L4.76724 5.77406C4.76048 5.73513 4.75384 5.69681 4.74732 5.65915C4.68982 5.32703 4.64133 5.047 4.59562 4.86392C4.59178 4.84855 4.58831 4.83309 4.58521 4.81756C4.50425 4.41219 4.46654 3.87269 4.52528 3.34327C4.58017 2.84861 4.74046 2.164 5.23155 1.67223C5.60272 1.30055 6.09571 1.10395 6.54512 1.03289C6.9971 0.96143 7.52858 0.997201 8.00446 1.23547C8.02736 1.24694 8.04982 1.25928 8.07177 1.27247C8.58467 1.58063 8.93657 2.05076 9.16116 2.42559C9.38445 2.79825 9.53384 3.1648 9.61572 3.40473C9.88047 4.07407 10.1355 4.96998 10.2738 5.98525C10.3484 5.95434 10.4269 5.92729 10.5096 5.90481C11.0272 5.73919 11.5272 5.73962 11.8702 5.73992C11.8844 5.73993 11.8983 5.73994 11.9119 5.73994C12.0195 5.73994 12.1264 5.75731 12.2285 5.79139C12.6945 5.94693 13.1351 6.22301 13.4692 6.51921C13.5248 6.47915 13.5792 6.44289 13.6298 6.4106C13.8449 6.27353 14.0698 6.16096 14.1921 6.09977L14.2017 6.09496C14.2441 6.07376 14.2879 6.05559 14.3328 6.04059C14.8735 5.86011 15.5374 5.84823 16.0943 6.00495C16.2833 6.03432 16.4399 6.09855 16.5395 6.14495C16.6941 6.21693 16.8392 6.30754 16.9646 6.39885C17.1667 6.546 17.4549 6.79527 17.6295 7.10867C17.7055 7.23335 17.7638 7.36764 17.809 7.49292C18.21 7.32229 18.6563 7.25353 19.0784 7.30476C19.5411 7.36093 20.0205 7.56542 20.3925 7.98022C20.7621 8.39227 20.9545 8.93163 20.9975 9.53465C20.9992 9.55833 21 9.58206 21 9.6058V9.6109V9.61597V9.62103V9.62606V9.63107V9.63605V9.64102V9.64596V9.65088V9.65578V9.66065V9.66551V9.67034V9.67515V9.67993V9.6847V9.68945V9.69417V9.69887V9.70355V9.70821V9.71285V9.71747V9.72206V9.72664V9.73119V9.73573V9.74024V9.74473V9.7492V9.75365V9.75808V9.76249V9.76688V9.77125V9.7756V9.77993V9.78424V9.78853V9.7928V9.79705V9.80129V9.8055V9.80969V9.81386V9.81801V9.82215V9.82626V9.83036V9.83444V9.83849V9.84253V9.84655V9.85055V9.85454V9.8585V9.86245V9.86638V9.87029V9.87418V9.87805V9.88191V9.88574V9.88956V9.89336V9.89715V9.90091V9.90466V9.90839V9.9121V9.9158V9.91948V9.92314V9.92678V9.93041V9.93402V9.93762V9.94119V9.94475V9.9483V9.95182V9.95533V9.95883V9.9623V9.96576V9.96921V9.97264V9.97605V9.97945V9.98283V9.98619V9.98954V9.99288V9.9962V9.9995V10.0028V10.0061V10.0093V10.0126V10.0158V10.019V10.0222V10.0254V10.0285V10.0317V10.0348V10.038V10.0411V10.0442V10.0472V10.0503V10.0534V10.0564V10.0594V10.0624V10.0654V10.0684V10.0714V10.0743V10.0773V10.0802V10.0831V10.086V10.0889V10.0918V10.0946V10.0975V10.1003V10.1031V10.1059V10.1087V10.1115V10.1143V10.1171V10.1198V10.1225V10.1253V10.128V10.1307V10.1334V10.136V10.1387V10.1414V10.144V10.1466V10.1492V10.1518V10.1544V10.157V10.1596V10.1621V10.1647V10.1672V10.1698V10.1723V10.1748V10.1773V10.1798V10.1822V10.1847V10.1872V10.1896V10.192V10.1945V10.1969V10.1993V10.2017V10.204V10.2064V10.2088V10.2111V10.2135V10.2158V10.2181V10.2205V10.2228V10.2251V10.2274V10.2296V10.2319V10.2342V10.2364V10.2387V10.2409V10.2431V10.2454V10.2476V10.2498V10.252V10.2542V10.2563V10.2585V10.2607V10.2628V10.265V10.2671V10.2692V10.2714V10.2735V10.2756V10.2777V10.2798V10.2819V10.284V10.286V10.2881V10.2902V10.2922V10.2943V10.2963V10.2984V10.3004V10.3024V10.3044V10.3064V10.3084V10.3104V10.3124V10.3144V10.3164V10.3184V10.3203V10.3223V10.3243V10.3262V10.3282V10.3301V10.3321V10.334V10.3359V10.3378V10.3398V10.3417V10.3436V10.3455V10.3474V10.3493V10.3512V10.3531V10.3549V10.3568V10.3587V10.3606V10.3624V10.3643V10.3662V10.368V10.3699V10.3717V10.3736V10.3754V10.3772V10.3791V10.3809V10.3827V10.3846V10.3864V10.3882V10.39V10.3918V10.3937V10.3955V10.3973V10.3991V10.4009V10.4027V10.4045V10.4063V10.4081V10.4099V10.4117V10.4135V10.4152V10.417V10.4188V10.4206V10.4224V10.4242V10.4259V10.4277V10.4295V10.4313V10.4331V10.4348V10.4366V10.4384V10.4402V10.4419V10.4437V10.4455V10.4473V10.449V10.4508V10.4526V10.4544V10.4561V10.4579V10.4597V10.4614V10.4632V10.465V10.4668V10.4685V10.4703V10.4721V10.4739V10.4757V10.4774V10.4792V10.481V10.4828V10.4846V10.4864V10.4882V10.49V10.4918V10.4935V10.4953V10.4971V10.4989V10.5007V10.5026V10.5044V10.5062V10.508V10.5098V10.5116V10.5134V10.5153V10.5171V10.5189V10.5208V10.5226V10.5244V10.5263V10.5281V10.53V10.5318V10.5337V10.5355V10.5374V10.5393V10.5411V10.543V10.5449V10.5468V10.5486V10.5505V10.5524V10.5543V10.5562V10.5581V10.5601V10.562V10.5639V10.5658V10.5678V10.5697V10.5716V10.5736V10.5755V10.5775V10.5795V10.5814V10.5834V10.5854V10.5874V10.5894V10.5914V10.5934V10.5954V10.5974V10.5994V10.6014V10.6035V10.6055V10.6076V10.6096V10.6117V10.6137V10.6158V10.6179V10.62V10.6221V10.6242V10.6263V10.6284V10.6305V10.6327V10.6348V10.637V10.6391V10.6413V10.6434V10.6456V10.6478V10.65V10.6522V10.6544V10.6566V10.6589V10.6611V10.6633V10.6656V10.6679V10.6701V10.6724V10.6747V10.677V10.6793V10.6816V10.6839V10.6863V10.6886V10.691V10.6933V10.6957V10.6981V10.7005V10.7029V10.7053V10.7077V10.7101V10.7126V10.715V10.7175V10.72V10.7225V10.7249V10.7275V10.73V10.7325V10.735V10.7376V10.7401V10.7427V10.7453V10.7479V10.7505V10.7531V10.7557V10.7584V10.761V10.7637V10.7663V10.769V10.7717V10.7744V10.7772V10.7799V10.7826V10.7854V10.7882V10.7909V10.7937V10.7965V10.7994V10.8022V10.805V10.8079V10.8108V10.8137V10.8166V10.8195V10.8224V10.8253V10.8283V10.8313V10.8342V10.8372V10.8402V10.8433V10.8463V10.8493V10.8524V10.8555V10.8586V10.8617V10.8648V10.8679V10.8711V10.8743V10.8774V10.8806V10.8838V10.8871V10.8903V10.8936V10.8968V10.9001V10.9034V10.9067V10.9101V10.9134V10.9168V10.9202V10.9236V10.927V10.9304V10.9338V10.9373V10.9408V10.9443V10.9478V10.9513V10.9548V10.9584V10.962V10.9656V10.9692V10.9728V10.9764V10.9801V10.9837V10.9874V10.991V10.9946V10.9982V11.0018V11.0054V11.0091V11.0126V11.0162V11.0198V11.0234V11.027V11.0306V11.0341V11.0377V11.0412V11.0448V11.0483V11.0519V11.0554V11.0589V11.0624V11.0659V11.0695V11.073V11.0765V11.08V11.0834V11.0869V11.0904V11.0939V11.0974V11.1008V11.1043V11.1077V11.1112V11.1146V11.1181V11.1215V11.1249V11.1283V11.1318V11.1352V11.1386V11.142V11.1454V11.1488V11.1522V11.1556V11.1589V11.1623V11.1657V11.169V11.1724V11.1758V11.1791V11.1824V11.1858V11.1891V11.1925V11.1958V11.1991V11.2024V11.2057V11.209V11.2123V11.2156V11.2189V11.2222V11.2255V11.2288V11.2321V11.2353V11.2386V11.2419V11.2451V11.2484V11.2516V11.2549V11.2581V11.2614V11.2646V11.2678V11.271V11.2743V11.2775V11.2807V11.2839V11.2871V11.2903V11.2935V11.2967V11.2999V11.3031V11.3062V11.3094V11.3126V11.3157V11.3189V11.3221V11.3252V11.3284V11.3315V11.3346V11.3378V11.3409V11.344V11.3472V11.3503V11.3534V11.3565V11.3596V11.3627V11.3659V11.3689V11.372V11.3751V11.3782V11.3813V11.3844V11.3875V11.3905V11.3936V11.3967V11.3997V11.4028V11.4059V11.4089V11.412V11.415V11.418V11.4211V11.4241V11.4271V11.4302V11.4332V11.4362V11.4392V11.4422V11.4453V11.4483V11.4513V11.4543V11.4573V11.4603V11.4633V11.4662V11.4692V11.4722V11.4752V11.4782V11.4811V11.4841V11.4871V11.49V11.493V11.4959V11.4989V11.5018V11.5048V11.5077V11.5107V11.5136V11.5166V11.5195V11.5224V11.5253V11.5283V11.5312V11.5341V11.537V11.5399V11.5428V11.5457V11.5487V11.5516V11.5545V11.5573V11.5602V11.5631V11.566V11.5689V11.5718V11.5747V11.5775V11.5804V11.5833V11.5862V11.589V11.5919V11.5948V11.5976V11.6005V11.6033V11.6062V11.609V11.6119V11.6147V11.6176V11.6204V11.6232V11.6261V11.6289V11.6317V11.6346V11.6374V11.6402V11.643V11.6459V11.6487V11.6515V11.6543V11.6571V11.6599V11.6627V11.6655V11.6683V11.6711V11.6739V11.6767V11.6795V11.6823V11.6851V11.6879V11.6907V11.6935V11.6963V11.6991V11.7018V11.7046V11.7074V11.7102V11.7129V11.7157V11.7185V11.7212V11.724V11.7268V11.7295V11.7323V11.735V11.7378V11.7406V11.7433V11.7461V11.7488V11.7516V11.7543V11.7571V11.7598V11.7625V11.7653V11.768V11.7708V11.7735V11.7762V11.779V11.7817V11.7844V11.7872V11.7899V11.7926V11.7954V11.7981V11.8008V11.8035V11.8062V11.809V11.8117V11.8144V11.8171V11.8198V11.8225V11.8253V11.828V11.8307V11.8334V11.8361V11.8388V11.8415V11.8442V11.8469V11.8496V11.8523V11.855V11.8577V11.8604V11.8631V11.8658V11.8685V11.8712V11.8739V11.8766V11.8793V11.882V11.8847V11.8874V11.8901V11.8928V11.8955V11.8982V11.9008V11.9035V11.9062V11.9089V11.9116V11.9143V11.917V11.9197V11.9223V11.925V11.9277V11.9304V11.9331V11.9358V11.9384V11.9411V11.9438V11.9465V11.9492V11.9518V11.9545V11.9572V11.9599V11.9626V11.9652V11.9679V11.9706V11.9733V11.9759V11.9786V11.9813V11.984V11.9867V11.9893V11.992V11.9947V11.9974V12V12.0027V12.0054V12.0081V12.0107V12.0134V12.0161V12.0188V12.0215V12.0241V12.0268V12.0295V12.0322V12.0348V12.0375V12.0402V12.0429V12.0456V12.0482V12.0509V12.0536V12.0563V12.059V12.0616V12.0643V12.067V12.0697V12.0724V12.0751V12.0777V12.0804V12.0831V12.0858V12.0885V12.0912V12.0939V12.0965V12.0992V12.1019V12.1046V12.1073V12.11V12.1127V12.1154V12.1181V12.1208V12.1234V12.1261V12.1288V12.1315V12.1342V12.1369V12.1396V12.1423V12.145V12.1477V12.1504V12.1531V12.1558V12.1585V12.1613V12.164V12.1667V12.1694V12.1721V12.1748V12.1775V12.1802V12.1829V12.1857V12.1884V12.1911V12.1938V12.1965V12.1993V12.202V12.2047V12.2074V12.2102V12.2129V12.2156V12.2183V12.2211V12.2238V12.2265V12.2293V12.232V12.2348V12.2375V12.2402V12.243V12.2457V12.2485V12.2512V12.254V12.2567V12.2595V12.2622V12.265V12.2677V12.2705V12.2733V12.276V12.2788V12.2816V12.2843V12.2871V12.2899V12.2926V12.2954V12.2982V12.301V12.3037V12.3065V12.3093V12.3121V12.3149V12.3177V12.3205V12.3233V12.3261V12.3289V12.3317V12.3345V12.3373V12.3401V12.3429V12.3457V12.3485V12.3513V12.3541V12.3569V12.3598V12.3626V12.3654V12.3682V12.3711V12.3739V12.3767V12.3796V12.3824V12.3853V12.3881V12.3909V12.3938V12.3966V12.3995V12.4023V12.4052V12.4081V12.4109V12.4138V12.4167V12.4195V12.4224V12.4253V12.4282V12.431V12.4339V12.4368V12.4397V12.4426V12.4455V12.4484V12.4513V12.4542V12.4571V12.46V12.4629V12.4658V12.4687V12.4717C21 13.0412 20.868 14.2449 20.7214 14.8321C20.7152 14.8569 20.708 14.8815 20.6999 14.9057C20.5598 15.3267 20.1455 16.313 19.6805 16.9338C19.6609 16.96 19.64 16.9851 19.618 17.0093C19.6179 17.0093 19.6179 17.0094 19.6178 17.0094L19.6178 17.0094L19.6177 17.0096L19.616 17.0114L19.6068 17.0216L19.5682 17.0647C19.534 17.1031 19.4841 17.1599 19.4233 17.2307C19.3011 17.3731 19.1386 17.5685 18.9742 17.7833C18.8077 18.0007 18.6505 18.2234 18.5323 18.4223C18.4144 18.6207 18.38 18.7222 18.3742 18.739C18.3735 18.7412 18.3733 18.7419 18.3733 18.7414C18.3085 19.1313 18.2846 19.2781 18.2731 19.393C18.2634 19.4902 18.2625 19.5634 18.2625 19.8232C18.2625 20.0025 18.286 20.2287 18.3147 20.4296C18.3284 20.5258 18.3421 20.6082 18.3523 20.6659C18.3547 20.6797 18.3569 20.692 18.3589 20.7026C18.361 20.7142 18.3628 20.7238 18.3642 20.7312L18.3671 20.7465L18.3675 20.7488C18.3676 20.7488 18.3676 20.7489 18.3676 20.7489M5.02844 17.8007L16.3801 20.9985C16.381 21.0035 16.3818 21.0083 16.3827 21.013C16.3893 21.0505 16.3949 21.0808 16.399 21.1025L16.4039 21.1285L16.4055 21.1363L16.406 21.1388L16.4061 21.1398L16.4062 21.1402L16.4063 21.1403C16.4063 21.1404 16.4063 21.1405 17.3869 20.9446M5.02844 17.8007L6.3046 18.6139L7.56825 19.8793C7.57181 19.8889 7.57666 19.9039 7.582 19.9252C7.60215 20.006 7.61443 20.1206 7.61443 20.2593C7.61443 20.3935 7.60307 20.5218 7.59103 20.6183C7.58513 20.6655 7.5794 20.7026 7.57551 20.7259L7.57139 20.7496C7.57103 20.7516 7.57084 20.7525 7.57086 20.7524L7.57106 20.7514L7.57128 20.7503L7.57141 20.7496M5.02844 17.8007L7.57141 20.7496M18.3676 20.7489C18.3676 20.7488 18.3675 20.7488 17.3869 20.9446M18.3676 20.7489C18.4219 21.0213 18.3606 21.304 18.1981 21.5294C18.0357 21.7547 17.7868 21.9024 17.5111 21.9369L17.3869 20.9446M18.3676 20.7489L7.57141 20.7496M17.3869 20.9446C17.5111 21.9369 17.511 21.9369 17.5109 21.9369L17.5107 21.9369L17.5102 21.937L17.5089 21.9371L17.5053 21.9376L17.4938 21.939L17.4547 21.9435C17.4219 21.9472 17.3758 21.9521 17.3194 21.9575C17.2074 21.9683 17.0516 21.9814 16.877 21.9901C16.568 22.0056 16.0595 22.017 15.6509 21.9147C15.3267 21.8335 15.0625 21.6569 14.8788 21.5086C14.6837 21.3512 14.509 21.1679 14.3629 20.9924C14.308 20.9264 14.253 20.8564 14.1992 20.784C14.1164 20.8955 14.0279 21.0056 13.9352 21.1101C13.7781 21.2871 13.5839 21.4764 13.3593 21.6285C13.1618 21.7622 12.8635 21.92 12.4964 21.942C11.9708 22.0101 11.262 22.0059 10.5987 21.9911C10.3436 21.9854 10.0916 21.9781 9.84566 21.9709C9.38665 21.9574 8.9488 21.9446 8.55222 21.9446C8.25267 21.9446 7.9689 21.8103 7.77896 21.5787C7.58921 21.3473 7.51307 21.0431 7.57141 20.7496" stroke="black" stroke-width="2" stroke-linecap="round" stroke-linejoin="round"/>
<path d="M15.6876 17.4507V13.2142" stroke="black" stroke-width="0.75" stroke-linecap="round"/>
<path d="M13.3233 17.4507L13.1989 13.2142" stroke="black" stroke-width="0.75" stroke-linecap="round"/>
<path d="M10.7103 13.2142V17.4507" stroke="black" stroke-width="0.75" stroke-linecap="round"/>
</svg>
