<svg width="73" height="73" viewBox="0 0 73 73" fill="none" xmlns="http://www.w3.org/2000/svg">
<g filter="url(#filter0_d)">
<path fill-rule="evenodd" clip-rule="evenodd" d="M36.5 67C54.4493 67 69 52.4493 69 34.5C69 16.5507 54.4493 2 36.5 2C18.5507 2 4 16.5507 4 34.5C4 52.4493 18.5507 67 36.5 67Z" fill="white"/>
</g>
<path d="M39.0062 30.7625V35.2063C39.0062 35.3188 38.9187 35.4063 38.8062 35.4063H38.0937C38.025 35.4063 37.9625 35.3688 37.9312 35.325L35.8938 32.575V35.2125C35.8938 35.325 35.8063 35.4125 35.6938 35.4125H34.9813C34.8688 35.4125 34.7813 35.325 34.7813 35.2125V30.7688C34.7813 30.6563 34.8688 30.5688 34.9813 30.5688H35.6875C35.75 30.5688 35.8188 30.6 35.85 30.6563L37.8875 33.4063V30.7688C37.8875 30.6563 37.975 30.5688 38.0875 30.5688H38.8C38.9125 30.5625 39.0062 30.6563 39.0062 30.7625ZM33.8813 30.5625H33.1688C33.0563 30.5625 32.9688 30.65 32.9688 30.7625V35.2063C32.9688 35.3188 33.0563 35.4063 33.1688 35.4063H33.8813C33.9938 35.4063 34.0813 35.3188 34.0813 35.2063V30.7625C34.0813 30.6563 33.9938 30.5625 33.8813 30.5625ZM32.1625 34.2875H30.2188V30.7625C30.2188 30.65 30.1313 30.5625 30.0188 30.5625H29.3063C29.1938 30.5625 29.1063 30.65 29.1063 30.7625V35.2063C29.1063 35.2625 29.125 35.3063 29.1625 35.3438C29.2 35.375 29.2438 35.4 29.3 35.4H32.1563C32.2688 35.4 32.3563 35.3125 32.3563 35.2V34.4875C32.3563 34.3813 32.2688 34.2875 32.1625 34.2875ZM42.7562 30.5625H39.9C39.7937 30.5625 39.7 30.65 39.7 30.7625V35.2063C39.7 35.3125 39.7875 35.4063 39.9 35.4063H42.7562C42.8687 35.4063 42.9562 35.3188 42.9562 35.2063V34.4938C42.9562 34.3813 42.8687 34.2938 42.7562 34.2938H40.8125V33.5438H42.7562C42.8687 33.5438 42.9562 33.4563 42.9562 33.3438V32.625C42.9562 32.5125 42.8687 32.425 42.7562 32.425H40.8125V31.675H42.7562C42.8687 31.675 42.9562 31.5875 42.9562 31.475V30.7625C42.95 30.6563 42.8625 30.5625 42.7562 30.5625ZM50 25.1063V42.9375C49.9937 45.7375 47.7 48.0063 44.8937 48H27.0625C24.2625 47.9938 21.9938 45.6938 22 42.8938V25.0625C22.0063 22.2625 24.3063 19.9938 27.1063 20H44.9375C47.7375 20.0063 50.0062 22.3 50 25.1063ZM46.15 32.7688C46.15 28.2063 41.575 24.4938 35.9563 24.4938C30.3375 24.4938 25.7625 28.2063 25.7625 32.7688C25.7625 36.8563 29.3875 40.2813 34.2875 40.9313C35.4813 41.1875 35.3438 41.625 35.075 43.2313C35.0313 43.4875 34.8688 44.2375 35.9563 43.7813C37.0437 43.325 41.825 40.325 43.9687 37.8625C45.4437 36.2375 46.15 34.5938 46.15 32.7688Z" fill="#49D125"/>
<defs>
<filter id="filter0_d" x="0" y="0" width="73" height="73" filterUnits="userSpaceOnUse" color-interpolation-filters="sRGB">
<feFlood flood-opacity="0" result="BackgroundImageFix"/>
<feColorMatrix in="SourceAlpha" type="matrix" values="0 0 0 0 0 0 0 0 0 0 0 0 0 0 0 0 0 0 127 0"/>
<feOffset dy="2"/>
<feGaussianBlur stdDeviation="2"/>
<feColorMatrix type="matrix" values="0 0 0 0 0.607892 0 0 0 0 0.607803 0 0 0 0 0.607923 0 0 0 0.31963 0"/>
<feBlend mode="normal" in2="BackgroundImageFix" result="effect1_dropShadow"/>
<feBlend mode="normal" in="SourceGraphic" in2="effect1_dropShadow" result="shape"/>
</filter>
</defs>
</svg>
