<svg width="200" height="150" viewBox="0 0 200 150" fill="none" xmlns="http://www.w3.org/2000/svg">
<path d="M137.865 141.958C137.697 141.958 137.53 141.958 137.362 141.874L123.947 139.272C122.689 139.021 121.85 137.929 121.934 136.671C121.934 136.587 121.934 136.503 121.934 136.419L100.134 134.404L78.3344 136.503C78.3344 136.587 78.3344 136.671 78.3344 136.754C78.4182 138.013 77.4959 139.104 76.322 139.356L62.9067 141.958C62.739 141.958 62.5713 142.042 62.4036 142.042C61.9005 142.042 61.4813 141.874 61.062 141.706L56.8697 139.104C56.199 138.685 55.7797 138.013 55.6959 137.258C55.6959 137.258 55.3605 134.153 54.7736 129.621C54.4382 129.369 54.2705 128.949 54.1028 128.529L53.7674 127.438L48.3174 127.69C48.2335 127.69 48.2335 127.69 48.1497 127.69C47.2274 127.69 46.3889 127.187 45.9697 126.347C45.4666 125.508 45.5505 124.417 46.1374 123.662L51.5035 116.528V111.744C51.5035 111.408 51.5874 110.988 51.7551 110.653C50.6651 105.281 49.5751 101.085 48.4851 97.9794C48.1497 97.1401 47.8982 96.3848 47.5628 95.7134C47.4789 95.4616 47.3951 95.2937 47.2274 95.1259C47.0597 94.7901 46.892 94.4544 46.7243 94.2026L46.6405 94.1187C46.5566 94.0348 46.5566 93.9509 46.4728 93.8669C46.3889 93.783 46.3889 93.6991 46.3051 93.6991C45.3828 92.7759 45.3828 91.3491 46.1374 90.3419L54.522 79.9348C55.0251 79.3473 55.6959 79.0116 56.4505 79.0116C56.7859 79.0116 57.2051 79.0955 57.5405 79.2634L58.6348 79.958C59.1348 79.0348 62.168 79.2707 62.3357 78.6832C60.5749 77.5082 58.8141 75.2421 58.0595 71.0457C57.5564 67.8564 57.7241 64.9189 57.7241 64.751C57.808 63.7439 58.4787 62.8207 59.4849 62.485C59.7364 62.401 59.988 62.401 60.2395 62.401C60.9941 62.401 61.7487 62.7368 62.168 63.3243C62.4195 63.66 62.7549 63.9957 63.1741 64.4153C63.258 64.0796 63.4257 63.7439 63.5933 63.4082C64.0964 62.7368 64.851 62.401 65.6057 62.401H74.4933C75.6672 62.401 76.7572 63.2403 76.9249 64.4153C77.1764 65.5903 77.2603 66.6814 77.428 67.9403L89.0826 67.2689L90.2564 65.3385C90.6757 64.5832 92.4032 64.0796 92.4364 64.0796H96.2934V61.1421C94.1972 59.7993 92.9395 57.4493 92.9395 54.8475C92.9395 50.6511 96.2934 47.2939 100.486 47.2939C103.672 47.2939 106.523 49.3082 107.613 52.3297C107.864 53.085 108.032 54.0082 108.032 54.8475C108.032 55.6868 107.864 56.61 107.613 57.3653C107.361 57.9528 106.942 58.4564 106.355 58.7921C106.355 58.876 106.355 58.96 106.355 59.0439V62.401C106.355 63.0725 106.103 63.66 105.684 64.0796H108.451C109.373 64.0796 110.128 64.5832 110.631 65.3385L111.805 67.2689L123.46 67.9403C123.543 66.7653 123.711 65.5903 123.963 64.4153C124.214 63.2403 125.22 62.401 126.394 62.401H135.282C136.12 62.401 136.875 62.8207 137.294 63.4082C137.546 63.7439 137.63 64.0796 137.713 64.4153C138.133 63.9957 138.552 63.576 138.72 63.3243C139.223 62.7368 139.893 62.401 140.648 62.401C140.9 62.401 141.151 62.401 141.403 62.485C142.409 62.8207 143.08 63.66 143.163 64.751C143.163 64.835 143.331 67.8564 142.744 71.0457C141.906 75.2421 140.229 77.4243 138.468 78.6832C138.636 79.2707 140.967 79.3473 141.135 79.9348L142.56 79.2634C142.896 79.0955 143.231 79.0116 143.65 79.0116C144.405 79.0116 145.076 79.3473 145.579 79.9348L153.964 90.3419C154.802 91.3491 154.718 92.7759 153.796 93.6991C153.712 93.783 153.712 93.8669 153.628 93.8669L153.545 93.9509C153.461 94.0348 153.461 94.1187 153.377 94.2026L153.293 94.2866C153.125 94.5384 152.958 94.8741 152.79 95.2098C152.706 95.4616 152.622 95.6294 152.538 95.7973C152.203 96.4687 151.951 97.2241 151.616 98.0634C150.526 101.085 149.436 105.365 148.43 110.737C148.598 111.072 148.681 111.408 148.681 111.828V116.612L154.048 123.746C154.635 124.501 154.718 125.592 154.215 126.431C153.796 127.271 152.958 127.774 152.035 127.774C151.951 127.774 151.951 127.774 151.868 127.774L146.334 127.438L145.998 128.529C145.915 128.949 145.663 129.285 145.328 129.621C144.741 134.153 144.405 137.258 144.405 137.258C144.321 138.013 143.902 138.685 143.231 139.104L139.039 141.706C138.787 141.79 138.368 141.958 137.865 141.958Z" fill="url(#paint0_linear)"/>
<path d="M134.444 84.8865H100.067H65.69L64.8516 135.244L100.067 131.886L135.282 135.244L134.444 84.8865Z" fill="url(#paint1_linear)"/>
<path d="M134.444 84.8865H100.067H65.69L64.8516 131.886L100.067 128.781L135.282 131.886L134.444 84.8865Z" fill="url(#paint2_linear)"/>
<path d="M85.8128 119.297C85.3097 119.297 84.9743 118.962 84.9743 118.458V108.554H79.1051C78.602 108.554 78.2666 108.219 78.2666 107.715V89.9223C78.2666 89.4187 78.602 89.083 79.1051 89.083C79.6081 89.083 79.9435 89.4187 79.9435 89.9223V106.876H85.8128C86.3158 106.876 86.6512 107.212 86.6512 107.715V118.458C86.6512 118.962 86.3158 119.297 85.8128 119.297Z" fill="url(#paint3_linear)"/>
<path d="M114.32 119.297C113.817 119.297 113.481 118.962 113.481 118.458V107.715C113.481 107.212 113.817 106.876 114.32 106.876H120.189V89.9223C120.189 89.4187 120.525 89.083 121.028 89.083C121.531 89.083 121.866 89.4187 121.866 89.9223V107.715C121.866 108.219 121.531 108.554 121.028 108.554H115.158V118.458C115.158 118.962 114.823 119.297 114.32 119.297Z" fill="url(#paint4_linear)"/>
<path d="M100.067 86.5652H62.3359V89.9223H100.067H137.798V86.5652H100.067Z" fill="url(#paint5_linear)"/>
<path d="M121.03 89.0829H111.052L105.56 84.458L100.068 89.0828L94.5761 84.458L89.0841 89.0829H79.1064L92.1026 97.4757L89.0841 110.904L100.068 117.619L111.052 110.904L108.033 97.4757L121.03 89.0829Z" fill="url(#paint6_linear)"/>
<path d="M88.3282 126.851C91.5697 126.851 94.1974 124.408 94.1974 121.395C94.1974 118.383 91.5697 115.94 88.3282 115.94C85.0867 115.94 82.459 118.383 82.459 121.395C82.459 124.408 85.0867 126.851 88.3282 126.851Z" fill="url(#paint7_linear)"/>
<path d="M88.3283 122.654C89.2544 122.654 90.0052 121.903 90.0052 120.976C90.0052 120.049 89.2544 119.297 88.3283 119.297C87.4022 119.297 86.6514 120.049 86.6514 120.976C86.6514 121.903 87.4022 122.654 88.3283 122.654Z" fill="url(#paint8_linear)"/>
<path d="M111.805 126.851C115.046 126.851 117.674 124.408 117.674 121.395C117.674 118.383 115.046 115.94 111.805 115.94C108.563 115.94 105.936 118.383 105.936 121.395C105.936 124.408 108.563 126.851 111.805 126.851Z" fill="url(#paint9_linear)"/>
<path d="M111.805 122.654C112.731 122.654 113.482 121.903 113.482 120.976C113.482 120.049 112.731 119.297 111.805 119.297C110.879 119.297 110.128 120.049 110.128 120.976C110.128 121.903 110.879 122.654 111.805 122.654Z" fill="url(#paint10_linear)"/>
<path d="M48.082 91.9364L56.4667 81.5293L65.6897 85.8096C65.6897 85.8096 74.0744 103.938 75.7513 136.838L62.3359 139.44L58.1436 136.838C58.1436 136.838 53.9513 97.9793 48.082 91.9364Z" fill="url(#paint11_linear)"/>
<path d="M74.9972 126.683L67.3672 129.956L70.8049 137.846L75.7518 136.922C75.5841 133.314 75.3326 129.872 74.9972 126.683Z" fill="url(#paint12_linear)"/>
<path d="M152.051 91.9364L143.667 81.5293L134.443 85.8096C134.443 85.8096 126.059 103.938 124.382 136.838L137.797 139.44L141.99 136.838C141.99 136.838 146.182 97.9793 152.051 91.9364Z" fill="url(#paint13_linear)"/>
<path d="M147.272 86.0615L144.506 92.7758L149.285 97.224C150.123 94.7901 151.045 92.9437 152.052 91.9365L147.272 86.0615Z" fill="url(#paint14_linear)"/>
<path d="M52.8613 86.0615L55.6282 92.7758L50.849 97.224C50.0105 94.7901 49.0882 92.9437 48.082 91.9365L52.8613 86.0615Z" fill="url(#paint15_linear)"/>
<path d="M125.137 126.683L132.767 129.956L129.329 137.846L124.382 136.922C124.55 133.314 124.801 129.872 125.137 126.683Z" fill="url(#paint16_linear)"/>
<path d="M53.9512 119.297C53.9512 118.458 53.9512 111.744 53.9512 111.744C53.9512 111.744 64.0127 112.583 64.8512 115.94C65.6896 119.297 64.8512 126.012 63.1743 127.69H56.4666L53.9512 119.297Z" fill="url(#paint17_linear)"/>
<path d="M69.8821 98.3151V93.2794L61.4975 91.6008C61.4975 91.6008 56.4667 96.6365 57.3052 99.9937C58.1437 103.351 63.1744 110.065 65.6898 109.226C68.2052 108.387 73.236 104.19 73.236 104.19L69.8821 98.3151Z" fill="url(#paint18_linear)"/>
<path d="M146.182 119.297C146.182 118.458 146.182 111.744 146.182 111.744C146.182 111.744 136.12 112.583 135.282 115.94C134.444 119.297 135.282 126.012 136.959 127.69H143.667L146.182 119.297Z" fill="url(#paint19_linear)"/>
<path d="M130.251 98.3151V93.2794L138.636 91.6008C138.636 91.6008 143.667 96.6365 142.828 99.9937C141.99 103.351 136.959 110.065 134.444 109.226C131.928 108.387 126.897 104.19 126.897 104.19L130.251 98.3151Z" fill="url(#paint20_linear)"/>
<path d="M64.0133 94.958C63.1749 95.7973 61.498 100.833 61.498 100.833L65.6903 105.029L76.5903 98.3151L64.0133 94.958Z" fill="url(#paint21_linear)"/>
<path d="M48.082 125.172L55.6282 115.101L61.4974 117.619V124.333L48.082 125.172Z" fill="url(#paint22_linear)"/>
<path d="M136.121 94.958C136.959 95.7973 138.636 100.833 138.636 100.833L134.444 105.029L123.544 98.3151L136.121 94.958Z" fill="url(#paint23_linear)"/>
<path d="M152.051 125.172L144.505 115.101L138.636 117.619V124.333L152.051 125.172Z" fill="url(#paint24_linear)"/>
<path d="M104.259 105.869H95.874V110.904H104.259V105.869Z" fill="url(#paint25_linear)"/>
<path d="M95.874 110.904H104.259V105.869H95.874V110.904Z" fill="url(#paint26_linear)"/>
<path d="M100.066 68.2615L71.5586 69.94V85.8865H100.066H128.574V69.94L100.066 68.2615Z" fill="url(#paint27_linear)"/>
<path d="M104.845 55.6723C105.013 55.1687 105.097 54.5812 105.097 53.9937C105.097 53.4062 105.013 52.8187 104.845 52.3151C104.174 50.3848 102.33 48.958 100.066 48.958C97.2991 48.958 95.0352 51.2241 95.0352 53.9937C95.0352 56.1759 96.4606 58.0223 98.3891 58.6937V66.583H101.743V61.5473H103.42V58.1901H102.833H101.743V55.6723H104.845Z" fill="url(#paint28_linear)"/>
<path d="M65.2697 64.0652C65.2697 64.0652 67.4497 70.7795 66.0243 74.1366C64.5989 77.4938 62.335 85.8866 62.335 85.8866H71.2227C71.2227 85.8866 76.4212 75.8152 74.1573 64.0652H65.2697Z" fill="url(#paint29_linear)"/>
<path d="M134.863 64.0652C134.863 64.0652 132.683 70.7795 134.108 74.1366C135.534 77.4938 137.798 85.8866 137.798 85.8866H128.91C128.91 85.8866 123.711 75.8152 125.975 64.0652H134.863Z" fill="url(#paint30_linear)"/>
<path d="M121.03 87.5652L108.033 65.7437H100.068H92.1026L79.1064 87.5652H89.0841L94.1064 82.4403L100.068 87.5652L105.606 82.4403L111.052 87.5652H121.03Z" fill="url(#paint31_linear)"/>
<path d="M66.5274 68.2616C63.1735 68.2616 59.8197 64.0652 59.8197 64.0652C59.8197 64.0652 58.9812 76.6545 66.5274 76.6545C68.8751 76.6545 70.7197 74.808 70.7197 72.458C70.7197 70.108 68.8751 68.2616 66.5274 68.2616Z" fill="url(#paint32_linear)"/>
<path d="M100.066 70.7795L97.5508 74.1367L100.066 77.4938L102.582 74.1367L100.066 70.7795Z" fill="url(#paint33_linear)"/>
<path d="M119.518 85.0473H110.128L105.935 77.4937L100.066 86.7259L94.1968 77.4937L90.0045 85.0473H80.6137L79.1045 87.5652L82.9614 90.083H90.8429L94.1968 85.8866L100.066 92.6009L105.935 85.8866L109.289 90.083H117.171L121.028 87.5652L119.518 85.0473Z" fill="url(#paint34_linear)"/>
<path d="M134.01 68.681C137.363 68.681 140.717 64.4846 140.717 64.4846C140.717 64.4846 141.556 77.0739 134.01 77.0739C131.662 77.0739 129.817 75.2274 129.817 72.8774C129.817 70.5274 131.662 68.681 134.01 68.681Z" fill="url(#paint35_linear)"/>
<defs>
<linearGradient id="paint0_linear" x1="62.5996" y1="66.4607" x2="141.747" y2="141.275" gradientUnits="userSpaceOnUse">
<stop stop-color="#D88B56"/>
<stop offset="0.9735" stop-color="#B78037"/>
</linearGradient>
<linearGradient id="paint1_linear" x1="100.067" y1="115.881" x2="100.067" y2="132.445" gradientUnits="userSpaceOnUse">
<stop stop-color="#A34F31"/>
<stop offset="0.9735" stop-color="#8E3D1A"/>
</linearGradient>
<linearGradient id="paint2_linear" x1="100.067" y1="73.2903" x2="100.067" y2="184.644" gradientUnits="userSpaceOnUse">
<stop stop-color="#FBB75D"/>
<stop offset="1" stop-color="#FCA845"/>
</linearGradient>
<linearGradient id="paint3_linear" x1="82.4589" y1="85.1922" x2="82.4589" y2="118.213" gradientUnits="userSpaceOnUse">
<stop offset="0.037" stop-color="#B3561B"/>
<stop offset="0.8519" stop-color="#D7773B"/>
</linearGradient>
<linearGradient id="paint4_linear" x1="117.674" y1="85.1922" x2="117.674" y2="118.213" gradientUnits="userSpaceOnUse">
<stop offset="0.037" stop-color="#B3561B"/>
<stop offset="0.8519" stop-color="#D7773B"/>
</linearGradient>
<linearGradient id="paint5_linear" x1="100.067" y1="70.8767" x2="100.067" y2="86.8979" gradientUnits="userSpaceOnUse">
<stop stop-color="#A34F31"/>
<stop offset="0.9735" stop-color="#8E3D1A"/>
</linearGradient>
<linearGradient id="paint6_linear" x1="100.068" y1="108.781" x2="100.068" y2="49.4924" gradientUnits="userSpaceOnUse">
<stop stop-color="#E8D0C6"/>
<stop offset="0.9065" stop-color="#F5EBDE"/>
</linearGradient>
<linearGradient id="paint7_linear" x1="88.3282" y1="129.344" x2="88.3282" y2="100.782" gradientUnits="userSpaceOnUse">
<stop offset="0.037" stop-color="#B3561B"/>
<stop offset="0.8519" stop-color="#D7773B"/>
</linearGradient>
<linearGradient id="paint8_linear" x1="88.3283" y1="116.171" x2="88.3283" y2="123.317" gradientUnits="userSpaceOnUse">
<stop stop-color="#FBB75D"/>
<stop offset="1" stop-color="#FCA845"/>
</linearGradient>
<linearGradient id="paint9_linear" x1="111.805" y1="129.344" x2="111.805" y2="100.782" gradientUnits="userSpaceOnUse">
<stop offset="0.037" stop-color="#B3561B"/>
<stop offset="0.8519" stop-color="#D7773B"/>
</linearGradient>
<linearGradient id="paint10_linear" x1="111.805" y1="116.171" x2="111.805" y2="123.317" gradientUnits="userSpaceOnUse">
<stop stop-color="#FBB75D"/>
<stop offset="1" stop-color="#FCA845"/>
</linearGradient>
<linearGradient id="paint11_linear" x1="61.9167" y1="139.836" x2="61.9167" y2="67.233" gradientUnits="userSpaceOnUse">
<stop offset="0.037" stop-color="#B3561B"/>
<stop offset="0.8519" stop-color="#D7773B"/>
</linearGradient>
<linearGradient id="paint12_linear" x1="71.5595" y1="115.329" x2="71.5595" y2="147.687" gradientUnits="userSpaceOnUse">
<stop stop-color="#A34F31"/>
<stop offset="0.9735" stop-color="#8E3D1A"/>
</linearGradient>
<linearGradient id="paint13_linear" x1="138.217" y1="139.836" x2="138.217" y2="67.233" gradientUnits="userSpaceOnUse">
<stop offset="0.037" stop-color="#B3561B"/>
<stop offset="0.8519" stop-color="#D7773B"/>
</linearGradient>
<linearGradient id="paint14_linear" x1="148.279" y1="77.1637" x2="148.279" y2="107.473" gradientUnits="userSpaceOnUse">
<stop stop-color="#A34F31"/>
<stop offset="0.9735" stop-color="#8E3D1A"/>
</linearGradient>
<linearGradient id="paint15_linear" x1="51.8552" y1="77.1637" x2="51.8552" y2="107.473" gradientUnits="userSpaceOnUse">
<stop stop-color="#A34F31"/>
<stop offset="0.9735" stop-color="#8E3D1A"/>
</linearGradient>
<linearGradient id="paint16_linear" x1="128.574" y1="115.329" x2="128.574" y2="147.687" gradientUnits="userSpaceOnUse">
<stop stop-color="#A34F31"/>
<stop offset="0.9735" stop-color="#8E3D1A"/>
</linearGradient>
<linearGradient id="paint17_linear" x1="59.5657" y1="102.233" x2="59.5657" y2="142.333" gradientUnits="userSpaceOnUse">
<stop stop-color="#A34F31"/>
<stop offset="0.9735" stop-color="#8E3D1A"/>
</linearGradient>
<linearGradient id="paint18_linear" x1="65.2235" y1="83.1504" x2="65.2235" y2="113.727" gradientUnits="userSpaceOnUse">
<stop stop-color="#A34F31"/>
<stop offset="0.9735" stop-color="#8E3D1A"/>
</linearGradient>
<linearGradient id="paint19_linear" x1="140.568" y1="102.233" x2="140.568" y2="142.333" gradientUnits="userSpaceOnUse">
<stop stop-color="#A34F31"/>
<stop offset="0.9735" stop-color="#8E3D1A"/>
</linearGradient>
<linearGradient id="paint20_linear" x1="134.91" y1="92.1892" x2="134.91" y2="111.536" gradientUnits="userSpaceOnUse">
<stop stop-color="#A34F31"/>
<stop offset="0.9735" stop-color="#8E3D1A"/>
</linearGradient>
<linearGradient id="paint21_linear" x1="69.0441" y1="103.665" x2="69.0441" y2="94.2219" gradientUnits="userSpaceOnUse">
<stop stop-color="#E8D0C6"/>
<stop offset="0.9065" stop-color="#F5EBDE"/>
</linearGradient>
<linearGradient id="paint22_linear" x1="54.7897" y1="123.934" x2="54.7897" y2="103.885" gradientUnits="userSpaceOnUse">
<stop stop-color="#E8D0C6"/>
<stop offset="0.9065" stop-color="#F5EBDE"/>
</linearGradient>
<linearGradient id="paint23_linear" x1="131.09" y1="103.665" x2="131.09" y2="94.2219" gradientUnits="userSpaceOnUse">
<stop stop-color="#E8D0C6"/>
<stop offset="0.9065" stop-color="#F5EBDE"/>
</linearGradient>
<linearGradient id="paint24_linear" x1="145.344" y1="123.934" x2="145.344" y2="103.885" gradientUnits="userSpaceOnUse">
<stop stop-color="#E8D0C6"/>
<stop offset="0.9065" stop-color="#F5EBDE"/>
</linearGradient>
<linearGradient id="paint25_linear" x1="100.066" y1="141.039" x2="100.066" y2="140.908" gradientUnits="userSpaceOnUse">
<stop stop-color="#A34F31"/>
<stop offset="0.9735" stop-color="#8E3D1A"/>
</linearGradient>
<linearGradient id="paint26_linear" x1="100.066" y1="101.975" x2="100.066" y2="114.53" gradientUnits="userSpaceOnUse">
<stop stop-color="#A34F31"/>
<stop offset="0.9735" stop-color="#8E3D1A"/>
</linearGradient>
<linearGradient id="paint27_linear" x1="100.066" y1="68.4461" x2="100.066" y2="94.276" gradientUnits="userSpaceOnUse">
<stop stop-color="#FBB75D"/>
<stop offset="1" stop-color="#FCA845"/>
</linearGradient>
<linearGradient id="paint28_linear" x1="100.066" y1="48.2547" x2="100.066" y2="68.0104" gradientUnits="userSpaceOnUse">
<stop stop-color="#FBB75D"/>
<stop offset="1" stop-color="#FCA845"/>
</linearGradient>
<linearGradient id="paint29_linear" x1="68.5176" y1="87.9115" x2="68.5176" y2="57.7828" gradientUnits="userSpaceOnUse">
<stop offset="0.037" stop-color="#B3561B"/>
<stop offset="0.8519" stop-color="#D7773B"/>
</linearGradient>
<linearGradient id="paint30_linear" x1="131.615" y1="87.9115" x2="131.615" y2="57.7828" gradientUnits="userSpaceOnUse">
<stop offset="0.037" stop-color="#B3561B"/>
<stop offset="0.8519" stop-color="#D7773B"/>
</linearGradient>
<linearGradient id="paint31_linear" x1="100.068" y1="107.263" x2="100.068" y2="47.9747" gradientUnits="userSpaceOnUse">
<stop stop-color="#E8D0C6"/>
<stop offset="0.9065" stop-color="#F5EBDE"/>
</linearGradient>
<linearGradient id="paint32_linear" x1="65.2559" y1="77.7039" x2="65.2559" y2="60.5964" gradientUnits="userSpaceOnUse">
<stop stop-color="#E8D0C6"/>
<stop offset="0.9065" stop-color="#F5EBDE"/>
</linearGradient>
<linearGradient id="paint33_linear" x1="100.066" y1="70.48" x2="100.066" y2="78.6199" gradientUnits="userSpaceOnUse">
<stop stop-color="#D43D43"/>
<stop offset="1" stop-color="#C43B2C"/>
</linearGradient>
<linearGradient id="paint34_linear" x1="100.066" y1="97.9346" x2="100.066" y2="71.4568" gradientUnits="userSpaceOnUse">
<stop offset="0.037" stop-color="#B3561B"/>
<stop offset="0.8519" stop-color="#D7773B"/>
</linearGradient>
<linearGradient id="paint35_linear" x1="135.281" y1="78.1233" x2="135.281" y2="61.0158" gradientUnits="userSpaceOnUse">
<stop stop-color="#E8D0C6"/>
<stop offset="0.9065" stop-color="#F5EBDE"/>
</linearGradient>
</defs>
</svg>
